M48
; DRILL file {KiCad 9.0.0} date 2025-03-10T21:20:53+0100
; FORMAT={-:-/ absolute / metric / decimal}
; #@! TF.CreationDate,2025-03-10T21:20:53+01:00
; #@! TF.GenerationSoftware,Kicad,Pcbnew,9.0.0
; #@! TF.FileFunction,Plated,1,4,PTH
FMAT,2
METRIC
; #@! TA.AperFunction,Plated,PTH,ComponentDrill
T1C1.000
; #@! TA.AperFunction,Plated,PTH,ComponentDrill
T2C1.500
%
G90
G05
T1
X150.19Y-118.35
X150.19Y-120.95
X151.22Y-103.61
X151.22Y-106.21
X153.71Y-83.39
X153.72Y-86.0
X153.84Y-118.36
X153.84Y-120.96
X154.76Y-101.01
X154.77Y-98.41
X154.91Y-103.61
X154.91Y-106.21
X157.41Y-83.4
X157.42Y-86.01
X157.47Y-118.33
X157.49Y-120.95
X158.46Y-98.4
X158.46Y-101.01
X158.6Y-103.61
X158.6Y-106.21
X161.1Y-83.4
X161.1Y-86.0
X161.21Y-118.34
X161.21Y-120.94
X162.14Y-98.44
X162.14Y-101.04
X162.28Y-103.64
X162.28Y-106.24
X164.86Y-118.3
X164.86Y-120.91
X165.96Y-103.62
X165.96Y-106.22
X166.94Y-98.41
X166.95Y-101.01
X168.55Y-118.34
X168.55Y-120.94
X169.64Y-103.63
X169.64Y-106.24
X170.77Y-98.4
X170.77Y-101.0
X172.23Y-118.34
X172.23Y-120.94
X173.26Y-106.21
X173.27Y-103.61
X174.03Y-98.4
X174.03Y-101.01
X175.8Y-118.29
X175.8Y-120.9
X176.63Y-98.41
X176.63Y-101.02
X176.95Y-84.35
X176.95Y-103.62
X176.95Y-106.23
X179.23Y-98.42
X179.23Y-101.02
X179.48Y-118.34
X179.48Y-120.94
X180.45Y-84.3
X180.64Y-103.62
X180.64Y-106.23
X181.83Y-98.42
X181.83Y-101.02
X184.43Y-98.42
X184.43Y-101.02
T2
X168.05Y-84.2
X172.7Y-84.3
M30
