%TF.GenerationSoftware,KiCad,Pcbnew,9.0.0*%
%TF.CreationDate,2025-03-10T21:20:54+01:00*%
%TF.ProjectId,connecteur,636f6e6e-6563-4746-9575-722e6b696361,rev?*%
%TF.SameCoordinates,Original*%
%TF.FileFunction,Copper,L3,Inr*%
%TF.FilePolarity,Positive*%
%FSLAX46Y46*%
G04 Gerber Fmt 4.6, Leading zero omitted, Abs format (unit mm)*
G04 Created by KiCad (PCBNEW 9.0.0) date 2025-03-10 21:20:54*
%MOMM*%
%LPD*%
G01*
G04 APERTURE LIST*
%TA.AperFunction,ComponentPad*%
%ADD10C,1.600000*%
%TD*%
%TA.AperFunction,ComponentPad*%
%ADD11C,2.300000*%
%TD*%
%TA.AperFunction,Conductor*%
%ADD12C,0.500000*%
%TD*%
G04 APERTURE END LIST*
D10*
%TO.N,ENC2_S2*%
%TO.C,J8*%
X176950000Y-103620000D03*
%TD*%
%TO.N,M4_2*%
%TO.C,J25*%
X169640000Y-103630000D03*
%TD*%
%TO.N,GND*%
%TO.C,J74*%
X176630000Y-101020000D03*
%TD*%
%TO.N,ENC1_S2*%
%TO.C,J3*%
X175800000Y-118290000D03*
%TD*%
%TO.N,M2_2*%
%TO.C,J9*%
X180640000Y-103620000D03*
%TD*%
%TO.N,ENC5_S2*%
%TO.C,J36*%
X157420000Y-86010000D03*
%TD*%
%TO.N,M6_2*%
%TO.C,J49*%
X154770000Y-98410000D03*
%TD*%
%TO.N,M1_1*%
%TO.C,J1*%
X179480000Y-120940000D03*
%TD*%
%TO.N,GND*%
%TO.C,J7*%
X184430000Y-101020000D03*
%TD*%
D11*
%TO.N,/+12V*%
%TO.C,J27*%
X168050000Y-84200000D03*
%TD*%
D10*
%TO.N,/MOSI_CON*%
%TO.C,J41*%
X170770000Y-98400000D03*
%TD*%
%TO.N,GND*%
%TO.C,J34*%
X174030000Y-101010000D03*
%TD*%
%TO.N,GND*%
%TO.C,J73*%
X154760000Y-101010000D03*
%TD*%
%TO.N,M8_1*%
%TO.C,J68*%
X151220000Y-106210000D03*
%TD*%
%TO.N,M3_2*%
%TO.C,J17*%
X161210000Y-118340000D03*
%TD*%
D11*
%TO.N,GND*%
%TO.C,J50*%
X172700000Y-84300000D03*
%TD*%
D10*
%TO.N,+5V*%
%TO.C,J23*%
X176950000Y-84350000D03*
%TD*%
%TO.N,M5_1*%
%TO.C,J40*%
X153710000Y-83390000D03*
%TD*%
%TO.N,GND*%
%TO.C,J65*%
X179230000Y-101020000D03*
%TD*%
%TO.N,+5V*%
%TO.C,J63*%
X151220000Y-103610000D03*
%TD*%
%TO.N,/MISO_CON*%
%TO.C,J42*%
X170770000Y-101000000D03*
%TD*%
%TO.N,GND*%
%TO.C,J76*%
X181830000Y-101020000D03*
%TD*%
%TO.N,ENC8_S1*%
%TO.C,J69*%
X154910000Y-106210000D03*
%TD*%
%TO.N,FSR2*%
%TO.C,J46*%
X176630000Y-98410000D03*
%TD*%
%TO.N,M1_2*%
%TO.C,J5*%
X172230000Y-118340000D03*
%TD*%
%TO.N,+5V*%
%TO.C,J14*%
X161100000Y-83400000D03*
%TD*%
%TO.N,GND*%
%TO.C,J60*%
X168550000Y-118340000D03*
%TD*%
%TO.N,+5V*%
%TO.C,J6*%
X162280000Y-103640000D03*
%TD*%
%TO.N,M6_1*%
%TO.C,J51*%
X162140000Y-101040000D03*
%TD*%
%TO.N,GND*%
%TO.C,J77*%
X180450000Y-84300000D03*
%TD*%
%TO.N,FSR5*%
%TO.C,J75*%
X184430000Y-98420000D03*
%TD*%
%TO.N,GND*%
%TO.C,J2*%
X169640000Y-106240000D03*
%TD*%
%TO.N,+5V*%
%TO.C,J53*%
X162140000Y-98440000D03*
%TD*%
%TO.N,ENC7_S2*%
%TO.C,J58*%
X153840000Y-118360000D03*
%TD*%
%TO.N,GND*%
%TO.C,J47*%
X157470000Y-118330000D03*
%TD*%
%TO.N,ENC4_S1*%
%TO.C,J29*%
X165960000Y-106220000D03*
%TD*%
%TO.N,ENC2_S1*%
%TO.C,J12*%
X176950000Y-106230000D03*
%TD*%
%TO.N,/NSS_CON*%
%TO.C,J38*%
X166950000Y-101010000D03*
%TD*%
%TO.N,M5_2*%
%TO.C,J39*%
X161100000Y-86000000D03*
%TD*%
%TO.N,M7_2*%
%TO.C,J59*%
X150190000Y-118350000D03*
%TD*%
%TO.N,ENC6_S1*%
%TO.C,J52*%
X158460000Y-101010000D03*
%TD*%
%TO.N,/SCK_CON*%
%TO.C,J37*%
X166940000Y-98410000D03*
%TD*%
%TO.N,ENC6_S2*%
%TO.C,J48*%
X158460000Y-98400000D03*
%TD*%
%TO.N,ENC5_S1*%
%TO.C,J43*%
X157410000Y-83400000D03*
%TD*%
%TO.N,GND*%
%TO.C,J21*%
X179480000Y-118340000D03*
%TD*%
%TO.N,FSR3*%
%TO.C,J55*%
X179230000Y-98420000D03*
%TD*%
%TO.N,M7_1*%
%TO.C,J61*%
X157490000Y-120950000D03*
%TD*%
%TO.N,ENC4_S2*%
%TO.C,J22*%
X165960000Y-103620000D03*
%TD*%
%TO.N,+5V*%
%TO.C,J44*%
X150190000Y-120950000D03*
%TD*%
%TO.N,M3_1*%
%TO.C,J18*%
X168550000Y-120940000D03*
%TD*%
%TO.N,+5V*%
%TO.C,J30*%
X161210000Y-120940000D03*
%TD*%
%TO.N,GND*%
%TO.C,J45*%
X180640000Y-106230000D03*
%TD*%
%TO.N,GND*%
%TO.C,J56*%
X158600000Y-106210000D03*
%TD*%
%TO.N,FSR1*%
%TO.C,J72*%
X174030000Y-98400000D03*
%TD*%
%TO.N,+5V*%
%TO.C,J70*%
X172230000Y-120940000D03*
%TD*%
%TO.N,GND*%
%TO.C,J15*%
X153720000Y-86000000D03*
%TD*%
%TO.N,ENC8_S2*%
%TO.C,J66*%
X154910000Y-103610000D03*
%TD*%
%TO.N,ENC7_S1*%
%TO.C,J62*%
X153840000Y-120960000D03*
%TD*%
%TO.N,ENC3_S1*%
%TO.C,J19*%
X164860000Y-120910000D03*
%TD*%
%TO.N,ENC1_S1*%
%TO.C,J4*%
X175800000Y-120900000D03*
%TD*%
%TO.N,M2_1*%
%TO.C,J11*%
X173260000Y-106210000D03*
%TD*%
%TO.N,ENC3_S2*%
%TO.C,J16*%
X164860000Y-118300000D03*
%TD*%
%TO.N,M4_1*%
%TO.C,J26*%
X162280000Y-106240000D03*
%TD*%
%TO.N,FSR4*%
%TO.C,J64*%
X181830000Y-98420000D03*
%TD*%
%TO.N,M8_2*%
%TO.C,J67*%
X158600000Y-103610000D03*
%TD*%
%TO.N,+5V*%
%TO.C,J20*%
X173270000Y-103610000D03*
%TD*%
D12*
%TO.N,GND*%
X172725000Y-84375000D02*
X174175000Y-85825000D01*
X174225000Y-82925000D02*
X172775000Y-84375000D01*
X172700000Y-84300000D02*
X171250000Y-85750000D01*
X171275000Y-82825000D02*
X172725000Y-84275000D01*
%TD*%
%TA.AperFunction,Conductor*%
%TO.N,+5V*%
G36*
X187077826Y-79862174D02*
G01*
X187099500Y-79914500D01*
X187099500Y-123765500D01*
X187077826Y-123817826D01*
X187025500Y-123839500D01*
X147374500Y-123839500D01*
X147322174Y-123817826D01*
X147300500Y-123765500D01*
X147300500Y-120851509D01*
X149190000Y-120851509D01*
X149190000Y-121048490D01*
X149228427Y-121241682D01*
X149228430Y-121241693D01*
X149303808Y-121423673D01*
X149412394Y-121586183D01*
X149772210Y-121226366D01*
X149789901Y-121257007D01*
X149882993Y-121350099D01*
X149913631Y-121367788D01*
X149553815Y-121727604D01*
X149553815Y-121727605D01*
X149716324Y-121836190D01*
X149898306Y-121911569D01*
X149898317Y-121911572D01*
X150091510Y-121950000D01*
X150288490Y-121950000D01*
X150481682Y-121911572D01*
X150481693Y-121911569D01*
X150663675Y-121836190D01*
X150826183Y-121727605D01*
X150826183Y-121727604D01*
X150466367Y-121367788D01*
X150497007Y-121350099D01*
X150590099Y-121257007D01*
X150607788Y-121226367D01*
X150967604Y-121586183D01*
X150967605Y-121586183D01*
X151076190Y-121423675D01*
X151151569Y-121241693D01*
X151151572Y-121241682D01*
X151190000Y-121048490D01*
X151190000Y-120861459D01*
X152839500Y-120861459D01*
X152839500Y-121058541D01*
X152852200Y-121122388D01*
X152877947Y-121251829D01*
X152877950Y-121251839D01*
X152953367Y-121433913D01*
X153062860Y-121597781D01*
X153202218Y-121737139D01*
X153366086Y-121846632D01*
X153499875Y-121902049D01*
X153548165Y-121922051D01*
X153741459Y-121960500D01*
X153741461Y-121960500D01*
X153938539Y-121960500D01*
X153938541Y-121960500D01*
X154131835Y-121922051D01*
X154313914Y-121846632D01*
X154477782Y-121737139D01*
X154617139Y-121597782D01*
X154726632Y-121433914D01*
X154802051Y-121251835D01*
X154840500Y-121058541D01*
X154840500Y-120861459D01*
X154838511Y-120851459D01*
X156489500Y-120851459D01*
X156489500Y-121048541D01*
X156502200Y-121112388D01*
X156527947Y-121241829D01*
X156527950Y-121241839D01*
X156603367Y-121423913D01*
X156712860Y-121587781D01*
X156852218Y-121727139D01*
X157016086Y-121836632D01*
X157197008Y-121911572D01*
X157198165Y-121912051D01*
X157391459Y-121950500D01*
X157391461Y-121950500D01*
X157588539Y-121950500D01*
X157588541Y-121950500D01*
X157781835Y-121912051D01*
X157963914Y-121836632D01*
X158127782Y-121727139D01*
X158267139Y-121587782D01*
X158376632Y-121423914D01*
X158452051Y-121241835D01*
X158490500Y-121048541D01*
X158490500Y-120851459D01*
X158488521Y-120841509D01*
X160210000Y-120841509D01*
X160210000Y-121038490D01*
X160248427Y-121231682D01*
X160248430Y-121231693D01*
X160323808Y-121413673D01*
X160432394Y-121576183D01*
X160792210Y-121216366D01*
X160809901Y-121247007D01*
X160902993Y-121340099D01*
X160933631Y-121357788D01*
X160573815Y-121717604D01*
X160573815Y-121717605D01*
X160736324Y-121826190D01*
X160918306Y-121901569D01*
X160918317Y-121901572D01*
X161111510Y-121940000D01*
X161308490Y-121940000D01*
X161501682Y-121901572D01*
X161501693Y-121901569D01*
X161683675Y-121826190D01*
X161846183Y-121717605D01*
X161846183Y-121717604D01*
X161486367Y-121357788D01*
X161517007Y-121340099D01*
X161610099Y-121247007D01*
X161627788Y-121216367D01*
X161987604Y-121576183D01*
X161987605Y-121576183D01*
X162096190Y-121413675D01*
X162171569Y-121231693D01*
X162171572Y-121231682D01*
X162210000Y-121038490D01*
X162210000Y-120841510D01*
X162206171Y-120822261D01*
X162206171Y-120822260D01*
X162204023Y-120811459D01*
X163859500Y-120811459D01*
X163859500Y-121008541D01*
X163867456Y-121048539D01*
X163897947Y-121201829D01*
X163897950Y-121201839D01*
X163973367Y-121383913D01*
X164076179Y-121537781D01*
X164082861Y-121547782D01*
X164222218Y-121687139D01*
X164386086Y-121796632D01*
X164568165Y-121872051D01*
X164761459Y-121910500D01*
X164761461Y-121910500D01*
X164958539Y-121910500D01*
X164958541Y-121910500D01*
X165151835Y-121872051D01*
X165333914Y-121796632D01*
X165497782Y-121687139D01*
X165637139Y-121547782D01*
X165746632Y-121383914D01*
X165822051Y-121201835D01*
X165860500Y-121008541D01*
X165860500Y-120841459D01*
X167549500Y-120841459D01*
X167549500Y-121038541D01*
X167560019Y-121091421D01*
X167587947Y-121231829D01*
X167587950Y-121231839D01*
X167663367Y-121413913D01*
X167772860Y-121577781D01*
X167912218Y-121717139D01*
X168076086Y-121826632D01*
X168257008Y-121901572D01*
X168258165Y-121902051D01*
X168451459Y-121940500D01*
X168451461Y-121940500D01*
X168648539Y-121940500D01*
X168648541Y-121940500D01*
X168841835Y-121902051D01*
X169023914Y-121826632D01*
X169187782Y-121717139D01*
X169327139Y-121577782D01*
X169436632Y-121413914D01*
X169512051Y-121231835D01*
X169550500Y-121038541D01*
X169550500Y-120841509D01*
X171230000Y-120841509D01*
X171230000Y-121038490D01*
X171268427Y-121231682D01*
X171268430Y-121231693D01*
X171343808Y-121413673D01*
X171452394Y-121576183D01*
X171812210Y-121216366D01*
X171829901Y-121247007D01*
X171922993Y-121340099D01*
X171953631Y-121357788D01*
X171593815Y-121717604D01*
X171593815Y-121717605D01*
X171756324Y-121826190D01*
X171938306Y-121901569D01*
X171938317Y-121901572D01*
X172131510Y-121940000D01*
X172328490Y-121940000D01*
X172521682Y-121901572D01*
X172521693Y-121901569D01*
X172703675Y-121826190D01*
X172866183Y-121717605D01*
X172866183Y-121717604D01*
X172506367Y-121357788D01*
X172537007Y-121340099D01*
X172630099Y-121247007D01*
X172647788Y-121216367D01*
X173007604Y-121576183D01*
X173007605Y-121576183D01*
X173116190Y-121413675D01*
X173191569Y-121231693D01*
X173191572Y-121231682D01*
X173230000Y-121038490D01*
X173230000Y-120841509D01*
X173224182Y-120812260D01*
X173222034Y-120801459D01*
X174799500Y-120801459D01*
X174799500Y-120998541D01*
X174811435Y-121058541D01*
X174837947Y-121191829D01*
X174837950Y-121191839D01*
X174913367Y-121373913D01*
X175022860Y-121537781D01*
X175162218Y-121677139D01*
X175326086Y-121786632D01*
X175445730Y-121836190D01*
X175508165Y-121862051D01*
X175701459Y-121900500D01*
X175701461Y-121900500D01*
X175898539Y-121900500D01*
X175898541Y-121900500D01*
X176091835Y-121862051D01*
X176273914Y-121786632D01*
X176437782Y-121677139D01*
X176577139Y-121537782D01*
X176686632Y-121373914D01*
X176762051Y-121191835D01*
X176800500Y-120998541D01*
X176800500Y-120841459D01*
X178479500Y-120841459D01*
X178479500Y-121038541D01*
X178490019Y-121091421D01*
X178517947Y-121231829D01*
X178517950Y-121231839D01*
X178593367Y-121413913D01*
X178702860Y-121577781D01*
X178842218Y-121717139D01*
X179006086Y-121826632D01*
X179187008Y-121901572D01*
X179188165Y-121902051D01*
X179381459Y-121940500D01*
X179381461Y-121940500D01*
X179578539Y-121940500D01*
X179578541Y-121940500D01*
X179771835Y-121902051D01*
X179953914Y-121826632D01*
X180117782Y-121717139D01*
X180257139Y-121577782D01*
X180366632Y-121413914D01*
X180423075Y-121277646D01*
X183349500Y-121277646D01*
X183349500Y-121482353D01*
X183381522Y-121684531D01*
X183381525Y-121684544D01*
X183444777Y-121879213D01*
X183537712Y-122061610D01*
X183611406Y-122163040D01*
X183658034Y-122227219D01*
X183802781Y-122371966D01*
X183894695Y-122438745D01*
X183968389Y-122492287D01*
X184056300Y-122537079D01*
X184150781Y-122585220D01*
X184150783Y-122585220D01*
X184150786Y-122585222D01*
X184345455Y-122648474D01*
X184345461Y-122648475D01*
X184345466Y-122648477D01*
X184446557Y-122664488D01*
X184547646Y-122680500D01*
X184547648Y-122680500D01*
X184752354Y-122680500D01*
X184833224Y-122667690D01*
X184954534Y-122648477D01*
X184954541Y-122648474D01*
X184954544Y-122648474D01*
X185149213Y-122585222D01*
X185149213Y-122585221D01*
X185149219Y-122585220D01*
X185331610Y-122492287D01*
X185497219Y-122371966D01*
X185641966Y-122227219D01*
X185762287Y-122061610D01*
X185855220Y-121879219D01*
X185901385Y-121737138D01*
X185918474Y-121684544D01*
X185918474Y-121684541D01*
X185918477Y-121684534D01*
X185950500Y-121482352D01*
X185950500Y-121277648D01*
X185944828Y-121241839D01*
X185929172Y-121142993D01*
X185918477Y-121075466D01*
X185918475Y-121075461D01*
X185918474Y-121075455D01*
X185855222Y-120880786D01*
X185855220Y-120880783D01*
X185855220Y-120880781D01*
X185787059Y-120747007D01*
X185762287Y-120698389D01*
X185696735Y-120608165D01*
X185641966Y-120532781D01*
X185497219Y-120388034D01*
X185433040Y-120341406D01*
X185331610Y-120267712D01*
X185149213Y-120174777D01*
X184954544Y-120111525D01*
X184954531Y-120111522D01*
X184752354Y-120079500D01*
X184752352Y-120079500D01*
X184547648Y-120079500D01*
X184547646Y-120079500D01*
X184345468Y-120111522D01*
X184345455Y-120111525D01*
X184150786Y-120174777D01*
X183968389Y-120267712D01*
X183802785Y-120388031D01*
X183802781Y-120388034D01*
X183658034Y-120532781D01*
X183658031Y-120532784D01*
X183658031Y-120532785D01*
X183537712Y-120698389D01*
X183444777Y-120880786D01*
X183381525Y-121075455D01*
X183381522Y-121075468D01*
X183349500Y-121277646D01*
X180423075Y-121277646D01*
X180424096Y-121275182D01*
X180436009Y-121246422D01*
X180442049Y-121231839D01*
X180442051Y-121231835D01*
X180480500Y-121038541D01*
X180480500Y-120841459D01*
X180442051Y-120648165D01*
X180366632Y-120466086D01*
X180257139Y-120302218D01*
X180117782Y-120162861D01*
X180117084Y-120162394D01*
X179953913Y-120053367D01*
X179771839Y-119977950D01*
X179771829Y-119977947D01*
X179631327Y-119950000D01*
X179578541Y-119939500D01*
X179381459Y-119939500D01*
X179331186Y-119949500D01*
X179188170Y-119977947D01*
X179188160Y-119977950D01*
X179006086Y-120053367D01*
X178842218Y-120162860D01*
X178842217Y-120162862D01*
X178702862Y-120302217D01*
X178702860Y-120302218D01*
X178593367Y-120466086D01*
X178517950Y-120648160D01*
X178517947Y-120648170D01*
X178488030Y-120798578D01*
X178479500Y-120841459D01*
X176800500Y-120841459D01*
X176800500Y-120801459D01*
X176762051Y-120608165D01*
X176686632Y-120426086D01*
X176577139Y-120262218D01*
X176437782Y-120122861D01*
X176420817Y-120111525D01*
X176273913Y-120013367D01*
X176091839Y-119937950D01*
X176091829Y-119937947D01*
X175962388Y-119912200D01*
X175898541Y-119899500D01*
X175701459Y-119899500D01*
X175651186Y-119909500D01*
X175508170Y-119937947D01*
X175508160Y-119937950D01*
X175326086Y-120013367D01*
X175162218Y-120122860D01*
X175162217Y-120122862D01*
X175022862Y-120262217D01*
X175022860Y-120262218D01*
X174913367Y-120426086D01*
X174837950Y-120608160D01*
X174837947Y-120608170D01*
X174810331Y-120747007D01*
X174799500Y-120801459D01*
X173222034Y-120801459D01*
X173191572Y-120648317D01*
X173191569Y-120648306D01*
X173116190Y-120466324D01*
X173007604Y-120303815D01*
X172647788Y-120663631D01*
X172630099Y-120632993D01*
X172537007Y-120539901D01*
X172506366Y-120522210D01*
X172866183Y-120162394D01*
X172703672Y-120053808D01*
X172703673Y-120053808D01*
X172521693Y-119978430D01*
X172521682Y-119978427D01*
X172328490Y-119940000D01*
X172131510Y-119940000D01*
X171938317Y-119978427D01*
X171938306Y-119978430D01*
X171756322Y-120053810D01*
X171593815Y-120162394D01*
X171953632Y-120522211D01*
X171922993Y-120539901D01*
X171829901Y-120632993D01*
X171812211Y-120663632D01*
X171452394Y-120303815D01*
X171343810Y-120466322D01*
X171268430Y-120648306D01*
X171268427Y-120648317D01*
X171230000Y-120841509D01*
X169550500Y-120841509D01*
X169550500Y-120841459D01*
X169512051Y-120648165D01*
X169436632Y-120466086D01*
X169327139Y-120302218D01*
X169187782Y-120162861D01*
X169187084Y-120162394D01*
X169023913Y-120053367D01*
X168841839Y-119977950D01*
X168841829Y-119977947D01*
X168701327Y-119950000D01*
X168648541Y-119939500D01*
X168451459Y-119939500D01*
X168401186Y-119949500D01*
X168258170Y-119977947D01*
X168258160Y-119977950D01*
X168076086Y-120053367D01*
X167912218Y-120162860D01*
X167912217Y-120162862D01*
X167772862Y-120302217D01*
X167772860Y-120302218D01*
X167663367Y-120466086D01*
X167587950Y-120648160D01*
X167587947Y-120648170D01*
X167558030Y-120798578D01*
X167549500Y-120841459D01*
X165860500Y-120841459D01*
X165860500Y-120811459D01*
X165822051Y-120618165D01*
X165746632Y-120436086D01*
X165637139Y-120272218D01*
X165497782Y-120132861D01*
X165482818Y-120122862D01*
X165333913Y-120023367D01*
X165151839Y-119947950D01*
X165151829Y-119947947D01*
X165022388Y-119922200D01*
X164958541Y-119909500D01*
X164761459Y-119909500D01*
X164706662Y-119920399D01*
X164568170Y-119947947D01*
X164568160Y-119947950D01*
X164386086Y-120023367D01*
X164222218Y-120132860D01*
X164222217Y-120132862D01*
X164082862Y-120272217D01*
X164082860Y-120272218D01*
X163973367Y-120436086D01*
X163897950Y-120618160D01*
X163897947Y-120618170D01*
X163888004Y-120668160D01*
X163859500Y-120811459D01*
X162204023Y-120811459D01*
X162171572Y-120648317D01*
X162171569Y-120648306D01*
X162096190Y-120466324D01*
X161987604Y-120303815D01*
X161627788Y-120663631D01*
X161610099Y-120632993D01*
X161517007Y-120539901D01*
X161486366Y-120522210D01*
X161846183Y-120162394D01*
X161683672Y-120053808D01*
X161683673Y-120053808D01*
X161501693Y-119978430D01*
X161501682Y-119978427D01*
X161308490Y-119940000D01*
X161111510Y-119940000D01*
X160918317Y-119978427D01*
X160918306Y-119978430D01*
X160736322Y-120053810D01*
X160573815Y-120162394D01*
X160933632Y-120522211D01*
X160902993Y-120539901D01*
X160809901Y-120632993D01*
X160792211Y-120663632D01*
X160432394Y-120303815D01*
X160323810Y-120466322D01*
X160248430Y-120648306D01*
X160248427Y-120648317D01*
X160210000Y-120841509D01*
X158488521Y-120841509D01*
X158452051Y-120658165D01*
X158441624Y-120632993D01*
X158376632Y-120476086D01*
X158267139Y-120312218D01*
X158127781Y-120172860D01*
X157963913Y-120063367D01*
X157781839Y-119987950D01*
X157781829Y-119987947D01*
X157652388Y-119962200D01*
X157588541Y-119949500D01*
X157391459Y-119949500D01*
X157341186Y-119959500D01*
X157198170Y-119987947D01*
X157198160Y-119987950D01*
X157016086Y-120063367D01*
X156852218Y-120172860D01*
X156852217Y-120172862D01*
X156712862Y-120312217D01*
X156712860Y-120312218D01*
X156603367Y-120476086D01*
X156527950Y-120658160D01*
X156527947Y-120658170D01*
X156498030Y-120808578D01*
X156489500Y-120851459D01*
X154838511Y-120851459D01*
X154802051Y-120668165D01*
X154791624Y-120642993D01*
X154726632Y-120486086D01*
X154617139Y-120322218D01*
X154477781Y-120182860D01*
X154313913Y-120073367D01*
X154131839Y-119997950D01*
X154131829Y-119997947D01*
X154002388Y-119972200D01*
X153938541Y-119959500D01*
X153741459Y-119959500D01*
X153686662Y-119970399D01*
X153548170Y-119997947D01*
X153548160Y-119997950D01*
X153366086Y-120073367D01*
X153202218Y-120182860D01*
X153202217Y-120182862D01*
X153062862Y-120322217D01*
X153062860Y-120322218D01*
X152953367Y-120486086D01*
X152877950Y-120668160D01*
X152877947Y-120668170D01*
X152849286Y-120812260D01*
X152839500Y-120861459D01*
X151190000Y-120861459D01*
X151190000Y-120851509D01*
X151151572Y-120658317D01*
X151151569Y-120658306D01*
X151076190Y-120476324D01*
X150967604Y-120313815D01*
X150607788Y-120673631D01*
X150590099Y-120642993D01*
X150497007Y-120549901D01*
X150466366Y-120532210D01*
X150826183Y-120172394D01*
X150663672Y-120063808D01*
X150663673Y-120063808D01*
X150481693Y-119988430D01*
X150481682Y-119988427D01*
X150288490Y-119950000D01*
X150091510Y-119950000D01*
X149898317Y-119988427D01*
X149898306Y-119988430D01*
X149716322Y-120063810D01*
X149553815Y-120172394D01*
X149913632Y-120532211D01*
X149882993Y-120549901D01*
X149789901Y-120642993D01*
X149772211Y-120673632D01*
X149412394Y-120313815D01*
X149303810Y-120476322D01*
X149228430Y-120658306D01*
X149228427Y-120658317D01*
X149190000Y-120851509D01*
X147300500Y-120851509D01*
X147300500Y-118251460D01*
X149189500Y-118251460D01*
X149189500Y-118448539D01*
X149227947Y-118641829D01*
X149227950Y-118641839D01*
X149303367Y-118823913D01*
X149412860Y-118987781D01*
X149552218Y-119127139D01*
X149716086Y-119236632D01*
X149849875Y-119292049D01*
X149898165Y-119312051D01*
X150091459Y-119350500D01*
X150091461Y-119350500D01*
X150288539Y-119350500D01*
X150288541Y-119350500D01*
X150481835Y-119312051D01*
X150663914Y-119236632D01*
X150827782Y-119127139D01*
X150967139Y-118987782D01*
X151076632Y-118823914D01*
X151152051Y-118641835D01*
X151190500Y-118448541D01*
X151190500Y-118261460D01*
X152839500Y-118261460D01*
X152839500Y-118458539D01*
X152877947Y-118651829D01*
X152877950Y-118651839D01*
X152953367Y-118833913D01*
X153062860Y-118997781D01*
X153202218Y-119137139D01*
X153366086Y-119246632D01*
X153499875Y-119302049D01*
X153548165Y-119322051D01*
X153741459Y-119360500D01*
X153741461Y-119360500D01*
X153938539Y-119360500D01*
X153938541Y-119360500D01*
X154131835Y-119322051D01*
X154313914Y-119246632D01*
X154477782Y-119137139D01*
X154617139Y-118997782D01*
X154726632Y-118833914D01*
X154802051Y-118651835D01*
X154840500Y-118458541D01*
X154840500Y-118261459D01*
X154834533Y-118231459D01*
X156469500Y-118231459D01*
X156469500Y-118428541D01*
X156482200Y-118492388D01*
X156507947Y-118621829D01*
X156507950Y-118621839D01*
X156583367Y-118803913D01*
X156692860Y-118967781D01*
X156832218Y-119107139D01*
X156996086Y-119216632D01*
X157174420Y-119290500D01*
X157178165Y-119292051D01*
X157371459Y-119330500D01*
X157371461Y-119330500D01*
X157568539Y-119330500D01*
X157568541Y-119330500D01*
X157761835Y-119292051D01*
X157943914Y-119216632D01*
X158107782Y-119107139D01*
X158247139Y-118967782D01*
X158356632Y-118803914D01*
X158432051Y-118621835D01*
X158470500Y-118428541D01*
X158470500Y-118241459D01*
X160209500Y-118241459D01*
X160209500Y-118438541D01*
X160222200Y-118502388D01*
X160247947Y-118631829D01*
X160247950Y-118631839D01*
X160323367Y-118813913D01*
X160432860Y-118977781D01*
X160572218Y-119117139D01*
X160736086Y-119226632D01*
X160914420Y-119300500D01*
X160918165Y-119302051D01*
X161111459Y-119340500D01*
X161111461Y-119340500D01*
X161308539Y-119340500D01*
X161308541Y-119340500D01*
X161501835Y-119302051D01*
X161683914Y-119226632D01*
X161847782Y-119117139D01*
X161987139Y-118977782D01*
X162096632Y-118813914D01*
X162172051Y-118631835D01*
X162210500Y-118438541D01*
X162210500Y-118241459D01*
X162202543Y-118201459D01*
X163859500Y-118201459D01*
X163859500Y-118398541D01*
X163871435Y-118458541D01*
X163897947Y-118591829D01*
X163897950Y-118591839D01*
X163973367Y-118773913D01*
X164076179Y-118927781D01*
X164082861Y-118937782D01*
X164222218Y-119077139D01*
X164386086Y-119186632D01*
X164568165Y-119262051D01*
X164761459Y-119300500D01*
X164761461Y-119300500D01*
X164958539Y-119300500D01*
X164958541Y-119300500D01*
X165151835Y-119262051D01*
X165333914Y-119186632D01*
X165497782Y-119077139D01*
X165637139Y-118937782D01*
X165746632Y-118773914D01*
X165822051Y-118591835D01*
X165860500Y-118398541D01*
X165860500Y-118241459D01*
X167549500Y-118241459D01*
X167549500Y-118438541D01*
X167562200Y-118502388D01*
X167587947Y-118631829D01*
X167587950Y-118631839D01*
X167663367Y-118813913D01*
X167772860Y-118977781D01*
X167912218Y-119117139D01*
X168076086Y-119226632D01*
X168254420Y-119300500D01*
X168258165Y-119302051D01*
X168451459Y-119340500D01*
X168451461Y-119340500D01*
X168648539Y-119340500D01*
X168648541Y-119340500D01*
X168841835Y-119302051D01*
X169023914Y-119226632D01*
X169187782Y-119117139D01*
X169327139Y-118977782D01*
X169436632Y-118813914D01*
X169512051Y-118631835D01*
X169550500Y-118438541D01*
X169550500Y-118241459D01*
X171229500Y-118241459D01*
X171229500Y-118438541D01*
X171242200Y-118502388D01*
X171267947Y-118631829D01*
X171267950Y-118631839D01*
X171343367Y-118813913D01*
X171452860Y-118977781D01*
X171592218Y-119117139D01*
X171756086Y-119226632D01*
X171934420Y-119300500D01*
X171938165Y-119302051D01*
X172131459Y-119340500D01*
X172131461Y-119340500D01*
X172328539Y-119340500D01*
X172328541Y-119340500D01*
X172521835Y-119302051D01*
X172703914Y-119226632D01*
X172867782Y-119117139D01*
X173007139Y-118977782D01*
X173116632Y-118813914D01*
X173192051Y-118631835D01*
X173230500Y-118438541D01*
X173230500Y-118241459D01*
X173222543Y-118201459D01*
X173220554Y-118191459D01*
X174799500Y-118191459D01*
X174799500Y-118388541D01*
X174811435Y-118448541D01*
X174837947Y-118581829D01*
X174837950Y-118581839D01*
X174913367Y-118763913D01*
X174960140Y-118833913D01*
X175022861Y-118927782D01*
X175162218Y-119067139D01*
X175326086Y-119176632D01*
X175508165Y-119252051D01*
X175701459Y-119290500D01*
X175701461Y-119290500D01*
X175898539Y-119290500D01*
X175898541Y-119290500D01*
X176091835Y-119252051D01*
X176273914Y-119176632D01*
X176437782Y-119067139D01*
X176577139Y-118927782D01*
X176686632Y-118763914D01*
X176762051Y-118581835D01*
X176800500Y-118388541D01*
X176800500Y-118241459D01*
X178479500Y-118241459D01*
X178479500Y-118438541D01*
X178492200Y-118502388D01*
X178517947Y-118631829D01*
X178517950Y-118631839D01*
X178593367Y-118813913D01*
X178702860Y-118977781D01*
X178842218Y-119117139D01*
X179006086Y-119226632D01*
X179184420Y-119300500D01*
X179188165Y-119302051D01*
X179381459Y-119340500D01*
X179381461Y-119340500D01*
X179578539Y-119340500D01*
X179578541Y-119340500D01*
X179771835Y-119302051D01*
X179953914Y-119226632D01*
X180117782Y-119117139D01*
X180257139Y-118977782D01*
X180366632Y-118813914D01*
X180442051Y-118631835D01*
X180480500Y-118438541D01*
X180480500Y-118241459D01*
X180442051Y-118048165D01*
X180421340Y-117998165D01*
X180366632Y-117866086D01*
X180257139Y-117702218D01*
X180117781Y-117562860D01*
X179953913Y-117453367D01*
X179771839Y-117377950D01*
X179771829Y-117377947D01*
X179642388Y-117352200D01*
X179578541Y-117339500D01*
X179381459Y-117339500D01*
X179331186Y-117349500D01*
X179188170Y-117377947D01*
X179188160Y-117377950D01*
X179006086Y-117453367D01*
X178842218Y-117562860D01*
X178842217Y-117562862D01*
X178702862Y-117702217D01*
X178702860Y-117702218D01*
X178593367Y-117866086D01*
X178517950Y-118048160D01*
X178517947Y-118048170D01*
X178487457Y-118201459D01*
X178479500Y-118241459D01*
X176800500Y-118241459D01*
X176800500Y-118191459D01*
X176762051Y-117998165D01*
X176686632Y-117816086D01*
X176577139Y-117652218D01*
X176437782Y-117512861D01*
X176378677Y-117473368D01*
X176273913Y-117403367D01*
X176091839Y-117327950D01*
X176091829Y-117327947D01*
X175962388Y-117302200D01*
X175898541Y-117289500D01*
X175701459Y-117289500D01*
X175651186Y-117299500D01*
X175508170Y-117327947D01*
X175508160Y-117327950D01*
X175326086Y-117403367D01*
X175162218Y-117512860D01*
X175162217Y-117512862D01*
X175022862Y-117652217D01*
X175022860Y-117652218D01*
X174913367Y-117816086D01*
X174837950Y-117998160D01*
X174837947Y-117998170D01*
X174805850Y-118159535D01*
X174799500Y-118191459D01*
X173220554Y-118191459D01*
X173192052Y-118048170D01*
X173192051Y-118048169D01*
X173192051Y-118048165D01*
X173171340Y-117998165D01*
X173116632Y-117866086D01*
X173007139Y-117702218D01*
X172867781Y-117562860D01*
X172703913Y-117453367D01*
X172521839Y-117377950D01*
X172521829Y-117377947D01*
X172392388Y-117352200D01*
X172328541Y-117339500D01*
X172131459Y-117339500D01*
X172081186Y-117349500D01*
X171938170Y-117377947D01*
X171938160Y-117377950D01*
X171756086Y-117453367D01*
X171592218Y-117562860D01*
X171592217Y-117562862D01*
X171452862Y-117702217D01*
X171452860Y-117702218D01*
X171343367Y-117866086D01*
X171267950Y-118048160D01*
X171267947Y-118048170D01*
X171237457Y-118201459D01*
X171229500Y-118241459D01*
X169550500Y-118241459D01*
X169512051Y-118048165D01*
X169491340Y-117998165D01*
X169436632Y-117866086D01*
X169327139Y-117702218D01*
X169187781Y-117562860D01*
X169023913Y-117453367D01*
X168841839Y-117377950D01*
X168841829Y-117377947D01*
X168712388Y-117352200D01*
X168648541Y-117339500D01*
X168451459Y-117339500D01*
X168401186Y-117349500D01*
X168258170Y-117377947D01*
X168258160Y-117377950D01*
X168076086Y-117453367D01*
X167912218Y-117562860D01*
X167912217Y-117562862D01*
X167772862Y-117702217D01*
X167772860Y-117702218D01*
X167663367Y-117866086D01*
X167587950Y-118048160D01*
X167587947Y-118048170D01*
X167557457Y-118201459D01*
X167549500Y-118241459D01*
X165860500Y-118241459D01*
X165860500Y-118201459D01*
X165822051Y-118008165D01*
X165746632Y-117826086D01*
X165637139Y-117662218D01*
X165497782Y-117522861D01*
X165482818Y-117512862D01*
X165333913Y-117413367D01*
X165151839Y-117337950D01*
X165151829Y-117337947D01*
X165022388Y-117312200D01*
X164958541Y-117299500D01*
X164761459Y-117299500D01*
X164706662Y-117310399D01*
X164568170Y-117337947D01*
X164568160Y-117337950D01*
X164386086Y-117413367D01*
X164222218Y-117522860D01*
X164222217Y-117522862D01*
X164082862Y-117662217D01*
X164082860Y-117662218D01*
X163973367Y-117826086D01*
X163897950Y-118008160D01*
X163897947Y-118008170D01*
X163865850Y-118169535D01*
X163859500Y-118201459D01*
X162202543Y-118201459D01*
X162172052Y-118048170D01*
X162172051Y-118048169D01*
X162172051Y-118048165D01*
X162151340Y-117998165D01*
X162096632Y-117866086D01*
X161987139Y-117702218D01*
X161847781Y-117562860D01*
X161683913Y-117453367D01*
X161501839Y-117377950D01*
X161501829Y-117377947D01*
X161372388Y-117352200D01*
X161308541Y-117339500D01*
X161111459Y-117339500D01*
X161061186Y-117349500D01*
X160918170Y-117377947D01*
X160918160Y-117377950D01*
X160736086Y-117453367D01*
X160572218Y-117562860D01*
X160572217Y-117562862D01*
X160432862Y-117702217D01*
X160432860Y-117702218D01*
X160323367Y-117866086D01*
X160247950Y-118048160D01*
X160247947Y-118048170D01*
X160217457Y-118201459D01*
X160209500Y-118241459D01*
X158470500Y-118241459D01*
X158470500Y-118231459D01*
X158432051Y-118038165D01*
X158356632Y-117856086D01*
X158247139Y-117692218D01*
X158107782Y-117552861D01*
X158062886Y-117522862D01*
X157943913Y-117443367D01*
X157761839Y-117367950D01*
X157761829Y-117367947D01*
X157632388Y-117342200D01*
X157568541Y-117329500D01*
X157371459Y-117329500D01*
X157321186Y-117339500D01*
X157178170Y-117367947D01*
X157178160Y-117367950D01*
X156996086Y-117443367D01*
X156832218Y-117552860D01*
X156832217Y-117552862D01*
X156692862Y-117692217D01*
X156692860Y-117692218D01*
X156583367Y-117856086D01*
X156507950Y-118038160D01*
X156507947Y-118038170D01*
X156477457Y-118191459D01*
X156469500Y-118231459D01*
X154834533Y-118231459D01*
X154802051Y-118068165D01*
X154726632Y-117886086D01*
X154617139Y-117722218D01*
X154477782Y-117582861D01*
X154462818Y-117572862D01*
X154313913Y-117473367D01*
X154131839Y-117397950D01*
X154131829Y-117397947D01*
X154002388Y-117372200D01*
X153938541Y-117359500D01*
X153741459Y-117359500D01*
X153686662Y-117370399D01*
X153548170Y-117397947D01*
X153548160Y-117397950D01*
X153366086Y-117473367D01*
X153202218Y-117582860D01*
X153202217Y-117582862D01*
X153062862Y-117722217D01*
X153062860Y-117722218D01*
X152953367Y-117886086D01*
X152877950Y-118068160D01*
X152877947Y-118068170D01*
X152839500Y-118261460D01*
X151190500Y-118261460D01*
X151190500Y-118251459D01*
X151152051Y-118058165D01*
X151131340Y-118008165D01*
X151076632Y-117876086D01*
X150967139Y-117712218D01*
X150827781Y-117572860D01*
X150663913Y-117463367D01*
X150481839Y-117387950D01*
X150481829Y-117387947D01*
X150352388Y-117362200D01*
X150288541Y-117349500D01*
X150091459Y-117349500D01*
X150041186Y-117359500D01*
X149898170Y-117387947D01*
X149898160Y-117387950D01*
X149716086Y-117463367D01*
X149552218Y-117572860D01*
X149552217Y-117572862D01*
X149412862Y-117712217D01*
X149412860Y-117712218D01*
X149303367Y-117876086D01*
X149227950Y-118058160D01*
X149227947Y-118058170D01*
X149189500Y-118251460D01*
X147300500Y-118251460D01*
X147300500Y-106111459D01*
X150219500Y-106111459D01*
X150219500Y-106308541D01*
X150232200Y-106372388D01*
X150257947Y-106501829D01*
X150257950Y-106501839D01*
X150333367Y-106683913D01*
X150353413Y-106713913D01*
X150442861Y-106847782D01*
X150582218Y-106987139D01*
X150746086Y-107096632D01*
X150928165Y-107172051D01*
X151121459Y-107210500D01*
X151121461Y-107210500D01*
X151318539Y-107210500D01*
X151318541Y-107210500D01*
X151511835Y-107172051D01*
X151693914Y-107096632D01*
X151857782Y-106987139D01*
X151997139Y-106847782D01*
X152106632Y-106683914D01*
X152182051Y-106501835D01*
X152220500Y-106308541D01*
X152220500Y-106111459D01*
X153909500Y-106111459D01*
X153909500Y-106308541D01*
X153922200Y-106372388D01*
X153947947Y-106501829D01*
X153947950Y-106501839D01*
X154023367Y-106683913D01*
X154043413Y-106713913D01*
X154132861Y-106847782D01*
X154272218Y-106987139D01*
X154436086Y-107096632D01*
X154618165Y-107172051D01*
X154811459Y-107210500D01*
X154811461Y-107210500D01*
X155008539Y-107210500D01*
X155008541Y-107210500D01*
X155201835Y-107172051D01*
X155383914Y-107096632D01*
X155547782Y-106987139D01*
X155687139Y-106847782D01*
X155796632Y-106683914D01*
X155872051Y-106501835D01*
X155910500Y-106308541D01*
X155910500Y-106111459D01*
X157599500Y-106111459D01*
X157599500Y-106308541D01*
X157612200Y-106372388D01*
X157637947Y-106501829D01*
X157637950Y-106501839D01*
X157713367Y-106683913D01*
X157733413Y-106713913D01*
X157822861Y-106847782D01*
X157962218Y-106987139D01*
X158126086Y-107096632D01*
X158308165Y-107172051D01*
X158501459Y-107210500D01*
X158501461Y-107210500D01*
X158698539Y-107210500D01*
X158698541Y-107210500D01*
X158891835Y-107172051D01*
X159073914Y-107096632D01*
X159237782Y-106987139D01*
X159377139Y-106847782D01*
X159486632Y-106683914D01*
X159562051Y-106501835D01*
X159600500Y-106308541D01*
X159600500Y-106141460D01*
X161279500Y-106141460D01*
X161279500Y-106338539D01*
X161317947Y-106531829D01*
X161317950Y-106531839D01*
X161393367Y-106713913D01*
X161502860Y-106877781D01*
X161642218Y-107017139D01*
X161806086Y-107126632D01*
X161939875Y-107182049D01*
X161988165Y-107202051D01*
X162181459Y-107240500D01*
X162181461Y-107240500D01*
X162378539Y-107240500D01*
X162378541Y-107240500D01*
X162571835Y-107202051D01*
X162753914Y-107126632D01*
X162917782Y-107017139D01*
X163057139Y-106877782D01*
X163166632Y-106713914D01*
X163242051Y-106531835D01*
X163280500Y-106338541D01*
X163280500Y-106141459D01*
X163276522Y-106121459D01*
X164959500Y-106121459D01*
X164959500Y-106318541D01*
X164972200Y-106382388D01*
X164997947Y-106511829D01*
X164997950Y-106511839D01*
X165073367Y-106693913D01*
X165176179Y-106847781D01*
X165182861Y-106857782D01*
X165322218Y-106997139D01*
X165486086Y-107106632D01*
X165668165Y-107182051D01*
X165861459Y-107220500D01*
X165861461Y-107220500D01*
X166058539Y-107220500D01*
X166058541Y-107220500D01*
X166251835Y-107182051D01*
X166433914Y-107106632D01*
X166597782Y-106997139D01*
X166737139Y-106857782D01*
X166846632Y-106693914D01*
X166922051Y-106511835D01*
X166960500Y-106318541D01*
X166960500Y-106141460D01*
X168639500Y-106141460D01*
X168639500Y-106338539D01*
X168677947Y-106531829D01*
X168677950Y-106531839D01*
X168753367Y-106713913D01*
X168862860Y-106877781D01*
X169002218Y-107017139D01*
X169166086Y-107126632D01*
X169299875Y-107182049D01*
X169348165Y-107202051D01*
X169541459Y-107240500D01*
X169541461Y-107240500D01*
X169738539Y-107240500D01*
X169738541Y-107240500D01*
X169931835Y-107202051D01*
X170113914Y-107126632D01*
X170277782Y-107017139D01*
X170417139Y-106877782D01*
X170526632Y-106713914D01*
X170602051Y-106531835D01*
X170640500Y-106338541D01*
X170640500Y-106141459D01*
X170634533Y-106111459D01*
X172259500Y-106111459D01*
X172259500Y-106308541D01*
X172272200Y-106372388D01*
X172297947Y-106501829D01*
X172297950Y-106501839D01*
X172373367Y-106683913D01*
X172393413Y-106713913D01*
X172482861Y-106847782D01*
X172622218Y-106987139D01*
X172786086Y-107096632D01*
X172968165Y-107172051D01*
X173161459Y-107210500D01*
X173161461Y-107210500D01*
X173358539Y-107210500D01*
X173358541Y-107210500D01*
X173551835Y-107172051D01*
X173733914Y-107096632D01*
X173897782Y-106987139D01*
X174037139Y-106847782D01*
X174146632Y-106683914D01*
X174222051Y-106501835D01*
X174260500Y-106308541D01*
X174260500Y-106131460D01*
X175949500Y-106131460D01*
X175949500Y-106328539D01*
X175987947Y-106521829D01*
X175987950Y-106521839D01*
X176063367Y-106703913D01*
X176172860Y-106867781D01*
X176312218Y-107007139D01*
X176476086Y-107116632D01*
X176609875Y-107172049D01*
X176658165Y-107192051D01*
X176851459Y-107230500D01*
X176851461Y-107230500D01*
X177048539Y-107230500D01*
X177048541Y-107230500D01*
X177241835Y-107192051D01*
X177423914Y-107116632D01*
X177587782Y-107007139D01*
X177727139Y-106867782D01*
X177836632Y-106703914D01*
X177912051Y-106521835D01*
X177950500Y-106328541D01*
X177950500Y-106131460D01*
X179639500Y-106131460D01*
X179639500Y-106328539D01*
X179677947Y-106521829D01*
X179677950Y-106521839D01*
X179753367Y-106703913D01*
X179862860Y-106867781D01*
X180002218Y-107007139D01*
X180166086Y-107116632D01*
X180299875Y-107172049D01*
X180348165Y-107192051D01*
X180541459Y-107230500D01*
X180541461Y-107230500D01*
X180738539Y-107230500D01*
X180738541Y-107230500D01*
X180931835Y-107192051D01*
X181113914Y-107116632D01*
X181277782Y-107007139D01*
X181417139Y-106867782D01*
X181526632Y-106703914D01*
X181602051Y-106521835D01*
X181640500Y-106328541D01*
X181640500Y-106131459D01*
X181602051Y-105938165D01*
X181526632Y-105756086D01*
X181417139Y-105592218D01*
X181277782Y-105452861D01*
X181262818Y-105442862D01*
X181113913Y-105343367D01*
X180931839Y-105267950D01*
X180931829Y-105267947D01*
X180802388Y-105242200D01*
X180738541Y-105229500D01*
X180541459Y-105229500D01*
X180491186Y-105239500D01*
X180348170Y-105267947D01*
X180348160Y-105267950D01*
X180166086Y-105343367D01*
X180002218Y-105452860D01*
X180002217Y-105452862D01*
X179862862Y-105592217D01*
X179862860Y-105592218D01*
X179753367Y-105756086D01*
X179677950Y-105938160D01*
X179677947Y-105938170D01*
X179639500Y-106131460D01*
X177950500Y-106131460D01*
X177950500Y-106131459D01*
X177912051Y-105938165D01*
X177836632Y-105756086D01*
X177727139Y-105592218D01*
X177587782Y-105452861D01*
X177572818Y-105442862D01*
X177423913Y-105343367D01*
X177241839Y-105267950D01*
X177241829Y-105267947D01*
X177112388Y-105242200D01*
X177048541Y-105229500D01*
X176851459Y-105229500D01*
X176801186Y-105239500D01*
X176658170Y-105267947D01*
X176658160Y-105267950D01*
X176476086Y-105343367D01*
X176312218Y-105452860D01*
X176312217Y-105452862D01*
X176172862Y-105592217D01*
X176172860Y-105592218D01*
X176063367Y-105756086D01*
X175987950Y-105938160D01*
X175987947Y-105938170D01*
X175949500Y-106131460D01*
X174260500Y-106131460D01*
X174260500Y-106111459D01*
X174222051Y-105918165D01*
X174146632Y-105736086D01*
X174037139Y-105572218D01*
X173897782Y-105432861D01*
X173778813Y-105353368D01*
X173733913Y-105323367D01*
X173551839Y-105247950D01*
X173551829Y-105247947D01*
X173422388Y-105222200D01*
X173358541Y-105209500D01*
X173161459Y-105209500D01*
X173111186Y-105219500D01*
X172968170Y-105247947D01*
X172968160Y-105247950D01*
X172786086Y-105323367D01*
X172622218Y-105432860D01*
X172622217Y-105432862D01*
X172482862Y-105572217D01*
X172482860Y-105572218D01*
X172373367Y-105736086D01*
X172297950Y-105918160D01*
X172297947Y-105918170D01*
X172265850Y-106079535D01*
X172259500Y-106111459D01*
X170634533Y-106111459D01*
X170602051Y-105948165D01*
X170526632Y-105766086D01*
X170417139Y-105602218D01*
X170277782Y-105462861D01*
X170262818Y-105452862D01*
X170113913Y-105353367D01*
X169931839Y-105277950D01*
X169931829Y-105277947D01*
X169802388Y-105252200D01*
X169738541Y-105239500D01*
X169541459Y-105239500D01*
X169486662Y-105250399D01*
X169348170Y-105277947D01*
X169348160Y-105277950D01*
X169166086Y-105353367D01*
X169002218Y-105462860D01*
X169002217Y-105462862D01*
X168862862Y-105602217D01*
X168862860Y-105602218D01*
X168753367Y-105766086D01*
X168677950Y-105948160D01*
X168677947Y-105948170D01*
X168639500Y-106141460D01*
X166960500Y-106141460D01*
X166960500Y-106121459D01*
X166922051Y-105928165D01*
X166846632Y-105746086D01*
X166737139Y-105582218D01*
X166597782Y-105442861D01*
X166582818Y-105432862D01*
X166433913Y-105333367D01*
X166251839Y-105257950D01*
X166251829Y-105257947D01*
X166122388Y-105232200D01*
X166058541Y-105219500D01*
X165861459Y-105219500D01*
X165811186Y-105229500D01*
X165668170Y-105257947D01*
X165668160Y-105257950D01*
X165486086Y-105333367D01*
X165322218Y-105442860D01*
X165322217Y-105442862D01*
X165182862Y-105582217D01*
X165182860Y-105582218D01*
X165073367Y-105746086D01*
X164997950Y-105928160D01*
X164997947Y-105928170D01*
X164965850Y-106089535D01*
X164959500Y-106121459D01*
X163276522Y-106121459D01*
X163242051Y-105948165D01*
X163166632Y-105766086D01*
X163057139Y-105602218D01*
X162917782Y-105462861D01*
X162902818Y-105452862D01*
X162753913Y-105353367D01*
X162571839Y-105277950D01*
X162571829Y-105277947D01*
X162442388Y-105252200D01*
X162378541Y-105239500D01*
X162181459Y-105239500D01*
X162126662Y-105250399D01*
X161988170Y-105277947D01*
X161988160Y-105277950D01*
X161806086Y-105353367D01*
X161642218Y-105462860D01*
X161642217Y-105462862D01*
X161502862Y-105602217D01*
X161502860Y-105602218D01*
X161393367Y-105766086D01*
X161317950Y-105948160D01*
X161317947Y-105948170D01*
X161279500Y-106141460D01*
X159600500Y-106141460D01*
X159600500Y-106111459D01*
X159562051Y-105918165D01*
X159486632Y-105736086D01*
X159377139Y-105572218D01*
X159237782Y-105432861D01*
X159118813Y-105353368D01*
X159073913Y-105323367D01*
X158891839Y-105247950D01*
X158891829Y-105247947D01*
X158762388Y-105222200D01*
X158698541Y-105209500D01*
X158501459Y-105209500D01*
X158451186Y-105219500D01*
X158308170Y-105247947D01*
X158308160Y-105247950D01*
X158126086Y-105323367D01*
X157962218Y-105432860D01*
X157962217Y-105432862D01*
X157822862Y-105572217D01*
X157822860Y-105572218D01*
X157713367Y-105736086D01*
X157637950Y-105918160D01*
X157637947Y-105918170D01*
X157605850Y-106079535D01*
X157599500Y-106111459D01*
X155910500Y-106111459D01*
X155872051Y-105918165D01*
X155796632Y-105736086D01*
X155687139Y-105572218D01*
X155547782Y-105432861D01*
X155428813Y-105353368D01*
X155383913Y-105323367D01*
X155201839Y-105247950D01*
X155201829Y-105247947D01*
X155072388Y-105222200D01*
X155008541Y-105209500D01*
X154811459Y-105209500D01*
X154761186Y-105219500D01*
X154618170Y-105247947D01*
X154618160Y-105247950D01*
X154436086Y-105323367D01*
X154272218Y-105432860D01*
X154272217Y-105432862D01*
X154132862Y-105572217D01*
X154132860Y-105572218D01*
X154023367Y-105736086D01*
X153947950Y-105918160D01*
X153947947Y-105918170D01*
X153915850Y-106079535D01*
X153909500Y-106111459D01*
X152220500Y-106111459D01*
X152182051Y-105918165D01*
X152106632Y-105736086D01*
X151997139Y-105572218D01*
X151857782Y-105432861D01*
X151738813Y-105353368D01*
X151693913Y-105323367D01*
X151511839Y-105247950D01*
X151511829Y-105247947D01*
X151382388Y-105222200D01*
X151318541Y-105209500D01*
X151121459Y-105209500D01*
X151071186Y-105219500D01*
X150928170Y-105247947D01*
X150928160Y-105247950D01*
X150746086Y-105323367D01*
X150582218Y-105432860D01*
X150582217Y-105432862D01*
X150442862Y-105572217D01*
X150442860Y-105572218D01*
X150333367Y-105736086D01*
X150257950Y-105918160D01*
X150257947Y-105918170D01*
X150225850Y-106079535D01*
X150219500Y-106111459D01*
X147300500Y-106111459D01*
X147300500Y-103511509D01*
X150220000Y-103511509D01*
X150220000Y-103708490D01*
X150258427Y-103901682D01*
X150258430Y-103901693D01*
X150333808Y-104083673D01*
X150442394Y-104246183D01*
X150802210Y-103886366D01*
X150819901Y-103917007D01*
X150912993Y-104010099D01*
X150943631Y-104027788D01*
X150583815Y-104387604D01*
X150583815Y-104387605D01*
X150746324Y-104496190D01*
X150928306Y-104571569D01*
X150928317Y-104571572D01*
X151121510Y-104610000D01*
X151318490Y-104610000D01*
X151511682Y-104571572D01*
X151511693Y-104571569D01*
X151693675Y-104496190D01*
X151856183Y-104387605D01*
X151856183Y-104387604D01*
X151496367Y-104027788D01*
X151527007Y-104010099D01*
X151620099Y-103917007D01*
X151637788Y-103886367D01*
X151997604Y-104246183D01*
X151997605Y-104246183D01*
X152106190Y-104083675D01*
X152181569Y-103901693D01*
X152181572Y-103901682D01*
X152220000Y-103708490D01*
X152220000Y-103511509D01*
X152219990Y-103511459D01*
X153909500Y-103511459D01*
X153909500Y-103708541D01*
X153922200Y-103772388D01*
X153947947Y-103901829D01*
X153947950Y-103901839D01*
X154023367Y-104083913D01*
X154132860Y-104247781D01*
X154272218Y-104387139D01*
X154436086Y-104496632D01*
X154617008Y-104571572D01*
X154618165Y-104572051D01*
X154811459Y-104610500D01*
X154811461Y-104610500D01*
X155008539Y-104610500D01*
X155008541Y-104610500D01*
X155201835Y-104572051D01*
X155383914Y-104496632D01*
X155547782Y-104387139D01*
X155687139Y-104247782D01*
X155796632Y-104083914D01*
X155872051Y-103901835D01*
X155910500Y-103708541D01*
X155910500Y-103511459D01*
X157599500Y-103511459D01*
X157599500Y-103708541D01*
X157612200Y-103772388D01*
X157637947Y-103901829D01*
X157637950Y-103901839D01*
X157713367Y-104083913D01*
X157822860Y-104247781D01*
X157962218Y-104387139D01*
X158126086Y-104496632D01*
X158307008Y-104571572D01*
X158308165Y-104572051D01*
X158501459Y-104610500D01*
X158501461Y-104610500D01*
X158698539Y-104610500D01*
X158698541Y-104610500D01*
X158891835Y-104572051D01*
X159073914Y-104496632D01*
X159237782Y-104387139D01*
X159377139Y-104247782D01*
X159486632Y-104083914D01*
X159562051Y-103901835D01*
X159600500Y-103708541D01*
X159600500Y-103541509D01*
X161280000Y-103541509D01*
X161280000Y-103738490D01*
X161318427Y-103931682D01*
X161318430Y-103931693D01*
X161393808Y-104113673D01*
X161502394Y-104276183D01*
X161862210Y-103916366D01*
X161879901Y-103947007D01*
X161972993Y-104040099D01*
X162003631Y-104057788D01*
X161643815Y-104417604D01*
X161643815Y-104417605D01*
X161806324Y-104526190D01*
X161988306Y-104601569D01*
X161988317Y-104601572D01*
X162181510Y-104640000D01*
X162378490Y-104640000D01*
X162571682Y-104601572D01*
X162571693Y-104601569D01*
X162753675Y-104526190D01*
X162916183Y-104417605D01*
X162916183Y-104417604D01*
X162556367Y-104057788D01*
X162587007Y-104040099D01*
X162680099Y-103947007D01*
X162697788Y-103916367D01*
X163057604Y-104276183D01*
X163057605Y-104276183D01*
X163166190Y-104113675D01*
X163241569Y-103931693D01*
X163241572Y-103931682D01*
X163280000Y-103738490D01*
X163280000Y-103541510D01*
X163278160Y-103532261D01*
X163278160Y-103532260D01*
X163276012Y-103521459D01*
X164959500Y-103521459D01*
X164959500Y-103718541D01*
X164972008Y-103781421D01*
X164997947Y-103911829D01*
X164997950Y-103911839D01*
X165073367Y-104093913D01*
X165176179Y-104247781D01*
X165182861Y-104257782D01*
X165322218Y-104397139D01*
X165486086Y-104506632D01*
X165668165Y-104582051D01*
X165861459Y-104620500D01*
X165861461Y-104620500D01*
X166058539Y-104620500D01*
X166058541Y-104620500D01*
X166251835Y-104582051D01*
X166433914Y-104506632D01*
X166597782Y-104397139D01*
X166737139Y-104257782D01*
X166846632Y-104093914D01*
X166922051Y-103911835D01*
X166960500Y-103718541D01*
X166960500Y-103531460D01*
X168639500Y-103531460D01*
X168639500Y-103728539D01*
X168677947Y-103921829D01*
X168677950Y-103921839D01*
X168753367Y-104103913D01*
X168862860Y-104267781D01*
X169002218Y-104407139D01*
X169166086Y-104516632D01*
X169299875Y-104572049D01*
X169348165Y-104592051D01*
X169541459Y-104630500D01*
X169541461Y-104630500D01*
X169738539Y-104630500D01*
X169738541Y-104630500D01*
X169931835Y-104592051D01*
X170113914Y-104516632D01*
X170277782Y-104407139D01*
X170417139Y-104267782D01*
X170526632Y-104103914D01*
X170602051Y-103921835D01*
X170640500Y-103728541D01*
X170640500Y-103531459D01*
X170636532Y-103511509D01*
X172270000Y-103511509D01*
X172270000Y-103708490D01*
X172308427Y-103901682D01*
X172308430Y-103901693D01*
X172383808Y-104083673D01*
X172492394Y-104246183D01*
X172852210Y-103886366D01*
X172869901Y-103917007D01*
X172962993Y-104010099D01*
X172993631Y-104027788D01*
X172633815Y-104387604D01*
X172633815Y-104387605D01*
X172796324Y-104496190D01*
X172978306Y-104571569D01*
X172978317Y-104571572D01*
X173171510Y-104610000D01*
X173368490Y-104610000D01*
X173561682Y-104571572D01*
X173561693Y-104571569D01*
X173743675Y-104496190D01*
X173906183Y-104387605D01*
X173906183Y-104387604D01*
X173546367Y-104027788D01*
X173577007Y-104010099D01*
X173670099Y-103917007D01*
X173687788Y-103886367D01*
X174047604Y-104246183D01*
X174047605Y-104246183D01*
X174156190Y-104083675D01*
X174231569Y-103901693D01*
X174231572Y-103901682D01*
X174270000Y-103708490D01*
X174270000Y-103521459D01*
X175949500Y-103521459D01*
X175949500Y-103718541D01*
X175962008Y-103781421D01*
X175987947Y-103911829D01*
X175987950Y-103911839D01*
X176063367Y-104093913D01*
X176166179Y-104247781D01*
X176172861Y-104257782D01*
X176312218Y-104397139D01*
X176476086Y-104506632D01*
X176658165Y-104582051D01*
X176851459Y-104620500D01*
X176851461Y-104620500D01*
X177048539Y-104620500D01*
X177048541Y-104620500D01*
X177241835Y-104582051D01*
X177423914Y-104506632D01*
X177587782Y-104397139D01*
X177727139Y-104257782D01*
X177836632Y-104093914D01*
X177912051Y-103911835D01*
X177950500Y-103718541D01*
X177950500Y-103521459D01*
X179639500Y-103521459D01*
X179639500Y-103718541D01*
X179652008Y-103781421D01*
X179677947Y-103911829D01*
X179677950Y-103911839D01*
X179753367Y-104093913D01*
X179856179Y-104247781D01*
X179862861Y-104257782D01*
X180002218Y-104397139D01*
X180166086Y-104506632D01*
X180348165Y-104582051D01*
X180541459Y-104620500D01*
X180541461Y-104620500D01*
X180738539Y-104620500D01*
X180738541Y-104620500D01*
X180931835Y-104582051D01*
X181113914Y-104506632D01*
X181277782Y-104397139D01*
X181417139Y-104257782D01*
X181526632Y-104093914D01*
X181602051Y-103911835D01*
X181640500Y-103718541D01*
X181640500Y-103521459D01*
X181602051Y-103328165D01*
X181591624Y-103302993D01*
X181526632Y-103146086D01*
X181417139Y-102982218D01*
X181277781Y-102842860D01*
X181113913Y-102733367D01*
X180931839Y-102657950D01*
X180931829Y-102657947D01*
X180802388Y-102632200D01*
X180738541Y-102619500D01*
X180541459Y-102619500D01*
X180491186Y-102629500D01*
X180348170Y-102657947D01*
X180348160Y-102657950D01*
X180166086Y-102733367D01*
X180002218Y-102842860D01*
X180002217Y-102842862D01*
X179862862Y-102982217D01*
X179862860Y-102982218D01*
X179753367Y-103146086D01*
X179677950Y-103328160D01*
X179677947Y-103328170D01*
X179650019Y-103468578D01*
X179639500Y-103521459D01*
X177950500Y-103521459D01*
X177912051Y-103328165D01*
X177901624Y-103302993D01*
X177836632Y-103146086D01*
X177727139Y-102982218D01*
X177587781Y-102842860D01*
X177423913Y-102733367D01*
X177241839Y-102657950D01*
X177241829Y-102657947D01*
X177112388Y-102632200D01*
X177048541Y-102619500D01*
X176851459Y-102619500D01*
X176801186Y-102629500D01*
X176658170Y-102657947D01*
X176658160Y-102657950D01*
X176476086Y-102733367D01*
X176312218Y-102842860D01*
X176312217Y-102842862D01*
X176172862Y-102982217D01*
X176172860Y-102982218D01*
X176063367Y-103146086D01*
X175987950Y-103328160D01*
X175987947Y-103328170D01*
X175960019Y-103468578D01*
X175949500Y-103521459D01*
X174270000Y-103521459D01*
X174270000Y-103511509D01*
X174231572Y-103318317D01*
X174231569Y-103318306D01*
X174156190Y-103136324D01*
X174047604Y-102973815D01*
X173687788Y-103333631D01*
X173670099Y-103302993D01*
X173577007Y-103209901D01*
X173546366Y-103192210D01*
X173906183Y-102832394D01*
X173743672Y-102723808D01*
X173743673Y-102723808D01*
X173561693Y-102648430D01*
X173561682Y-102648427D01*
X173368490Y-102610000D01*
X173171510Y-102610000D01*
X172978317Y-102648427D01*
X172978306Y-102648430D01*
X172796322Y-102723810D01*
X172633815Y-102832394D01*
X172993632Y-103192211D01*
X172962993Y-103209901D01*
X172869901Y-103302993D01*
X172852211Y-103333632D01*
X172492394Y-102973815D01*
X172383810Y-103136322D01*
X172308430Y-103318306D01*
X172308427Y-103318317D01*
X172270000Y-103511509D01*
X170636532Y-103511509D01*
X170602051Y-103338165D01*
X170526632Y-103156086D01*
X170417139Y-102992218D01*
X170277782Y-102852861D01*
X170262818Y-102842862D01*
X170113913Y-102743367D01*
X169931839Y-102667950D01*
X169931829Y-102667947D01*
X169791327Y-102640000D01*
X169738541Y-102629500D01*
X169541459Y-102629500D01*
X169488673Y-102640000D01*
X169348170Y-102667947D01*
X169348160Y-102667950D01*
X169166086Y-102743367D01*
X169002218Y-102852860D01*
X169002217Y-102852862D01*
X168862862Y-102992217D01*
X168862860Y-102992218D01*
X168753367Y-103156086D01*
X168677950Y-103338160D01*
X168677947Y-103338170D01*
X168639500Y-103531460D01*
X166960500Y-103531460D01*
X166960500Y-103521459D01*
X166922051Y-103328165D01*
X166911624Y-103302993D01*
X166846632Y-103146086D01*
X166737139Y-102982218D01*
X166597781Y-102842860D01*
X166433913Y-102733367D01*
X166251839Y-102657950D01*
X166251829Y-102657947D01*
X166122388Y-102632200D01*
X166058541Y-102619500D01*
X165861459Y-102619500D01*
X165811186Y-102629500D01*
X165668170Y-102657947D01*
X165668160Y-102657950D01*
X165486086Y-102733367D01*
X165322218Y-102842860D01*
X165322217Y-102842862D01*
X165182862Y-102982217D01*
X165182860Y-102982218D01*
X165073367Y-103146086D01*
X164997950Y-103328160D01*
X164997947Y-103328170D01*
X164970019Y-103468578D01*
X164959500Y-103521459D01*
X163276012Y-103521459D01*
X163241572Y-103348317D01*
X163241569Y-103348306D01*
X163166190Y-103166324D01*
X163057604Y-103003815D01*
X162697788Y-103363631D01*
X162680099Y-103332993D01*
X162587007Y-103239901D01*
X162556366Y-103222210D01*
X162916183Y-102862394D01*
X162753672Y-102753808D01*
X162753673Y-102753808D01*
X162571693Y-102678430D01*
X162571682Y-102678427D01*
X162378490Y-102640000D01*
X162181510Y-102640000D01*
X161988317Y-102678427D01*
X161988306Y-102678430D01*
X161806322Y-102753810D01*
X161643815Y-102862394D01*
X162003632Y-103222211D01*
X161972993Y-103239901D01*
X161879901Y-103332993D01*
X161862211Y-103363632D01*
X161502394Y-103003815D01*
X161393810Y-103166322D01*
X161318430Y-103348306D01*
X161318427Y-103348317D01*
X161280000Y-103541509D01*
X159600500Y-103541509D01*
X159600500Y-103511459D01*
X159562051Y-103318165D01*
X159486632Y-103136086D01*
X159377139Y-102972218D01*
X159237782Y-102832861D01*
X159237084Y-102832394D01*
X159073913Y-102723367D01*
X158891839Y-102647950D01*
X158891829Y-102647947D01*
X158762388Y-102622200D01*
X158698541Y-102609500D01*
X158501459Y-102609500D01*
X158451186Y-102619500D01*
X158308170Y-102647947D01*
X158308160Y-102647950D01*
X158126086Y-102723367D01*
X157962218Y-102832860D01*
X157962217Y-102832862D01*
X157822862Y-102972217D01*
X157822860Y-102972218D01*
X157713367Y-103136086D01*
X157637950Y-103318160D01*
X157637947Y-103318170D01*
X157612320Y-103447007D01*
X157599500Y-103511459D01*
X155910500Y-103511459D01*
X155872051Y-103318165D01*
X155796632Y-103136086D01*
X155687139Y-102972218D01*
X155547782Y-102832861D01*
X155547084Y-102832394D01*
X155383913Y-102723367D01*
X155201839Y-102647950D01*
X155201829Y-102647947D01*
X155072388Y-102622200D01*
X155008541Y-102609500D01*
X154811459Y-102609500D01*
X154761186Y-102619500D01*
X154618170Y-102647947D01*
X154618160Y-102647950D01*
X154436086Y-102723367D01*
X154272218Y-102832860D01*
X154272217Y-102832862D01*
X154132862Y-102972217D01*
X154132860Y-102972218D01*
X154023367Y-103136086D01*
X153947950Y-103318160D01*
X153947947Y-103318170D01*
X153922320Y-103447007D01*
X153909500Y-103511459D01*
X152219990Y-103511459D01*
X152181572Y-103318317D01*
X152181569Y-103318306D01*
X152106190Y-103136324D01*
X151997604Y-102973815D01*
X151637788Y-103333631D01*
X151620099Y-103302993D01*
X151527007Y-103209901D01*
X151496366Y-103192210D01*
X151856183Y-102832394D01*
X151693672Y-102723808D01*
X151693673Y-102723808D01*
X151511693Y-102648430D01*
X151511682Y-102648427D01*
X151318490Y-102610000D01*
X151121510Y-102610000D01*
X150928317Y-102648427D01*
X150928306Y-102648430D01*
X150746322Y-102723810D01*
X150583815Y-102832394D01*
X150943632Y-103192211D01*
X150912993Y-103209901D01*
X150819901Y-103302993D01*
X150802211Y-103333632D01*
X150442394Y-102973815D01*
X150333810Y-103136322D01*
X150258430Y-103318306D01*
X150258427Y-103318317D01*
X150220000Y-103511509D01*
X147300500Y-103511509D01*
X147300500Y-100911459D01*
X153759500Y-100911459D01*
X153759500Y-101108541D01*
X153772200Y-101172388D01*
X153797947Y-101301829D01*
X153797950Y-101301839D01*
X153873367Y-101483913D01*
X153976179Y-101637781D01*
X153982861Y-101647782D01*
X154122218Y-101787139D01*
X154286086Y-101896632D01*
X154468165Y-101972051D01*
X154661459Y-102010500D01*
X154661461Y-102010500D01*
X154858539Y-102010500D01*
X154858541Y-102010500D01*
X155051835Y-101972051D01*
X155233914Y-101896632D01*
X155397782Y-101787139D01*
X155537139Y-101647782D01*
X155646632Y-101483914D01*
X155722051Y-101301835D01*
X155760500Y-101108541D01*
X155760500Y-100911459D01*
X157459500Y-100911459D01*
X157459500Y-101108541D01*
X157472200Y-101172388D01*
X157497947Y-101301829D01*
X157497950Y-101301839D01*
X157573367Y-101483913D01*
X157676179Y-101637781D01*
X157682861Y-101647782D01*
X157822218Y-101787139D01*
X157986086Y-101896632D01*
X158168165Y-101972051D01*
X158361459Y-102010500D01*
X158361461Y-102010500D01*
X158558539Y-102010500D01*
X158558541Y-102010500D01*
X158751835Y-101972051D01*
X158933914Y-101896632D01*
X159097782Y-101787139D01*
X159237139Y-101647782D01*
X159346632Y-101483914D01*
X159422051Y-101301835D01*
X159460500Y-101108541D01*
X159460500Y-100941460D01*
X161139500Y-100941460D01*
X161139500Y-101138539D01*
X161177947Y-101331829D01*
X161177950Y-101331839D01*
X161253367Y-101513913D01*
X161362860Y-101677781D01*
X161502218Y-101817139D01*
X161666086Y-101926632D01*
X161844420Y-102000500D01*
X161848165Y-102002051D01*
X162041459Y-102040500D01*
X162041461Y-102040500D01*
X162238539Y-102040500D01*
X162238541Y-102040500D01*
X162431835Y-102002051D01*
X162613914Y-101926632D01*
X162777782Y-101817139D01*
X162917139Y-101677782D01*
X163026632Y-101513914D01*
X163102051Y-101331835D01*
X163140500Y-101138541D01*
X163140500Y-100941459D01*
X163134533Y-100911459D01*
X165949500Y-100911459D01*
X165949500Y-101108541D01*
X165962200Y-101172388D01*
X165987947Y-101301829D01*
X165987950Y-101301839D01*
X166063367Y-101483913D01*
X166166179Y-101637781D01*
X166172861Y-101647782D01*
X166312218Y-101787139D01*
X166476086Y-101896632D01*
X166658165Y-101972051D01*
X166851459Y-102010500D01*
X166851461Y-102010500D01*
X167048539Y-102010500D01*
X167048541Y-102010500D01*
X167241835Y-101972051D01*
X167423914Y-101896632D01*
X167587782Y-101787139D01*
X167727139Y-101647782D01*
X167836632Y-101483914D01*
X167912051Y-101301835D01*
X167950500Y-101108541D01*
X167950500Y-100911459D01*
X167948511Y-100901459D01*
X169769500Y-100901459D01*
X169769500Y-101098541D01*
X169777456Y-101138539D01*
X169807947Y-101291829D01*
X169807950Y-101291839D01*
X169883367Y-101473913D01*
X169896732Y-101493914D01*
X169992861Y-101637782D01*
X170132218Y-101777139D01*
X170296086Y-101886632D01*
X170478165Y-101962051D01*
X170671459Y-102000500D01*
X170671461Y-102000500D01*
X170868539Y-102000500D01*
X170868541Y-102000500D01*
X171061835Y-101962051D01*
X171243914Y-101886632D01*
X171407782Y-101777139D01*
X171547139Y-101637782D01*
X171656632Y-101473914D01*
X171732051Y-101291835D01*
X171770500Y-101098541D01*
X171770500Y-100911459D01*
X173029500Y-100911459D01*
X173029500Y-101108541D01*
X173042200Y-101172388D01*
X173067947Y-101301829D01*
X173067950Y-101301839D01*
X173143367Y-101483913D01*
X173246179Y-101637781D01*
X173252861Y-101647782D01*
X173392218Y-101787139D01*
X173556086Y-101896632D01*
X173738165Y-101972051D01*
X173931459Y-102010500D01*
X173931461Y-102010500D01*
X174128539Y-102010500D01*
X174128541Y-102010500D01*
X174321835Y-101972051D01*
X174503914Y-101896632D01*
X174667782Y-101787139D01*
X174807139Y-101647782D01*
X174916632Y-101483914D01*
X174992051Y-101301835D01*
X175030500Y-101108541D01*
X175030500Y-100921459D01*
X175629500Y-100921459D01*
X175629500Y-101118541D01*
X175642200Y-101182388D01*
X175667947Y-101311829D01*
X175667950Y-101311839D01*
X175743367Y-101493913D01*
X175852860Y-101657781D01*
X175992218Y-101797139D01*
X176156086Y-101906632D01*
X176289875Y-101962049D01*
X176338165Y-101982051D01*
X176531459Y-102020500D01*
X176531461Y-102020500D01*
X176728539Y-102020500D01*
X176728541Y-102020500D01*
X176921835Y-101982051D01*
X177103914Y-101906632D01*
X177267782Y-101797139D01*
X177407139Y-101657782D01*
X177516632Y-101493914D01*
X177592051Y-101311835D01*
X177630500Y-101118541D01*
X177630500Y-100921459D01*
X178229500Y-100921459D01*
X178229500Y-101118541D01*
X178242200Y-101182388D01*
X178267947Y-101311829D01*
X178267950Y-101311839D01*
X178343367Y-101493913D01*
X178452860Y-101657781D01*
X178592218Y-101797139D01*
X178756086Y-101906632D01*
X178889875Y-101962049D01*
X178938165Y-101982051D01*
X179131459Y-102020500D01*
X179131461Y-102020500D01*
X179328539Y-102020500D01*
X179328541Y-102020500D01*
X179521835Y-101982051D01*
X179703914Y-101906632D01*
X179867782Y-101797139D01*
X180007139Y-101657782D01*
X180116632Y-101493914D01*
X180192051Y-101311835D01*
X180230500Y-101118541D01*
X180230500Y-100921459D01*
X180829500Y-100921459D01*
X180829500Y-101118541D01*
X180842200Y-101182388D01*
X180867947Y-101311829D01*
X180867950Y-101311839D01*
X180943367Y-101493913D01*
X181052860Y-101657781D01*
X181192218Y-101797139D01*
X181356086Y-101906632D01*
X181489875Y-101962049D01*
X181538165Y-101982051D01*
X181731459Y-102020500D01*
X181731461Y-102020500D01*
X181928539Y-102020500D01*
X181928541Y-102020500D01*
X182121835Y-101982051D01*
X182303914Y-101906632D01*
X182467782Y-101797139D01*
X182607139Y-101657782D01*
X182716632Y-101493914D01*
X182792051Y-101311835D01*
X182830500Y-101118541D01*
X182830500Y-100921459D01*
X183429500Y-100921459D01*
X183429500Y-101118541D01*
X183442200Y-101182388D01*
X183467947Y-101311829D01*
X183467950Y-101311839D01*
X183543367Y-101493913D01*
X183652860Y-101657781D01*
X183792218Y-101797139D01*
X183956086Y-101906632D01*
X184089875Y-101962049D01*
X184138165Y-101982051D01*
X184331459Y-102020500D01*
X184331461Y-102020500D01*
X184528539Y-102020500D01*
X184528541Y-102020500D01*
X184721835Y-101982051D01*
X184903914Y-101906632D01*
X185067782Y-101797139D01*
X185207139Y-101657782D01*
X185316632Y-101493914D01*
X185392051Y-101311835D01*
X185430500Y-101118541D01*
X185430500Y-100921459D01*
X185392051Y-100728165D01*
X185316632Y-100546086D01*
X185207139Y-100382218D01*
X185067782Y-100242861D01*
X185052818Y-100232862D01*
X184903913Y-100133367D01*
X184721839Y-100057950D01*
X184721829Y-100057947D01*
X184592388Y-100032200D01*
X184528541Y-100019500D01*
X184331459Y-100019500D01*
X184276662Y-100030399D01*
X184138170Y-100057947D01*
X184138160Y-100057950D01*
X183956086Y-100133367D01*
X183792218Y-100242860D01*
X183792217Y-100242862D01*
X183652862Y-100382217D01*
X183652860Y-100382218D01*
X183543367Y-100546086D01*
X183467950Y-100728160D01*
X183467947Y-100728170D01*
X183435850Y-100889535D01*
X183429500Y-100921459D01*
X182830500Y-100921459D01*
X182792051Y-100728165D01*
X182716632Y-100546086D01*
X182607139Y-100382218D01*
X182467782Y-100242861D01*
X182452818Y-100232862D01*
X182303913Y-100133367D01*
X182121839Y-100057950D01*
X182121829Y-100057947D01*
X181992388Y-100032200D01*
X181928541Y-100019500D01*
X181731459Y-100019500D01*
X181676662Y-100030399D01*
X181538170Y-100057947D01*
X181538160Y-100057950D01*
X181356086Y-100133367D01*
X181192218Y-100242860D01*
X181192217Y-100242862D01*
X181052862Y-100382217D01*
X181052860Y-100382218D01*
X180943367Y-100546086D01*
X180867950Y-100728160D01*
X180867947Y-100728170D01*
X180835850Y-100889535D01*
X180829500Y-100921459D01*
X180230500Y-100921459D01*
X180192051Y-100728165D01*
X180116632Y-100546086D01*
X180007139Y-100382218D01*
X179867782Y-100242861D01*
X179852818Y-100232862D01*
X179703913Y-100133367D01*
X179521839Y-100057950D01*
X179521829Y-100057947D01*
X179392388Y-100032200D01*
X179328541Y-100019500D01*
X179131459Y-100019500D01*
X179076662Y-100030399D01*
X178938170Y-100057947D01*
X178938160Y-100057950D01*
X178756086Y-100133367D01*
X178592218Y-100242860D01*
X178592217Y-100242862D01*
X178452862Y-100382217D01*
X178452860Y-100382218D01*
X178343367Y-100546086D01*
X178267950Y-100728160D01*
X178267947Y-100728170D01*
X178235850Y-100889535D01*
X178229500Y-100921459D01*
X177630500Y-100921459D01*
X177592051Y-100728165D01*
X177516632Y-100546086D01*
X177407139Y-100382218D01*
X177267782Y-100242861D01*
X177252818Y-100232862D01*
X177103913Y-100133367D01*
X176921839Y-100057950D01*
X176921829Y-100057947D01*
X176792388Y-100032200D01*
X176728541Y-100019500D01*
X176531459Y-100019500D01*
X176476662Y-100030399D01*
X176338170Y-100057947D01*
X176338160Y-100057950D01*
X176156086Y-100133367D01*
X175992218Y-100242860D01*
X175992217Y-100242862D01*
X175852862Y-100382217D01*
X175852860Y-100382218D01*
X175743367Y-100546086D01*
X175667950Y-100728160D01*
X175667947Y-100728170D01*
X175635850Y-100889535D01*
X175629500Y-100921459D01*
X175030500Y-100921459D01*
X175030500Y-100911459D01*
X174992051Y-100718165D01*
X174916632Y-100536086D01*
X174807139Y-100372218D01*
X174667782Y-100232861D01*
X174652818Y-100222862D01*
X174503913Y-100123367D01*
X174321839Y-100047950D01*
X174321829Y-100047947D01*
X174192388Y-100022200D01*
X174128541Y-100009500D01*
X173931459Y-100009500D01*
X173881186Y-100019500D01*
X173738170Y-100047947D01*
X173738160Y-100047950D01*
X173556086Y-100123367D01*
X173392218Y-100232860D01*
X173392217Y-100232862D01*
X173252862Y-100372217D01*
X173252860Y-100372218D01*
X173143367Y-100536086D01*
X173067950Y-100718160D01*
X173067947Y-100718170D01*
X173035850Y-100879535D01*
X173029500Y-100911459D01*
X171770500Y-100911459D01*
X171770500Y-100901459D01*
X171732051Y-100708165D01*
X171656632Y-100526086D01*
X171547139Y-100362218D01*
X171407782Y-100222861D01*
X171303779Y-100153368D01*
X171243913Y-100113367D01*
X171061839Y-100037950D01*
X171061829Y-100037947D01*
X170932388Y-100012200D01*
X170868541Y-99999500D01*
X170671459Y-99999500D01*
X170621186Y-100009500D01*
X170478170Y-100037947D01*
X170478160Y-100037950D01*
X170296086Y-100113367D01*
X170132218Y-100222860D01*
X170132217Y-100222862D01*
X169992862Y-100362217D01*
X169992860Y-100362218D01*
X169883367Y-100526086D01*
X169807950Y-100708160D01*
X169807947Y-100708170D01*
X169799993Y-100748160D01*
X169769500Y-100901459D01*
X167948511Y-100901459D01*
X167912051Y-100718165D01*
X167836632Y-100536086D01*
X167727139Y-100372218D01*
X167587782Y-100232861D01*
X167572818Y-100222862D01*
X167423913Y-100123367D01*
X167241839Y-100047950D01*
X167241829Y-100047947D01*
X167112388Y-100022200D01*
X167048541Y-100009500D01*
X166851459Y-100009500D01*
X166801186Y-100019500D01*
X166658170Y-100047947D01*
X166658160Y-100047950D01*
X166476086Y-100123367D01*
X166312218Y-100232860D01*
X166312217Y-100232862D01*
X166172862Y-100372217D01*
X166172860Y-100372218D01*
X166063367Y-100536086D01*
X165987950Y-100718160D01*
X165987947Y-100718170D01*
X165955850Y-100879535D01*
X165949500Y-100911459D01*
X163134533Y-100911459D01*
X163102051Y-100748165D01*
X163026632Y-100566086D01*
X162917139Y-100402218D01*
X162777782Y-100262861D01*
X162747852Y-100242862D01*
X162613913Y-100153367D01*
X162431839Y-100077950D01*
X162431829Y-100077947D01*
X162302388Y-100052200D01*
X162238541Y-100039500D01*
X162041459Y-100039500D01*
X161986662Y-100050399D01*
X161848170Y-100077947D01*
X161848160Y-100077950D01*
X161666086Y-100153367D01*
X161502218Y-100262860D01*
X161502217Y-100262862D01*
X161362862Y-100402217D01*
X161362860Y-100402218D01*
X161253367Y-100566086D01*
X161177950Y-100748160D01*
X161177947Y-100748170D01*
X161139500Y-100941460D01*
X159460500Y-100941460D01*
X159460500Y-100911459D01*
X159422051Y-100718165D01*
X159346632Y-100536086D01*
X159237139Y-100372218D01*
X159097782Y-100232861D01*
X159082818Y-100222862D01*
X158933913Y-100123367D01*
X158751839Y-100047950D01*
X158751829Y-100047947D01*
X158622388Y-100022200D01*
X158558541Y-100009500D01*
X158361459Y-100009500D01*
X158311186Y-100019500D01*
X158168170Y-100047947D01*
X158168160Y-100047950D01*
X157986086Y-100123367D01*
X157822218Y-100232860D01*
X157822217Y-100232862D01*
X157682862Y-100372217D01*
X157682860Y-100372218D01*
X157573367Y-100536086D01*
X157497950Y-100718160D01*
X157497947Y-100718170D01*
X157465850Y-100879535D01*
X157459500Y-100911459D01*
X155760500Y-100911459D01*
X155722051Y-100718165D01*
X155646632Y-100536086D01*
X155537139Y-100372218D01*
X155397782Y-100232861D01*
X155382818Y-100222862D01*
X155233913Y-100123367D01*
X155051839Y-100047950D01*
X155051829Y-100047947D01*
X154922388Y-100022200D01*
X154858541Y-100009500D01*
X154661459Y-100009500D01*
X154611186Y-100019500D01*
X154468170Y-100047947D01*
X154468160Y-100047950D01*
X154286086Y-100123367D01*
X154122218Y-100232860D01*
X154122217Y-100232862D01*
X153982862Y-100372217D01*
X153982860Y-100372218D01*
X153873367Y-100536086D01*
X153797950Y-100718160D01*
X153797947Y-100718170D01*
X153765850Y-100879535D01*
X153759500Y-100911459D01*
X147300500Y-100911459D01*
X147300500Y-98311459D01*
X153769500Y-98311459D01*
X153769500Y-98508541D01*
X153782200Y-98572388D01*
X153807947Y-98701829D01*
X153807950Y-98701839D01*
X153883367Y-98883913D01*
X153986179Y-99037781D01*
X153992861Y-99047782D01*
X154132218Y-99187139D01*
X154296086Y-99296632D01*
X154478165Y-99372051D01*
X154671459Y-99410500D01*
X154671461Y-99410500D01*
X154868539Y-99410500D01*
X154868541Y-99410500D01*
X155061835Y-99372051D01*
X155243914Y-99296632D01*
X155407782Y-99187139D01*
X155547139Y-99047782D01*
X155656632Y-98883914D01*
X155732051Y-98701835D01*
X155770500Y-98508541D01*
X155770500Y-98311459D01*
X155768511Y-98301459D01*
X157459500Y-98301459D01*
X157459500Y-98498541D01*
X157472200Y-98562388D01*
X157497947Y-98691829D01*
X157497950Y-98691839D01*
X157573367Y-98873913D01*
X157586732Y-98893914D01*
X157682861Y-99037782D01*
X157822218Y-99177139D01*
X157986086Y-99286632D01*
X158168165Y-99362051D01*
X158361459Y-99400500D01*
X158361461Y-99400500D01*
X158558539Y-99400500D01*
X158558541Y-99400500D01*
X158751835Y-99362051D01*
X158933914Y-99286632D01*
X159097782Y-99177139D01*
X159237139Y-99037782D01*
X159346632Y-98873914D01*
X159422051Y-98691835D01*
X159460500Y-98498541D01*
X159460500Y-98341509D01*
X161140000Y-98341509D01*
X161140000Y-98538490D01*
X161178427Y-98731682D01*
X161178430Y-98731693D01*
X161253808Y-98913673D01*
X161362394Y-99076183D01*
X161722210Y-98716366D01*
X161739901Y-98747007D01*
X161832993Y-98840099D01*
X161863631Y-98857788D01*
X161503815Y-99217604D01*
X161503815Y-99217605D01*
X161666324Y-99326190D01*
X161848306Y-99401569D01*
X161848317Y-99401572D01*
X162041510Y-99440000D01*
X162238490Y-99440000D01*
X162431682Y-99401572D01*
X162431693Y-99401569D01*
X162613675Y-99326190D01*
X162776183Y-99217605D01*
X162776183Y-99217604D01*
X162416367Y-98857788D01*
X162447007Y-98840099D01*
X162540099Y-98747007D01*
X162557788Y-98716367D01*
X162917604Y-99076183D01*
X162917605Y-99076183D01*
X163026190Y-98913675D01*
X163101569Y-98731693D01*
X163101572Y-98731682D01*
X163140000Y-98538490D01*
X163140000Y-98341510D01*
X163136171Y-98322261D01*
X163136171Y-98322260D01*
X163134023Y-98311459D01*
X165939500Y-98311459D01*
X165939500Y-98508541D01*
X165952200Y-98572388D01*
X165977947Y-98701829D01*
X165977950Y-98701839D01*
X166053367Y-98883913D01*
X166156179Y-99037781D01*
X166162861Y-99047782D01*
X166302218Y-99187139D01*
X166466086Y-99296632D01*
X166648165Y-99372051D01*
X166841459Y-99410500D01*
X166841461Y-99410500D01*
X167038539Y-99410500D01*
X167038541Y-99410500D01*
X167231835Y-99372051D01*
X167413914Y-99296632D01*
X167577782Y-99187139D01*
X167717139Y-99047782D01*
X167826632Y-98883914D01*
X167902051Y-98701835D01*
X167940500Y-98508541D01*
X167940500Y-98311459D01*
X167938511Y-98301459D01*
X169769500Y-98301459D01*
X169769500Y-98498541D01*
X169782200Y-98562388D01*
X169807947Y-98691829D01*
X169807950Y-98691839D01*
X169883367Y-98873913D01*
X169896732Y-98893914D01*
X169992861Y-99037782D01*
X170132218Y-99177139D01*
X170296086Y-99286632D01*
X170478165Y-99362051D01*
X170671459Y-99400500D01*
X170671461Y-99400500D01*
X170868539Y-99400500D01*
X170868541Y-99400500D01*
X171061835Y-99362051D01*
X171243914Y-99286632D01*
X171407782Y-99177139D01*
X171547139Y-99037782D01*
X171656632Y-98873914D01*
X171732051Y-98691835D01*
X171770500Y-98498541D01*
X171770500Y-98301459D01*
X173029500Y-98301459D01*
X173029500Y-98498541D01*
X173042200Y-98562388D01*
X173067947Y-98691829D01*
X173067950Y-98691839D01*
X173143367Y-98873913D01*
X173156732Y-98893914D01*
X173252861Y-99037782D01*
X173392218Y-99177139D01*
X173556086Y-99286632D01*
X173738165Y-99362051D01*
X173931459Y-99400500D01*
X173931461Y-99400500D01*
X174128539Y-99400500D01*
X174128541Y-99400500D01*
X174321835Y-99362051D01*
X174503914Y-99286632D01*
X174667782Y-99177139D01*
X174807139Y-99037782D01*
X174916632Y-98873914D01*
X174992051Y-98691835D01*
X175030500Y-98498541D01*
X175030500Y-98311459D01*
X175629500Y-98311459D01*
X175629500Y-98508541D01*
X175642200Y-98572388D01*
X175667947Y-98701829D01*
X175667950Y-98701839D01*
X175743367Y-98883913D01*
X175846179Y-99037781D01*
X175852861Y-99047782D01*
X175992218Y-99187139D01*
X176156086Y-99296632D01*
X176338165Y-99372051D01*
X176531459Y-99410500D01*
X176531461Y-99410500D01*
X176728539Y-99410500D01*
X176728541Y-99410500D01*
X176921835Y-99372051D01*
X177103914Y-99296632D01*
X177267782Y-99187139D01*
X177407139Y-99047782D01*
X177516632Y-98883914D01*
X177592051Y-98701835D01*
X177630500Y-98508541D01*
X177630500Y-98321460D01*
X178229500Y-98321460D01*
X178229500Y-98518539D01*
X178267947Y-98711829D01*
X178267950Y-98711839D01*
X178343367Y-98893913D01*
X178452860Y-99057781D01*
X178592218Y-99197139D01*
X178756086Y-99306632D01*
X178889875Y-99362049D01*
X178938165Y-99382051D01*
X179131459Y-99420500D01*
X179131461Y-99420500D01*
X179328539Y-99420500D01*
X179328541Y-99420500D01*
X179521835Y-99382051D01*
X179703914Y-99306632D01*
X179867782Y-99197139D01*
X180007139Y-99057782D01*
X180116632Y-98893914D01*
X180192051Y-98711835D01*
X180230500Y-98518541D01*
X180230500Y-98321460D01*
X180829500Y-98321460D01*
X180829500Y-98518539D01*
X180867947Y-98711829D01*
X180867950Y-98711839D01*
X180943367Y-98893913D01*
X181052860Y-99057781D01*
X181192218Y-99197139D01*
X181356086Y-99306632D01*
X181489875Y-99362049D01*
X181538165Y-99382051D01*
X181731459Y-99420500D01*
X181731461Y-99420500D01*
X181928539Y-99420500D01*
X181928541Y-99420500D01*
X182121835Y-99382051D01*
X182303914Y-99306632D01*
X182467782Y-99197139D01*
X182607139Y-99057782D01*
X182716632Y-98893914D01*
X182792051Y-98711835D01*
X182830500Y-98518541D01*
X182830500Y-98321460D01*
X183429500Y-98321460D01*
X183429500Y-98518539D01*
X183467947Y-98711829D01*
X183467950Y-98711839D01*
X183543367Y-98893913D01*
X183652860Y-99057781D01*
X183792218Y-99197139D01*
X183956086Y-99306632D01*
X184089875Y-99362049D01*
X184138165Y-99382051D01*
X184331459Y-99420500D01*
X184331461Y-99420500D01*
X184528539Y-99420500D01*
X184528541Y-99420500D01*
X184721835Y-99382051D01*
X184903914Y-99306632D01*
X185067782Y-99197139D01*
X185207139Y-99057782D01*
X185316632Y-98893914D01*
X185392051Y-98711835D01*
X185430500Y-98518541D01*
X185430500Y-98321459D01*
X185392051Y-98128165D01*
X185316632Y-97946086D01*
X185207139Y-97782218D01*
X185067782Y-97642861D01*
X185052818Y-97632862D01*
X184903913Y-97533367D01*
X184721839Y-97457950D01*
X184721829Y-97457947D01*
X184592388Y-97432200D01*
X184528541Y-97419500D01*
X184331459Y-97419500D01*
X184276662Y-97430399D01*
X184138170Y-97457947D01*
X184138160Y-97457950D01*
X183956086Y-97533367D01*
X183792218Y-97642860D01*
X183792217Y-97642862D01*
X183652862Y-97782217D01*
X183652860Y-97782218D01*
X183543367Y-97946086D01*
X183467950Y-98128160D01*
X183467947Y-98128170D01*
X183429500Y-98321460D01*
X182830500Y-98321460D01*
X182830500Y-98321459D01*
X182792051Y-98128165D01*
X182716632Y-97946086D01*
X182607139Y-97782218D01*
X182467782Y-97642861D01*
X182452818Y-97632862D01*
X182303913Y-97533367D01*
X182121839Y-97457950D01*
X182121829Y-97457947D01*
X181992388Y-97432200D01*
X181928541Y-97419500D01*
X181731459Y-97419500D01*
X181676662Y-97430399D01*
X181538170Y-97457947D01*
X181538160Y-97457950D01*
X181356086Y-97533367D01*
X181192218Y-97642860D01*
X181192217Y-97642862D01*
X181052862Y-97782217D01*
X181052860Y-97782218D01*
X180943367Y-97946086D01*
X180867950Y-98128160D01*
X180867947Y-98128170D01*
X180829500Y-98321460D01*
X180230500Y-98321460D01*
X180230500Y-98321459D01*
X180192051Y-98128165D01*
X180116632Y-97946086D01*
X180007139Y-97782218D01*
X179867782Y-97642861D01*
X179852818Y-97632862D01*
X179703913Y-97533367D01*
X179521839Y-97457950D01*
X179521829Y-97457947D01*
X179392388Y-97432200D01*
X179328541Y-97419500D01*
X179131459Y-97419500D01*
X179076662Y-97430399D01*
X178938170Y-97457947D01*
X178938160Y-97457950D01*
X178756086Y-97533367D01*
X178592218Y-97642860D01*
X178592217Y-97642862D01*
X178452862Y-97782217D01*
X178452860Y-97782218D01*
X178343367Y-97946086D01*
X178267950Y-98128160D01*
X178267947Y-98128170D01*
X178229500Y-98321460D01*
X177630500Y-98321460D01*
X177630500Y-98311459D01*
X177592051Y-98118165D01*
X177516632Y-97936086D01*
X177407139Y-97772218D01*
X177267782Y-97632861D01*
X177252818Y-97622862D01*
X177103913Y-97523367D01*
X176921839Y-97447950D01*
X176921829Y-97447947D01*
X176792388Y-97422200D01*
X176728541Y-97409500D01*
X176531459Y-97409500D01*
X176481186Y-97419500D01*
X176338170Y-97447947D01*
X176338160Y-97447950D01*
X176156086Y-97523367D01*
X175992218Y-97632860D01*
X175992217Y-97632862D01*
X175852862Y-97772217D01*
X175852860Y-97772218D01*
X175743367Y-97936086D01*
X175667950Y-98118160D01*
X175667947Y-98118170D01*
X175661951Y-98148317D01*
X175629500Y-98311459D01*
X175030500Y-98311459D01*
X175030500Y-98301459D01*
X174992051Y-98108165D01*
X174916632Y-97926086D01*
X174807139Y-97762218D01*
X174667782Y-97622861D01*
X174533847Y-97533368D01*
X174503913Y-97513367D01*
X174321839Y-97437950D01*
X174321829Y-97437947D01*
X174192388Y-97412200D01*
X174128541Y-97399500D01*
X173931459Y-97399500D01*
X173881186Y-97409500D01*
X173738170Y-97437947D01*
X173738160Y-97437950D01*
X173556086Y-97513367D01*
X173392218Y-97622860D01*
X173392217Y-97622862D01*
X173252862Y-97762217D01*
X173252860Y-97762218D01*
X173143367Y-97926086D01*
X173067950Y-98108160D01*
X173067947Y-98108170D01*
X173040331Y-98247007D01*
X173029500Y-98301459D01*
X171770500Y-98301459D01*
X171732051Y-98108165D01*
X171656632Y-97926086D01*
X171547139Y-97762218D01*
X171407782Y-97622861D01*
X171273847Y-97533368D01*
X171243913Y-97513367D01*
X171061839Y-97437950D01*
X171061829Y-97437947D01*
X170932388Y-97412200D01*
X170868541Y-97399500D01*
X170671459Y-97399500D01*
X170621186Y-97409500D01*
X170478170Y-97437947D01*
X170478160Y-97437950D01*
X170296086Y-97513367D01*
X170132218Y-97622860D01*
X170132217Y-97622862D01*
X169992862Y-97762217D01*
X169992860Y-97762218D01*
X169883367Y-97926086D01*
X169807950Y-98108160D01*
X169807947Y-98108170D01*
X169780331Y-98247007D01*
X169769500Y-98301459D01*
X167938511Y-98301459D01*
X167902051Y-98118165D01*
X167826632Y-97936086D01*
X167717139Y-97772218D01*
X167577782Y-97632861D01*
X167562818Y-97622862D01*
X167413913Y-97523367D01*
X167231839Y-97447950D01*
X167231829Y-97447947D01*
X167102388Y-97422200D01*
X167038541Y-97409500D01*
X166841459Y-97409500D01*
X166791186Y-97419500D01*
X166648170Y-97447947D01*
X166648160Y-97447950D01*
X166466086Y-97523367D01*
X166302218Y-97632860D01*
X166302217Y-97632862D01*
X166162862Y-97772217D01*
X166162860Y-97772218D01*
X166053367Y-97936086D01*
X165977950Y-98118160D01*
X165977947Y-98118170D01*
X165971951Y-98148317D01*
X165939500Y-98311459D01*
X163134023Y-98311459D01*
X163101572Y-98148317D01*
X163101569Y-98148306D01*
X163026190Y-97966324D01*
X162917604Y-97803815D01*
X162557788Y-98163631D01*
X162540099Y-98132993D01*
X162447007Y-98039901D01*
X162416366Y-98022210D01*
X162776183Y-97662394D01*
X162613672Y-97553808D01*
X162613673Y-97553808D01*
X162431693Y-97478430D01*
X162431682Y-97478427D01*
X162238490Y-97440000D01*
X162041510Y-97440000D01*
X161848317Y-97478427D01*
X161848306Y-97478430D01*
X161666322Y-97553810D01*
X161503815Y-97662394D01*
X161863632Y-98022211D01*
X161832993Y-98039901D01*
X161739901Y-98132993D01*
X161722211Y-98163632D01*
X161362394Y-97803815D01*
X161253810Y-97966322D01*
X161178430Y-98148306D01*
X161178427Y-98148317D01*
X161140000Y-98341509D01*
X159460500Y-98341509D01*
X159460500Y-98301459D01*
X159422051Y-98108165D01*
X159346632Y-97926086D01*
X159237139Y-97762218D01*
X159097782Y-97622861D01*
X158963847Y-97533368D01*
X158933913Y-97513367D01*
X158751839Y-97437950D01*
X158751829Y-97437947D01*
X158622388Y-97412200D01*
X158558541Y-97399500D01*
X158361459Y-97399500D01*
X158311186Y-97409500D01*
X158168170Y-97437947D01*
X158168160Y-97437950D01*
X157986086Y-97513367D01*
X157822218Y-97622860D01*
X157822217Y-97622862D01*
X157682862Y-97762217D01*
X157682860Y-97762218D01*
X157573367Y-97926086D01*
X157497950Y-98108160D01*
X157497947Y-98108170D01*
X157470331Y-98247007D01*
X157459500Y-98301459D01*
X155768511Y-98301459D01*
X155732051Y-98118165D01*
X155656632Y-97936086D01*
X155547139Y-97772218D01*
X155407782Y-97632861D01*
X155392818Y-97622862D01*
X155243913Y-97523367D01*
X155061839Y-97447950D01*
X155061829Y-97447947D01*
X154932388Y-97422200D01*
X154868541Y-97409500D01*
X154671459Y-97409500D01*
X154621186Y-97419500D01*
X154478170Y-97447947D01*
X154478160Y-97447950D01*
X154296086Y-97523367D01*
X154132218Y-97632860D01*
X154132217Y-97632862D01*
X153992862Y-97772217D01*
X153992860Y-97772218D01*
X153883367Y-97936086D01*
X153807950Y-98118160D01*
X153807947Y-98118170D01*
X153801951Y-98148317D01*
X153769500Y-98311459D01*
X147300500Y-98311459D01*
X147300500Y-85901459D01*
X152719500Y-85901459D01*
X152719500Y-86098541D01*
X152721489Y-86108539D01*
X152757947Y-86291829D01*
X152757950Y-86291839D01*
X152833367Y-86473913D01*
X152840050Y-86483914D01*
X152942861Y-86637782D01*
X153082218Y-86777139D01*
X153246086Y-86886632D01*
X153428165Y-86962051D01*
X153621459Y-87000500D01*
X153621461Y-87000500D01*
X153818539Y-87000500D01*
X153818541Y-87000500D01*
X154011835Y-86962051D01*
X154193914Y-86886632D01*
X154357782Y-86777139D01*
X154497139Y-86637782D01*
X154606632Y-86473914D01*
X154682051Y-86291835D01*
X154720500Y-86098541D01*
X154720500Y-85911459D01*
X156419500Y-85911459D01*
X156419500Y-86108541D01*
X156419888Y-86110491D01*
X156457947Y-86301829D01*
X156457950Y-86301839D01*
X156533367Y-86483913D01*
X156636179Y-86637781D01*
X156642861Y-86647782D01*
X156782218Y-86787139D01*
X156946086Y-86896632D01*
X157128165Y-86972051D01*
X157321459Y-87010500D01*
X157321461Y-87010500D01*
X157518539Y-87010500D01*
X157518541Y-87010500D01*
X157711835Y-86972051D01*
X157893914Y-86896632D01*
X158057782Y-86787139D01*
X158197139Y-86647782D01*
X158306632Y-86483914D01*
X158382051Y-86301835D01*
X158420500Y-86108541D01*
X158420500Y-85911459D01*
X158418511Y-85901459D01*
X160099500Y-85901459D01*
X160099500Y-86098541D01*
X160101489Y-86108539D01*
X160137947Y-86291829D01*
X160137950Y-86291839D01*
X160213367Y-86473913D01*
X160220050Y-86483914D01*
X160322861Y-86637782D01*
X160462218Y-86777139D01*
X160626086Y-86886632D01*
X160808165Y-86962051D01*
X161001459Y-87000500D01*
X161001461Y-87000500D01*
X161198539Y-87000500D01*
X161198541Y-87000500D01*
X161391835Y-86962051D01*
X161573914Y-86886632D01*
X161737782Y-86777139D01*
X161877139Y-86637782D01*
X161986632Y-86473914D01*
X162062051Y-86291835D01*
X162100500Y-86098541D01*
X162100500Y-85901459D01*
X162062051Y-85708165D01*
X162054813Y-85690691D01*
X170799501Y-85690691D01*
X170799501Y-85809309D01*
X170819596Y-85884308D01*
X170830201Y-85923887D01*
X170830203Y-85923891D01*
X170889508Y-86026610D01*
X170889509Y-86026611D01*
X170889511Y-86026614D01*
X170973386Y-86110489D01*
X171076113Y-86169799D01*
X171190691Y-86200499D01*
X171190692Y-86200499D01*
X171309308Y-86200499D01*
X171309309Y-86200499D01*
X171423887Y-86169799D01*
X171526614Y-86110489D01*
X172079948Y-85557154D01*
X172132273Y-85535481D01*
X172165865Y-85543545D01*
X172181588Y-85551557D01*
X172181593Y-85551558D01*
X172181594Y-85551559D01*
X172383746Y-85617243D01*
X172383752Y-85617244D01*
X172383757Y-85617246D01*
X172488735Y-85633873D01*
X172593711Y-85650500D01*
X172593713Y-85650500D01*
X172806289Y-85650500D01*
X172890269Y-85637198D01*
X173016243Y-85617246D01*
X173210034Y-85554279D01*
X173266496Y-85558722D01*
X173285227Y-85572331D01*
X173898386Y-86185490D01*
X174001113Y-86244799D01*
X174115691Y-86275499D01*
X174115692Y-86275499D01*
X174234309Y-86275499D01*
X174234310Y-86275499D01*
X174348887Y-86244799D01*
X174451614Y-86185490D01*
X174535490Y-86101614D01*
X174594799Y-85998887D01*
X174625499Y-85884310D01*
X174625499Y-85765691D01*
X174594799Y-85651113D01*
X174535490Y-85548386D01*
X173940278Y-84953174D01*
X173918604Y-84900848D01*
X173926668Y-84867258D01*
X173951557Y-84818412D01*
X174008977Y-84641693D01*
X174017243Y-84616253D01*
X174017243Y-84616250D01*
X174017246Y-84616243D01*
X174050500Y-84406287D01*
X174050500Y-84251509D01*
X175950000Y-84251509D01*
X175950000Y-84448490D01*
X175988427Y-84641682D01*
X175988430Y-84641693D01*
X176063808Y-84823673D01*
X176172394Y-84986183D01*
X176532210Y-84626366D01*
X176549901Y-84657007D01*
X176642993Y-84750099D01*
X176673631Y-84767788D01*
X176313815Y-85127604D01*
X176313815Y-85127605D01*
X176476324Y-85236190D01*
X176658306Y-85311569D01*
X176658317Y-85311572D01*
X176851510Y-85350000D01*
X177048490Y-85350000D01*
X177241682Y-85311572D01*
X177241693Y-85311569D01*
X177423675Y-85236190D01*
X177586183Y-85127605D01*
X177586183Y-85127604D01*
X177226367Y-84767788D01*
X177257007Y-84750099D01*
X177350099Y-84657007D01*
X177367788Y-84626367D01*
X177727604Y-84986183D01*
X177727605Y-84986183D01*
X177836190Y-84823675D01*
X177911569Y-84641693D01*
X177911572Y-84641682D01*
X177950000Y-84448490D01*
X177950000Y-84251509D01*
X177942193Y-84212260D01*
X177940045Y-84201459D01*
X179449500Y-84201459D01*
X179449500Y-84398541D01*
X179459436Y-84448490D01*
X179487947Y-84591829D01*
X179487950Y-84591839D01*
X179563367Y-84773913D01*
X179672860Y-84937781D01*
X179812218Y-85077139D01*
X179976086Y-85186632D01*
X180095730Y-85236190D01*
X180158165Y-85262051D01*
X180351459Y-85300500D01*
X180351461Y-85300500D01*
X180548539Y-85300500D01*
X180548541Y-85300500D01*
X180741835Y-85262051D01*
X180923914Y-85186632D01*
X181087782Y-85077139D01*
X181227139Y-84937782D01*
X181336632Y-84773914D01*
X181412051Y-84591835D01*
X181450500Y-84398541D01*
X181450500Y-84201459D01*
X181412051Y-84008165D01*
X181336632Y-83826086D01*
X181227139Y-83662218D01*
X181087782Y-83522861D01*
X181051309Y-83498490D01*
X180923913Y-83413367D01*
X180741839Y-83337950D01*
X180741829Y-83337947D01*
X180612388Y-83312200D01*
X180548541Y-83299500D01*
X180351459Y-83299500D01*
X180296662Y-83310399D01*
X180158170Y-83337947D01*
X180158160Y-83337950D01*
X179976086Y-83413367D01*
X179812218Y-83522860D01*
X179812217Y-83522862D01*
X179672862Y-83662217D01*
X179672860Y-83662218D01*
X179563367Y-83826086D01*
X179487950Y-84008160D01*
X179487947Y-84008170D01*
X179470932Y-84093713D01*
X179449500Y-84201459D01*
X177940045Y-84201459D01*
X177911572Y-84058317D01*
X177911569Y-84058306D01*
X177836190Y-83876324D01*
X177727604Y-83713815D01*
X177367788Y-84073631D01*
X177350099Y-84042993D01*
X177257007Y-83949901D01*
X177226366Y-83932210D01*
X177586183Y-83572394D01*
X177423672Y-83463808D01*
X177423673Y-83463808D01*
X177241693Y-83388430D01*
X177241682Y-83388427D01*
X177048490Y-83350000D01*
X176851510Y-83350000D01*
X176658317Y-83388427D01*
X176658306Y-83388430D01*
X176476322Y-83463810D01*
X176313815Y-83572394D01*
X176673632Y-83932211D01*
X176642993Y-83949901D01*
X176549901Y-84042993D01*
X176532211Y-84073632D01*
X176172394Y-83713815D01*
X176063810Y-83876322D01*
X175988430Y-84058306D01*
X175988427Y-84058317D01*
X175950000Y-84251509D01*
X174050500Y-84251509D01*
X174050500Y-84193713D01*
X174044686Y-84157007D01*
X174025803Y-84037782D01*
X174017246Y-83983757D01*
X174017242Y-83983746D01*
X173984754Y-83883759D01*
X173978802Y-83865440D01*
X173983245Y-83808978D01*
X173996851Y-83790251D01*
X174585490Y-83201614D01*
X174644799Y-83098887D01*
X174675499Y-82984309D01*
X174675499Y-82865690D01*
X174644799Y-82751113D01*
X174585490Y-82648386D01*
X174501614Y-82564510D01*
X174398887Y-82505201D01*
X174284310Y-82474501D01*
X174165691Y-82474501D01*
X174108402Y-82489851D01*
X174051112Y-82505201D01*
X174051111Y-82505202D01*
X173948385Y-82564510D01*
X173419421Y-83093474D01*
X173367095Y-83115148D01*
X173333500Y-83107083D01*
X173322766Y-83101614D01*
X173218412Y-83048443D01*
X173218411Y-83048442D01*
X173218406Y-83048440D01*
X173016253Y-82982756D01*
X173016240Y-82982753D01*
X172806289Y-82949500D01*
X172806287Y-82949500D01*
X172593713Y-82949500D01*
X172593711Y-82949500D01*
X172383759Y-82982753D01*
X172383746Y-82982756D01*
X172189965Y-83045720D01*
X172133503Y-83041276D01*
X172114772Y-83027668D01*
X171551612Y-82464509D01*
X171448891Y-82405203D01*
X171448887Y-82405201D01*
X171427610Y-82399500D01*
X171334309Y-82374501D01*
X171215691Y-82374501D01*
X171186390Y-82382352D01*
X171101112Y-82405201D01*
X171101108Y-82405203D01*
X170998389Y-82464508D01*
X170914508Y-82548389D01*
X170855203Y-82651108D01*
X170855201Y-82651112D01*
X170855201Y-82651113D01*
X170824501Y-82765691D01*
X170824501Y-82884309D01*
X170851295Y-82984309D01*
X170855201Y-82998887D01*
X170855203Y-82998891D01*
X170914509Y-83101612D01*
X171459720Y-83646824D01*
X171481394Y-83699150D01*
X171473329Y-83732744D01*
X171448445Y-83781583D01*
X171448440Y-83781593D01*
X171382756Y-83983746D01*
X171382753Y-83983759D01*
X171349500Y-84193711D01*
X171349500Y-84406288D01*
X171382753Y-84616240D01*
X171382756Y-84616253D01*
X171448440Y-84818406D01*
X171448444Y-84818416D01*
X171456451Y-84834129D01*
X171460895Y-84890592D01*
X171442843Y-84920051D01*
X170889509Y-85473387D01*
X170830203Y-85576108D01*
X170830201Y-85576112D01*
X170830201Y-85576113D01*
X170799501Y-85690691D01*
X162054813Y-85690691D01*
X161986632Y-85526086D01*
X161877139Y-85362218D01*
X161737782Y-85222861D01*
X161683562Y-85186632D01*
X161573913Y-85113367D01*
X161391839Y-85037950D01*
X161391829Y-85037947D01*
X161262388Y-85012200D01*
X161198541Y-84999500D01*
X161001459Y-84999500D01*
X160951186Y-85009500D01*
X160808170Y-85037947D01*
X160808160Y-85037950D01*
X160626086Y-85113367D01*
X160462218Y-85222860D01*
X160462217Y-85222862D01*
X160322862Y-85362217D01*
X160322860Y-85362218D01*
X160213367Y-85526086D01*
X160137950Y-85708160D01*
X160137947Y-85708170D01*
X160117830Y-85809307D01*
X160099500Y-85901459D01*
X158418511Y-85901459D01*
X158382051Y-85718165D01*
X158377908Y-85708164D01*
X158306632Y-85536086D01*
X158197139Y-85372218D01*
X158057781Y-85232860D01*
X157893913Y-85123367D01*
X157711839Y-85047950D01*
X157711829Y-85047947D01*
X157582388Y-85022200D01*
X157518541Y-85009500D01*
X157321459Y-85009500D01*
X157266662Y-85020399D01*
X157128170Y-85047947D01*
X157128160Y-85047950D01*
X156946086Y-85123367D01*
X156782218Y-85232860D01*
X156782217Y-85232862D01*
X156642862Y-85372217D01*
X156642860Y-85372218D01*
X156533367Y-85536086D01*
X156457950Y-85718160D01*
X156457947Y-85718170D01*
X156439819Y-85809309D01*
X156419500Y-85911459D01*
X154720500Y-85911459D01*
X154720500Y-85901459D01*
X154682051Y-85708165D01*
X154658419Y-85651113D01*
X154606632Y-85526086D01*
X154497139Y-85362218D01*
X154357781Y-85222860D01*
X154193913Y-85113367D01*
X154011839Y-85037950D01*
X154011829Y-85037947D01*
X153882388Y-85012200D01*
X153818541Y-84999500D01*
X153621459Y-84999500D01*
X153571186Y-85009500D01*
X153428170Y-85037947D01*
X153428160Y-85037950D01*
X153246086Y-85113367D01*
X153082218Y-85222860D01*
X153082217Y-85222862D01*
X152942862Y-85362217D01*
X152942860Y-85362218D01*
X152833367Y-85526086D01*
X152757950Y-85708160D01*
X152757947Y-85708170D01*
X152737830Y-85809307D01*
X152719500Y-85901459D01*
X147300500Y-85901459D01*
X147300500Y-82237646D01*
X148519500Y-82237646D01*
X148519500Y-82442353D01*
X148551522Y-82644531D01*
X148551525Y-82644544D01*
X148614777Y-82839213D01*
X148707712Y-83021610D01*
X148763858Y-83098888D01*
X148828034Y-83187219D01*
X148972781Y-83331966D01*
X149064695Y-83398745D01*
X149138389Y-83452287D01*
X149203028Y-83485222D01*
X149320781Y-83545220D01*
X149320783Y-83545220D01*
X149320786Y-83545222D01*
X149515455Y-83608474D01*
X149515461Y-83608475D01*
X149515466Y-83608477D01*
X149616557Y-83624488D01*
X149717646Y-83640500D01*
X149717648Y-83640500D01*
X149922354Y-83640500D01*
X150003224Y-83627690D01*
X150124534Y-83608477D01*
X150124541Y-83608474D01*
X150124544Y-83608474D01*
X150319213Y-83545222D01*
X150319213Y-83545221D01*
X150319219Y-83545220D01*
X150501610Y-83452287D01*
X150667219Y-83331966D01*
X150707726Y-83291459D01*
X152709500Y-83291459D01*
X152709500Y-83488541D01*
X152710225Y-83492184D01*
X152747947Y-83681829D01*
X152747950Y-83681839D01*
X152823367Y-83863913D01*
X152919757Y-84008170D01*
X152932861Y-84027782D01*
X153072218Y-84167139D01*
X153236086Y-84276632D01*
X153418165Y-84352051D01*
X153611459Y-84390500D01*
X153611461Y-84390500D01*
X153808539Y-84390500D01*
X153808541Y-84390500D01*
X154001835Y-84352051D01*
X154183914Y-84276632D01*
X154347782Y-84167139D01*
X154487139Y-84027782D01*
X154596632Y-83863914D01*
X154672051Y-83681835D01*
X154710500Y-83488541D01*
X154710500Y-83301459D01*
X156409500Y-83301459D01*
X156409500Y-83498541D01*
X156418785Y-83545220D01*
X156447947Y-83691829D01*
X156447950Y-83691839D01*
X156523367Y-83873913D01*
X156632860Y-84037781D01*
X156772218Y-84177139D01*
X156936086Y-84286632D01*
X157117008Y-84361572D01*
X157118165Y-84362051D01*
X157311459Y-84400500D01*
X157311461Y-84400500D01*
X157508539Y-84400500D01*
X157508541Y-84400500D01*
X157701835Y-84362051D01*
X157883914Y-84286632D01*
X158047782Y-84177139D01*
X158187139Y-84037782D01*
X158296632Y-83873914D01*
X158372051Y-83691835D01*
X158410500Y-83498541D01*
X158410500Y-83301509D01*
X160100000Y-83301509D01*
X160100000Y-83498490D01*
X160138427Y-83691682D01*
X160138430Y-83691693D01*
X160213808Y-83873673D01*
X160322394Y-84036183D01*
X160682210Y-83676366D01*
X160699901Y-83707007D01*
X160792993Y-83800099D01*
X160823631Y-83817788D01*
X160463815Y-84177604D01*
X160463815Y-84177605D01*
X160626324Y-84286190D01*
X160808306Y-84361569D01*
X160808317Y-84361572D01*
X161001510Y-84400000D01*
X161198490Y-84400000D01*
X161391682Y-84361572D01*
X161391693Y-84361569D01*
X161573675Y-84286190D01*
X161736183Y-84177605D01*
X161736183Y-84177604D01*
X161652290Y-84093711D01*
X166699500Y-84093711D01*
X166699500Y-84306288D01*
X166732753Y-84516240D01*
X166732756Y-84516253D01*
X166798440Y-84718406D01*
X166894948Y-84907816D01*
X166961561Y-84999500D01*
X167019896Y-85079792D01*
X167170208Y-85230104D01*
X167265656Y-85299451D01*
X167342183Y-85355051D01*
X167375874Y-85372217D01*
X167531588Y-85451557D01*
X167531590Y-85451557D01*
X167531593Y-85451559D01*
X167733746Y-85517243D01*
X167733752Y-85517244D01*
X167733757Y-85517246D01*
X167838735Y-85533873D01*
X167943711Y-85550500D01*
X167943713Y-85550500D01*
X168156289Y-85550500D01*
X168247735Y-85536016D01*
X168366243Y-85517246D01*
X168366250Y-85517243D01*
X168366253Y-85517243D01*
X168568406Y-85451559D01*
X168568406Y-85451558D01*
X168568412Y-85451557D01*
X168757816Y-85355051D01*
X168929792Y-85230104D01*
X169080104Y-85079792D01*
X169205051Y-84907816D01*
X169301557Y-84718412D01*
X169342687Y-84591829D01*
X169367243Y-84516253D01*
X169367243Y-84516250D01*
X169367246Y-84516243D01*
X169392186Y-84358776D01*
X169400500Y-84306288D01*
X169400500Y-84093711D01*
X169377722Y-83949901D01*
X169367246Y-83883757D01*
X169367244Y-83883752D01*
X169367243Y-83883746D01*
X169301559Y-83681593D01*
X169301557Y-83681590D01*
X169301557Y-83681588D01*
X169232074Y-83545220D01*
X169205051Y-83492183D01*
X169129670Y-83388430D01*
X169080104Y-83320208D01*
X168929792Y-83169896D01*
X168843337Y-83107083D01*
X168757816Y-83044948D01*
X168568406Y-82948440D01*
X168366253Y-82882756D01*
X168366240Y-82882753D01*
X168156289Y-82849500D01*
X168156287Y-82849500D01*
X167943713Y-82849500D01*
X167943711Y-82849500D01*
X167733759Y-82882753D01*
X167733746Y-82882756D01*
X167531593Y-82948440D01*
X167342183Y-83044948D01*
X167170212Y-83169893D01*
X167170208Y-83169896D01*
X167019896Y-83320208D01*
X167019893Y-83320211D01*
X167019893Y-83320212D01*
X166894948Y-83492183D01*
X166798440Y-83681593D01*
X166732756Y-83883746D01*
X166732753Y-83883759D01*
X166699500Y-84093711D01*
X161652290Y-84093711D01*
X161376367Y-83817788D01*
X161407007Y-83800099D01*
X161500099Y-83707007D01*
X161517788Y-83676367D01*
X161877604Y-84036183D01*
X161877605Y-84036183D01*
X161986190Y-83873675D01*
X162061569Y-83691693D01*
X162061572Y-83691682D01*
X162100000Y-83498490D01*
X162100000Y-83301509D01*
X162061572Y-83108317D01*
X162061569Y-83108306D01*
X161986190Y-82926324D01*
X161877604Y-82763815D01*
X161517788Y-83123631D01*
X161500099Y-83092993D01*
X161407007Y-82999901D01*
X161376366Y-82982210D01*
X161736183Y-82622394D01*
X161573672Y-82513808D01*
X161573673Y-82513808D01*
X161391693Y-82438430D01*
X161391682Y-82438427D01*
X161198490Y-82400000D01*
X161001510Y-82400000D01*
X160808317Y-82438427D01*
X160808306Y-82438430D01*
X160626322Y-82513810D01*
X160463815Y-82622394D01*
X160823632Y-82982211D01*
X160792993Y-82999901D01*
X160699901Y-83092993D01*
X160682211Y-83123632D01*
X160322394Y-82763815D01*
X160213810Y-82926322D01*
X160138430Y-83108306D01*
X160138427Y-83108317D01*
X160100000Y-83301509D01*
X158410500Y-83301509D01*
X158410500Y-83301459D01*
X158372051Y-83108165D01*
X158296632Y-82926086D01*
X158187139Y-82762218D01*
X158047782Y-82622861D01*
X158047084Y-82622394D01*
X157883913Y-82513367D01*
X157701839Y-82437950D01*
X157701829Y-82437947D01*
X157572388Y-82412200D01*
X157508541Y-82399500D01*
X157311459Y-82399500D01*
X157256662Y-82410399D01*
X157118170Y-82437947D01*
X157118160Y-82437950D01*
X156936086Y-82513367D01*
X156772218Y-82622860D01*
X156772217Y-82622862D01*
X156632862Y-82762217D01*
X156632860Y-82762218D01*
X156523367Y-82926086D01*
X156447950Y-83108160D01*
X156447947Y-83108170D01*
X156418030Y-83258578D01*
X156409500Y-83301459D01*
X154710500Y-83301459D01*
X154710500Y-83291459D01*
X154672051Y-83098165D01*
X154657892Y-83063983D01*
X154596632Y-82916086D01*
X154487139Y-82752218D01*
X154347781Y-82612860D01*
X154183913Y-82503367D01*
X154001839Y-82427950D01*
X154001829Y-82427947D01*
X153861327Y-82400000D01*
X153808541Y-82389500D01*
X153611459Y-82389500D01*
X153561186Y-82399500D01*
X153418170Y-82427947D01*
X153418160Y-82427950D01*
X153236086Y-82503367D01*
X153072218Y-82612860D01*
X153072217Y-82612862D01*
X152932862Y-82752217D01*
X152932860Y-82752218D01*
X152823367Y-82916086D01*
X152747950Y-83098160D01*
X152747947Y-83098170D01*
X152716041Y-83258578D01*
X152709500Y-83291459D01*
X150707726Y-83291459D01*
X150811966Y-83187219D01*
X150932287Y-83021610D01*
X151025220Y-82839219D01*
X151050239Y-82762218D01*
X151088474Y-82644544D01*
X151088474Y-82644541D01*
X151088477Y-82644534D01*
X151120500Y-82442352D01*
X151120500Y-82237648D01*
X151110996Y-82177646D01*
X183339500Y-82177646D01*
X183339500Y-82382353D01*
X183371522Y-82584531D01*
X183371525Y-82584544D01*
X183434777Y-82779213D01*
X183527712Y-82961610D01*
X183585593Y-83041276D01*
X183648034Y-83127219D01*
X183792781Y-83271966D01*
X183875358Y-83331961D01*
X183958389Y-83392287D01*
X184046300Y-83437079D01*
X184140781Y-83485220D01*
X184140783Y-83485220D01*
X184140786Y-83485222D01*
X184335455Y-83548474D01*
X184335461Y-83548475D01*
X184335466Y-83548477D01*
X184436557Y-83564488D01*
X184537646Y-83580500D01*
X184537648Y-83580500D01*
X184742354Y-83580500D01*
X184823224Y-83567690D01*
X184944534Y-83548477D01*
X184944541Y-83548474D01*
X184944544Y-83548474D01*
X185139213Y-83485222D01*
X185139213Y-83485221D01*
X185139219Y-83485220D01*
X185321610Y-83392287D01*
X185487219Y-83271966D01*
X185631966Y-83127219D01*
X185752287Y-82961610D01*
X185845220Y-82779219D01*
X185853993Y-82752218D01*
X185908474Y-82584544D01*
X185908474Y-82584541D01*
X185908477Y-82584534D01*
X185940500Y-82382352D01*
X185940500Y-82177648D01*
X185908477Y-81975466D01*
X185908475Y-81975461D01*
X185908474Y-81975455D01*
X185845222Y-81780786D01*
X185845220Y-81780783D01*
X185845220Y-81780781D01*
X185782858Y-81658389D01*
X185752287Y-81598389D01*
X185675558Y-81492781D01*
X185631966Y-81432781D01*
X185487219Y-81288034D01*
X185404192Y-81227712D01*
X185321610Y-81167712D01*
X185139213Y-81074777D01*
X184944544Y-81011525D01*
X184944531Y-81011522D01*
X184742354Y-80979500D01*
X184742352Y-80979500D01*
X184537648Y-80979500D01*
X184537646Y-80979500D01*
X184335468Y-81011522D01*
X184335455Y-81011525D01*
X184140786Y-81074777D01*
X183958389Y-81167712D01*
X183792785Y-81288031D01*
X183792781Y-81288034D01*
X183648034Y-81432781D01*
X183648031Y-81432784D01*
X183648031Y-81432785D01*
X183527712Y-81598389D01*
X183434777Y-81780786D01*
X183371525Y-81975455D01*
X183371522Y-81975468D01*
X183339500Y-82177646D01*
X151110996Y-82177646D01*
X151106558Y-82149627D01*
X151088477Y-82035466D01*
X151088474Y-82035459D01*
X151088474Y-82035455D01*
X151025222Y-81840786D01*
X151025220Y-81840783D01*
X151025220Y-81840781D01*
X150977079Y-81746300D01*
X150932287Y-81658389D01*
X150878745Y-81584695D01*
X150811966Y-81492781D01*
X150667219Y-81348034D01*
X150603040Y-81301406D01*
X150501610Y-81227712D01*
X150319213Y-81134777D01*
X150124544Y-81071525D01*
X150124531Y-81071522D01*
X149922354Y-81039500D01*
X149922352Y-81039500D01*
X149717648Y-81039500D01*
X149717646Y-81039500D01*
X149515468Y-81071522D01*
X149515455Y-81071525D01*
X149320786Y-81134777D01*
X149138389Y-81227712D01*
X148972785Y-81348031D01*
X148972781Y-81348034D01*
X148828034Y-81492781D01*
X148828031Y-81492784D01*
X148828031Y-81492785D01*
X148707712Y-81658389D01*
X148614777Y-81840786D01*
X148551525Y-82035455D01*
X148551522Y-82035468D01*
X148519500Y-82237646D01*
X147300500Y-82237646D01*
X147300500Y-79914500D01*
X147322174Y-79862174D01*
X147374500Y-79840500D01*
X187025500Y-79840500D01*
X187077826Y-79862174D01*
G37*
%TD.AperFunction*%
%TD*%
M02*
