%TF.GenerationSoftware,KiCad,Pcbnew,9.0.0*%
%TF.CreationDate,2025-03-10T21:20:54+01:00*%
%TF.ProjectId,connecteur,636f6e6e-6563-4746-9575-722e6b696361,rev?*%
%TF.SameCoordinates,Original*%
%TF.FileFunction,Soldermask,Top*%
%TF.FilePolarity,Negative*%
%FSLAX46Y46*%
G04 Gerber Fmt 4.6, Leading zero omitted, Abs format (unit mm)*
G04 Created by KiCad (PCBNEW 9.0.0) date 2025-03-10 21:20:54*
%MOMM*%
%LPD*%
G01*
G04 APERTURE LIST*
%ADD10C,1.600000*%
%ADD11C,2.400000*%
%ADD12C,2.300000*%
G04 APERTURE END LIST*
D10*
%TO.C,J8*%
X176950000Y-103620000D03*
%TD*%
%TO.C,J25*%
X169640000Y-103630000D03*
%TD*%
D11*
%TO.C,H3*%
X184650000Y-121380000D03*
%TD*%
D10*
%TO.C,J74*%
X176630000Y-101020000D03*
%TD*%
%TO.C,J3*%
X175800000Y-118290000D03*
%TD*%
%TO.C,J9*%
X180640000Y-103620000D03*
%TD*%
%TO.C,J36*%
X157420000Y-86010000D03*
%TD*%
%TO.C,J49*%
X154770000Y-98410000D03*
%TD*%
%TO.C,J1*%
X179480000Y-120940000D03*
%TD*%
D11*
%TO.C,H1*%
X149820000Y-82340000D03*
%TD*%
D10*
%TO.C,J7*%
X184430000Y-101020000D03*
%TD*%
D12*
%TO.C,J27*%
X168050000Y-84200000D03*
%TD*%
D10*
%TO.C,J41*%
X170770000Y-98400000D03*
%TD*%
%TO.C,J34*%
X174030000Y-101010000D03*
%TD*%
%TO.C,J73*%
X154760000Y-101010000D03*
%TD*%
%TO.C,J68*%
X151220000Y-106210000D03*
%TD*%
%TO.C,J17*%
X161210000Y-118340000D03*
%TD*%
D12*
%TO.C,J50*%
X172700000Y-84300000D03*
%TD*%
D10*
%TO.C,J23*%
X176950000Y-84350000D03*
%TD*%
D11*
%TO.C,H2*%
X184640000Y-82280000D03*
%TD*%
D10*
%TO.C,J40*%
X153710000Y-83390000D03*
%TD*%
%TO.C,J65*%
X179230000Y-101020000D03*
%TD*%
%TO.C,J63*%
X151220000Y-103610000D03*
%TD*%
%TO.C,J42*%
X170770000Y-101000000D03*
%TD*%
%TO.C,J76*%
X181830000Y-101020000D03*
%TD*%
%TO.C,J69*%
X154910000Y-106210000D03*
%TD*%
%TO.C,J46*%
X176630000Y-98410000D03*
%TD*%
%TO.C,J5*%
X172230000Y-118340000D03*
%TD*%
%TO.C,J14*%
X161100000Y-83400000D03*
%TD*%
%TO.C,J60*%
X168550000Y-118340000D03*
%TD*%
%TO.C,J6*%
X162280000Y-103640000D03*
%TD*%
%TO.C,J51*%
X162140000Y-101040000D03*
%TD*%
%TO.C,J77*%
X180450000Y-84300000D03*
%TD*%
%TO.C,J75*%
X184430000Y-98420000D03*
%TD*%
%TO.C,J2*%
X169640000Y-106240000D03*
%TD*%
%TO.C,J53*%
X162140000Y-98440000D03*
%TD*%
%TO.C,J58*%
X153840000Y-118360000D03*
%TD*%
%TO.C,J47*%
X157470000Y-118330000D03*
%TD*%
%TO.C,J29*%
X165960000Y-106220000D03*
%TD*%
%TO.C,J12*%
X176950000Y-106230000D03*
%TD*%
%TO.C,J38*%
X166950000Y-101010000D03*
%TD*%
%TO.C,J39*%
X161100000Y-86000000D03*
%TD*%
%TO.C,J59*%
X150190000Y-118350000D03*
%TD*%
%TO.C,J52*%
X158460000Y-101010000D03*
%TD*%
%TO.C,J37*%
X166940000Y-98410000D03*
%TD*%
%TO.C,J48*%
X158460000Y-98400000D03*
%TD*%
%TO.C,J43*%
X157410000Y-83400000D03*
%TD*%
%TO.C,J21*%
X179480000Y-118340000D03*
%TD*%
%TO.C,J55*%
X179230000Y-98420000D03*
%TD*%
%TO.C,J61*%
X157490000Y-120950000D03*
%TD*%
%TO.C,J22*%
X165960000Y-103620000D03*
%TD*%
%TO.C,J44*%
X150190000Y-120950000D03*
%TD*%
%TO.C,J18*%
X168550000Y-120940000D03*
%TD*%
%TO.C,J30*%
X161210000Y-120940000D03*
%TD*%
%TO.C,J45*%
X180640000Y-106230000D03*
%TD*%
%TO.C,J56*%
X158600000Y-106210000D03*
%TD*%
%TO.C,J72*%
X174030000Y-98400000D03*
%TD*%
%TO.C,J70*%
X172230000Y-120940000D03*
%TD*%
%TO.C,J15*%
X153720000Y-86000000D03*
%TD*%
%TO.C,J66*%
X154910000Y-103610000D03*
%TD*%
%TO.C,J62*%
X153840000Y-120960000D03*
%TD*%
%TO.C,J19*%
X164860000Y-120910000D03*
%TD*%
%TO.C,J4*%
X175800000Y-120900000D03*
%TD*%
%TO.C,J11*%
X173260000Y-106210000D03*
%TD*%
%TO.C,J16*%
X164860000Y-118300000D03*
%TD*%
%TO.C,J26*%
X162280000Y-106240000D03*
%TD*%
%TO.C,J64*%
X181830000Y-98420000D03*
%TD*%
%TO.C,J67*%
X158600000Y-103610000D03*
%TD*%
%TO.C,J20*%
X173270000Y-103610000D03*
%TD*%
M02*
