%TF.GenerationSoftware,KiCad,Pcbnew,9.0.0*%
%TF.CreationDate,2025-03-10T21:20:54+01:00*%
%TF.ProjectId,connecteur,636f6e6e-6563-4746-9575-722e6b696361,rev?*%
%TF.SameCoordinates,Original*%
%TF.FileFunction,Paste,Bot*%
%TF.FilePolarity,Positive*%
%FSLAX46Y46*%
G04 Gerber Fmt 4.6, Leading zero omitted, Abs format (unit mm)*
G04 Created by KiCad (PCBNEW 9.0.0) date 2025-03-10 21:20:54*
%MOMM*%
%LPD*%
G01*
G04 APERTURE LIST*
%ADD10R,1.000000X2.750000*%
G04 APERTURE END LIST*
D10*
%TO.C,J54*%
X175940000Y-95415000D03*
X175940000Y-89165000D03*
X177940000Y-95415000D03*
X177940000Y-89165000D03*
X179940000Y-95415000D03*
X179940000Y-89165000D03*
X181940000Y-95415000D03*
X181940000Y-89165000D03*
X183940000Y-95415000D03*
X183940000Y-89165000D03*
%TD*%
%TO.C,J13*%
X158370000Y-109175000D03*
X158370000Y-115425000D03*
X156370000Y-109175000D03*
X156370000Y-115425000D03*
X154370000Y-109175000D03*
X154370000Y-115425000D03*
X152370000Y-109175000D03*
X152370000Y-115425000D03*
X150370000Y-109175000D03*
X150370000Y-115425000D03*
%TD*%
%TO.C,J57*%
X180420000Y-109185000D03*
X180420000Y-115435000D03*
X178420000Y-109185000D03*
X178420000Y-115435000D03*
X176420000Y-109185000D03*
X176420000Y-115435000D03*
X174420000Y-109185000D03*
X174420000Y-115435000D03*
X172420000Y-109185000D03*
X172420000Y-115435000D03*
%TD*%
%TO.C,J10*%
X153930000Y-95425000D03*
X153930000Y-89175000D03*
X155930000Y-95425000D03*
X155930000Y-89175000D03*
X157930000Y-95425000D03*
X157930000Y-89175000D03*
X159930000Y-95425000D03*
X159930000Y-89175000D03*
X161930000Y-95425000D03*
X161930000Y-89175000D03*
%TD*%
%TO.C,J32*%
X164940000Y-95425000D03*
X164940000Y-89175000D03*
X166940000Y-95425000D03*
X166940000Y-89175000D03*
X168940000Y-95425000D03*
X168940000Y-89175000D03*
X170940000Y-95425000D03*
X170940000Y-89175000D03*
X172940000Y-95425000D03*
X172940000Y-89175000D03*
%TD*%
%TO.C,J35*%
X169410000Y-109185000D03*
X169410000Y-115435000D03*
X167410000Y-109185000D03*
X167410000Y-115435000D03*
X165410000Y-109185000D03*
X165410000Y-115435000D03*
X163410000Y-109185000D03*
X163410000Y-115435000D03*
X161410000Y-109185000D03*
X161410000Y-115435000D03*
%TD*%
M02*
