%TF.GenerationSoftware,KiCad,Pcbnew,9.0.0*%
%TF.CreationDate,2025-03-10T21:19:58+01:00*%
%TF.ProjectId,NPulse_v4,4e50756c-7365-45f7-9634-2e6b69636164,rev?*%
%TF.SameCoordinates,Original*%
%TF.FileFunction,Paste,Top*%
%TF.FilePolarity,Positive*%
%FSLAX46Y46*%
G04 Gerber Fmt 4.6, Leading zero omitted, Abs format (unit mm)*
G04 Created by KiCad (PCBNEW 9.0.0) date 2025-03-10 21:19:58*
%MOMM*%
%LPD*%
G01*
G04 APERTURE LIST*
G04 Aperture macros list*
%AMRoundRect*
0 Rectangle with rounded corners*
0 $1 Rounding radius*
0 $2 $3 $4 $5 $6 $7 $8 $9 X,Y pos of 4 corners*
0 Add a 4 corners polygon primitive as box body*
4,1,4,$2,$3,$4,$5,$6,$7,$8,$9,$2,$3,0*
0 Add four circle primitives for the rounded corners*
1,1,$1+$1,$2,$3*
1,1,$1+$1,$4,$5*
1,1,$1+$1,$6,$7*
1,1,$1+$1,$8,$9*
0 Add four rect primitives between the rounded corners*
20,1,$1+$1,$2,$3,$4,$5,0*
20,1,$1+$1,$4,$5,$6,$7,0*
20,1,$1+$1,$6,$7,$8,$9,0*
20,1,$1+$1,$8,$9,$2,$3,0*%
%AMRotRect*
0 Rectangle, with rotation*
0 The origin of the aperture is its center*
0 $1 length*
0 $2 width*
0 $3 Rotation angle, in degrees counterclockwise*
0 Add horizontal line*
21,1,$1,$2,0,0,$3*%
G04 Aperture macros list end*
%ADD10RoundRect,0.250000X-0.250000X-1.450000X0.250000X-1.450000X0.250000X1.450000X-0.250000X1.450000X0*%
%ADD11RoundRect,0.135000X0.185000X-0.135000X0.185000X0.135000X-0.185000X0.135000X-0.185000X-0.135000X0*%
%ADD12R,1.000000X2.580000*%
%ADD13RotRect,1.400000X1.200000X135.000000*%
%ADD14RoundRect,0.140000X0.021213X-0.219203X0.219203X-0.021213X-0.021213X0.219203X-0.219203X0.021213X0*%
%ADD15RoundRect,0.140000X-0.219203X-0.021213X-0.021213X-0.219203X0.219203X0.021213X0.021213X0.219203X0*%
%ADD16RoundRect,0.140000X0.219203X0.021213X0.021213X0.219203X-0.219203X-0.021213X-0.021213X-0.219203X0*%
%ADD17R,0.279400X0.711200*%
%ADD18R,1.701800X0.990600*%
%ADD19RoundRect,0.250000X0.475000X-0.250000X0.475000X0.250000X-0.475000X0.250000X-0.475000X-0.250000X0*%
%ADD20RoundRect,0.140000X0.170000X-0.140000X0.170000X0.140000X-0.170000X0.140000X-0.170000X-0.140000X0*%
%ADD21RoundRect,0.135000X-0.185000X0.135000X-0.185000X-0.135000X0.185000X-0.135000X0.185000X0.135000X0*%
%ADD22RoundRect,0.250000X0.375000X0.850000X-0.375000X0.850000X-0.375000X-0.850000X0.375000X-0.850000X0*%
%ADD23R,1.000000X2.510000*%
%ADD24RoundRect,0.135000X-0.135000X-0.185000X0.135000X-0.185000X0.135000X0.185000X-0.135000X0.185000X0*%
%ADD25RoundRect,0.250000X-0.250000X-0.475000X0.250000X-0.475000X0.250000X0.475000X-0.250000X0.475000X0*%
%ADD26RoundRect,0.140000X0.140000X0.170000X-0.140000X0.170000X-0.140000X-0.170000X0.140000X-0.170000X0*%
%ADD27RoundRect,0.140000X-0.140000X-0.170000X0.140000X-0.170000X0.140000X0.170000X-0.140000X0.170000X0*%
%ADD28RoundRect,0.202500X-0.202500X-0.402500X0.202500X-0.402500X0.202500X0.402500X-0.202500X0.402500X0*%
%ADD29RoundRect,0.062500X-0.062500X-0.350000X0.062500X-0.350000X0.062500X0.350000X-0.062500X0.350000X0*%
%ADD30RoundRect,0.062500X-0.350000X-0.062500X0.350000X-0.062500X0.350000X0.062500X-0.350000X0.062500X0*%
%ADD31RoundRect,0.202500X0.202500X0.402500X-0.202500X0.402500X-0.202500X-0.402500X0.202500X-0.402500X0*%
%ADD32RoundRect,0.062500X0.062500X0.350000X-0.062500X0.350000X-0.062500X-0.350000X0.062500X-0.350000X0*%
%ADD33RoundRect,0.062500X0.350000X0.062500X-0.350000X0.062500X-0.350000X-0.062500X0.350000X-0.062500X0*%
%ADD34RoundRect,0.250000X0.450000X-0.262500X0.450000X0.262500X-0.450000X0.262500X-0.450000X-0.262500X0*%
%ADD35RoundRect,0.250000X-0.475000X0.250000X-0.475000X-0.250000X0.475000X-0.250000X0.475000X0.250000X0*%
%ADD36R,0.850000X2.350000*%
%ADD37RoundRect,0.062500X-0.433103X-0.521491X0.521491X0.433103X0.433103X0.521491X-0.521491X-0.433103X0*%
%ADD38RoundRect,0.062500X0.433103X-0.521491X0.521491X-0.433103X-0.433103X0.521491X-0.521491X0.433103X0*%
%ADD39RoundRect,0.250000X-0.375000X-0.850000X0.375000X-0.850000X0.375000X0.850000X-0.375000X0.850000X0*%
%ADD40RoundRect,0.250000X0.250000X0.475000X-0.250000X0.475000X-0.250000X-0.475000X0.250000X-0.475000X0*%
%ADD41RoundRect,0.140000X-0.021213X0.219203X-0.219203X0.021213X0.021213X-0.219203X0.219203X-0.021213X0*%
%ADD42RoundRect,0.140000X-0.170000X0.140000X-0.170000X-0.140000X0.170000X-0.140000X0.170000X0.140000X0*%
%ADD43R,1.050000X0.700000*%
%ADD44R,1.300000X1.800000*%
%ADD45RoundRect,0.250000X0.250000X1.450000X-0.250000X1.450000X-0.250000X-1.450000X0.250000X-1.450000X0*%
%ADD46R,1.000000X0.800000*%
%ADD47R,0.700000X1.500000*%
%ADD48R,0.300000X0.850000*%
%ADD49RoundRect,0.250000X-0.512652X-0.159099X-0.159099X-0.512652X0.512652X0.159099X0.159099X0.512652X0*%
%ADD50RoundRect,0.150000X-0.587500X-0.150000X0.587500X-0.150000X0.587500X0.150000X-0.587500X0.150000X0*%
%ADD51RoundRect,0.135000X0.135000X0.185000X-0.135000X0.185000X-0.135000X-0.185000X0.135000X-0.185000X0*%
%ADD52R,1.000000X0.700000*%
%ADD53R,1.400000X1.600000*%
%ADD54RoundRect,0.147500X-0.017678X0.226274X-0.226274X0.017678X0.017678X-0.226274X0.226274X-0.017678X0*%
%ADD55RoundRect,0.135000X0.226274X0.035355X0.035355X0.226274X-0.226274X-0.035355X-0.035355X-0.226274X0*%
%ADD56R,2.350000X0.850000*%
G04 APERTURE END LIST*
D10*
%TO.C,R32*%
X163500901Y-131605403D03*
X165000901Y-131605403D03*
%TD*%
D11*
%TO.C,R19*%
X187990000Y-111149999D03*
X187990000Y-110130001D03*
%TD*%
D12*
%TO.C,J7*%
X175475903Y-124045400D03*
X175475903Y-128215402D03*
X173475903Y-124045401D03*
X173475903Y-128215401D03*
X171475903Y-124045400D03*
X171475903Y-128215402D03*
X169475903Y-124045401D03*
X169475903Y-128215401D03*
X167475903Y-124045400D03*
X167475903Y-128215402D03*
%TD*%
D13*
%TO.C,Y1*%
X166003858Y-92201777D03*
X164448223Y-90646142D03*
X163246142Y-91848223D03*
X164801777Y-93403858D03*
%TD*%
D14*
%TO.C,C15*%
X165471777Y-94808224D03*
X166150599Y-94129402D03*
%TD*%
D15*
%TO.C,C47*%
X183960589Y-93140589D03*
X184639411Y-93819411D03*
%TD*%
D16*
%TO.C,C21*%
X187869411Y-87909411D03*
X187190589Y-87230589D03*
%TD*%
D17*
%TO.C,IC2*%
X181005902Y-133441302D03*
X180505901Y-133441302D03*
X180005901Y-133441302D03*
X179505900Y-133441302D03*
X179505900Y-135447902D03*
X180005901Y-135447902D03*
X180505901Y-135447902D03*
X181005902Y-135447902D03*
D18*
X180255901Y-134444602D03*
%TD*%
D19*
%TO.C,C34*%
X168520001Y-99069999D03*
X168520001Y-97170001D03*
%TD*%
D20*
%TO.C,C49*%
X171145900Y-133805404D03*
X171145900Y-132845404D03*
%TD*%
D11*
%TO.C,R17*%
X184000000Y-111149999D03*
X184000000Y-110130001D03*
%TD*%
D21*
%TO.C,R34*%
X160775899Y-116565401D03*
X160775899Y-117585399D03*
%TD*%
D16*
%TO.C,C2*%
X167790000Y-88340000D03*
X167111178Y-87661178D03*
%TD*%
D10*
%TO.C,R23*%
X185570000Y-131685402D03*
X187070000Y-131685402D03*
%TD*%
D22*
%TO.C,L11*%
X169135902Y-131065403D03*
X166985902Y-131065403D03*
%TD*%
D11*
%TO.C,R18*%
X186010000Y-111169999D03*
X186010000Y-110150001D03*
%TD*%
D15*
%TO.C,C35*%
X183120589Y-93980589D03*
X183799411Y-94659411D03*
%TD*%
D23*
%TO.C,J3*%
X169460000Y-71075000D03*
X166920000Y-74385000D03*
X164380000Y-71075000D03*
X161840000Y-74385000D03*
X159300000Y-71075000D03*
X156760000Y-74385000D03*
%TD*%
D24*
%TO.C,R12*%
X159470001Y-77480000D03*
X160489999Y-77480000D03*
%TD*%
D14*
%TO.C,C7*%
X183090589Y-82199411D03*
X183769411Y-81520589D03*
%TD*%
D25*
%TO.C,C38*%
X177725901Y-117635399D03*
X179625899Y-117635399D03*
%TD*%
D21*
%TO.C,R5*%
X179005000Y-101195000D03*
X179005000Y-102214998D03*
%TD*%
D15*
%TO.C,C36*%
X188300589Y-84850589D03*
X188979411Y-85529411D03*
%TD*%
D12*
%TO.C,J6*%
X164435901Y-124035398D03*
X164435901Y-128205400D03*
X162435901Y-124035399D03*
X162435901Y-128205399D03*
X160435901Y-124035398D03*
X160435901Y-128205400D03*
X158435901Y-124035399D03*
X158435901Y-128205399D03*
X156435901Y-124035398D03*
X156435901Y-128205400D03*
%TD*%
D26*
%TO.C,C44*%
X156320000Y-110630000D03*
X155360000Y-110630000D03*
%TD*%
D11*
%TO.C,R16*%
X182020000Y-111159999D03*
X182020000Y-110140001D03*
%TD*%
D22*
%TO.C,L14*%
X161055901Y-121175401D03*
X158905901Y-121175401D03*
%TD*%
D12*
%TO.C,J5*%
X182000000Y-108190002D03*
X182000000Y-104020000D03*
X184000000Y-108190001D03*
X184000000Y-104020001D03*
X186000000Y-108190002D03*
X186000000Y-104020000D03*
X188000000Y-108190001D03*
X188000000Y-104020001D03*
X190000000Y-108190002D03*
X190000000Y-104020000D03*
%TD*%
D19*
%TO.C,C70*%
X164860000Y-119069999D03*
X164860000Y-117170001D03*
%TD*%
%TO.C,C66*%
X159325898Y-119075401D03*
X159325898Y-117175403D03*
%TD*%
D14*
%TO.C,C9*%
X183130589Y-97579411D03*
X183809411Y-96900589D03*
%TD*%
D27*
%TO.C,C32*%
X157100000Y-101290000D03*
X158060000Y-101290000D03*
%TD*%
D11*
%TO.C,R10*%
X185060000Y-113529999D03*
X185060000Y-112510001D03*
%TD*%
D22*
%TO.C,L13*%
X172255903Y-121135404D03*
X170105903Y-121135404D03*
%TD*%
D28*
%TO.C,U2*%
X189730000Y-133517500D03*
D29*
X189480000Y-132080000D03*
D30*
X188542500Y-132517500D03*
X188542500Y-133017500D03*
X188542500Y-133517500D03*
X188542500Y-134017500D03*
X188542500Y-134517500D03*
D29*
X189480000Y-134955000D03*
X189980000Y-134955000D03*
D30*
X190917500Y-134517500D03*
X190917500Y-134017500D03*
X190917500Y-133517500D03*
X190917500Y-133017500D03*
X190917500Y-132517500D03*
D29*
X189980000Y-132080000D03*
%TD*%
D31*
%TO.C,U9*%
X156680737Y-108054403D03*
D32*
X156930737Y-109491903D03*
D33*
X157868237Y-109054403D03*
X157868237Y-108554403D03*
X157868237Y-108054403D03*
X157868237Y-107554403D03*
X157868237Y-107054403D03*
D32*
X156930737Y-106616903D03*
X156430737Y-106616903D03*
D33*
X155493237Y-107054403D03*
X155493237Y-107554403D03*
X155493237Y-108054403D03*
X155493237Y-108554403D03*
X155493237Y-109054403D03*
D32*
X156430737Y-109491903D03*
%TD*%
D34*
%TO.C,R13*%
X190600000Y-73037500D03*
X190600000Y-71212500D03*
%TD*%
D35*
%TO.C,C42*%
X165120001Y-113159999D03*
X165120001Y-115059997D03*
%TD*%
D21*
%TO.C,R3*%
X177115000Y-101215001D03*
X177115000Y-102234999D03*
%TD*%
D36*
%TO.C,J2*%
X172800000Y-73225000D03*
X174800000Y-70875000D03*
X176800000Y-73225000D03*
X178800000Y-70875000D03*
%TD*%
D37*
%TO.C,U1*%
X168382466Y-90490019D03*
X168736020Y-90843573D03*
X169089573Y-91197126D03*
X169443126Y-91550680D03*
X169796680Y-91904233D03*
X170150233Y-92257786D03*
X170503787Y-92611340D03*
X170857340Y-92964893D03*
X171210893Y-93318447D03*
X171564447Y-93672000D03*
X171918000Y-94025553D03*
X172271553Y-94379107D03*
X172625107Y-94732660D03*
X172978660Y-95086213D03*
X173332214Y-95439767D03*
X173685767Y-95793320D03*
X174039320Y-96146874D03*
X174392874Y-96500427D03*
X174746427Y-96853980D03*
X175099981Y-97207534D03*
D38*
X177840019Y-97207534D03*
X178193573Y-96853980D03*
X178547126Y-96500427D03*
X178900680Y-96146874D03*
X179254233Y-95793320D03*
X179607786Y-95439767D03*
X179961340Y-95086213D03*
X180314893Y-94732660D03*
X180668447Y-94379107D03*
X181022000Y-94025553D03*
X181375553Y-93672000D03*
X181729107Y-93318447D03*
X182082660Y-92964893D03*
X182436213Y-92611340D03*
X182789767Y-92257786D03*
X183143320Y-91904233D03*
X183496874Y-91550680D03*
X183850427Y-91197126D03*
X184203980Y-90843573D03*
X184557534Y-90490019D03*
D37*
X184557534Y-87749981D03*
X184203980Y-87396427D03*
X183850427Y-87042874D03*
X183496874Y-86689320D03*
X183143320Y-86335767D03*
X182789767Y-85982214D03*
X182436213Y-85628660D03*
X182082660Y-85275107D03*
X181729107Y-84921553D03*
X181375553Y-84568000D03*
X181022000Y-84214447D03*
X180668447Y-83860893D03*
X180314893Y-83507340D03*
X179961340Y-83153787D03*
X179607786Y-82800233D03*
X179254233Y-82446680D03*
X178900680Y-82093126D03*
X178547126Y-81739573D03*
X178193573Y-81386020D03*
X177840019Y-81032466D03*
D38*
X175099981Y-81032466D03*
X174746427Y-81386020D03*
X174392874Y-81739573D03*
X174039320Y-82093126D03*
X173685767Y-82446680D03*
X173332214Y-82800233D03*
X172978660Y-83153787D03*
X172625107Y-83507340D03*
X172271553Y-83860893D03*
X171918000Y-84214447D03*
X171564447Y-84568000D03*
X171210893Y-84921553D03*
X170857340Y-85275107D03*
X170503787Y-85628660D03*
X170150233Y-85982214D03*
X169796680Y-86335767D03*
X169443126Y-86689320D03*
X169089573Y-87042874D03*
X168736020Y-87396427D03*
X168382466Y-87749981D03*
%TD*%
D11*
%TO.C,R30*%
X159990901Y-135665401D03*
X159990901Y-134645403D03*
%TD*%
D14*
%TO.C,C59*%
X180865589Y-80589411D03*
X181544411Y-79910589D03*
%TD*%
D15*
%TO.C,C3*%
X175000589Y-79750589D03*
X175679411Y-80429411D03*
%TD*%
D39*
%TO.C,L7*%
X184840899Y-121165404D03*
X186990899Y-121165404D03*
%TD*%
D28*
%TO.C,U5*%
X156752500Y-113210000D03*
D29*
X156502500Y-111772500D03*
D30*
X155565000Y-112210000D03*
X155565000Y-112710000D03*
X155565000Y-113210000D03*
X155565000Y-113710000D03*
X155565000Y-114210000D03*
D29*
X156502500Y-114647500D03*
X157002500Y-114647500D03*
D30*
X157940000Y-114210000D03*
X157940000Y-113710000D03*
X157940000Y-113210000D03*
X157940000Y-112710000D03*
X157940000Y-112210000D03*
D29*
X157002500Y-111772500D03*
%TD*%
D12*
%TO.C,J9*%
X186485903Y-124045402D03*
X186485903Y-128215404D03*
X184485903Y-124045403D03*
X184485903Y-128215403D03*
X182485903Y-124045402D03*
X182485903Y-128215404D03*
X180485903Y-124045403D03*
X180485903Y-128215403D03*
X178485903Y-124045402D03*
X178485903Y-128215404D03*
%TD*%
D25*
%TO.C,C28*%
X159240739Y-97649998D03*
X161140737Y-97649998D03*
%TD*%
D40*
%TO.C,C26*%
X187125899Y-134615403D03*
X185225901Y-134615403D03*
%TD*%
D14*
%TO.C,C60*%
X180210000Y-79940000D03*
X180888822Y-79261178D03*
%TD*%
D11*
%TO.C,R6*%
X180810000Y-113039998D03*
X180810000Y-112020000D03*
%TD*%
D41*
%TO.C,C24*%
X184849411Y-83590589D03*
X184170589Y-84269411D03*
%TD*%
D22*
%TO.C,L8*%
X161644999Y-111059998D03*
X159494999Y-111059998D03*
%TD*%
D39*
%TO.C,L4*%
X166470000Y-101169999D03*
X168620000Y-101169999D03*
%TD*%
D17*
%TO.C,IC7*%
X158960902Y-133448803D03*
X158460901Y-133448803D03*
X157960901Y-133448803D03*
X157460900Y-133448803D03*
X157460900Y-135455403D03*
X157960901Y-135455403D03*
X158460901Y-135455403D03*
X158960902Y-135455403D03*
D18*
X158210901Y-134452103D03*
%TD*%
D42*
%TO.C,C27*%
X164330739Y-98419997D03*
X164330739Y-99379997D03*
%TD*%
D35*
%TO.C,C53*%
X172595902Y-133165403D03*
X172595902Y-135065401D03*
%TD*%
D41*
%TO.C,C18*%
X171329411Y-96170589D03*
X170650589Y-96849411D03*
%TD*%
D43*
%TO.C,Q1*%
X183780000Y-114940000D03*
X183780000Y-113040000D03*
X181480000Y-113990000D03*
%TD*%
D16*
%TO.C,C4*%
X167696909Y-89909408D03*
X167018087Y-89230586D03*
%TD*%
D44*
%TO.C,D1*%
X190700000Y-76325000D03*
X184600000Y-76325000D03*
%TD*%
D21*
%TO.C,R25*%
X182805901Y-116545403D03*
X182805901Y-117565401D03*
%TD*%
D10*
%TO.C,R31*%
X174665900Y-131665403D03*
X176165900Y-131665403D03*
%TD*%
D45*
%TO.C,R35*%
X168230000Y-120550000D03*
X166730000Y-120550000D03*
%TD*%
D24*
%TO.C,R14*%
X159390001Y-80825000D03*
X160409999Y-80825000D03*
%TD*%
D41*
%TO.C,C22*%
X186509411Y-85250589D03*
X185830589Y-85929411D03*
%TD*%
D17*
%TO.C,IC4*%
X183835896Y-118808703D03*
X184335897Y-118808703D03*
X184835897Y-118808703D03*
X185335898Y-118808703D03*
X185335898Y-116802103D03*
X184835897Y-116802103D03*
X184335897Y-116802103D03*
X183835896Y-116802103D03*
D18*
X184585897Y-117805403D03*
%TD*%
D11*
%TO.C,R20*%
X189990000Y-111159999D03*
X189990000Y-110140001D03*
%TD*%
D16*
%TO.C,C20*%
X186549411Y-88359411D03*
X185870589Y-87680589D03*
%TD*%
D46*
%TO.C,SW2*%
X188290000Y-72090000D03*
X188290000Y-69880000D03*
X180990000Y-72090000D03*
X180990000Y-69880000D03*
D47*
X186890000Y-72740000D03*
X183890000Y-72740000D03*
X182390000Y-72740000D03*
%TD*%
D48*
%TO.C,IC1*%
X163425000Y-78075000D03*
X163925000Y-78075000D03*
X164425000Y-78075000D03*
X164925000Y-78075000D03*
X164925000Y-74925000D03*
X164425000Y-74925000D03*
X163925000Y-74925000D03*
X163425000Y-74925000D03*
%TD*%
D19*
%TO.C,C65*%
X170230895Y-119025404D03*
X170230895Y-117125406D03*
%TD*%
D21*
%TO.C,R33*%
X171800000Y-116520001D03*
X171800000Y-117539999D03*
%TD*%
D15*
%TO.C,C72*%
X186431178Y-81561178D03*
X187110000Y-82240000D03*
%TD*%
D45*
%TO.C,R24*%
X160939999Y-100579998D03*
X159439999Y-100579998D03*
%TD*%
D17*
%TO.C,IC8*%
X172949998Y-118766600D03*
X173449999Y-118766600D03*
X173949999Y-118766600D03*
X174450000Y-118766600D03*
X174450000Y-116760000D03*
X173949999Y-116760000D03*
X173449999Y-116760000D03*
X172949998Y-116760000D03*
D18*
X173699999Y-117763300D03*
%TD*%
D20*
%TO.C,C39*%
X163659999Y-113799999D03*
X163659999Y-112839999D03*
%TD*%
%TO.C,C25*%
X182025903Y-133825404D03*
X182025903Y-132865404D03*
%TD*%
D19*
%TO.C,C69*%
X175990000Y-119059999D03*
X175990000Y-117160001D03*
%TD*%
D49*
%TO.C,C1*%
X176078249Y-78478249D03*
X177421751Y-79821751D03*
%TD*%
D31*
%TO.C,U3*%
X156632500Y-98730000D03*
D32*
X156882500Y-100167500D03*
D33*
X157820000Y-99730000D03*
X157820000Y-99230000D03*
X157820000Y-98730000D03*
X157820000Y-98230000D03*
X157820000Y-97730000D03*
D32*
X156882500Y-97292500D03*
X156382500Y-97292500D03*
D33*
X155445000Y-97730000D03*
X155445000Y-98230000D03*
X155445000Y-98730000D03*
X155445000Y-99230000D03*
X155445000Y-99730000D03*
D32*
X156382500Y-100167500D03*
%TD*%
D50*
%TO.C,U10*%
X170735000Y-99330000D03*
X170735000Y-101230000D03*
X172610000Y-100280000D03*
%TD*%
D11*
%TO.C,R26*%
X163670001Y-115669998D03*
X163670001Y-114650000D03*
%TD*%
D27*
%TO.C,C43*%
X190190000Y-121610000D03*
X191150000Y-121610000D03*
%TD*%
D51*
%TO.C,R9*%
X185884999Y-73125000D03*
X184865001Y-73125000D03*
%TD*%
D35*
%TO.C,C33*%
X177965898Y-133175402D03*
X177965898Y-135075400D03*
%TD*%
D21*
%TO.C,R22*%
X164320737Y-96549998D03*
X164320737Y-97569996D03*
%TD*%
D12*
%TO.C,J10*%
X171000000Y-108200001D03*
X171000000Y-104029999D03*
X173000000Y-108200000D03*
X173000000Y-104030000D03*
X175000000Y-108200001D03*
X175000000Y-104029999D03*
X177000000Y-108200000D03*
X177000000Y-104030000D03*
X179000000Y-108200001D03*
X179000000Y-104029999D03*
%TD*%
D52*
%TO.C,Q2*%
X187190000Y-113069999D03*
X187190000Y-114969999D03*
X189590001Y-114019999D03*
%TD*%
D45*
%TO.C,R36*%
X157275897Y-120575401D03*
X155775897Y-120575401D03*
%TD*%
D12*
%TO.C,J8*%
X159989998Y-108205000D03*
X159989998Y-104034998D03*
X161989998Y-108204999D03*
X161989998Y-104034999D03*
X163989998Y-108205000D03*
X163989998Y-104034998D03*
X165989998Y-108204999D03*
X165989998Y-104034999D03*
X167989998Y-108205000D03*
X167989998Y-104034998D03*
%TD*%
D25*
%TO.C,C62*%
X166590000Y-117585403D03*
X168489998Y-117585403D03*
%TD*%
D10*
%TO.C,R28*%
X167169999Y-111660000D03*
X168669999Y-111660000D03*
%TD*%
D42*
%TO.C,C63*%
X160785895Y-118435402D03*
X160785895Y-119395402D03*
%TD*%
D26*
%TO.C,C16*%
X167355000Y-70775000D03*
X166395000Y-70775000D03*
%TD*%
D22*
%TO.C,L12*%
X157965903Y-131065403D03*
X155815903Y-131065403D03*
%TD*%
D26*
%TO.C,C19*%
X160452182Y-76546447D03*
X159492182Y-76546447D03*
%TD*%
D21*
%TO.C,R2*%
X176175000Y-101215001D03*
X176175000Y-102234999D03*
%TD*%
D35*
%TO.C,C57*%
X167085900Y-133170000D03*
X167085900Y-135069998D03*
%TD*%
D41*
%TO.C,C23*%
X185589411Y-84510589D03*
X184910589Y-85189411D03*
%TD*%
D17*
%TO.C,IC5*%
X162640737Y-113351104D03*
X162140736Y-113351104D03*
X161640736Y-113351104D03*
X161140735Y-113351104D03*
X161140735Y-115357704D03*
X161640736Y-115357704D03*
X162140736Y-115357704D03*
X162640737Y-115357704D03*
D18*
X161890736Y-114354404D03*
%TD*%
D45*
%TO.C,R27*%
X179295902Y-120565402D03*
X177795902Y-120565402D03*
%TD*%
D35*
%TO.C,C46*%
X159599999Y-113159998D03*
X159599999Y-115059996D03*
%TD*%
D53*
%TO.C,SW1*%
X158950000Y-85890000D03*
X158950000Y-93090000D03*
X155950000Y-85890000D03*
X155950000Y-93090000D03*
%TD*%
D15*
%TO.C,C48*%
X187461178Y-83111178D03*
X188140000Y-83790000D03*
%TD*%
D39*
%TO.C,L16*%
X162810000Y-121175401D03*
X164960000Y-121175401D03*
%TD*%
D16*
%TO.C,C10*%
X181189411Y-99599411D03*
X180510589Y-98920589D03*
%TD*%
D42*
%TO.C,C17*%
X185980000Y-114429999D03*
X185980000Y-115389999D03*
%TD*%
D15*
%TO.C,C11*%
X180501178Y-97581178D03*
X181180000Y-98260000D03*
%TD*%
D21*
%TO.C,R7*%
X186000000Y-112530001D03*
X186000000Y-113549999D03*
%TD*%
D42*
%TO.C,C37*%
X182815898Y-118415403D03*
X182815898Y-119375403D03*
%TD*%
D20*
%TO.C,C51*%
X159980901Y-133795402D03*
X159980901Y-132835402D03*
%TD*%
D16*
%TO.C,C5*%
X172725000Y-97403822D03*
X172046178Y-96725000D03*
%TD*%
D26*
%TO.C,C55*%
X171142500Y-98110000D03*
X170182500Y-98110000D03*
%TD*%
D19*
%TO.C,C30*%
X162870737Y-99069996D03*
X162870737Y-97169998D03*
%TD*%
D25*
%TO.C,C64*%
X155685905Y-117635401D03*
X157585903Y-117635401D03*
%TD*%
D39*
%TO.C,L1*%
X181790899Y-131080404D03*
X183940899Y-131080404D03*
%TD*%
D22*
%TO.C,L3*%
X180020903Y-131075403D03*
X177870903Y-131075403D03*
%TD*%
D39*
%TO.C,L6*%
X163395000Y-111059999D03*
X165545000Y-111059999D03*
%TD*%
D40*
%TO.C,C50*%
X176235900Y-134595405D03*
X174335902Y-134595405D03*
%TD*%
D15*
%TO.C,C12*%
X181150589Y-96910589D03*
X181829411Y-97589411D03*
%TD*%
D21*
%TO.C,R4*%
X178055000Y-101205001D03*
X178055000Y-102224999D03*
%TD*%
D11*
%TO.C,R21*%
X182035900Y-135695404D03*
X182035900Y-134675406D03*
%TD*%
D17*
%TO.C,IC6*%
X170125902Y-133331303D03*
X169625901Y-133331303D03*
X169125901Y-133331303D03*
X168625900Y-133331303D03*
X168625900Y-135337903D03*
X169125901Y-135337903D03*
X169625901Y-135337903D03*
X170125902Y-135337903D03*
D18*
X169375901Y-134334603D03*
%TD*%
D39*
%TO.C,L9*%
X170885901Y-131065402D03*
X173035901Y-131065402D03*
%TD*%
D54*
%TO.C,FB1*%
X182512947Y-98217053D03*
X181827053Y-98902947D03*
%TD*%
D11*
%TO.C,R29*%
X171145899Y-135675402D03*
X171145899Y-134655404D03*
%TD*%
D15*
%TO.C,C8*%
X182470589Y-95590589D03*
X183149411Y-96269411D03*
%TD*%
D39*
%TO.C,L10*%
X159715903Y-131055404D03*
X161865903Y-131055404D03*
%TD*%
D42*
%TO.C,C61*%
X171910899Y-118395404D03*
X171910899Y-119355404D03*
%TD*%
D35*
%TO.C,C58*%
X155920900Y-133165403D03*
X155920900Y-135065401D03*
%TD*%
D21*
%TO.C,R8*%
X185040000Y-114380001D03*
X185040000Y-115399999D03*
%TD*%
D35*
%TO.C,C29*%
X183490000Y-133195402D03*
X183490000Y-135095400D03*
%TD*%
D15*
%TO.C,C6*%
X185218086Y-88330582D03*
X185896908Y-89009404D03*
%TD*%
D40*
%TO.C,C40*%
X168759998Y-114600000D03*
X166860000Y-114600000D03*
%TD*%
D28*
%TO.C,U8*%
X189812500Y-124180000D03*
D29*
X189562500Y-122742500D03*
D30*
X188625000Y-123180000D03*
X188625000Y-123680000D03*
X188625000Y-124180000D03*
X188625000Y-124680000D03*
X188625000Y-125180000D03*
D29*
X189562500Y-125617500D03*
X190062500Y-125617500D03*
D30*
X191000000Y-125180000D03*
X191000000Y-124680000D03*
X191000000Y-124180000D03*
X191000000Y-123680000D03*
X191000000Y-123180000D03*
D29*
X190062500Y-122742500D03*
%TD*%
D28*
%TO.C,U7*%
X156682500Y-103850000D03*
D29*
X156432500Y-102412500D03*
D30*
X155495000Y-102850000D03*
X155495000Y-103350000D03*
X155495000Y-103850000D03*
X155495000Y-104350000D03*
X155495000Y-104850000D03*
D29*
X156432500Y-105287500D03*
X156932500Y-105287500D03*
D30*
X157870000Y-104850000D03*
X157870000Y-104350000D03*
X157870000Y-103850000D03*
X157870000Y-103350000D03*
X157870000Y-102850000D03*
D29*
X156932500Y-102412500D03*
%TD*%
D40*
%TO.C,C52*%
X165070894Y-134535402D03*
X163170896Y-134535402D03*
%TD*%
D26*
%TO.C,C31*%
X189210000Y-130950000D03*
X188250000Y-130950000D03*
%TD*%
D17*
%TO.C,IC3*%
X165350736Y-98807704D03*
X165850737Y-98807704D03*
X166350737Y-98807704D03*
X166850738Y-98807704D03*
X166850738Y-96801104D03*
X166350737Y-96801104D03*
X165850737Y-96801104D03*
X165350736Y-96801104D03*
D18*
X166100737Y-97804404D03*
%TD*%
D22*
%TO.C,L5*%
X183085898Y-121160403D03*
X180935898Y-121160403D03*
%TD*%
%TO.C,L2*%
X164715000Y-101169999D03*
X162565000Y-101169999D03*
%TD*%
D15*
%TO.C,C71*%
X184870589Y-94810589D03*
X185549411Y-95489411D03*
%TD*%
D24*
%TO.C,R15*%
X159390001Y-81775000D03*
X160409999Y-81775000D03*
%TD*%
%TO.C,R11*%
X166365001Y-69850000D03*
X167384999Y-69850000D03*
%TD*%
D31*
%TO.C,U6*%
X189815903Y-128387902D03*
D32*
X190065903Y-129825402D03*
D33*
X191003403Y-129387902D03*
X191003403Y-128887902D03*
X191003403Y-128387902D03*
X191003403Y-127887902D03*
X191003403Y-127387902D03*
D32*
X190065903Y-126950402D03*
X189565903Y-126950402D03*
D33*
X188628403Y-127387902D03*
X188628403Y-127887902D03*
X188628403Y-128387902D03*
X188628403Y-128887902D03*
X188628403Y-129387902D03*
D32*
X189565903Y-129825402D03*
%TD*%
D19*
%TO.C,C41*%
X181355901Y-119055402D03*
X181355901Y-117155404D03*
%TD*%
D20*
%TO.C,C13*%
X157500000Y-86230000D03*
X157500000Y-85270000D03*
%TD*%
D35*
%TO.C,C54*%
X161440902Y-133155404D03*
X161440902Y-135055402D03*
%TD*%
D55*
%TO.C,R1*%
X182510624Y-96950624D03*
X181789376Y-96229376D03*
%TD*%
D20*
%TO.C,C56*%
X174062500Y-101550000D03*
X174062500Y-100590000D03*
%TD*%
D19*
%TO.C,C45*%
X186875899Y-119065399D03*
X186875899Y-117165401D03*
%TD*%
D56*
%TO.C,J4*%
X158925000Y-83325000D03*
X156575000Y-81325000D03*
X158925000Y-79325000D03*
X156575000Y-77325000D03*
%TD*%
D41*
%TO.C,C14*%
X167443821Y-92846180D03*
X166764999Y-93525002D03*
%TD*%
D39*
%TO.C,L15*%
X174010000Y-121165402D03*
X176160000Y-121165402D03*
%TD*%
D31*
%TO.C,U4*%
X189732500Y-119050000D03*
D32*
X189982500Y-120487500D03*
D33*
X190920000Y-120050000D03*
X190920000Y-119550000D03*
X190920000Y-119050000D03*
X190920000Y-118550000D03*
X190920000Y-118050000D03*
D32*
X189982500Y-117612500D03*
X189482500Y-117612500D03*
D33*
X188545000Y-118050000D03*
X188545000Y-118550000D03*
X188545000Y-119050000D03*
X188545000Y-119550000D03*
X188545000Y-120050000D03*
D32*
X189482500Y-120487500D03*
%TD*%
D17*
%TO.C,IC9*%
X161809998Y-118956600D03*
X162309999Y-118956600D03*
X162809999Y-118956600D03*
X163310000Y-118956600D03*
X163310000Y-116950000D03*
X162809999Y-116950000D03*
X162309999Y-116950000D03*
X161809998Y-116950000D03*
D18*
X162559999Y-117953300D03*
%TD*%
M02*
