M48
; DRILL file {KiCad 9.0.0} date 2025-03-08T21:49:19+0100
; FORMAT={-:-/ absolute / metric / decimal}
; #@! TF.CreationDate,2025-03-08T21:49:19+01:00
; #@! TF.GenerationSoftware,Kicad,Pcbnew,9.0.0
; #@! TF.FileFunction,Plated,1,4,PTH
FMAT,2
METRIC
; #@! TA.AperFunction,Plated,PTH,ViaDrill
T1C0.200
%
G90
G05
T1
X154.825Y-99.275
X154.87Y-108.57
X154.9Y-98.52
X154.95Y-107.8
X155.375Y-106.225
X155.45Y-100.125
X155.47Y-109.39
X155.48Y-102.51
X155.49Y-105.19
X155.582Y-111.858
X155.91Y-106.62
X156.001Y-97.434
X156.1Y-102.38
X156.167Y-111.725
X156.29Y-126.22
X156.406Y-117.41
X156.406Y-117.87
X156.52Y-115.92
X156.55Y-101.325
X156.87Y-110.67
X157.086Y-132.555
X157.11Y-135.47
X157.223Y-100.258
X157.27Y-109.51
X157.4Y-105.27
X157.411Y-132.881
X157.442Y-114.652
X157.825Y-97.425
X157.825Y-100.125
X157.825Y-126.7
X157.857Y-111.627
X157.89Y-106.72
X157.91Y-109.39
X157.92Y-102.52
X157.95Y-136.025
X158.0Y-119.325
X158.0Y-119.775
X158.41Y-104.1
X158.558Y-103.47
X158.7Y-112.45
X158.811Y-114.044
X158.95Y-136.025
X159.06Y-94.24
X159.55Y-135.29
X159.771Y-118.14
X159.899Y-125.549
X159.98Y-97.424
X159.98Y-97.884
X160.021Y-120.086
X160.346Y-119.76
X160.431Y-132.486
X160.728Y-112.462
X160.756Y-132.16
X160.83Y-105.47
X160.875Y-115.895
X160.89Y-102.82
X161.02Y-81.34
X161.061Y-112.794
X161.075Y-84.525
X161.075Y-83.925
X161.11Y-82.689
X161.111Y-83.289
X161.2Y-116.95
X161.2Y-127.4
X161.48Y-125.452
X161.5Y-106.69
X161.631Y-115.914
X161.641Y-99.954
X161.641Y-99.484
X162.2Y-116.17
X162.57Y-78.91
X162.79Y-132.42
X162.79Y-132.89
X162.84Y-116.369
X162.84Y-106.09
X162.94Y-109.49
X163.02Y-125.54
X163.225Y-115.3
X163.322Y-94.878
X163.42Y-105.54
X163.43Y-119.52
X163.61Y-100.13
X163.61Y-116.45
X163.755Y-119.845
X163.935Y-99.795
X164.125Y-112.5
X164.35Y-134.76
X164.35Y-134.3
X164.406Y-112.149
X164.41Y-116.0
X164.52Y-110.61
X164.57Y-106.7
X164.772Y-96.186
X165.21Y-89.59
X165.32Y-105.66
X165.37Y-96.23
X166.351Y-96.23
X166.37Y-105.54
X166.42Y-106.56
X166.425Y-122.736
X166.458Y-112.762
X166.461Y-112.294
X166.77Y-84.03
X166.901Y-99.384
X166.951Y-96.24
X167.03Y-91.41
X167.261Y-99.684
X167.316Y-117.79
X167.316Y-117.33
X167.651Y-90.569
X167.85Y-95.725
X168.02Y-114.41
X168.02Y-114.864
X168.029Y-125.909
X168.214Y-96.202
X168.22Y-124.08
X168.228Y-132.428
X168.276Y-135.355
X168.295Y-91.895
X168.56Y-132.76
X168.72Y-108.17
X168.775Y-85.975
X168.79Y-92.24
X168.9Y-95.7
X168.94Y-119.14
X168.94Y-119.61
X168.99Y-126.71
X169.116Y-135.91
X169.15Y-94.1
X169.225Y-96.204
X169.515Y-99.785
X169.67Y-98.1
X169.811Y-84.971
X169.877Y-93.335
X169.971Y-84.393
X170.095Y-83.7
X170.396Y-82.798
X170.706Y-135.325
X170.93Y-125.51
X171.11Y-116.29
X171.175Y-120.2
X171.2Y-119.75
X171.535Y-94.985
X171.591Y-132.496
X171.638Y-83.122
X171.82Y-97.64
X171.86Y-95.429
X171.916Y-132.17
X172.04Y-126.72
X172.148Y-98.515
X172.26Y-115.15
X172.304Y-95.754
X172.53Y-125.51
X172.616Y-116.775
X172.715Y-105.6
X173.0Y-81.75
X173.175Y-105.6
X173.29Y-97.75
X173.37Y-96.82
X173.64Y-105.62
X173.74Y-108.28
X173.75Y-108.74
X173.75Y-109.2
X173.76Y-99.86
X173.966Y-116.175
X173.966Y-132.605
X173.966Y-133.075
X174.07Y-125.54
X174.225Y-103.0
X174.225Y-103.46
X174.23Y-103.92
X174.47Y-106.65
X174.516Y-119.335
X174.82Y-116.26
X174.875Y-119.625
X174.95Y-106.65
X175.12Y-97.96
X175.41Y-106.65
X175.526Y-134.82
X175.526Y-134.36
X175.63Y-100.57
X176.469Y-118.055
X177.01Y-118.15
X177.239Y-118.539
X177.32Y-122.62
X177.33Y-77.86
X177.56Y-100.42
X178.031Y-109.321
X178.27Y-118.5
X178.277Y-80.239
X178.46Y-118.09
X178.75Y-118.48
X178.823Y-80.639
X178.824Y-97.67
X179.11Y-132.58
X179.156Y-135.455
X179.221Y-97.22
X179.237Y-81.073
X179.456Y-132.87
X179.46Y-115.45
X179.475Y-110.566
X179.655Y-96.806
X179.98Y-126.7
X179.996Y-136.01
X180.006Y-119.835
X180.006Y-119.365
X180.07Y-80.81
X180.125Y-96.425
X180.545Y-81.237
X180.996Y-136.015
X181.075Y-103.6
X181.075Y-104.05
X181.075Y-104.5
X181.1Y-111.17
X181.12Y-100.18
X181.616Y-135.32
X181.9Y-125.55
X182.04Y-120.06
X182.365Y-119.735
X182.485Y-132.515
X182.73Y-82.54
X182.78Y-93.62
X182.81Y-132.19
X183.05Y-126.7
X183.266Y-116.895
X183.52Y-92.89
X183.62Y-76.41
X183.82Y-116.23
X184.64Y-113.95
X184.836Y-116.225
X184.836Y-132.475
X184.836Y-132.945
X184.87Y-73.66
X185.0Y-110.72
X185.031Y-107.23
X185.06Y-91.8
X185.08Y-94.082
X185.08Y-125.55
X185.089Y-101.661
X185.2Y-83.24
X185.22Y-105.77
X185.34Y-89.54
X185.407Y-101.343
X185.5Y-116.225
X185.555Y-119.37
X185.67Y-105.81
X185.725Y-101.025
X185.837Y-117.39
X185.89Y-95.85
X185.944Y-81.85
X185.98Y-84.19
X186.144Y-98.526
X186.16Y-105.75
X186.4Y-134.39
X186.4Y-134.85
X186.536Y-98.071
X186.55Y-126.68
X186.87Y-85.65
X186.93Y-82.98
X187.43Y-99.708
X187.46Y-118.1
X187.85Y-99.28
X187.9Y-84.53
X187.906Y-119.655
X188.01Y-128.89
X188.08Y-120.84
X188.08Y-128.14
X188.215Y-88.526
X188.263Y-121.823
X188.345Y-105.56
X188.45Y-115.925
X188.496Y-134.845
X188.546Y-132.165
X188.59Y-122.84
X188.63Y-125.52
X188.63Y-130.25
X188.874Y-101.524
X188.889Y-101.039
X188.9Y-100.575
X188.99Y-107.9
X188.99Y-110.71
X189.03Y-126.97
X189.116Y-120.461
X189.156Y-132.025
X189.41Y-84.59
X189.64Y-105.6
X189.64Y-106.49
X189.65Y-106.02
X189.67Y-121.76
X189.725Y-111.65
X189.77Y-130.96
X190.219Y-98.424
X190.4Y-129.85
X190.446Y-134.895
X190.52Y-125.57
X190.569Y-97.911
X190.67Y-121.083
X190.73Y-126.86
X190.919Y-97.416
X190.936Y-132.165
X190.94Y-120.49
X190.96Y-117.66
X191.0Y-129.72
X191.01Y-122.84
X191.27Y-96.93
X191.308Y-117.155
X191.476Y-133.755
X191.54Y-124.43
X191.556Y-133.005
X191.62Y-123.67
M30
