%TF.GenerationSoftware,KiCad,Pcbnew,9.0.0*%
%TF.CreationDate,2025-03-10T21:19:58+01:00*%
%TF.ProjectId,NPulse_v4,4e50756c-7365-45f7-9634-2e6b69636164,rev?*%
%TF.SameCoordinates,Original*%
%TF.FileFunction,Legend,Bot*%
%TF.FilePolarity,Positive*%
%FSLAX46Y46*%
G04 Gerber Fmt 4.6, Leading zero omitted, Abs format (unit mm)*
G04 Created by KiCad (PCBNEW 9.0.0) date 2025-03-10 21:19:58*
%MOMM*%
%LPD*%
G01*
G04 APERTURE LIST*
%ADD10C,0.300000*%
%ADD11C,0.050000*%
%ADD12C,0.000000*%
G04 APERTURE END LIST*
D10*
X175285489Y-123020828D02*
X175285489Y-121520828D01*
X175285489Y-121520828D02*
X174785489Y-122592257D01*
X174785489Y-122592257D02*
X174285489Y-121520828D01*
X174285489Y-121520828D02*
X174285489Y-123020828D01*
X173356917Y-123020828D02*
X173499774Y-122949400D01*
X173499774Y-122949400D02*
X173571203Y-122877971D01*
X173571203Y-122877971D02*
X173642631Y-122735114D01*
X173642631Y-122735114D02*
X173642631Y-122306542D01*
X173642631Y-122306542D02*
X173571203Y-122163685D01*
X173571203Y-122163685D02*
X173499774Y-122092257D01*
X173499774Y-122092257D02*
X173356917Y-122020828D01*
X173356917Y-122020828D02*
X173142631Y-122020828D01*
X173142631Y-122020828D02*
X172999774Y-122092257D01*
X172999774Y-122092257D02*
X172928346Y-122163685D01*
X172928346Y-122163685D02*
X172856917Y-122306542D01*
X172856917Y-122306542D02*
X172856917Y-122735114D01*
X172856917Y-122735114D02*
X172928346Y-122877971D01*
X172928346Y-122877971D02*
X172999774Y-122949400D01*
X172999774Y-122949400D02*
X173142631Y-123020828D01*
X173142631Y-123020828D02*
X173356917Y-123020828D01*
X172428345Y-122020828D02*
X171856917Y-122020828D01*
X172214060Y-121520828D02*
X172214060Y-122806542D01*
X172214060Y-122806542D02*
X172142631Y-122949400D01*
X172142631Y-122949400D02*
X171999774Y-123020828D01*
X171999774Y-123020828D02*
X171856917Y-123020828D01*
X171142631Y-123020828D02*
X171285488Y-122949400D01*
X171285488Y-122949400D02*
X171356917Y-122877971D01*
X171356917Y-122877971D02*
X171428345Y-122735114D01*
X171428345Y-122735114D02*
X171428345Y-122306542D01*
X171428345Y-122306542D02*
X171356917Y-122163685D01*
X171356917Y-122163685D02*
X171285488Y-122092257D01*
X171285488Y-122092257D02*
X171142631Y-122020828D01*
X171142631Y-122020828D02*
X170928345Y-122020828D01*
X170928345Y-122020828D02*
X170785488Y-122092257D01*
X170785488Y-122092257D02*
X170714060Y-122163685D01*
X170714060Y-122163685D02*
X170642631Y-122306542D01*
X170642631Y-122306542D02*
X170642631Y-122735114D01*
X170642631Y-122735114D02*
X170714060Y-122877971D01*
X170714060Y-122877971D02*
X170785488Y-122949400D01*
X170785488Y-122949400D02*
X170928345Y-123020828D01*
X170928345Y-123020828D02*
X171142631Y-123020828D01*
X169999774Y-123020828D02*
X169999774Y-122020828D01*
X169999774Y-122306542D02*
X169928345Y-122163685D01*
X169928345Y-122163685D02*
X169856917Y-122092257D01*
X169856917Y-122092257D02*
X169714059Y-122020828D01*
X169714059Y-122020828D02*
X169571202Y-122020828D01*
X167285489Y-122020828D02*
X167285489Y-123020828D01*
X167642631Y-121449400D02*
X167999774Y-122520828D01*
X167999774Y-122520828D02*
X167071203Y-122520828D01*
X168385489Y-110130828D02*
X168385489Y-108630828D01*
X168385489Y-108630828D02*
X167885489Y-109702257D01*
X167885489Y-109702257D02*
X167385489Y-108630828D01*
X167385489Y-108630828D02*
X167385489Y-110130828D01*
X166456917Y-110130828D02*
X166599774Y-110059400D01*
X166599774Y-110059400D02*
X166671203Y-109987971D01*
X166671203Y-109987971D02*
X166742631Y-109845114D01*
X166742631Y-109845114D02*
X166742631Y-109416542D01*
X166742631Y-109416542D02*
X166671203Y-109273685D01*
X166671203Y-109273685D02*
X166599774Y-109202257D01*
X166599774Y-109202257D02*
X166456917Y-109130828D01*
X166456917Y-109130828D02*
X166242631Y-109130828D01*
X166242631Y-109130828D02*
X166099774Y-109202257D01*
X166099774Y-109202257D02*
X166028346Y-109273685D01*
X166028346Y-109273685D02*
X165956917Y-109416542D01*
X165956917Y-109416542D02*
X165956917Y-109845114D01*
X165956917Y-109845114D02*
X166028346Y-109987971D01*
X166028346Y-109987971D02*
X166099774Y-110059400D01*
X166099774Y-110059400D02*
X166242631Y-110130828D01*
X166242631Y-110130828D02*
X166456917Y-110130828D01*
X165528345Y-109130828D02*
X164956917Y-109130828D01*
X165314060Y-108630828D02*
X165314060Y-109916542D01*
X165314060Y-109916542D02*
X165242631Y-110059400D01*
X165242631Y-110059400D02*
X165099774Y-110130828D01*
X165099774Y-110130828D02*
X164956917Y-110130828D01*
X164242631Y-110130828D02*
X164385488Y-110059400D01*
X164385488Y-110059400D02*
X164456917Y-109987971D01*
X164456917Y-109987971D02*
X164528345Y-109845114D01*
X164528345Y-109845114D02*
X164528345Y-109416542D01*
X164528345Y-109416542D02*
X164456917Y-109273685D01*
X164456917Y-109273685D02*
X164385488Y-109202257D01*
X164385488Y-109202257D02*
X164242631Y-109130828D01*
X164242631Y-109130828D02*
X164028345Y-109130828D01*
X164028345Y-109130828D02*
X163885488Y-109202257D01*
X163885488Y-109202257D02*
X163814060Y-109273685D01*
X163814060Y-109273685D02*
X163742631Y-109416542D01*
X163742631Y-109416542D02*
X163742631Y-109845114D01*
X163742631Y-109845114D02*
X163814060Y-109987971D01*
X163814060Y-109987971D02*
X163885488Y-110059400D01*
X163885488Y-110059400D02*
X164028345Y-110130828D01*
X164028345Y-110130828D02*
X164242631Y-110130828D01*
X163099774Y-110130828D02*
X163099774Y-109130828D01*
X163099774Y-109416542D02*
X163028345Y-109273685D01*
X163028345Y-109273685D02*
X162956917Y-109202257D01*
X162956917Y-109202257D02*
X162814059Y-109130828D01*
X162814059Y-109130828D02*
X162671202Y-109130828D01*
X160385489Y-108630828D02*
X160671203Y-108630828D01*
X160671203Y-108630828D02*
X160814060Y-108702257D01*
X160814060Y-108702257D02*
X160885489Y-108773685D01*
X160885489Y-108773685D02*
X161028346Y-108987971D01*
X161028346Y-108987971D02*
X161099774Y-109273685D01*
X161099774Y-109273685D02*
X161099774Y-109845114D01*
X161099774Y-109845114D02*
X161028346Y-109987971D01*
X161028346Y-109987971D02*
X160956917Y-110059400D01*
X160956917Y-110059400D02*
X160814060Y-110130828D01*
X160814060Y-110130828D02*
X160528346Y-110130828D01*
X160528346Y-110130828D02*
X160385489Y-110059400D01*
X160385489Y-110059400D02*
X160314060Y-109987971D01*
X160314060Y-109987971D02*
X160242631Y-109845114D01*
X160242631Y-109845114D02*
X160242631Y-109487971D01*
X160242631Y-109487971D02*
X160314060Y-109345114D01*
X160314060Y-109345114D02*
X160385489Y-109273685D01*
X160385489Y-109273685D02*
X160528346Y-109202257D01*
X160528346Y-109202257D02*
X160814060Y-109202257D01*
X160814060Y-109202257D02*
X160956917Y-109273685D01*
X160956917Y-109273685D02*
X161028346Y-109345114D01*
X161028346Y-109345114D02*
X161099774Y-109487971D01*
X185925489Y-123020828D02*
X185925489Y-121520828D01*
X185925489Y-121520828D02*
X185425489Y-122592257D01*
X185425489Y-122592257D02*
X184925489Y-121520828D01*
X184925489Y-121520828D02*
X184925489Y-123020828D01*
X183996917Y-123020828D02*
X184139774Y-122949400D01*
X184139774Y-122949400D02*
X184211203Y-122877971D01*
X184211203Y-122877971D02*
X184282631Y-122735114D01*
X184282631Y-122735114D02*
X184282631Y-122306542D01*
X184282631Y-122306542D02*
X184211203Y-122163685D01*
X184211203Y-122163685D02*
X184139774Y-122092257D01*
X184139774Y-122092257D02*
X183996917Y-122020828D01*
X183996917Y-122020828D02*
X183782631Y-122020828D01*
X183782631Y-122020828D02*
X183639774Y-122092257D01*
X183639774Y-122092257D02*
X183568346Y-122163685D01*
X183568346Y-122163685D02*
X183496917Y-122306542D01*
X183496917Y-122306542D02*
X183496917Y-122735114D01*
X183496917Y-122735114D02*
X183568346Y-122877971D01*
X183568346Y-122877971D02*
X183639774Y-122949400D01*
X183639774Y-122949400D02*
X183782631Y-123020828D01*
X183782631Y-123020828D02*
X183996917Y-123020828D01*
X183068345Y-122020828D02*
X182496917Y-122020828D01*
X182854060Y-121520828D02*
X182854060Y-122806542D01*
X182854060Y-122806542D02*
X182782631Y-122949400D01*
X182782631Y-122949400D02*
X182639774Y-123020828D01*
X182639774Y-123020828D02*
X182496917Y-123020828D01*
X181782631Y-123020828D02*
X181925488Y-122949400D01*
X181925488Y-122949400D02*
X181996917Y-122877971D01*
X181996917Y-122877971D02*
X182068345Y-122735114D01*
X182068345Y-122735114D02*
X182068345Y-122306542D01*
X182068345Y-122306542D02*
X181996917Y-122163685D01*
X181996917Y-122163685D02*
X181925488Y-122092257D01*
X181925488Y-122092257D02*
X181782631Y-122020828D01*
X181782631Y-122020828D02*
X181568345Y-122020828D01*
X181568345Y-122020828D02*
X181425488Y-122092257D01*
X181425488Y-122092257D02*
X181354060Y-122163685D01*
X181354060Y-122163685D02*
X181282631Y-122306542D01*
X181282631Y-122306542D02*
X181282631Y-122735114D01*
X181282631Y-122735114D02*
X181354060Y-122877971D01*
X181354060Y-122877971D02*
X181425488Y-122949400D01*
X181425488Y-122949400D02*
X181568345Y-123020828D01*
X181568345Y-123020828D02*
X181782631Y-123020828D01*
X180639774Y-123020828D02*
X180639774Y-122020828D01*
X180639774Y-122306542D02*
X180568345Y-122163685D01*
X180568345Y-122163685D02*
X180496917Y-122092257D01*
X180496917Y-122092257D02*
X180354059Y-122020828D01*
X180354059Y-122020828D02*
X180211202Y-122020828D01*
X178639774Y-121663685D02*
X178568346Y-121592257D01*
X178568346Y-121592257D02*
X178425489Y-121520828D01*
X178425489Y-121520828D02*
X178068346Y-121520828D01*
X178068346Y-121520828D02*
X177925489Y-121592257D01*
X177925489Y-121592257D02*
X177854060Y-121663685D01*
X177854060Y-121663685D02*
X177782631Y-121806542D01*
X177782631Y-121806542D02*
X177782631Y-121949400D01*
X177782631Y-121949400D02*
X177854060Y-122163685D01*
X177854060Y-122163685D02*
X178711203Y-123020828D01*
X178711203Y-123020828D02*
X177782631Y-123020828D01*
D11*
X178023296Y-86994440D02*
X178042344Y-87013488D01*
X178042344Y-87013488D02*
X178099486Y-87032535D01*
X178099486Y-87032535D02*
X178137582Y-87032535D01*
X178137582Y-87032535D02*
X178194725Y-87013488D01*
X178194725Y-87013488D02*
X178232820Y-86975392D01*
X178232820Y-86975392D02*
X178251867Y-86937297D01*
X178251867Y-86937297D02*
X178270915Y-86861107D01*
X178270915Y-86861107D02*
X178270915Y-86803964D01*
X178270915Y-86803964D02*
X178251867Y-86727773D01*
X178251867Y-86727773D02*
X178232820Y-86689678D01*
X178232820Y-86689678D02*
X178194725Y-86651583D01*
X178194725Y-86651583D02*
X178137582Y-86632535D01*
X178137582Y-86632535D02*
X178099486Y-86632535D01*
X178099486Y-86632535D02*
X178042344Y-86651583D01*
X178042344Y-86651583D02*
X178023296Y-86670630D01*
X177794725Y-87032535D02*
X177832820Y-87013488D01*
X177832820Y-87013488D02*
X177851867Y-86994440D01*
X177851867Y-86994440D02*
X177870915Y-86956345D01*
X177870915Y-86956345D02*
X177870915Y-86842059D01*
X177870915Y-86842059D02*
X177851867Y-86803964D01*
X177851867Y-86803964D02*
X177832820Y-86784916D01*
X177832820Y-86784916D02*
X177794725Y-86765868D01*
X177794725Y-86765868D02*
X177737582Y-86765868D01*
X177737582Y-86765868D02*
X177699486Y-86784916D01*
X177699486Y-86784916D02*
X177680439Y-86803964D01*
X177680439Y-86803964D02*
X177661391Y-86842059D01*
X177661391Y-86842059D02*
X177661391Y-86956345D01*
X177661391Y-86956345D02*
X177680439Y-86994440D01*
X177680439Y-86994440D02*
X177699486Y-87013488D01*
X177699486Y-87013488D02*
X177737582Y-87032535D01*
X177737582Y-87032535D02*
X177794725Y-87032535D01*
X177489962Y-86765868D02*
X177489962Y-87032535D01*
X177489962Y-86803964D02*
X177470915Y-86784916D01*
X177470915Y-86784916D02*
X177432820Y-86765868D01*
X177432820Y-86765868D02*
X177375677Y-86765868D01*
X177375677Y-86765868D02*
X177337581Y-86784916D01*
X177337581Y-86784916D02*
X177318534Y-86823011D01*
X177318534Y-86823011D02*
X177318534Y-87032535D01*
X177185200Y-86765868D02*
X177032819Y-86765868D01*
X177128057Y-86632535D02*
X177128057Y-86975392D01*
X177128057Y-86975392D02*
X177109010Y-87013488D01*
X177109010Y-87013488D02*
X177070915Y-87032535D01*
X177070915Y-87032535D02*
X177032819Y-87032535D01*
X176899486Y-87032535D02*
X176899486Y-86765868D01*
X176899486Y-86842059D02*
X176880439Y-86803964D01*
X176880439Y-86803964D02*
X176861391Y-86784916D01*
X176861391Y-86784916D02*
X176823296Y-86765868D01*
X176823296Y-86765868D02*
X176785201Y-86765868D01*
X176594725Y-87032535D02*
X176632820Y-87013488D01*
X176632820Y-87013488D02*
X176651867Y-86994440D01*
X176651867Y-86994440D02*
X176670915Y-86956345D01*
X176670915Y-86956345D02*
X176670915Y-86842059D01*
X176670915Y-86842059D02*
X176651867Y-86803964D01*
X176651867Y-86803964D02*
X176632820Y-86784916D01*
X176632820Y-86784916D02*
X176594725Y-86765868D01*
X176594725Y-86765868D02*
X176537582Y-86765868D01*
X176537582Y-86765868D02*
X176499486Y-86784916D01*
X176499486Y-86784916D02*
X176480439Y-86803964D01*
X176480439Y-86803964D02*
X176461391Y-86842059D01*
X176461391Y-86842059D02*
X176461391Y-86956345D01*
X176461391Y-86956345D02*
X176480439Y-86994440D01*
X176480439Y-86994440D02*
X176499486Y-87013488D01*
X176499486Y-87013488D02*
X176537582Y-87032535D01*
X176537582Y-87032535D02*
X176594725Y-87032535D01*
X176232820Y-87032535D02*
X176270915Y-87013488D01*
X176270915Y-87013488D02*
X176289962Y-86975392D01*
X176289962Y-86975392D02*
X176289962Y-86632535D01*
X175642343Y-86823011D02*
X175585200Y-86842059D01*
X175585200Y-86842059D02*
X175566153Y-86861107D01*
X175566153Y-86861107D02*
X175547105Y-86899202D01*
X175547105Y-86899202D02*
X175547105Y-86956345D01*
X175547105Y-86956345D02*
X175566153Y-86994440D01*
X175566153Y-86994440D02*
X175585200Y-87013488D01*
X175585200Y-87013488D02*
X175623295Y-87032535D01*
X175623295Y-87032535D02*
X175775676Y-87032535D01*
X175775676Y-87032535D02*
X175775676Y-86632535D01*
X175775676Y-86632535D02*
X175642343Y-86632535D01*
X175642343Y-86632535D02*
X175604248Y-86651583D01*
X175604248Y-86651583D02*
X175585200Y-86670630D01*
X175585200Y-86670630D02*
X175566153Y-86708726D01*
X175566153Y-86708726D02*
X175566153Y-86746821D01*
X175566153Y-86746821D02*
X175585200Y-86784916D01*
X175585200Y-86784916D02*
X175604248Y-86803964D01*
X175604248Y-86803964D02*
X175642343Y-86823011D01*
X175642343Y-86823011D02*
X175775676Y-86823011D01*
X175318534Y-87032535D02*
X175356629Y-87013488D01*
X175356629Y-87013488D02*
X175375676Y-86994440D01*
X175375676Y-86994440D02*
X175394724Y-86956345D01*
X175394724Y-86956345D02*
X175394724Y-86842059D01*
X175394724Y-86842059D02*
X175375676Y-86803964D01*
X175375676Y-86803964D02*
X175356629Y-86784916D01*
X175356629Y-86784916D02*
X175318534Y-86765868D01*
X175318534Y-86765868D02*
X175261391Y-86765868D01*
X175261391Y-86765868D02*
X175223295Y-86784916D01*
X175223295Y-86784916D02*
X175204248Y-86803964D01*
X175204248Y-86803964D02*
X175185200Y-86842059D01*
X175185200Y-86842059D02*
X175185200Y-86956345D01*
X175185200Y-86956345D02*
X175204248Y-86994440D01*
X175204248Y-86994440D02*
X175223295Y-87013488D01*
X175223295Y-87013488D02*
X175261391Y-87032535D01*
X175261391Y-87032535D02*
X175318534Y-87032535D01*
X174842343Y-87032535D02*
X174842343Y-86823011D01*
X174842343Y-86823011D02*
X174861390Y-86784916D01*
X174861390Y-86784916D02*
X174899486Y-86765868D01*
X174899486Y-86765868D02*
X174975676Y-86765868D01*
X174975676Y-86765868D02*
X175013771Y-86784916D01*
X174842343Y-87013488D02*
X174880438Y-87032535D01*
X174880438Y-87032535D02*
X174975676Y-87032535D01*
X174975676Y-87032535D02*
X175013771Y-87013488D01*
X175013771Y-87013488D02*
X175032819Y-86975392D01*
X175032819Y-86975392D02*
X175032819Y-86937297D01*
X175032819Y-86937297D02*
X175013771Y-86899202D01*
X175013771Y-86899202D02*
X174975676Y-86880154D01*
X174975676Y-86880154D02*
X174880438Y-86880154D01*
X174880438Y-86880154D02*
X174842343Y-86861107D01*
X174651866Y-87032535D02*
X174651866Y-86765868D01*
X174651866Y-86842059D02*
X174632819Y-86803964D01*
X174632819Y-86803964D02*
X174613771Y-86784916D01*
X174613771Y-86784916D02*
X174575676Y-86765868D01*
X174575676Y-86765868D02*
X174537581Y-86765868D01*
X174232819Y-87032535D02*
X174232819Y-86632535D01*
X174232819Y-87013488D02*
X174270914Y-87032535D01*
X174270914Y-87032535D02*
X174347105Y-87032535D01*
X174347105Y-87032535D02*
X174385200Y-87013488D01*
X174385200Y-87013488D02*
X174404247Y-86994440D01*
X174404247Y-86994440D02*
X174423295Y-86956345D01*
X174423295Y-86956345D02*
X174423295Y-86842059D01*
X174423295Y-86842059D02*
X174404247Y-86803964D01*
X174404247Y-86803964D02*
X174385200Y-86784916D01*
X174385200Y-86784916D02*
X174347105Y-86765868D01*
X174347105Y-86765868D02*
X174270914Y-86765868D01*
X174270914Y-86765868D02*
X174232819Y-86784916D01*
X178175677Y-87276513D02*
X178137582Y-87276513D01*
X178137582Y-87276513D02*
X178099486Y-87295561D01*
X178099486Y-87295561D02*
X178080439Y-87314608D01*
X178080439Y-87314608D02*
X178061391Y-87352704D01*
X178061391Y-87352704D02*
X178042344Y-87428894D01*
X178042344Y-87428894D02*
X178042344Y-87524132D01*
X178042344Y-87524132D02*
X178061391Y-87600323D01*
X178061391Y-87600323D02*
X178080439Y-87638418D01*
X178080439Y-87638418D02*
X178099486Y-87657466D01*
X178099486Y-87657466D02*
X178137582Y-87676513D01*
X178137582Y-87676513D02*
X178175677Y-87676513D01*
X178175677Y-87676513D02*
X178213772Y-87657466D01*
X178213772Y-87657466D02*
X178232820Y-87638418D01*
X178232820Y-87638418D02*
X178251867Y-87600323D01*
X178251867Y-87600323D02*
X178270915Y-87524132D01*
X178270915Y-87524132D02*
X178270915Y-87428894D01*
X178270915Y-87428894D02*
X178251867Y-87352704D01*
X178251867Y-87352704D02*
X178232820Y-87314608D01*
X178232820Y-87314608D02*
X178213772Y-87295561D01*
X178213772Y-87295561D02*
X178175677Y-87276513D01*
X177851868Y-87676513D02*
X177775677Y-87676513D01*
X177775677Y-87676513D02*
X177737582Y-87657466D01*
X177737582Y-87657466D02*
X177718534Y-87638418D01*
X177718534Y-87638418D02*
X177680439Y-87581275D01*
X177680439Y-87581275D02*
X177661392Y-87505085D01*
X177661392Y-87505085D02*
X177661392Y-87352704D01*
X177661392Y-87352704D02*
X177680439Y-87314608D01*
X177680439Y-87314608D02*
X177699487Y-87295561D01*
X177699487Y-87295561D02*
X177737582Y-87276513D01*
X177737582Y-87276513D02*
X177813773Y-87276513D01*
X177813773Y-87276513D02*
X177851868Y-87295561D01*
X177851868Y-87295561D02*
X177870915Y-87314608D01*
X177870915Y-87314608D02*
X177889963Y-87352704D01*
X177889963Y-87352704D02*
X177889963Y-87447942D01*
X177889963Y-87447942D02*
X177870915Y-87486037D01*
X177870915Y-87486037D02*
X177851868Y-87505085D01*
X177851868Y-87505085D02*
X177813773Y-87524132D01*
X177813773Y-87524132D02*
X177737582Y-87524132D01*
X177737582Y-87524132D02*
X177699487Y-87505085D01*
X177699487Y-87505085D02*
X177680439Y-87486037D01*
X177680439Y-87486037D02*
X177661392Y-87447942D01*
X177489963Y-87638418D02*
X177470916Y-87657466D01*
X177470916Y-87657466D02*
X177489963Y-87676513D01*
X177489963Y-87676513D02*
X177509011Y-87657466D01*
X177509011Y-87657466D02*
X177489963Y-87638418D01*
X177489963Y-87638418D02*
X177489963Y-87676513D01*
X177223297Y-87276513D02*
X177185202Y-87276513D01*
X177185202Y-87276513D02*
X177147106Y-87295561D01*
X177147106Y-87295561D02*
X177128059Y-87314608D01*
X177128059Y-87314608D02*
X177109011Y-87352704D01*
X177109011Y-87352704D02*
X177089964Y-87428894D01*
X177089964Y-87428894D02*
X177089964Y-87524132D01*
X177089964Y-87524132D02*
X177109011Y-87600323D01*
X177109011Y-87600323D02*
X177128059Y-87638418D01*
X177128059Y-87638418D02*
X177147106Y-87657466D01*
X177147106Y-87657466D02*
X177185202Y-87676513D01*
X177185202Y-87676513D02*
X177223297Y-87676513D01*
X177223297Y-87676513D02*
X177261392Y-87657466D01*
X177261392Y-87657466D02*
X177280440Y-87638418D01*
X177280440Y-87638418D02*
X177299487Y-87600323D01*
X177299487Y-87600323D02*
X177318535Y-87524132D01*
X177318535Y-87524132D02*
X177318535Y-87428894D01*
X177318535Y-87428894D02*
X177299487Y-87352704D01*
X177299487Y-87352704D02*
X177280440Y-87314608D01*
X177280440Y-87314608D02*
X177261392Y-87295561D01*
X177261392Y-87295561D02*
X177223297Y-87276513D01*
X176956631Y-87276513D02*
X176709012Y-87276513D01*
X176709012Y-87276513D02*
X176842345Y-87428894D01*
X176842345Y-87428894D02*
X176785202Y-87428894D01*
X176785202Y-87428894D02*
X176747107Y-87447942D01*
X176747107Y-87447942D02*
X176728059Y-87466989D01*
X176728059Y-87466989D02*
X176709012Y-87505085D01*
X176709012Y-87505085D02*
X176709012Y-87600323D01*
X176709012Y-87600323D02*
X176728059Y-87638418D01*
X176728059Y-87638418D02*
X176747107Y-87657466D01*
X176747107Y-87657466D02*
X176785202Y-87676513D01*
X176785202Y-87676513D02*
X176899488Y-87676513D01*
X176899488Y-87676513D02*
X176937583Y-87657466D01*
X176937583Y-87657466D02*
X176956631Y-87638418D01*
X176537583Y-87638418D02*
X176518536Y-87657466D01*
X176518536Y-87657466D02*
X176537583Y-87676513D01*
X176537583Y-87676513D02*
X176556631Y-87657466D01*
X176556631Y-87657466D02*
X176537583Y-87638418D01*
X176537583Y-87638418D02*
X176537583Y-87676513D01*
X176366155Y-87314608D02*
X176347107Y-87295561D01*
X176347107Y-87295561D02*
X176309012Y-87276513D01*
X176309012Y-87276513D02*
X176213774Y-87276513D01*
X176213774Y-87276513D02*
X176175679Y-87295561D01*
X176175679Y-87295561D02*
X176156631Y-87314608D01*
X176156631Y-87314608D02*
X176137584Y-87352704D01*
X176137584Y-87352704D02*
X176137584Y-87390799D01*
X176137584Y-87390799D02*
X176156631Y-87447942D01*
X176156631Y-87447942D02*
X176385203Y-87676513D01*
X176385203Y-87676513D02*
X176137584Y-87676513D01*
X175889965Y-87276513D02*
X175851870Y-87276513D01*
X175851870Y-87276513D02*
X175813774Y-87295561D01*
X175813774Y-87295561D02*
X175794727Y-87314608D01*
X175794727Y-87314608D02*
X175775679Y-87352704D01*
X175775679Y-87352704D02*
X175756632Y-87428894D01*
X175756632Y-87428894D02*
X175756632Y-87524132D01*
X175756632Y-87524132D02*
X175775679Y-87600323D01*
X175775679Y-87600323D02*
X175794727Y-87638418D01*
X175794727Y-87638418D02*
X175813774Y-87657466D01*
X175813774Y-87657466D02*
X175851870Y-87676513D01*
X175851870Y-87676513D02*
X175889965Y-87676513D01*
X175889965Y-87676513D02*
X175928060Y-87657466D01*
X175928060Y-87657466D02*
X175947108Y-87638418D01*
X175947108Y-87638418D02*
X175966155Y-87600323D01*
X175966155Y-87600323D02*
X175985203Y-87524132D01*
X175985203Y-87524132D02*
X175985203Y-87428894D01*
X175985203Y-87428894D02*
X175966155Y-87352704D01*
X175966155Y-87352704D02*
X175947108Y-87314608D01*
X175947108Y-87314608D02*
X175928060Y-87295561D01*
X175928060Y-87295561D02*
X175889965Y-87276513D01*
X175604251Y-87314608D02*
X175585203Y-87295561D01*
X175585203Y-87295561D02*
X175547108Y-87276513D01*
X175547108Y-87276513D02*
X175451870Y-87276513D01*
X175451870Y-87276513D02*
X175413775Y-87295561D01*
X175413775Y-87295561D02*
X175394727Y-87314608D01*
X175394727Y-87314608D02*
X175375680Y-87352704D01*
X175375680Y-87352704D02*
X175375680Y-87390799D01*
X175375680Y-87390799D02*
X175394727Y-87447942D01*
X175394727Y-87447942D02*
X175623299Y-87676513D01*
X175623299Y-87676513D02*
X175375680Y-87676513D01*
X175013775Y-87276513D02*
X175204251Y-87276513D01*
X175204251Y-87276513D02*
X175223299Y-87466989D01*
X175223299Y-87466989D02*
X175204251Y-87447942D01*
X175204251Y-87447942D02*
X175166156Y-87428894D01*
X175166156Y-87428894D02*
X175070918Y-87428894D01*
X175070918Y-87428894D02*
X175032823Y-87447942D01*
X175032823Y-87447942D02*
X175013775Y-87466989D01*
X175013775Y-87466989D02*
X174994728Y-87505085D01*
X174994728Y-87505085D02*
X174994728Y-87600323D01*
X174994728Y-87600323D02*
X175013775Y-87638418D01*
X175013775Y-87638418D02*
X175032823Y-87657466D01*
X175032823Y-87657466D02*
X175070918Y-87676513D01*
X175070918Y-87676513D02*
X175166156Y-87676513D01*
X175166156Y-87676513D02*
X175204251Y-87657466D01*
X175204251Y-87657466D02*
X175223299Y-87638418D01*
X178080439Y-88053824D02*
X178080439Y-88377634D01*
X178080439Y-88377634D02*
X178099486Y-88415729D01*
X178099486Y-88415729D02*
X178118534Y-88434777D01*
X178118534Y-88434777D02*
X178156629Y-88453824D01*
X178156629Y-88453824D02*
X178213772Y-88453824D01*
X178213772Y-88453824D02*
X178251867Y-88434777D01*
X178080439Y-88301444D02*
X178118534Y-88320491D01*
X178118534Y-88320491D02*
X178194725Y-88320491D01*
X178194725Y-88320491D02*
X178232820Y-88301444D01*
X178232820Y-88301444D02*
X178251867Y-88282396D01*
X178251867Y-88282396D02*
X178270915Y-88244301D01*
X178270915Y-88244301D02*
X178270915Y-88130015D01*
X178270915Y-88130015D02*
X178251867Y-88091920D01*
X178251867Y-88091920D02*
X178232820Y-88072872D01*
X178232820Y-88072872D02*
X178194725Y-88053824D01*
X178194725Y-88053824D02*
X178118534Y-88053824D01*
X178118534Y-88053824D02*
X178080439Y-88072872D01*
X177889962Y-88320491D02*
X177889962Y-88053824D01*
X177889962Y-87920491D02*
X177909010Y-87939539D01*
X177909010Y-87939539D02*
X177889962Y-87958586D01*
X177889962Y-87958586D02*
X177870915Y-87939539D01*
X177870915Y-87939539D02*
X177889962Y-87920491D01*
X177889962Y-87920491D02*
X177889962Y-87958586D01*
X177756629Y-88053824D02*
X177604248Y-88053824D01*
X177699486Y-87920491D02*
X177699486Y-88263348D01*
X177699486Y-88263348D02*
X177680439Y-88301444D01*
X177680439Y-88301444D02*
X177642344Y-88320491D01*
X177642344Y-88320491D02*
X177604248Y-88320491D01*
X177470915Y-88320491D02*
X177470915Y-87920491D01*
X177299487Y-88320491D02*
X177299487Y-88110967D01*
X177299487Y-88110967D02*
X177318534Y-88072872D01*
X177318534Y-88072872D02*
X177356630Y-88053824D01*
X177356630Y-88053824D02*
X177413773Y-88053824D01*
X177413773Y-88053824D02*
X177451868Y-88072872D01*
X177451868Y-88072872D02*
X177470915Y-88091920D01*
X176937582Y-88053824D02*
X176937582Y-88320491D01*
X177109010Y-88053824D02*
X177109010Y-88263348D01*
X177109010Y-88263348D02*
X177089963Y-88301444D01*
X177089963Y-88301444D02*
X177051868Y-88320491D01*
X177051868Y-88320491D02*
X176994725Y-88320491D01*
X176994725Y-88320491D02*
X176956629Y-88301444D01*
X176956629Y-88301444D02*
X176937582Y-88282396D01*
X176747105Y-88320491D02*
X176747105Y-87920491D01*
X176747105Y-88072872D02*
X176709010Y-88053824D01*
X176709010Y-88053824D02*
X176632820Y-88053824D01*
X176632820Y-88053824D02*
X176594724Y-88072872D01*
X176594724Y-88072872D02*
X176575677Y-88091920D01*
X176575677Y-88091920D02*
X176556629Y-88130015D01*
X176556629Y-88130015D02*
X176556629Y-88244301D01*
X176556629Y-88244301D02*
X176575677Y-88282396D01*
X176575677Y-88282396D02*
X176594724Y-88301444D01*
X176594724Y-88301444D02*
X176632820Y-88320491D01*
X176632820Y-88320491D02*
X176709010Y-88320491D01*
X176709010Y-88320491D02*
X176747105Y-88301444D01*
X176080438Y-88282396D02*
X176061391Y-88301444D01*
X176061391Y-88301444D02*
X176080438Y-88320491D01*
X176080438Y-88320491D02*
X176099486Y-88301444D01*
X176099486Y-88301444D02*
X176080438Y-88282396D01*
X176080438Y-88282396D02*
X176080438Y-88320491D01*
X176080438Y-88072872D02*
X176061391Y-88091920D01*
X176061391Y-88091920D02*
X176080438Y-88110967D01*
X176080438Y-88110967D02*
X176099486Y-88091920D01*
X176099486Y-88091920D02*
X176080438Y-88072872D01*
X176080438Y-88072872D02*
X176080438Y-88110967D01*
X175585200Y-88320491D02*
X175585200Y-87920491D01*
X175413772Y-88320491D02*
X175413772Y-88110967D01*
X175413772Y-88110967D02*
X175432819Y-88072872D01*
X175432819Y-88072872D02*
X175470915Y-88053824D01*
X175470915Y-88053824D02*
X175528058Y-88053824D01*
X175528058Y-88053824D02*
X175566153Y-88072872D01*
X175566153Y-88072872D02*
X175585200Y-88091920D01*
X175280438Y-88053824D02*
X175128057Y-88053824D01*
X175223295Y-87920491D02*
X175223295Y-88263348D01*
X175223295Y-88263348D02*
X175204248Y-88301444D01*
X175204248Y-88301444D02*
X175166153Y-88320491D01*
X175166153Y-88320491D02*
X175128057Y-88320491D01*
X175051867Y-88053824D02*
X174899486Y-88053824D01*
X174994724Y-87920491D02*
X174994724Y-88263348D01*
X174994724Y-88263348D02*
X174975677Y-88301444D01*
X174975677Y-88301444D02*
X174937582Y-88320491D01*
X174937582Y-88320491D02*
X174899486Y-88320491D01*
X174766153Y-88053824D02*
X174766153Y-88453824D01*
X174766153Y-88072872D02*
X174728058Y-88053824D01*
X174728058Y-88053824D02*
X174651868Y-88053824D01*
X174651868Y-88053824D02*
X174613772Y-88072872D01*
X174613772Y-88072872D02*
X174594725Y-88091920D01*
X174594725Y-88091920D02*
X174575677Y-88130015D01*
X174575677Y-88130015D02*
X174575677Y-88244301D01*
X174575677Y-88244301D02*
X174594725Y-88282396D01*
X174594725Y-88282396D02*
X174613772Y-88301444D01*
X174613772Y-88301444D02*
X174651868Y-88320491D01*
X174651868Y-88320491D02*
X174728058Y-88320491D01*
X174728058Y-88320491D02*
X174766153Y-88301444D01*
X174423296Y-88301444D02*
X174385201Y-88320491D01*
X174385201Y-88320491D02*
X174309010Y-88320491D01*
X174309010Y-88320491D02*
X174270915Y-88301444D01*
X174270915Y-88301444D02*
X174251867Y-88263348D01*
X174251867Y-88263348D02*
X174251867Y-88244301D01*
X174251867Y-88244301D02*
X174270915Y-88206205D01*
X174270915Y-88206205D02*
X174309010Y-88187158D01*
X174309010Y-88187158D02*
X174366153Y-88187158D01*
X174366153Y-88187158D02*
X174404248Y-88168110D01*
X174404248Y-88168110D02*
X174423296Y-88130015D01*
X174423296Y-88130015D02*
X174423296Y-88110967D01*
X174423296Y-88110967D02*
X174404248Y-88072872D01*
X174404248Y-88072872D02*
X174366153Y-88053824D01*
X174366153Y-88053824D02*
X174309010Y-88053824D01*
X174309010Y-88053824D02*
X174270915Y-88072872D01*
X174080438Y-88282396D02*
X174061391Y-88301444D01*
X174061391Y-88301444D02*
X174080438Y-88320491D01*
X174080438Y-88320491D02*
X174099486Y-88301444D01*
X174099486Y-88301444D02*
X174080438Y-88282396D01*
X174080438Y-88282396D02*
X174080438Y-88320491D01*
X174080438Y-88072872D02*
X174061391Y-88091920D01*
X174061391Y-88091920D02*
X174080438Y-88110967D01*
X174080438Y-88110967D02*
X174099486Y-88091920D01*
X174099486Y-88091920D02*
X174080438Y-88072872D01*
X174080438Y-88072872D02*
X174080438Y-88110967D01*
X173604248Y-87901444D02*
X173947105Y-88415729D01*
X173185200Y-87901444D02*
X173528057Y-88415729D01*
X172880438Y-88053824D02*
X172880438Y-88377634D01*
X172880438Y-88377634D02*
X172899485Y-88415729D01*
X172899485Y-88415729D02*
X172918533Y-88434777D01*
X172918533Y-88434777D02*
X172956628Y-88453824D01*
X172956628Y-88453824D02*
X173013771Y-88453824D01*
X173013771Y-88453824D02*
X173051866Y-88434777D01*
X172880438Y-88301444D02*
X172918533Y-88320491D01*
X172918533Y-88320491D02*
X172994724Y-88320491D01*
X172994724Y-88320491D02*
X173032819Y-88301444D01*
X173032819Y-88301444D02*
X173051866Y-88282396D01*
X173051866Y-88282396D02*
X173070914Y-88244301D01*
X173070914Y-88244301D02*
X173070914Y-88130015D01*
X173070914Y-88130015D02*
X173051866Y-88091920D01*
X173051866Y-88091920D02*
X173032819Y-88072872D01*
X173032819Y-88072872D02*
X172994724Y-88053824D01*
X172994724Y-88053824D02*
X172918533Y-88053824D01*
X172918533Y-88053824D02*
X172880438Y-88072872D01*
X172689961Y-88320491D02*
X172689961Y-88053824D01*
X172689961Y-87920491D02*
X172709009Y-87939539D01*
X172709009Y-87939539D02*
X172689961Y-87958586D01*
X172689961Y-87958586D02*
X172670914Y-87939539D01*
X172670914Y-87939539D02*
X172689961Y-87920491D01*
X172689961Y-87920491D02*
X172689961Y-87958586D01*
X172556628Y-88053824D02*
X172404247Y-88053824D01*
X172499485Y-87920491D02*
X172499485Y-88263348D01*
X172499485Y-88263348D02*
X172480438Y-88301444D01*
X172480438Y-88301444D02*
X172442343Y-88320491D01*
X172442343Y-88320491D02*
X172404247Y-88320491D01*
X172270914Y-88320491D02*
X172270914Y-87920491D01*
X172099486Y-88320491D02*
X172099486Y-88110967D01*
X172099486Y-88110967D02*
X172118533Y-88072872D01*
X172118533Y-88072872D02*
X172156629Y-88053824D01*
X172156629Y-88053824D02*
X172213772Y-88053824D01*
X172213772Y-88053824D02*
X172251867Y-88072872D01*
X172251867Y-88072872D02*
X172270914Y-88091920D01*
X171737581Y-88053824D02*
X171737581Y-88320491D01*
X171909009Y-88053824D02*
X171909009Y-88263348D01*
X171909009Y-88263348D02*
X171889962Y-88301444D01*
X171889962Y-88301444D02*
X171851867Y-88320491D01*
X171851867Y-88320491D02*
X171794724Y-88320491D01*
X171794724Y-88320491D02*
X171756628Y-88301444D01*
X171756628Y-88301444D02*
X171737581Y-88282396D01*
X171547104Y-88320491D02*
X171547104Y-87920491D01*
X171547104Y-88072872D02*
X171509009Y-88053824D01*
X171509009Y-88053824D02*
X171432819Y-88053824D01*
X171432819Y-88053824D02*
X171394723Y-88072872D01*
X171394723Y-88072872D02*
X171375676Y-88091920D01*
X171375676Y-88091920D02*
X171356628Y-88130015D01*
X171356628Y-88130015D02*
X171356628Y-88244301D01*
X171356628Y-88244301D02*
X171375676Y-88282396D01*
X171375676Y-88282396D02*
X171394723Y-88301444D01*
X171394723Y-88301444D02*
X171432819Y-88320491D01*
X171432819Y-88320491D02*
X171509009Y-88320491D01*
X171509009Y-88320491D02*
X171547104Y-88301444D01*
X171185199Y-88282396D02*
X171166152Y-88301444D01*
X171166152Y-88301444D02*
X171185199Y-88320491D01*
X171185199Y-88320491D02*
X171204247Y-88301444D01*
X171204247Y-88301444D02*
X171185199Y-88282396D01*
X171185199Y-88282396D02*
X171185199Y-88320491D01*
X170823295Y-88301444D02*
X170861390Y-88320491D01*
X170861390Y-88320491D02*
X170937581Y-88320491D01*
X170937581Y-88320491D02*
X170975676Y-88301444D01*
X170975676Y-88301444D02*
X170994723Y-88282396D01*
X170994723Y-88282396D02*
X171013771Y-88244301D01*
X171013771Y-88244301D02*
X171013771Y-88130015D01*
X171013771Y-88130015D02*
X170994723Y-88091920D01*
X170994723Y-88091920D02*
X170975676Y-88072872D01*
X170975676Y-88072872D02*
X170937581Y-88053824D01*
X170937581Y-88053824D02*
X170861390Y-88053824D01*
X170861390Y-88053824D02*
X170823295Y-88072872D01*
X170594724Y-88320491D02*
X170632819Y-88301444D01*
X170632819Y-88301444D02*
X170651866Y-88282396D01*
X170651866Y-88282396D02*
X170670914Y-88244301D01*
X170670914Y-88244301D02*
X170670914Y-88130015D01*
X170670914Y-88130015D02*
X170651866Y-88091920D01*
X170651866Y-88091920D02*
X170632819Y-88072872D01*
X170632819Y-88072872D02*
X170594724Y-88053824D01*
X170594724Y-88053824D02*
X170537581Y-88053824D01*
X170537581Y-88053824D02*
X170499485Y-88072872D01*
X170499485Y-88072872D02*
X170480438Y-88091920D01*
X170480438Y-88091920D02*
X170461390Y-88130015D01*
X170461390Y-88130015D02*
X170461390Y-88244301D01*
X170461390Y-88244301D02*
X170480438Y-88282396D01*
X170480438Y-88282396D02*
X170499485Y-88301444D01*
X170499485Y-88301444D02*
X170537581Y-88320491D01*
X170537581Y-88320491D02*
X170594724Y-88320491D01*
X170289961Y-88320491D02*
X170289961Y-88053824D01*
X170289961Y-88091920D02*
X170270914Y-88072872D01*
X170270914Y-88072872D02*
X170232819Y-88053824D01*
X170232819Y-88053824D02*
X170175676Y-88053824D01*
X170175676Y-88053824D02*
X170137580Y-88072872D01*
X170137580Y-88072872D02*
X170118533Y-88110967D01*
X170118533Y-88110967D02*
X170118533Y-88320491D01*
X170118533Y-88110967D02*
X170099485Y-88072872D01*
X170099485Y-88072872D02*
X170061390Y-88053824D01*
X170061390Y-88053824D02*
X170004247Y-88053824D01*
X170004247Y-88053824D02*
X169966152Y-88072872D01*
X169966152Y-88072872D02*
X169947104Y-88110967D01*
X169947104Y-88110967D02*
X169947104Y-88320491D01*
X169470914Y-87901444D02*
X169813771Y-88415729D01*
X169337580Y-88320491D02*
X169337580Y-87920491D01*
X169337580Y-87920491D02*
X169109009Y-88320491D01*
X169109009Y-88320491D02*
X169109009Y-87920491D01*
X168918532Y-88168110D02*
X168613771Y-88168110D01*
X168423294Y-88320491D02*
X168423294Y-87920491D01*
X168423294Y-87920491D02*
X168270913Y-87920491D01*
X168270913Y-87920491D02*
X168232818Y-87939539D01*
X168232818Y-87939539D02*
X168213771Y-87958586D01*
X168213771Y-87958586D02*
X168194723Y-87996682D01*
X168194723Y-87996682D02*
X168194723Y-88053824D01*
X168194723Y-88053824D02*
X168213771Y-88091920D01*
X168213771Y-88091920D02*
X168232818Y-88110967D01*
X168232818Y-88110967D02*
X168270913Y-88130015D01*
X168270913Y-88130015D02*
X168423294Y-88130015D01*
X167851866Y-88053824D02*
X167851866Y-88320491D01*
X168023294Y-88053824D02*
X168023294Y-88263348D01*
X168023294Y-88263348D02*
X168004247Y-88301444D01*
X168004247Y-88301444D02*
X167966152Y-88320491D01*
X167966152Y-88320491D02*
X167909009Y-88320491D01*
X167909009Y-88320491D02*
X167870913Y-88301444D01*
X167870913Y-88301444D02*
X167851866Y-88282396D01*
X167604247Y-88320491D02*
X167642342Y-88301444D01*
X167642342Y-88301444D02*
X167661389Y-88263348D01*
X167661389Y-88263348D02*
X167661389Y-87920491D01*
X167470913Y-88301444D02*
X167432818Y-88320491D01*
X167432818Y-88320491D02*
X167356627Y-88320491D01*
X167356627Y-88320491D02*
X167318532Y-88301444D01*
X167318532Y-88301444D02*
X167299484Y-88263348D01*
X167299484Y-88263348D02*
X167299484Y-88244301D01*
X167299484Y-88244301D02*
X167318532Y-88206205D01*
X167318532Y-88206205D02*
X167356627Y-88187158D01*
X167356627Y-88187158D02*
X167413770Y-88187158D01*
X167413770Y-88187158D02*
X167451865Y-88168110D01*
X167451865Y-88168110D02*
X167470913Y-88130015D01*
X167470913Y-88130015D02*
X167470913Y-88110967D01*
X167470913Y-88110967D02*
X167451865Y-88072872D01*
X167451865Y-88072872D02*
X167413770Y-88053824D01*
X167413770Y-88053824D02*
X167356627Y-88053824D01*
X167356627Y-88053824D02*
X167318532Y-88072872D01*
X166975674Y-88301444D02*
X167013770Y-88320491D01*
X167013770Y-88320491D02*
X167089960Y-88320491D01*
X167089960Y-88320491D02*
X167128055Y-88301444D01*
X167128055Y-88301444D02*
X167147103Y-88263348D01*
X167147103Y-88263348D02*
X167147103Y-88110967D01*
X167147103Y-88110967D02*
X167128055Y-88072872D01*
X167128055Y-88072872D02*
X167089960Y-88053824D01*
X167089960Y-88053824D02*
X167013770Y-88053824D01*
X167013770Y-88053824D02*
X166975674Y-88072872D01*
X166975674Y-88072872D02*
X166956627Y-88110967D01*
X166956627Y-88110967D02*
X166956627Y-88149063D01*
X166956627Y-88149063D02*
X167147103Y-88187158D01*
X166499484Y-87901444D02*
X166842341Y-88415729D01*
X166423293Y-87920491D02*
X166194722Y-87920491D01*
X166309008Y-88320491D02*
X166309008Y-87920491D01*
X166061388Y-88320491D02*
X166061388Y-88053824D01*
X166061388Y-88130015D02*
X166042341Y-88091920D01*
X166042341Y-88091920D02*
X166023293Y-88072872D01*
X166023293Y-88072872D02*
X165985198Y-88053824D01*
X165985198Y-88053824D02*
X165947103Y-88053824D01*
X165642341Y-88320491D02*
X165642341Y-88110967D01*
X165642341Y-88110967D02*
X165661388Y-88072872D01*
X165661388Y-88072872D02*
X165699484Y-88053824D01*
X165699484Y-88053824D02*
X165775674Y-88053824D01*
X165775674Y-88053824D02*
X165813769Y-88072872D01*
X165642341Y-88301444D02*
X165680436Y-88320491D01*
X165680436Y-88320491D02*
X165775674Y-88320491D01*
X165775674Y-88320491D02*
X165813769Y-88301444D01*
X165813769Y-88301444D02*
X165832817Y-88263348D01*
X165832817Y-88263348D02*
X165832817Y-88225253D01*
X165832817Y-88225253D02*
X165813769Y-88187158D01*
X165813769Y-88187158D02*
X165775674Y-88168110D01*
X165775674Y-88168110D02*
X165680436Y-88168110D01*
X165680436Y-88168110D02*
X165642341Y-88149063D01*
X165451864Y-88053824D02*
X165451864Y-88320491D01*
X165451864Y-88091920D02*
X165432817Y-88072872D01*
X165432817Y-88072872D02*
X165394722Y-88053824D01*
X165394722Y-88053824D02*
X165337579Y-88053824D01*
X165337579Y-88053824D02*
X165299483Y-88072872D01*
X165299483Y-88072872D02*
X165280436Y-88110967D01*
X165280436Y-88110967D02*
X165280436Y-88320491D01*
X165109007Y-88301444D02*
X165070912Y-88320491D01*
X165070912Y-88320491D02*
X164994721Y-88320491D01*
X164994721Y-88320491D02*
X164956626Y-88301444D01*
X164956626Y-88301444D02*
X164937578Y-88263348D01*
X164937578Y-88263348D02*
X164937578Y-88244301D01*
X164937578Y-88244301D02*
X164956626Y-88206205D01*
X164956626Y-88206205D02*
X164994721Y-88187158D01*
X164994721Y-88187158D02*
X165051864Y-88187158D01*
X165051864Y-88187158D02*
X165089959Y-88168110D01*
X165089959Y-88168110D02*
X165109007Y-88130015D01*
X165109007Y-88130015D02*
X165109007Y-88110967D01*
X165109007Y-88110967D02*
X165089959Y-88072872D01*
X165089959Y-88072872D02*
X165051864Y-88053824D01*
X165051864Y-88053824D02*
X164994721Y-88053824D01*
X164994721Y-88053824D02*
X164956626Y-88072872D01*
X164766149Y-88320491D02*
X164766149Y-88053824D01*
X164766149Y-88130015D02*
X164747102Y-88091920D01*
X164747102Y-88091920D02*
X164728054Y-88072872D01*
X164728054Y-88072872D02*
X164689959Y-88053824D01*
X164689959Y-88053824D02*
X164651864Y-88053824D01*
X164347102Y-88320491D02*
X164347102Y-88110967D01*
X164347102Y-88110967D02*
X164366149Y-88072872D01*
X164366149Y-88072872D02*
X164404245Y-88053824D01*
X164404245Y-88053824D02*
X164480435Y-88053824D01*
X164480435Y-88053824D02*
X164518530Y-88072872D01*
X164347102Y-88301444D02*
X164385197Y-88320491D01*
X164385197Y-88320491D02*
X164480435Y-88320491D01*
X164480435Y-88320491D02*
X164518530Y-88301444D01*
X164518530Y-88301444D02*
X164537578Y-88263348D01*
X164537578Y-88263348D02*
X164537578Y-88225253D01*
X164537578Y-88225253D02*
X164518530Y-88187158D01*
X164518530Y-88187158D02*
X164480435Y-88168110D01*
X164480435Y-88168110D02*
X164385197Y-88168110D01*
X164385197Y-88168110D02*
X164347102Y-88149063D01*
X163985197Y-88320491D02*
X163985197Y-87920491D01*
X163985197Y-88301444D02*
X164023292Y-88320491D01*
X164023292Y-88320491D02*
X164099483Y-88320491D01*
X164099483Y-88320491D02*
X164137578Y-88301444D01*
X164137578Y-88301444D02*
X164156625Y-88282396D01*
X164156625Y-88282396D02*
X164175673Y-88244301D01*
X164175673Y-88244301D02*
X164175673Y-88130015D01*
X164175673Y-88130015D02*
X164156625Y-88091920D01*
X164156625Y-88091920D02*
X164137578Y-88072872D01*
X164137578Y-88072872D02*
X164099483Y-88053824D01*
X164099483Y-88053824D02*
X164023292Y-88053824D01*
X164023292Y-88053824D02*
X163985197Y-88072872D01*
X163794720Y-88320491D02*
X163794720Y-88053824D01*
X163794720Y-87920491D02*
X163813768Y-87939539D01*
X163813768Y-87939539D02*
X163794720Y-87958586D01*
X163794720Y-87958586D02*
X163775673Y-87939539D01*
X163775673Y-87939539D02*
X163794720Y-87920491D01*
X163794720Y-87920491D02*
X163794720Y-87958586D01*
X163432816Y-88320491D02*
X163432816Y-88110967D01*
X163432816Y-88110967D02*
X163451863Y-88072872D01*
X163451863Y-88072872D02*
X163489959Y-88053824D01*
X163489959Y-88053824D02*
X163566149Y-88053824D01*
X163566149Y-88053824D02*
X163604244Y-88072872D01*
X163432816Y-88301444D02*
X163470911Y-88320491D01*
X163470911Y-88320491D02*
X163566149Y-88320491D01*
X163566149Y-88320491D02*
X163604244Y-88301444D01*
X163604244Y-88301444D02*
X163623292Y-88263348D01*
X163623292Y-88263348D02*
X163623292Y-88225253D01*
X163623292Y-88225253D02*
X163604244Y-88187158D01*
X163604244Y-88187158D02*
X163566149Y-88168110D01*
X163566149Y-88168110D02*
X163470911Y-88168110D01*
X163470911Y-88168110D02*
X163432816Y-88149063D01*
X163185197Y-88320491D02*
X163223292Y-88301444D01*
X163223292Y-88301444D02*
X163242339Y-88263348D01*
X163242339Y-88263348D02*
X163242339Y-87920491D01*
X163032815Y-88168110D02*
X162728054Y-88168110D01*
X162537577Y-88320491D02*
X162537577Y-87920491D01*
X162537577Y-87920491D02*
X162385196Y-87920491D01*
X162385196Y-87920491D02*
X162347101Y-87939539D01*
X162347101Y-87939539D02*
X162328054Y-87958586D01*
X162328054Y-87958586D02*
X162309006Y-87996682D01*
X162309006Y-87996682D02*
X162309006Y-88053824D01*
X162309006Y-88053824D02*
X162328054Y-88091920D01*
X162328054Y-88091920D02*
X162347101Y-88110967D01*
X162347101Y-88110967D02*
X162385196Y-88130015D01*
X162385196Y-88130015D02*
X162537577Y-88130015D01*
X162137577Y-88320491D02*
X162137577Y-88053824D01*
X162137577Y-88130015D02*
X162118530Y-88091920D01*
X162118530Y-88091920D02*
X162099482Y-88072872D01*
X162099482Y-88072872D02*
X162061387Y-88053824D01*
X162061387Y-88053824D02*
X162023292Y-88053824D01*
X161832816Y-88320491D02*
X161870911Y-88301444D01*
X161870911Y-88301444D02*
X161889958Y-88282396D01*
X161889958Y-88282396D02*
X161909006Y-88244301D01*
X161909006Y-88244301D02*
X161909006Y-88130015D01*
X161909006Y-88130015D02*
X161889958Y-88091920D01*
X161889958Y-88091920D02*
X161870911Y-88072872D01*
X161870911Y-88072872D02*
X161832816Y-88053824D01*
X161832816Y-88053824D02*
X161775673Y-88053824D01*
X161775673Y-88053824D02*
X161737577Y-88072872D01*
X161737577Y-88072872D02*
X161718530Y-88091920D01*
X161718530Y-88091920D02*
X161699482Y-88130015D01*
X161699482Y-88130015D02*
X161699482Y-88244301D01*
X161699482Y-88244301D02*
X161718530Y-88282396D01*
X161718530Y-88282396D02*
X161737577Y-88301444D01*
X161737577Y-88301444D02*
X161775673Y-88320491D01*
X161775673Y-88320491D02*
X161832816Y-88320491D01*
X161547101Y-88301444D02*
X161509006Y-88320491D01*
X161509006Y-88320491D02*
X161432815Y-88320491D01*
X161432815Y-88320491D02*
X161394720Y-88301444D01*
X161394720Y-88301444D02*
X161375672Y-88263348D01*
X161375672Y-88263348D02*
X161375672Y-88244301D01*
X161375672Y-88244301D02*
X161394720Y-88206205D01*
X161394720Y-88206205D02*
X161432815Y-88187158D01*
X161432815Y-88187158D02*
X161489958Y-88187158D01*
X161489958Y-88187158D02*
X161528053Y-88168110D01*
X161528053Y-88168110D02*
X161547101Y-88130015D01*
X161547101Y-88130015D02*
X161547101Y-88110967D01*
X161547101Y-88110967D02*
X161528053Y-88072872D01*
X161528053Y-88072872D02*
X161489958Y-88053824D01*
X161489958Y-88053824D02*
X161432815Y-88053824D01*
X161432815Y-88053824D02*
X161394720Y-88072872D01*
X161261386Y-88053824D02*
X161109005Y-88053824D01*
X161204243Y-87920491D02*
X161204243Y-88263348D01*
X161204243Y-88263348D02*
X161185196Y-88301444D01*
X161185196Y-88301444D02*
X161147101Y-88320491D01*
X161147101Y-88320491D02*
X161109005Y-88320491D01*
X160975672Y-88320491D02*
X160975672Y-87920491D01*
X160804244Y-88320491D02*
X160804244Y-88110967D01*
X160804244Y-88110967D02*
X160823291Y-88072872D01*
X160823291Y-88072872D02*
X160861387Y-88053824D01*
X160861387Y-88053824D02*
X160918530Y-88053824D01*
X160918530Y-88053824D02*
X160956625Y-88072872D01*
X160956625Y-88072872D02*
X160975672Y-88091920D01*
X160461386Y-88301444D02*
X160499482Y-88320491D01*
X160499482Y-88320491D02*
X160575672Y-88320491D01*
X160575672Y-88320491D02*
X160613767Y-88301444D01*
X160613767Y-88301444D02*
X160632815Y-88263348D01*
X160632815Y-88263348D02*
X160632815Y-88110967D01*
X160632815Y-88110967D02*
X160613767Y-88072872D01*
X160613767Y-88072872D02*
X160575672Y-88053824D01*
X160575672Y-88053824D02*
X160499482Y-88053824D01*
X160499482Y-88053824D02*
X160461386Y-88072872D01*
X160461386Y-88072872D02*
X160442339Y-88110967D01*
X160442339Y-88110967D02*
X160442339Y-88149063D01*
X160442339Y-88149063D02*
X160632815Y-88187158D01*
X160289958Y-88301444D02*
X160251863Y-88320491D01*
X160251863Y-88320491D02*
X160175672Y-88320491D01*
X160175672Y-88320491D02*
X160137577Y-88301444D01*
X160137577Y-88301444D02*
X160118529Y-88263348D01*
X160118529Y-88263348D02*
X160118529Y-88244301D01*
X160118529Y-88244301D02*
X160137577Y-88206205D01*
X160137577Y-88206205D02*
X160175672Y-88187158D01*
X160175672Y-88187158D02*
X160232815Y-88187158D01*
X160232815Y-88187158D02*
X160270910Y-88168110D01*
X160270910Y-88168110D02*
X160289958Y-88130015D01*
X160289958Y-88130015D02*
X160289958Y-88110967D01*
X160289958Y-88110967D02*
X160270910Y-88072872D01*
X160270910Y-88072872D02*
X160232815Y-88053824D01*
X160232815Y-88053824D02*
X160175672Y-88053824D01*
X160175672Y-88053824D02*
X160137577Y-88072872D01*
X159947100Y-88320491D02*
X159947100Y-88053824D01*
X159947100Y-87920491D02*
X159966148Y-87939539D01*
X159966148Y-87939539D02*
X159947100Y-87958586D01*
X159947100Y-87958586D02*
X159928053Y-87939539D01*
X159928053Y-87939539D02*
X159947100Y-87920491D01*
X159947100Y-87920491D02*
X159947100Y-87958586D01*
X159775672Y-88301444D02*
X159737577Y-88320491D01*
X159737577Y-88320491D02*
X159661386Y-88320491D01*
X159661386Y-88320491D02*
X159623291Y-88301444D01*
X159623291Y-88301444D02*
X159604243Y-88263348D01*
X159604243Y-88263348D02*
X159604243Y-88244301D01*
X159604243Y-88244301D02*
X159623291Y-88206205D01*
X159623291Y-88206205D02*
X159661386Y-88187158D01*
X159661386Y-88187158D02*
X159718529Y-88187158D01*
X159718529Y-88187158D02*
X159756624Y-88168110D01*
X159756624Y-88168110D02*
X159775672Y-88130015D01*
X159775672Y-88130015D02*
X159775672Y-88110967D01*
X159775672Y-88110967D02*
X159756624Y-88072872D01*
X159756624Y-88072872D02*
X159718529Y-88053824D01*
X159718529Y-88053824D02*
X159661386Y-88053824D01*
X159661386Y-88053824D02*
X159623291Y-88072872D01*
X159432814Y-88168110D02*
X159128053Y-88168110D01*
X158709005Y-88282396D02*
X158728053Y-88301444D01*
X158728053Y-88301444D02*
X158785195Y-88320491D01*
X158785195Y-88320491D02*
X158823291Y-88320491D01*
X158823291Y-88320491D02*
X158880434Y-88301444D01*
X158880434Y-88301444D02*
X158918529Y-88263348D01*
X158918529Y-88263348D02*
X158937576Y-88225253D01*
X158937576Y-88225253D02*
X158956624Y-88149063D01*
X158956624Y-88149063D02*
X158956624Y-88091920D01*
X158956624Y-88091920D02*
X158937576Y-88015729D01*
X158937576Y-88015729D02*
X158918529Y-87977634D01*
X158918529Y-87977634D02*
X158880434Y-87939539D01*
X158880434Y-87939539D02*
X158823291Y-87920491D01*
X158823291Y-87920491D02*
X158785195Y-87920491D01*
X158785195Y-87920491D02*
X158728053Y-87939539D01*
X158728053Y-87939539D02*
X158709005Y-87958586D01*
X158594719Y-87920491D02*
X158366148Y-87920491D01*
X158480434Y-88320491D02*
X158480434Y-87920491D01*
X158004243Y-88320491D02*
X158137576Y-88130015D01*
X158232814Y-88320491D02*
X158232814Y-87920491D01*
X158232814Y-87920491D02*
X158080433Y-87920491D01*
X158080433Y-87920491D02*
X158042338Y-87939539D01*
X158042338Y-87939539D02*
X158023291Y-87958586D01*
X158023291Y-87958586D02*
X158004243Y-87996682D01*
X158004243Y-87996682D02*
X158004243Y-88053824D01*
X158004243Y-88053824D02*
X158023291Y-88091920D01*
X158023291Y-88091920D02*
X158042338Y-88110967D01*
X158042338Y-88110967D02*
X158080433Y-88130015D01*
X158080433Y-88130015D02*
X158232814Y-88130015D01*
X157642338Y-88320491D02*
X157832814Y-88320491D01*
X157832814Y-88320491D02*
X157832814Y-87920491D01*
X157509004Y-88168110D02*
X157204243Y-88168110D01*
X157013766Y-88320491D02*
X157013766Y-87920491D01*
X157013766Y-88110967D02*
X156785195Y-88110967D01*
X156785195Y-88320491D02*
X156785195Y-87920491D01*
X156632814Y-87920491D02*
X156537576Y-88320491D01*
X156537576Y-88320491D02*
X156461385Y-88034777D01*
X156461385Y-88034777D02*
X156385195Y-88320491D01*
X156385195Y-88320491D02*
X156289957Y-87920491D01*
X178023296Y-88964469D02*
X178156629Y-88773993D01*
X178251867Y-88964469D02*
X178251867Y-88564469D01*
X178251867Y-88564469D02*
X178099486Y-88564469D01*
X178099486Y-88564469D02*
X178061391Y-88583517D01*
X178061391Y-88583517D02*
X178042344Y-88602564D01*
X178042344Y-88602564D02*
X178023296Y-88640660D01*
X178023296Y-88640660D02*
X178023296Y-88697802D01*
X178023296Y-88697802D02*
X178042344Y-88735898D01*
X178042344Y-88735898D02*
X178061391Y-88754945D01*
X178061391Y-88754945D02*
X178099486Y-88773993D01*
X178099486Y-88773993D02*
X178251867Y-88773993D01*
X177699486Y-88945422D02*
X177737582Y-88964469D01*
X177737582Y-88964469D02*
X177813772Y-88964469D01*
X177813772Y-88964469D02*
X177851867Y-88945422D01*
X177851867Y-88945422D02*
X177870915Y-88907326D01*
X177870915Y-88907326D02*
X177870915Y-88754945D01*
X177870915Y-88754945D02*
X177851867Y-88716850D01*
X177851867Y-88716850D02*
X177813772Y-88697802D01*
X177813772Y-88697802D02*
X177737582Y-88697802D01*
X177737582Y-88697802D02*
X177699486Y-88716850D01*
X177699486Y-88716850D02*
X177680439Y-88754945D01*
X177680439Y-88754945D02*
X177680439Y-88793041D01*
X177680439Y-88793041D02*
X177870915Y-88831136D01*
X177566153Y-88697802D02*
X177413772Y-88697802D01*
X177509010Y-88964469D02*
X177509010Y-88621612D01*
X177509010Y-88621612D02*
X177489963Y-88583517D01*
X177489963Y-88583517D02*
X177451868Y-88564469D01*
X177451868Y-88564469D02*
X177413772Y-88564469D01*
X176975677Y-88697802D02*
X176975677Y-89097802D01*
X176975677Y-88716850D02*
X176937582Y-88697802D01*
X176937582Y-88697802D02*
X176861392Y-88697802D01*
X176861392Y-88697802D02*
X176823296Y-88716850D01*
X176823296Y-88716850D02*
X176804249Y-88735898D01*
X176804249Y-88735898D02*
X176785201Y-88773993D01*
X176785201Y-88773993D02*
X176785201Y-88888279D01*
X176785201Y-88888279D02*
X176804249Y-88926374D01*
X176804249Y-88926374D02*
X176823296Y-88945422D01*
X176823296Y-88945422D02*
X176861392Y-88964469D01*
X176861392Y-88964469D02*
X176937582Y-88964469D01*
X176937582Y-88964469D02*
X176975677Y-88945422D01*
X176461391Y-88945422D02*
X176499487Y-88964469D01*
X176499487Y-88964469D02*
X176575677Y-88964469D01*
X176575677Y-88964469D02*
X176613772Y-88945422D01*
X176613772Y-88945422D02*
X176632820Y-88907326D01*
X176632820Y-88907326D02*
X176632820Y-88754945D01*
X176632820Y-88754945D02*
X176613772Y-88716850D01*
X176613772Y-88716850D02*
X176575677Y-88697802D01*
X176575677Y-88697802D02*
X176499487Y-88697802D01*
X176499487Y-88697802D02*
X176461391Y-88716850D01*
X176461391Y-88716850D02*
X176442344Y-88754945D01*
X176442344Y-88754945D02*
X176442344Y-88793041D01*
X176442344Y-88793041D02*
X176632820Y-88831136D01*
X176270915Y-88964469D02*
X176270915Y-88697802D01*
X176270915Y-88773993D02*
X176251868Y-88735898D01*
X176251868Y-88735898D02*
X176232820Y-88716850D01*
X176232820Y-88716850D02*
X176194725Y-88697802D01*
X176194725Y-88697802D02*
X176156630Y-88697802D01*
X176042344Y-88945422D02*
X176004249Y-88964469D01*
X176004249Y-88964469D02*
X175928058Y-88964469D01*
X175928058Y-88964469D02*
X175889963Y-88945422D01*
X175889963Y-88945422D02*
X175870915Y-88907326D01*
X175870915Y-88907326D02*
X175870915Y-88888279D01*
X175870915Y-88888279D02*
X175889963Y-88850183D01*
X175889963Y-88850183D02*
X175928058Y-88831136D01*
X175928058Y-88831136D02*
X175985201Y-88831136D01*
X175985201Y-88831136D02*
X176023296Y-88812088D01*
X176023296Y-88812088D02*
X176042344Y-88773993D01*
X176042344Y-88773993D02*
X176042344Y-88754945D01*
X176042344Y-88754945D02*
X176023296Y-88716850D01*
X176023296Y-88716850D02*
X175985201Y-88697802D01*
X175985201Y-88697802D02*
X175928058Y-88697802D01*
X175928058Y-88697802D02*
X175889963Y-88716850D01*
X175642344Y-88964469D02*
X175680439Y-88945422D01*
X175680439Y-88945422D02*
X175699486Y-88926374D01*
X175699486Y-88926374D02*
X175718534Y-88888279D01*
X175718534Y-88888279D02*
X175718534Y-88773993D01*
X175718534Y-88773993D02*
X175699486Y-88735898D01*
X175699486Y-88735898D02*
X175680439Y-88716850D01*
X175680439Y-88716850D02*
X175642344Y-88697802D01*
X175642344Y-88697802D02*
X175585201Y-88697802D01*
X175585201Y-88697802D02*
X175547105Y-88716850D01*
X175547105Y-88716850D02*
X175528058Y-88735898D01*
X175528058Y-88735898D02*
X175509010Y-88773993D01*
X175509010Y-88773993D02*
X175509010Y-88888279D01*
X175509010Y-88888279D02*
X175528058Y-88926374D01*
X175528058Y-88926374D02*
X175547105Y-88945422D01*
X175547105Y-88945422D02*
X175585201Y-88964469D01*
X175585201Y-88964469D02*
X175642344Y-88964469D01*
X175337581Y-88697802D02*
X175337581Y-88964469D01*
X175337581Y-88735898D02*
X175318534Y-88716850D01*
X175318534Y-88716850D02*
X175280439Y-88697802D01*
X175280439Y-88697802D02*
X175223296Y-88697802D01*
X175223296Y-88697802D02*
X175185200Y-88716850D01*
X175185200Y-88716850D02*
X175166153Y-88754945D01*
X175166153Y-88754945D02*
X175166153Y-88964469D01*
X174975676Y-88926374D02*
X174956629Y-88945422D01*
X174956629Y-88945422D02*
X174975676Y-88964469D01*
X174975676Y-88964469D02*
X174994724Y-88945422D01*
X174994724Y-88945422D02*
X174975676Y-88926374D01*
X174975676Y-88926374D02*
X174975676Y-88964469D01*
X174975676Y-88716850D02*
X174956629Y-88735898D01*
X174956629Y-88735898D02*
X174975676Y-88754945D01*
X174975676Y-88754945D02*
X174994724Y-88735898D01*
X174994724Y-88735898D02*
X174975676Y-88716850D01*
X174975676Y-88716850D02*
X174975676Y-88754945D01*
X174175676Y-88964469D02*
X174175676Y-88564469D01*
X174175676Y-88564469D02*
X174080438Y-88564469D01*
X174080438Y-88564469D02*
X174023295Y-88583517D01*
X174023295Y-88583517D02*
X173985200Y-88621612D01*
X173985200Y-88621612D02*
X173966153Y-88659707D01*
X173966153Y-88659707D02*
X173947105Y-88735898D01*
X173947105Y-88735898D02*
X173947105Y-88793041D01*
X173947105Y-88793041D02*
X173966153Y-88869231D01*
X173966153Y-88869231D02*
X173985200Y-88907326D01*
X173985200Y-88907326D02*
X174023295Y-88945422D01*
X174023295Y-88945422D02*
X174080438Y-88964469D01*
X174080438Y-88964469D02*
X174175676Y-88964469D01*
X173604248Y-88964469D02*
X173604248Y-88754945D01*
X173604248Y-88754945D02*
X173623295Y-88716850D01*
X173623295Y-88716850D02*
X173661391Y-88697802D01*
X173661391Y-88697802D02*
X173737581Y-88697802D01*
X173737581Y-88697802D02*
X173775676Y-88716850D01*
X173604248Y-88945422D02*
X173642343Y-88964469D01*
X173642343Y-88964469D02*
X173737581Y-88964469D01*
X173737581Y-88964469D02*
X173775676Y-88945422D01*
X173775676Y-88945422D02*
X173794724Y-88907326D01*
X173794724Y-88907326D02*
X173794724Y-88869231D01*
X173794724Y-88869231D02*
X173775676Y-88831136D01*
X173775676Y-88831136D02*
X173737581Y-88812088D01*
X173737581Y-88812088D02*
X173642343Y-88812088D01*
X173642343Y-88812088D02*
X173604248Y-88793041D01*
X173413771Y-88697802D02*
X173413771Y-88964469D01*
X173413771Y-88735898D02*
X173394724Y-88716850D01*
X173394724Y-88716850D02*
X173356629Y-88697802D01*
X173356629Y-88697802D02*
X173299486Y-88697802D01*
X173299486Y-88697802D02*
X173261390Y-88716850D01*
X173261390Y-88716850D02*
X173242343Y-88754945D01*
X173242343Y-88754945D02*
X173242343Y-88964469D01*
X173051866Y-88964469D02*
X173051866Y-88697802D01*
X173051866Y-88564469D02*
X173070914Y-88583517D01*
X173070914Y-88583517D02*
X173051866Y-88602564D01*
X173051866Y-88602564D02*
X173032819Y-88583517D01*
X173032819Y-88583517D02*
X173051866Y-88564469D01*
X173051866Y-88564469D02*
X173051866Y-88602564D01*
X172709009Y-88945422D02*
X172747105Y-88964469D01*
X172747105Y-88964469D02*
X172823295Y-88964469D01*
X172823295Y-88964469D02*
X172861390Y-88945422D01*
X172861390Y-88945422D02*
X172880438Y-88907326D01*
X172880438Y-88907326D02*
X172880438Y-88754945D01*
X172880438Y-88754945D02*
X172861390Y-88716850D01*
X172861390Y-88716850D02*
X172823295Y-88697802D01*
X172823295Y-88697802D02*
X172747105Y-88697802D01*
X172747105Y-88697802D02*
X172709009Y-88716850D01*
X172709009Y-88716850D02*
X172689962Y-88754945D01*
X172689962Y-88754945D02*
X172689962Y-88793041D01*
X172689962Y-88793041D02*
X172880438Y-88831136D01*
X172461391Y-88964469D02*
X172499486Y-88945422D01*
X172499486Y-88945422D02*
X172518533Y-88907326D01*
X172518533Y-88907326D02*
X172518533Y-88564469D01*
X171870914Y-88754945D02*
X171813771Y-88773993D01*
X171813771Y-88773993D02*
X171794724Y-88793041D01*
X171794724Y-88793041D02*
X171775676Y-88831136D01*
X171775676Y-88831136D02*
X171775676Y-88888279D01*
X171775676Y-88888279D02*
X171794724Y-88926374D01*
X171794724Y-88926374D02*
X171813771Y-88945422D01*
X171813771Y-88945422D02*
X171851866Y-88964469D01*
X171851866Y-88964469D02*
X172004247Y-88964469D01*
X172004247Y-88964469D02*
X172004247Y-88564469D01*
X172004247Y-88564469D02*
X171870914Y-88564469D01*
X171870914Y-88564469D02*
X171832819Y-88583517D01*
X171832819Y-88583517D02*
X171813771Y-88602564D01*
X171813771Y-88602564D02*
X171794724Y-88640660D01*
X171794724Y-88640660D02*
X171794724Y-88678755D01*
X171794724Y-88678755D02*
X171813771Y-88716850D01*
X171813771Y-88716850D02*
X171832819Y-88735898D01*
X171832819Y-88735898D02*
X171870914Y-88754945D01*
X171870914Y-88754945D02*
X172004247Y-88754945D01*
X171432819Y-88964469D02*
X171432819Y-88754945D01*
X171432819Y-88754945D02*
X171451866Y-88716850D01*
X171451866Y-88716850D02*
X171489962Y-88697802D01*
X171489962Y-88697802D02*
X171566152Y-88697802D01*
X171566152Y-88697802D02*
X171604247Y-88716850D01*
X171432819Y-88945422D02*
X171470914Y-88964469D01*
X171470914Y-88964469D02*
X171566152Y-88964469D01*
X171566152Y-88964469D02*
X171604247Y-88945422D01*
X171604247Y-88945422D02*
X171623295Y-88907326D01*
X171623295Y-88907326D02*
X171623295Y-88869231D01*
X171623295Y-88869231D02*
X171604247Y-88831136D01*
X171604247Y-88831136D02*
X171566152Y-88812088D01*
X171566152Y-88812088D02*
X171470914Y-88812088D01*
X171470914Y-88812088D02*
X171432819Y-88793041D01*
X171070914Y-88945422D02*
X171109009Y-88964469D01*
X171109009Y-88964469D02*
X171185200Y-88964469D01*
X171185200Y-88964469D02*
X171223295Y-88945422D01*
X171223295Y-88945422D02*
X171242342Y-88926374D01*
X171242342Y-88926374D02*
X171261390Y-88888279D01*
X171261390Y-88888279D02*
X171261390Y-88773993D01*
X171261390Y-88773993D02*
X171242342Y-88735898D01*
X171242342Y-88735898D02*
X171223295Y-88716850D01*
X171223295Y-88716850D02*
X171185200Y-88697802D01*
X171185200Y-88697802D02*
X171109009Y-88697802D01*
X171109009Y-88697802D02*
X171070914Y-88716850D01*
X170899485Y-88964469D02*
X170899485Y-88564469D01*
X170728057Y-88964469D02*
X170728057Y-88754945D01*
X170728057Y-88754945D02*
X170747104Y-88716850D01*
X170747104Y-88716850D02*
X170785200Y-88697802D01*
X170785200Y-88697802D02*
X170842343Y-88697802D01*
X170842343Y-88697802D02*
X170880438Y-88716850D01*
X170880438Y-88716850D02*
X170899485Y-88735898D01*
X170518533Y-88945422D02*
X170518533Y-88964469D01*
X170518533Y-88964469D02*
X170537580Y-89002564D01*
X170537580Y-89002564D02*
X170556628Y-89021612D01*
X169870914Y-88964469D02*
X169870914Y-88564469D01*
X169870914Y-88945422D02*
X169909009Y-88964469D01*
X169909009Y-88964469D02*
X169985200Y-88964469D01*
X169985200Y-88964469D02*
X170023295Y-88945422D01*
X170023295Y-88945422D02*
X170042342Y-88926374D01*
X170042342Y-88926374D02*
X170061390Y-88888279D01*
X170061390Y-88888279D02*
X170061390Y-88773993D01*
X170061390Y-88773993D02*
X170042342Y-88735898D01*
X170042342Y-88735898D02*
X170023295Y-88716850D01*
X170023295Y-88716850D02*
X169985200Y-88697802D01*
X169985200Y-88697802D02*
X169909009Y-88697802D01*
X169909009Y-88697802D02*
X169870914Y-88716850D01*
X169509009Y-88964469D02*
X169509009Y-88754945D01*
X169509009Y-88754945D02*
X169528056Y-88716850D01*
X169528056Y-88716850D02*
X169566152Y-88697802D01*
X169566152Y-88697802D02*
X169642342Y-88697802D01*
X169642342Y-88697802D02*
X169680437Y-88716850D01*
X169509009Y-88945422D02*
X169547104Y-88964469D01*
X169547104Y-88964469D02*
X169642342Y-88964469D01*
X169642342Y-88964469D02*
X169680437Y-88945422D01*
X169680437Y-88945422D02*
X169699485Y-88907326D01*
X169699485Y-88907326D02*
X169699485Y-88869231D01*
X169699485Y-88869231D02*
X169680437Y-88831136D01*
X169680437Y-88831136D02*
X169642342Y-88812088D01*
X169642342Y-88812088D02*
X169547104Y-88812088D01*
X169547104Y-88812088D02*
X169509009Y-88793041D01*
X169318532Y-88697802D02*
X169318532Y-88964469D01*
X169318532Y-88735898D02*
X169299485Y-88716850D01*
X169299485Y-88716850D02*
X169261390Y-88697802D01*
X169261390Y-88697802D02*
X169204247Y-88697802D01*
X169204247Y-88697802D02*
X169166151Y-88716850D01*
X169166151Y-88716850D02*
X169147104Y-88754945D01*
X169147104Y-88754945D02*
X169147104Y-88964469D01*
X168956627Y-88964469D02*
X168956627Y-88697802D01*
X168956627Y-88564469D02*
X168975675Y-88583517D01*
X168975675Y-88583517D02*
X168956627Y-88602564D01*
X168956627Y-88602564D02*
X168937580Y-88583517D01*
X168937580Y-88583517D02*
X168956627Y-88564469D01*
X168956627Y-88564469D02*
X168956627Y-88602564D01*
X168613770Y-88945422D02*
X168651866Y-88964469D01*
X168651866Y-88964469D02*
X168728056Y-88964469D01*
X168728056Y-88964469D02*
X168766151Y-88945422D01*
X168766151Y-88945422D02*
X168785199Y-88907326D01*
X168785199Y-88907326D02*
X168785199Y-88754945D01*
X168785199Y-88754945D02*
X168766151Y-88716850D01*
X168766151Y-88716850D02*
X168728056Y-88697802D01*
X168728056Y-88697802D02*
X168651866Y-88697802D01*
X168651866Y-88697802D02*
X168613770Y-88716850D01*
X168613770Y-88716850D02*
X168594723Y-88754945D01*
X168594723Y-88754945D02*
X168594723Y-88793041D01*
X168594723Y-88793041D02*
X168785199Y-88831136D01*
X168366152Y-88964469D02*
X168404247Y-88945422D01*
X168404247Y-88945422D02*
X168423294Y-88907326D01*
X168423294Y-88907326D02*
X168423294Y-88564469D01*
X168213770Y-88926374D02*
X168194723Y-88945422D01*
X168194723Y-88945422D02*
X168213770Y-88964469D01*
X168213770Y-88964469D02*
X168232818Y-88945422D01*
X168232818Y-88945422D02*
X168213770Y-88926374D01*
X168213770Y-88926374D02*
X168213770Y-88964469D01*
X168023294Y-88964469D02*
X168023294Y-88564469D01*
X168023294Y-88716850D02*
X167985199Y-88697802D01*
X167985199Y-88697802D02*
X167909009Y-88697802D01*
X167909009Y-88697802D02*
X167870913Y-88716850D01*
X167870913Y-88716850D02*
X167851866Y-88735898D01*
X167851866Y-88735898D02*
X167832818Y-88773993D01*
X167832818Y-88773993D02*
X167832818Y-88888279D01*
X167832818Y-88888279D02*
X167851866Y-88926374D01*
X167851866Y-88926374D02*
X167870913Y-88945422D01*
X167870913Y-88945422D02*
X167909009Y-88964469D01*
X167909009Y-88964469D02*
X167985199Y-88964469D01*
X167985199Y-88964469D02*
X168023294Y-88945422D01*
X167489961Y-88964469D02*
X167489961Y-88754945D01*
X167489961Y-88754945D02*
X167509008Y-88716850D01*
X167509008Y-88716850D02*
X167547104Y-88697802D01*
X167547104Y-88697802D02*
X167623294Y-88697802D01*
X167623294Y-88697802D02*
X167661389Y-88716850D01*
X167489961Y-88945422D02*
X167528056Y-88964469D01*
X167528056Y-88964469D02*
X167623294Y-88964469D01*
X167623294Y-88964469D02*
X167661389Y-88945422D01*
X167661389Y-88945422D02*
X167680437Y-88907326D01*
X167680437Y-88907326D02*
X167680437Y-88869231D01*
X167680437Y-88869231D02*
X167661389Y-88831136D01*
X167661389Y-88831136D02*
X167623294Y-88812088D01*
X167623294Y-88812088D02*
X167528056Y-88812088D01*
X167528056Y-88812088D02*
X167489961Y-88793041D01*
X167128056Y-88945422D02*
X167166151Y-88964469D01*
X167166151Y-88964469D02*
X167242342Y-88964469D01*
X167242342Y-88964469D02*
X167280437Y-88945422D01*
X167280437Y-88945422D02*
X167299484Y-88926374D01*
X167299484Y-88926374D02*
X167318532Y-88888279D01*
X167318532Y-88888279D02*
X167318532Y-88773993D01*
X167318532Y-88773993D02*
X167299484Y-88735898D01*
X167299484Y-88735898D02*
X167280437Y-88716850D01*
X167280437Y-88716850D02*
X167242342Y-88697802D01*
X167242342Y-88697802D02*
X167166151Y-88697802D01*
X167166151Y-88697802D02*
X167128056Y-88716850D01*
X166956627Y-88964469D02*
X166956627Y-88564469D01*
X166785199Y-88964469D02*
X166785199Y-88754945D01*
X166785199Y-88754945D02*
X166804246Y-88716850D01*
X166804246Y-88716850D02*
X166842342Y-88697802D01*
X166842342Y-88697802D02*
X166899485Y-88697802D01*
X166899485Y-88697802D02*
X166937580Y-88716850D01*
X166937580Y-88716850D02*
X166956627Y-88735898D01*
X166347103Y-88773993D02*
X166366151Y-88754945D01*
X166366151Y-88754945D02*
X166404246Y-88735898D01*
X166404246Y-88735898D02*
X166442341Y-88735898D01*
X166442341Y-88735898D02*
X166480437Y-88754945D01*
X166480437Y-88754945D02*
X166499484Y-88773993D01*
X166499484Y-88773993D02*
X166518532Y-88812088D01*
X166518532Y-88812088D02*
X166518532Y-88850183D01*
X166518532Y-88850183D02*
X166499484Y-88888279D01*
X166499484Y-88888279D02*
X166480437Y-88907326D01*
X166480437Y-88907326D02*
X166442341Y-88926374D01*
X166442341Y-88926374D02*
X166404246Y-88926374D01*
X166404246Y-88926374D02*
X166366151Y-88907326D01*
X166366151Y-88907326D02*
X166347103Y-88888279D01*
X166347103Y-88735898D02*
X166347103Y-88888279D01*
X166347103Y-88888279D02*
X166328056Y-88907326D01*
X166328056Y-88907326D02*
X166309008Y-88907326D01*
X166309008Y-88907326D02*
X166270913Y-88888279D01*
X166270913Y-88888279D02*
X166251865Y-88850183D01*
X166251865Y-88850183D02*
X166251865Y-88754945D01*
X166251865Y-88754945D02*
X166289961Y-88697802D01*
X166289961Y-88697802D02*
X166347103Y-88659707D01*
X166347103Y-88659707D02*
X166423294Y-88640660D01*
X166423294Y-88640660D02*
X166499484Y-88659707D01*
X166499484Y-88659707D02*
X166556627Y-88697802D01*
X166556627Y-88697802D02*
X166594722Y-88754945D01*
X166594722Y-88754945D02*
X166613770Y-88831136D01*
X166613770Y-88831136D02*
X166594722Y-88907326D01*
X166594722Y-88907326D02*
X166556627Y-88964469D01*
X166556627Y-88964469D02*
X166499484Y-89002564D01*
X166499484Y-89002564D02*
X166423294Y-89021612D01*
X166423294Y-89021612D02*
X166347103Y-89002564D01*
X166347103Y-89002564D02*
X166289961Y-88964469D01*
X165928055Y-88945422D02*
X165966151Y-88964469D01*
X165966151Y-88964469D02*
X166042341Y-88964469D01*
X166042341Y-88964469D02*
X166080436Y-88945422D01*
X166080436Y-88945422D02*
X166099484Y-88907326D01*
X166099484Y-88907326D02*
X166099484Y-88754945D01*
X166099484Y-88754945D02*
X166080436Y-88716850D01*
X166080436Y-88716850D02*
X166042341Y-88697802D01*
X166042341Y-88697802D02*
X165966151Y-88697802D01*
X165966151Y-88697802D02*
X165928055Y-88716850D01*
X165928055Y-88716850D02*
X165909008Y-88754945D01*
X165909008Y-88754945D02*
X165909008Y-88793041D01*
X165909008Y-88793041D02*
X166099484Y-88831136D01*
X165737579Y-88697802D02*
X165737579Y-89097802D01*
X165737579Y-88716850D02*
X165699484Y-88697802D01*
X165699484Y-88697802D02*
X165623294Y-88697802D01*
X165623294Y-88697802D02*
X165585198Y-88716850D01*
X165585198Y-88716850D02*
X165566151Y-88735898D01*
X165566151Y-88735898D02*
X165547103Y-88773993D01*
X165547103Y-88773993D02*
X165547103Y-88888279D01*
X165547103Y-88888279D02*
X165566151Y-88926374D01*
X165566151Y-88926374D02*
X165585198Y-88945422D01*
X165585198Y-88945422D02*
X165623294Y-88964469D01*
X165623294Y-88964469D02*
X165699484Y-88964469D01*
X165699484Y-88964469D02*
X165737579Y-88945422D01*
X165432817Y-88697802D02*
X165280436Y-88697802D01*
X165375674Y-88964469D02*
X165375674Y-88621612D01*
X165375674Y-88621612D02*
X165356627Y-88583517D01*
X165356627Y-88583517D02*
X165318532Y-88564469D01*
X165318532Y-88564469D02*
X165280436Y-88564469D01*
X165089961Y-88964469D02*
X165128056Y-88945422D01*
X165128056Y-88945422D02*
X165147103Y-88907326D01*
X165147103Y-88907326D02*
X165147103Y-88564469D01*
X164937579Y-88926374D02*
X164918532Y-88945422D01*
X164918532Y-88945422D02*
X164937579Y-88964469D01*
X164937579Y-88964469D02*
X164956627Y-88945422D01*
X164956627Y-88945422D02*
X164937579Y-88926374D01*
X164937579Y-88926374D02*
X164937579Y-88964469D01*
X164575675Y-88945422D02*
X164613770Y-88964469D01*
X164613770Y-88964469D02*
X164689961Y-88964469D01*
X164689961Y-88964469D02*
X164728056Y-88945422D01*
X164728056Y-88945422D02*
X164747103Y-88926374D01*
X164747103Y-88926374D02*
X164766151Y-88888279D01*
X164766151Y-88888279D02*
X164766151Y-88773993D01*
X164766151Y-88773993D02*
X164747103Y-88735898D01*
X164747103Y-88735898D02*
X164728056Y-88716850D01*
X164728056Y-88716850D02*
X164689961Y-88697802D01*
X164689961Y-88697802D02*
X164613770Y-88697802D01*
X164613770Y-88697802D02*
X164575675Y-88716850D01*
X164404246Y-88964469D02*
X164404246Y-88564469D01*
X164232818Y-88964469D02*
X164232818Y-88754945D01*
X164232818Y-88754945D02*
X164251865Y-88716850D01*
X164251865Y-88716850D02*
X164289961Y-88697802D01*
X164289961Y-88697802D02*
X164347104Y-88697802D01*
X164347104Y-88697802D02*
X164385199Y-88716850D01*
X164385199Y-88716850D02*
X164404246Y-88735898D01*
X173318535Y-89608447D02*
X173451868Y-89417971D01*
X173547106Y-89608447D02*
X173547106Y-89208447D01*
X173547106Y-89208447D02*
X173394725Y-89208447D01*
X173394725Y-89208447D02*
X173356630Y-89227495D01*
X173356630Y-89227495D02*
X173337583Y-89246542D01*
X173337583Y-89246542D02*
X173318535Y-89284638D01*
X173318535Y-89284638D02*
X173318535Y-89341780D01*
X173318535Y-89341780D02*
X173337583Y-89379876D01*
X173337583Y-89379876D02*
X173356630Y-89398923D01*
X173356630Y-89398923D02*
X173394725Y-89417971D01*
X173394725Y-89417971D02*
X173547106Y-89417971D01*
X173089964Y-89608447D02*
X173128059Y-89589400D01*
X173128059Y-89589400D02*
X173147106Y-89570352D01*
X173147106Y-89570352D02*
X173166154Y-89532257D01*
X173166154Y-89532257D02*
X173166154Y-89417971D01*
X173166154Y-89417971D02*
X173147106Y-89379876D01*
X173147106Y-89379876D02*
X173128059Y-89360828D01*
X173128059Y-89360828D02*
X173089964Y-89341780D01*
X173089964Y-89341780D02*
X173032821Y-89341780D01*
X173032821Y-89341780D02*
X172994725Y-89360828D01*
X172994725Y-89360828D02*
X172975678Y-89379876D01*
X172975678Y-89379876D02*
X172956630Y-89417971D01*
X172956630Y-89417971D02*
X172956630Y-89532257D01*
X172956630Y-89532257D02*
X172975678Y-89570352D01*
X172975678Y-89570352D02*
X172994725Y-89589400D01*
X172994725Y-89589400D02*
X173032821Y-89608447D01*
X173032821Y-89608447D02*
X173089964Y-89608447D01*
X172785201Y-89608447D02*
X172785201Y-89341780D01*
X172785201Y-89379876D02*
X172766154Y-89360828D01*
X172766154Y-89360828D02*
X172728059Y-89341780D01*
X172728059Y-89341780D02*
X172670916Y-89341780D01*
X172670916Y-89341780D02*
X172632820Y-89360828D01*
X172632820Y-89360828D02*
X172613773Y-89398923D01*
X172613773Y-89398923D02*
X172613773Y-89608447D01*
X172613773Y-89398923D02*
X172594725Y-89360828D01*
X172594725Y-89360828D02*
X172556630Y-89341780D01*
X172556630Y-89341780D02*
X172499487Y-89341780D01*
X172499487Y-89341780D02*
X172461392Y-89360828D01*
X172461392Y-89360828D02*
X172442344Y-89398923D01*
X172442344Y-89398923D02*
X172442344Y-89608447D01*
X172080440Y-89608447D02*
X172080440Y-89398923D01*
X172080440Y-89398923D02*
X172099487Y-89360828D01*
X172099487Y-89360828D02*
X172137583Y-89341780D01*
X172137583Y-89341780D02*
X172213773Y-89341780D01*
X172213773Y-89341780D02*
X172251868Y-89360828D01*
X172080440Y-89589400D02*
X172118535Y-89608447D01*
X172118535Y-89608447D02*
X172213773Y-89608447D01*
X172213773Y-89608447D02*
X172251868Y-89589400D01*
X172251868Y-89589400D02*
X172270916Y-89551304D01*
X172270916Y-89551304D02*
X172270916Y-89513209D01*
X172270916Y-89513209D02*
X172251868Y-89475114D01*
X172251868Y-89475114D02*
X172213773Y-89456066D01*
X172213773Y-89456066D02*
X172118535Y-89456066D01*
X172118535Y-89456066D02*
X172080440Y-89437019D01*
X171889963Y-89341780D02*
X171889963Y-89608447D01*
X171889963Y-89379876D02*
X171870916Y-89360828D01*
X171870916Y-89360828D02*
X171832821Y-89341780D01*
X171832821Y-89341780D02*
X171775678Y-89341780D01*
X171775678Y-89341780D02*
X171737582Y-89360828D01*
X171737582Y-89360828D02*
X171718535Y-89398923D01*
X171718535Y-89398923D02*
X171718535Y-89608447D01*
X171223296Y-89608447D02*
X171223296Y-89208447D01*
X171223296Y-89208447D02*
X171128058Y-89208447D01*
X171128058Y-89208447D02*
X171070915Y-89227495D01*
X171070915Y-89227495D02*
X171032820Y-89265590D01*
X171032820Y-89265590D02*
X171013773Y-89303685D01*
X171013773Y-89303685D02*
X170994725Y-89379876D01*
X170994725Y-89379876D02*
X170994725Y-89437019D01*
X170994725Y-89437019D02*
X171013773Y-89513209D01*
X171013773Y-89513209D02*
X171032820Y-89551304D01*
X171032820Y-89551304D02*
X171070915Y-89589400D01*
X171070915Y-89589400D02*
X171128058Y-89608447D01*
X171128058Y-89608447D02*
X171223296Y-89608447D01*
X170651868Y-89608447D02*
X170651868Y-89398923D01*
X170651868Y-89398923D02*
X170670915Y-89360828D01*
X170670915Y-89360828D02*
X170709011Y-89341780D01*
X170709011Y-89341780D02*
X170785201Y-89341780D01*
X170785201Y-89341780D02*
X170823296Y-89360828D01*
X170651868Y-89589400D02*
X170689963Y-89608447D01*
X170689963Y-89608447D02*
X170785201Y-89608447D01*
X170785201Y-89608447D02*
X170823296Y-89589400D01*
X170823296Y-89589400D02*
X170842344Y-89551304D01*
X170842344Y-89551304D02*
X170842344Y-89513209D01*
X170842344Y-89513209D02*
X170823296Y-89475114D01*
X170823296Y-89475114D02*
X170785201Y-89456066D01*
X170785201Y-89456066D02*
X170689963Y-89456066D01*
X170689963Y-89456066D02*
X170651868Y-89437019D01*
X170461391Y-89341780D02*
X170461391Y-89608447D01*
X170461391Y-89379876D02*
X170442344Y-89360828D01*
X170442344Y-89360828D02*
X170404249Y-89341780D01*
X170404249Y-89341780D02*
X170347106Y-89341780D01*
X170347106Y-89341780D02*
X170309010Y-89360828D01*
X170309010Y-89360828D02*
X170289963Y-89398923D01*
X170289963Y-89398923D02*
X170289963Y-89608447D01*
X170137582Y-89341780D02*
X170042344Y-89608447D01*
X169947105Y-89341780D02*
X170042344Y-89608447D01*
X170042344Y-89608447D02*
X170080439Y-89703685D01*
X170080439Y-89703685D02*
X170099486Y-89722733D01*
X170099486Y-89722733D02*
X170137582Y-89741780D01*
X169737582Y-89608447D02*
X169775677Y-89589400D01*
X169775677Y-89589400D02*
X169794724Y-89551304D01*
X169794724Y-89551304D02*
X169794724Y-89208447D01*
X169528058Y-89608447D02*
X169566153Y-89589400D01*
X169566153Y-89589400D02*
X169585200Y-89570352D01*
X169585200Y-89570352D02*
X169604248Y-89532257D01*
X169604248Y-89532257D02*
X169604248Y-89417971D01*
X169604248Y-89417971D02*
X169585200Y-89379876D01*
X169585200Y-89379876D02*
X169566153Y-89360828D01*
X169566153Y-89360828D02*
X169528058Y-89341780D01*
X169528058Y-89341780D02*
X169470915Y-89341780D01*
X169470915Y-89341780D02*
X169432819Y-89360828D01*
X169432819Y-89360828D02*
X169413772Y-89379876D01*
X169413772Y-89379876D02*
X169394724Y-89417971D01*
X169394724Y-89417971D02*
X169394724Y-89532257D01*
X169394724Y-89532257D02*
X169413772Y-89570352D01*
X169413772Y-89570352D02*
X169432819Y-89589400D01*
X169432819Y-89589400D02*
X169470915Y-89608447D01*
X169470915Y-89608447D02*
X169528058Y-89608447D01*
X169261391Y-89341780D02*
X169166153Y-89608447D01*
X169166153Y-89608447D02*
X169070914Y-89341780D01*
X168956629Y-89341780D02*
X168861391Y-89608447D01*
X168766152Y-89341780D02*
X168861391Y-89608447D01*
X168861391Y-89608447D02*
X168899486Y-89703685D01*
X168899486Y-89703685D02*
X168918533Y-89722733D01*
X168918533Y-89722733D02*
X168956629Y-89741780D01*
X168442343Y-89589400D02*
X168480438Y-89608447D01*
X168480438Y-89608447D02*
X168556629Y-89608447D01*
X168556629Y-89608447D02*
X168594724Y-89589400D01*
X168594724Y-89589400D02*
X168613771Y-89570352D01*
X168613771Y-89570352D02*
X168632819Y-89532257D01*
X168632819Y-89532257D02*
X168632819Y-89417971D01*
X168632819Y-89417971D02*
X168613771Y-89379876D01*
X168613771Y-89379876D02*
X168594724Y-89360828D01*
X168594724Y-89360828D02*
X168556629Y-89341780D01*
X168556629Y-89341780D02*
X168480438Y-89341780D01*
X168480438Y-89341780D02*
X168442343Y-89360828D01*
X168270914Y-89608447D02*
X168270914Y-89208447D01*
X168099486Y-89608447D02*
X168099486Y-89398923D01*
X168099486Y-89398923D02*
X168118533Y-89360828D01*
X168118533Y-89360828D02*
X168156629Y-89341780D01*
X168156629Y-89341780D02*
X168213772Y-89341780D01*
X168213772Y-89341780D02*
X168251867Y-89360828D01*
X168251867Y-89360828D02*
X168270914Y-89379876D01*
X167889962Y-89589400D02*
X167889962Y-89608447D01*
X167889962Y-89608447D02*
X167909009Y-89646542D01*
X167909009Y-89646542D02*
X167928057Y-89665590D01*
X167413771Y-89608447D02*
X167413771Y-89341780D01*
X167413771Y-89417971D02*
X167394724Y-89379876D01*
X167394724Y-89379876D02*
X167375676Y-89360828D01*
X167375676Y-89360828D02*
X167337581Y-89341780D01*
X167337581Y-89341780D02*
X167299486Y-89341780D01*
X167109010Y-89608447D02*
X167147105Y-89589400D01*
X167147105Y-89589400D02*
X167166152Y-89570352D01*
X167166152Y-89570352D02*
X167185200Y-89532257D01*
X167185200Y-89532257D02*
X167185200Y-89417971D01*
X167185200Y-89417971D02*
X167166152Y-89379876D01*
X167166152Y-89379876D02*
X167147105Y-89360828D01*
X167147105Y-89360828D02*
X167109010Y-89341780D01*
X167109010Y-89341780D02*
X167051867Y-89341780D01*
X167051867Y-89341780D02*
X167013771Y-89360828D01*
X167013771Y-89360828D02*
X166994724Y-89379876D01*
X166994724Y-89379876D02*
X166975676Y-89417971D01*
X166975676Y-89417971D02*
X166975676Y-89532257D01*
X166975676Y-89532257D02*
X166994724Y-89570352D01*
X166994724Y-89570352D02*
X167013771Y-89589400D01*
X167013771Y-89589400D02*
X167051867Y-89608447D01*
X167051867Y-89608447D02*
X167109010Y-89608447D01*
X166804247Y-89608447D02*
X166804247Y-89341780D01*
X166804247Y-89379876D02*
X166785200Y-89360828D01*
X166785200Y-89360828D02*
X166747105Y-89341780D01*
X166747105Y-89341780D02*
X166689962Y-89341780D01*
X166689962Y-89341780D02*
X166651866Y-89360828D01*
X166651866Y-89360828D02*
X166632819Y-89398923D01*
X166632819Y-89398923D02*
X166632819Y-89608447D01*
X166632819Y-89398923D02*
X166613771Y-89360828D01*
X166613771Y-89360828D02*
X166575676Y-89341780D01*
X166575676Y-89341780D02*
X166518533Y-89341780D01*
X166518533Y-89341780D02*
X166480438Y-89360828D01*
X166480438Y-89360828D02*
X166461390Y-89398923D01*
X166461390Y-89398923D02*
X166461390Y-89608447D01*
X166099486Y-89608447D02*
X166099486Y-89398923D01*
X166099486Y-89398923D02*
X166118533Y-89360828D01*
X166118533Y-89360828D02*
X166156629Y-89341780D01*
X166156629Y-89341780D02*
X166232819Y-89341780D01*
X166232819Y-89341780D02*
X166270914Y-89360828D01*
X166099486Y-89589400D02*
X166137581Y-89608447D01*
X166137581Y-89608447D02*
X166232819Y-89608447D01*
X166232819Y-89608447D02*
X166270914Y-89589400D01*
X166270914Y-89589400D02*
X166289962Y-89551304D01*
X166289962Y-89551304D02*
X166289962Y-89513209D01*
X166289962Y-89513209D02*
X166270914Y-89475114D01*
X166270914Y-89475114D02*
X166232819Y-89456066D01*
X166232819Y-89456066D02*
X166137581Y-89456066D01*
X166137581Y-89456066D02*
X166099486Y-89437019D01*
X165909009Y-89341780D02*
X165909009Y-89608447D01*
X165909009Y-89379876D02*
X165889962Y-89360828D01*
X165889962Y-89360828D02*
X165851867Y-89341780D01*
X165851867Y-89341780D02*
X165794724Y-89341780D01*
X165794724Y-89341780D02*
X165756628Y-89360828D01*
X165756628Y-89360828D02*
X165737581Y-89398923D01*
X165737581Y-89398923D02*
X165737581Y-89608447D01*
X165547104Y-89570352D02*
X165528057Y-89589400D01*
X165528057Y-89589400D02*
X165547104Y-89608447D01*
X165547104Y-89608447D02*
X165566152Y-89589400D01*
X165566152Y-89589400D02*
X165547104Y-89570352D01*
X165547104Y-89570352D02*
X165547104Y-89608447D01*
X165185200Y-89608447D02*
X165185200Y-89208447D01*
X165185200Y-89589400D02*
X165223295Y-89608447D01*
X165223295Y-89608447D02*
X165299486Y-89608447D01*
X165299486Y-89608447D02*
X165337581Y-89589400D01*
X165337581Y-89589400D02*
X165356628Y-89570352D01*
X165356628Y-89570352D02*
X165375676Y-89532257D01*
X165375676Y-89532257D02*
X165375676Y-89417971D01*
X165375676Y-89417971D02*
X165356628Y-89379876D01*
X165356628Y-89379876D02*
X165337581Y-89360828D01*
X165337581Y-89360828D02*
X165299486Y-89341780D01*
X165299486Y-89341780D02*
X165223295Y-89341780D01*
X165223295Y-89341780D02*
X165185200Y-89360828D01*
X164823295Y-89608447D02*
X164823295Y-89398923D01*
X164823295Y-89398923D02*
X164842342Y-89360828D01*
X164842342Y-89360828D02*
X164880438Y-89341780D01*
X164880438Y-89341780D02*
X164956628Y-89341780D01*
X164956628Y-89341780D02*
X164994723Y-89360828D01*
X164823295Y-89589400D02*
X164861390Y-89608447D01*
X164861390Y-89608447D02*
X164956628Y-89608447D01*
X164956628Y-89608447D02*
X164994723Y-89589400D01*
X164994723Y-89589400D02*
X165013771Y-89551304D01*
X165013771Y-89551304D02*
X165013771Y-89513209D01*
X165013771Y-89513209D02*
X164994723Y-89475114D01*
X164994723Y-89475114D02*
X164956628Y-89456066D01*
X164956628Y-89456066D02*
X164861390Y-89456066D01*
X164861390Y-89456066D02*
X164823295Y-89437019D01*
X164632818Y-89341780D02*
X164632818Y-89608447D01*
X164632818Y-89379876D02*
X164613771Y-89360828D01*
X164613771Y-89360828D02*
X164575676Y-89341780D01*
X164575676Y-89341780D02*
X164518533Y-89341780D01*
X164518533Y-89341780D02*
X164480437Y-89360828D01*
X164480437Y-89360828D02*
X164461390Y-89398923D01*
X164461390Y-89398923D02*
X164461390Y-89608447D01*
X164309009Y-89341780D02*
X164213771Y-89608447D01*
X164118532Y-89341780D02*
X164213771Y-89608447D01*
X164213771Y-89608447D02*
X164251866Y-89703685D01*
X164251866Y-89703685D02*
X164270913Y-89722733D01*
X164270913Y-89722733D02*
X164309009Y-89741780D01*
X163909009Y-89608447D02*
X163947104Y-89589400D01*
X163947104Y-89589400D02*
X163966151Y-89551304D01*
X163966151Y-89551304D02*
X163966151Y-89208447D01*
X163699485Y-89608447D02*
X163737580Y-89589400D01*
X163737580Y-89589400D02*
X163756627Y-89570352D01*
X163756627Y-89570352D02*
X163775675Y-89532257D01*
X163775675Y-89532257D02*
X163775675Y-89417971D01*
X163775675Y-89417971D02*
X163756627Y-89379876D01*
X163756627Y-89379876D02*
X163737580Y-89360828D01*
X163737580Y-89360828D02*
X163699485Y-89341780D01*
X163699485Y-89341780D02*
X163642342Y-89341780D01*
X163642342Y-89341780D02*
X163604246Y-89360828D01*
X163604246Y-89360828D02*
X163585199Y-89379876D01*
X163585199Y-89379876D02*
X163566151Y-89417971D01*
X163566151Y-89417971D02*
X163566151Y-89532257D01*
X163566151Y-89532257D02*
X163585199Y-89570352D01*
X163585199Y-89570352D02*
X163604246Y-89589400D01*
X163604246Y-89589400D02*
X163642342Y-89608447D01*
X163642342Y-89608447D02*
X163699485Y-89608447D01*
X163432818Y-89341780D02*
X163337580Y-89608447D01*
X163337580Y-89608447D02*
X163242341Y-89341780D01*
X163128056Y-89341780D02*
X163032818Y-89608447D01*
X162937579Y-89341780D02*
X163032818Y-89608447D01*
X163032818Y-89608447D02*
X163070913Y-89703685D01*
X163070913Y-89703685D02*
X163089960Y-89722733D01*
X163089960Y-89722733D02*
X163128056Y-89741780D01*
X162613770Y-89589400D02*
X162651865Y-89608447D01*
X162651865Y-89608447D02*
X162728056Y-89608447D01*
X162728056Y-89608447D02*
X162766151Y-89589400D01*
X162766151Y-89589400D02*
X162785198Y-89570352D01*
X162785198Y-89570352D02*
X162804246Y-89532257D01*
X162804246Y-89532257D02*
X162804246Y-89417971D01*
X162804246Y-89417971D02*
X162785198Y-89379876D01*
X162785198Y-89379876D02*
X162766151Y-89360828D01*
X162766151Y-89360828D02*
X162728056Y-89341780D01*
X162728056Y-89341780D02*
X162651865Y-89341780D01*
X162651865Y-89341780D02*
X162613770Y-89360828D01*
X162442341Y-89608447D02*
X162442341Y-89208447D01*
X162270913Y-89608447D02*
X162270913Y-89398923D01*
X162270913Y-89398923D02*
X162289960Y-89360828D01*
X162289960Y-89360828D02*
X162328056Y-89341780D01*
X162328056Y-89341780D02*
X162385199Y-89341780D01*
X162385199Y-89341780D02*
X162423294Y-89360828D01*
X162423294Y-89360828D02*
X162442341Y-89379876D01*
X161832817Y-89417971D02*
X161851865Y-89398923D01*
X161851865Y-89398923D02*
X161889960Y-89379876D01*
X161889960Y-89379876D02*
X161928055Y-89379876D01*
X161928055Y-89379876D02*
X161966151Y-89398923D01*
X161966151Y-89398923D02*
X161985198Y-89417971D01*
X161985198Y-89417971D02*
X162004246Y-89456066D01*
X162004246Y-89456066D02*
X162004246Y-89494161D01*
X162004246Y-89494161D02*
X161985198Y-89532257D01*
X161985198Y-89532257D02*
X161966151Y-89551304D01*
X161966151Y-89551304D02*
X161928055Y-89570352D01*
X161928055Y-89570352D02*
X161889960Y-89570352D01*
X161889960Y-89570352D02*
X161851865Y-89551304D01*
X161851865Y-89551304D02*
X161832817Y-89532257D01*
X161832817Y-89379876D02*
X161832817Y-89532257D01*
X161832817Y-89532257D02*
X161813770Y-89551304D01*
X161813770Y-89551304D02*
X161794722Y-89551304D01*
X161794722Y-89551304D02*
X161756627Y-89532257D01*
X161756627Y-89532257D02*
X161737579Y-89494161D01*
X161737579Y-89494161D02*
X161737579Y-89398923D01*
X161737579Y-89398923D02*
X161775675Y-89341780D01*
X161775675Y-89341780D02*
X161832817Y-89303685D01*
X161832817Y-89303685D02*
X161909008Y-89284638D01*
X161909008Y-89284638D02*
X161985198Y-89303685D01*
X161985198Y-89303685D02*
X162042341Y-89341780D01*
X162042341Y-89341780D02*
X162080436Y-89398923D01*
X162080436Y-89398923D02*
X162099484Y-89475114D01*
X162099484Y-89475114D02*
X162080436Y-89551304D01*
X162080436Y-89551304D02*
X162042341Y-89608447D01*
X162042341Y-89608447D02*
X161985198Y-89646542D01*
X161985198Y-89646542D02*
X161909008Y-89665590D01*
X161909008Y-89665590D02*
X161832817Y-89646542D01*
X161832817Y-89646542D02*
X161775675Y-89608447D01*
X161413769Y-89589400D02*
X161451865Y-89608447D01*
X161451865Y-89608447D02*
X161528055Y-89608447D01*
X161528055Y-89608447D02*
X161566150Y-89589400D01*
X161566150Y-89589400D02*
X161585198Y-89551304D01*
X161585198Y-89551304D02*
X161585198Y-89398923D01*
X161585198Y-89398923D02*
X161566150Y-89360828D01*
X161566150Y-89360828D02*
X161528055Y-89341780D01*
X161528055Y-89341780D02*
X161451865Y-89341780D01*
X161451865Y-89341780D02*
X161413769Y-89360828D01*
X161413769Y-89360828D02*
X161394722Y-89398923D01*
X161394722Y-89398923D02*
X161394722Y-89437019D01*
X161394722Y-89437019D02*
X161585198Y-89475114D01*
X161223293Y-89341780D02*
X161223293Y-89741780D01*
X161223293Y-89360828D02*
X161185198Y-89341780D01*
X161185198Y-89341780D02*
X161109008Y-89341780D01*
X161109008Y-89341780D02*
X161070912Y-89360828D01*
X161070912Y-89360828D02*
X161051865Y-89379876D01*
X161051865Y-89379876D02*
X161032817Y-89417971D01*
X161032817Y-89417971D02*
X161032817Y-89532257D01*
X161032817Y-89532257D02*
X161051865Y-89570352D01*
X161051865Y-89570352D02*
X161070912Y-89589400D01*
X161070912Y-89589400D02*
X161109008Y-89608447D01*
X161109008Y-89608447D02*
X161185198Y-89608447D01*
X161185198Y-89608447D02*
X161223293Y-89589400D01*
X160918531Y-89341780D02*
X160766150Y-89341780D01*
X160861388Y-89608447D02*
X160861388Y-89265590D01*
X160861388Y-89265590D02*
X160842341Y-89227495D01*
X160842341Y-89227495D02*
X160804246Y-89208447D01*
X160804246Y-89208447D02*
X160766150Y-89208447D01*
X160575675Y-89608447D02*
X160613770Y-89589400D01*
X160613770Y-89589400D02*
X160632817Y-89551304D01*
X160632817Y-89551304D02*
X160632817Y-89208447D01*
X160423293Y-89570352D02*
X160404246Y-89589400D01*
X160404246Y-89589400D02*
X160423293Y-89608447D01*
X160423293Y-89608447D02*
X160442341Y-89589400D01*
X160442341Y-89589400D02*
X160423293Y-89570352D01*
X160423293Y-89570352D02*
X160423293Y-89608447D01*
X160061389Y-89589400D02*
X160099484Y-89608447D01*
X160099484Y-89608447D02*
X160175675Y-89608447D01*
X160175675Y-89608447D02*
X160213770Y-89589400D01*
X160213770Y-89589400D02*
X160232817Y-89570352D01*
X160232817Y-89570352D02*
X160251865Y-89532257D01*
X160251865Y-89532257D02*
X160251865Y-89417971D01*
X160251865Y-89417971D02*
X160232817Y-89379876D01*
X160232817Y-89379876D02*
X160213770Y-89360828D01*
X160213770Y-89360828D02*
X160175675Y-89341780D01*
X160175675Y-89341780D02*
X160099484Y-89341780D01*
X160099484Y-89341780D02*
X160061389Y-89360828D01*
X159889960Y-89608447D02*
X159889960Y-89208447D01*
X159718532Y-89608447D02*
X159718532Y-89398923D01*
X159718532Y-89398923D02*
X159737579Y-89360828D01*
X159737579Y-89360828D02*
X159775675Y-89341780D01*
X159775675Y-89341780D02*
X159832818Y-89341780D01*
X159832818Y-89341780D02*
X159870913Y-89360828D01*
X159870913Y-89360828D02*
X159889960Y-89379876D01*
D10*
X185895489Y-130080828D02*
X185895489Y-128580828D01*
X185895489Y-128580828D02*
X185395489Y-129652257D01*
X185395489Y-129652257D02*
X184895489Y-128580828D01*
X184895489Y-128580828D02*
X184895489Y-130080828D01*
X183966917Y-130080828D02*
X184109774Y-130009400D01*
X184109774Y-130009400D02*
X184181203Y-129937971D01*
X184181203Y-129937971D02*
X184252631Y-129795114D01*
X184252631Y-129795114D02*
X184252631Y-129366542D01*
X184252631Y-129366542D02*
X184181203Y-129223685D01*
X184181203Y-129223685D02*
X184109774Y-129152257D01*
X184109774Y-129152257D02*
X183966917Y-129080828D01*
X183966917Y-129080828D02*
X183752631Y-129080828D01*
X183752631Y-129080828D02*
X183609774Y-129152257D01*
X183609774Y-129152257D02*
X183538346Y-129223685D01*
X183538346Y-129223685D02*
X183466917Y-129366542D01*
X183466917Y-129366542D02*
X183466917Y-129795114D01*
X183466917Y-129795114D02*
X183538346Y-129937971D01*
X183538346Y-129937971D02*
X183609774Y-130009400D01*
X183609774Y-130009400D02*
X183752631Y-130080828D01*
X183752631Y-130080828D02*
X183966917Y-130080828D01*
X183038345Y-129080828D02*
X182466917Y-129080828D01*
X182824060Y-128580828D02*
X182824060Y-129866542D01*
X182824060Y-129866542D02*
X182752631Y-130009400D01*
X182752631Y-130009400D02*
X182609774Y-130080828D01*
X182609774Y-130080828D02*
X182466917Y-130080828D01*
X181752631Y-130080828D02*
X181895488Y-130009400D01*
X181895488Y-130009400D02*
X181966917Y-129937971D01*
X181966917Y-129937971D02*
X182038345Y-129795114D01*
X182038345Y-129795114D02*
X182038345Y-129366542D01*
X182038345Y-129366542D02*
X181966917Y-129223685D01*
X181966917Y-129223685D02*
X181895488Y-129152257D01*
X181895488Y-129152257D02*
X181752631Y-129080828D01*
X181752631Y-129080828D02*
X181538345Y-129080828D01*
X181538345Y-129080828D02*
X181395488Y-129152257D01*
X181395488Y-129152257D02*
X181324060Y-129223685D01*
X181324060Y-129223685D02*
X181252631Y-129366542D01*
X181252631Y-129366542D02*
X181252631Y-129795114D01*
X181252631Y-129795114D02*
X181324060Y-129937971D01*
X181324060Y-129937971D02*
X181395488Y-130009400D01*
X181395488Y-130009400D02*
X181538345Y-130080828D01*
X181538345Y-130080828D02*
X181752631Y-130080828D01*
X180609774Y-130080828D02*
X180609774Y-129080828D01*
X180609774Y-129366542D02*
X180538345Y-129223685D01*
X180538345Y-129223685D02*
X180466917Y-129152257D01*
X180466917Y-129152257D02*
X180324059Y-129080828D01*
X180324059Y-129080828D02*
X180181202Y-129080828D01*
X177752631Y-130080828D02*
X178609774Y-130080828D01*
X178181203Y-130080828D02*
X178181203Y-128580828D01*
X178181203Y-128580828D02*
X178324060Y-128795114D01*
X178324060Y-128795114D02*
X178466917Y-128937971D01*
X178466917Y-128937971D02*
X178609774Y-129009400D01*
X168515489Y-103285912D02*
X168515489Y-101785912D01*
X168515489Y-101785912D02*
X168015489Y-102857341D01*
X168015489Y-102857341D02*
X167515489Y-101785912D01*
X167515489Y-101785912D02*
X167515489Y-103285912D01*
X166586917Y-103285912D02*
X166729774Y-103214484D01*
X166729774Y-103214484D02*
X166801203Y-103143055D01*
X166801203Y-103143055D02*
X166872631Y-103000198D01*
X166872631Y-103000198D02*
X166872631Y-102571626D01*
X166872631Y-102571626D02*
X166801203Y-102428769D01*
X166801203Y-102428769D02*
X166729774Y-102357341D01*
X166729774Y-102357341D02*
X166586917Y-102285912D01*
X166586917Y-102285912D02*
X166372631Y-102285912D01*
X166372631Y-102285912D02*
X166229774Y-102357341D01*
X166229774Y-102357341D02*
X166158346Y-102428769D01*
X166158346Y-102428769D02*
X166086917Y-102571626D01*
X166086917Y-102571626D02*
X166086917Y-103000198D01*
X166086917Y-103000198D02*
X166158346Y-103143055D01*
X166158346Y-103143055D02*
X166229774Y-103214484D01*
X166229774Y-103214484D02*
X166372631Y-103285912D01*
X166372631Y-103285912D02*
X166586917Y-103285912D01*
X165658345Y-102285912D02*
X165086917Y-102285912D01*
X165444060Y-101785912D02*
X165444060Y-103071626D01*
X165444060Y-103071626D02*
X165372631Y-103214484D01*
X165372631Y-103214484D02*
X165229774Y-103285912D01*
X165229774Y-103285912D02*
X165086917Y-103285912D01*
X164372631Y-103285912D02*
X164515488Y-103214484D01*
X164515488Y-103214484D02*
X164586917Y-103143055D01*
X164586917Y-103143055D02*
X164658345Y-103000198D01*
X164658345Y-103000198D02*
X164658345Y-102571626D01*
X164658345Y-102571626D02*
X164586917Y-102428769D01*
X164586917Y-102428769D02*
X164515488Y-102357341D01*
X164515488Y-102357341D02*
X164372631Y-102285912D01*
X164372631Y-102285912D02*
X164158345Y-102285912D01*
X164158345Y-102285912D02*
X164015488Y-102357341D01*
X164015488Y-102357341D02*
X163944060Y-102428769D01*
X163944060Y-102428769D02*
X163872631Y-102571626D01*
X163872631Y-102571626D02*
X163872631Y-103000198D01*
X163872631Y-103000198D02*
X163944060Y-103143055D01*
X163944060Y-103143055D02*
X164015488Y-103214484D01*
X164015488Y-103214484D02*
X164158345Y-103285912D01*
X164158345Y-103285912D02*
X164372631Y-103285912D01*
X163229774Y-103285912D02*
X163229774Y-102285912D01*
X163229774Y-102571626D02*
X163158345Y-102428769D01*
X163158345Y-102428769D02*
X163086917Y-102357341D01*
X163086917Y-102357341D02*
X162944059Y-102285912D01*
X162944059Y-102285912D02*
X162801202Y-102285912D01*
X160444060Y-101785912D02*
X161158346Y-101785912D01*
X161158346Y-101785912D02*
X161229774Y-102500198D01*
X161229774Y-102500198D02*
X161158346Y-102428769D01*
X161158346Y-102428769D02*
X161015489Y-102357341D01*
X161015489Y-102357341D02*
X160658346Y-102357341D01*
X160658346Y-102357341D02*
X160515489Y-102428769D01*
X160515489Y-102428769D02*
X160444060Y-102500198D01*
X160444060Y-102500198D02*
X160372631Y-102643055D01*
X160372631Y-102643055D02*
X160372631Y-103000198D01*
X160372631Y-103000198D02*
X160444060Y-103143055D01*
X160444060Y-103143055D02*
X160515489Y-103214484D01*
X160515489Y-103214484D02*
X160658346Y-103285912D01*
X160658346Y-103285912D02*
X161015489Y-103285912D01*
X161015489Y-103285912D02*
X161158346Y-103214484D01*
X161158346Y-103214484D02*
X161229774Y-103143055D01*
X164845489Y-122970828D02*
X164845489Y-121470828D01*
X164845489Y-121470828D02*
X164345489Y-122542257D01*
X164345489Y-122542257D02*
X163845489Y-121470828D01*
X163845489Y-121470828D02*
X163845489Y-122970828D01*
X162916917Y-122970828D02*
X163059774Y-122899400D01*
X163059774Y-122899400D02*
X163131203Y-122827971D01*
X163131203Y-122827971D02*
X163202631Y-122685114D01*
X163202631Y-122685114D02*
X163202631Y-122256542D01*
X163202631Y-122256542D02*
X163131203Y-122113685D01*
X163131203Y-122113685D02*
X163059774Y-122042257D01*
X163059774Y-122042257D02*
X162916917Y-121970828D01*
X162916917Y-121970828D02*
X162702631Y-121970828D01*
X162702631Y-121970828D02*
X162559774Y-122042257D01*
X162559774Y-122042257D02*
X162488346Y-122113685D01*
X162488346Y-122113685D02*
X162416917Y-122256542D01*
X162416917Y-122256542D02*
X162416917Y-122685114D01*
X162416917Y-122685114D02*
X162488346Y-122827971D01*
X162488346Y-122827971D02*
X162559774Y-122899400D01*
X162559774Y-122899400D02*
X162702631Y-122970828D01*
X162702631Y-122970828D02*
X162916917Y-122970828D01*
X161988345Y-121970828D02*
X161416917Y-121970828D01*
X161774060Y-121470828D02*
X161774060Y-122756542D01*
X161774060Y-122756542D02*
X161702631Y-122899400D01*
X161702631Y-122899400D02*
X161559774Y-122970828D01*
X161559774Y-122970828D02*
X161416917Y-122970828D01*
X160702631Y-122970828D02*
X160845488Y-122899400D01*
X160845488Y-122899400D02*
X160916917Y-122827971D01*
X160916917Y-122827971D02*
X160988345Y-122685114D01*
X160988345Y-122685114D02*
X160988345Y-122256542D01*
X160988345Y-122256542D02*
X160916917Y-122113685D01*
X160916917Y-122113685D02*
X160845488Y-122042257D01*
X160845488Y-122042257D02*
X160702631Y-121970828D01*
X160702631Y-121970828D02*
X160488345Y-121970828D01*
X160488345Y-121970828D02*
X160345488Y-122042257D01*
X160345488Y-122042257D02*
X160274060Y-122113685D01*
X160274060Y-122113685D02*
X160202631Y-122256542D01*
X160202631Y-122256542D02*
X160202631Y-122685114D01*
X160202631Y-122685114D02*
X160274060Y-122827971D01*
X160274060Y-122827971D02*
X160345488Y-122899400D01*
X160345488Y-122899400D02*
X160488345Y-122970828D01*
X160488345Y-122970828D02*
X160702631Y-122970828D01*
X159559774Y-122970828D02*
X159559774Y-121970828D01*
X159559774Y-122256542D02*
X159488345Y-122113685D01*
X159488345Y-122113685D02*
X159416917Y-122042257D01*
X159416917Y-122042257D02*
X159274059Y-121970828D01*
X159274059Y-121970828D02*
X159131202Y-121970828D01*
X157274060Y-122113685D02*
X157416917Y-122042257D01*
X157416917Y-122042257D02*
X157488346Y-121970828D01*
X157488346Y-121970828D02*
X157559774Y-121827971D01*
X157559774Y-121827971D02*
X157559774Y-121756542D01*
X157559774Y-121756542D02*
X157488346Y-121613685D01*
X157488346Y-121613685D02*
X157416917Y-121542257D01*
X157416917Y-121542257D02*
X157274060Y-121470828D01*
X157274060Y-121470828D02*
X156988346Y-121470828D01*
X156988346Y-121470828D02*
X156845489Y-121542257D01*
X156845489Y-121542257D02*
X156774060Y-121613685D01*
X156774060Y-121613685D02*
X156702631Y-121756542D01*
X156702631Y-121756542D02*
X156702631Y-121827971D01*
X156702631Y-121827971D02*
X156774060Y-121970828D01*
X156774060Y-121970828D02*
X156845489Y-122042257D01*
X156845489Y-122042257D02*
X156988346Y-122113685D01*
X156988346Y-122113685D02*
X157274060Y-122113685D01*
X157274060Y-122113685D02*
X157416917Y-122185114D01*
X157416917Y-122185114D02*
X157488346Y-122256542D01*
X157488346Y-122256542D02*
X157559774Y-122399400D01*
X157559774Y-122399400D02*
X157559774Y-122685114D01*
X157559774Y-122685114D02*
X157488346Y-122827971D01*
X157488346Y-122827971D02*
X157416917Y-122899400D01*
X157416917Y-122899400D02*
X157274060Y-122970828D01*
X157274060Y-122970828D02*
X156988346Y-122970828D01*
X156988346Y-122970828D02*
X156845489Y-122899400D01*
X156845489Y-122899400D02*
X156774060Y-122827971D01*
X156774060Y-122827971D02*
X156702631Y-122685114D01*
X156702631Y-122685114D02*
X156702631Y-122399400D01*
X156702631Y-122399400D02*
X156774060Y-122256542D01*
X156774060Y-122256542D02*
X156845489Y-122185114D01*
X156845489Y-122185114D02*
X156988346Y-122113685D01*
X164855489Y-130125912D02*
X164855489Y-128625912D01*
X164855489Y-128625912D02*
X164355489Y-129697341D01*
X164355489Y-129697341D02*
X163855489Y-128625912D01*
X163855489Y-128625912D02*
X163855489Y-130125912D01*
X162926917Y-130125912D02*
X163069774Y-130054484D01*
X163069774Y-130054484D02*
X163141203Y-129983055D01*
X163141203Y-129983055D02*
X163212631Y-129840198D01*
X163212631Y-129840198D02*
X163212631Y-129411626D01*
X163212631Y-129411626D02*
X163141203Y-129268769D01*
X163141203Y-129268769D02*
X163069774Y-129197341D01*
X163069774Y-129197341D02*
X162926917Y-129125912D01*
X162926917Y-129125912D02*
X162712631Y-129125912D01*
X162712631Y-129125912D02*
X162569774Y-129197341D01*
X162569774Y-129197341D02*
X162498346Y-129268769D01*
X162498346Y-129268769D02*
X162426917Y-129411626D01*
X162426917Y-129411626D02*
X162426917Y-129840198D01*
X162426917Y-129840198D02*
X162498346Y-129983055D01*
X162498346Y-129983055D02*
X162569774Y-130054484D01*
X162569774Y-130054484D02*
X162712631Y-130125912D01*
X162712631Y-130125912D02*
X162926917Y-130125912D01*
X161998345Y-129125912D02*
X161426917Y-129125912D01*
X161784060Y-128625912D02*
X161784060Y-129911626D01*
X161784060Y-129911626D02*
X161712631Y-130054484D01*
X161712631Y-130054484D02*
X161569774Y-130125912D01*
X161569774Y-130125912D02*
X161426917Y-130125912D01*
X160712631Y-130125912D02*
X160855488Y-130054484D01*
X160855488Y-130054484D02*
X160926917Y-129983055D01*
X160926917Y-129983055D02*
X160998345Y-129840198D01*
X160998345Y-129840198D02*
X160998345Y-129411626D01*
X160998345Y-129411626D02*
X160926917Y-129268769D01*
X160926917Y-129268769D02*
X160855488Y-129197341D01*
X160855488Y-129197341D02*
X160712631Y-129125912D01*
X160712631Y-129125912D02*
X160498345Y-129125912D01*
X160498345Y-129125912D02*
X160355488Y-129197341D01*
X160355488Y-129197341D02*
X160284060Y-129268769D01*
X160284060Y-129268769D02*
X160212631Y-129411626D01*
X160212631Y-129411626D02*
X160212631Y-129840198D01*
X160212631Y-129840198D02*
X160284060Y-129983055D01*
X160284060Y-129983055D02*
X160355488Y-130054484D01*
X160355488Y-130054484D02*
X160498345Y-130125912D01*
X160498345Y-130125912D02*
X160712631Y-130125912D01*
X159569774Y-130125912D02*
X159569774Y-129125912D01*
X159569774Y-129411626D02*
X159498345Y-129268769D01*
X159498345Y-129268769D02*
X159426917Y-129197341D01*
X159426917Y-129197341D02*
X159284059Y-129125912D01*
X159284059Y-129125912D02*
X159141202Y-129125912D01*
X157641203Y-128625912D02*
X156641203Y-128625912D01*
X156641203Y-128625912D02*
X157284060Y-130125912D01*
X175275489Y-130130828D02*
X175275489Y-128630828D01*
X175275489Y-128630828D02*
X174775489Y-129702257D01*
X174775489Y-129702257D02*
X174275489Y-128630828D01*
X174275489Y-128630828D02*
X174275489Y-130130828D01*
X173346917Y-130130828D02*
X173489774Y-130059400D01*
X173489774Y-130059400D02*
X173561203Y-129987971D01*
X173561203Y-129987971D02*
X173632631Y-129845114D01*
X173632631Y-129845114D02*
X173632631Y-129416542D01*
X173632631Y-129416542D02*
X173561203Y-129273685D01*
X173561203Y-129273685D02*
X173489774Y-129202257D01*
X173489774Y-129202257D02*
X173346917Y-129130828D01*
X173346917Y-129130828D02*
X173132631Y-129130828D01*
X173132631Y-129130828D02*
X172989774Y-129202257D01*
X172989774Y-129202257D02*
X172918346Y-129273685D01*
X172918346Y-129273685D02*
X172846917Y-129416542D01*
X172846917Y-129416542D02*
X172846917Y-129845114D01*
X172846917Y-129845114D02*
X172918346Y-129987971D01*
X172918346Y-129987971D02*
X172989774Y-130059400D01*
X172989774Y-130059400D02*
X173132631Y-130130828D01*
X173132631Y-130130828D02*
X173346917Y-130130828D01*
X172418345Y-129130828D02*
X171846917Y-129130828D01*
X172204060Y-128630828D02*
X172204060Y-129916542D01*
X172204060Y-129916542D02*
X172132631Y-130059400D01*
X172132631Y-130059400D02*
X171989774Y-130130828D01*
X171989774Y-130130828D02*
X171846917Y-130130828D01*
X171132631Y-130130828D02*
X171275488Y-130059400D01*
X171275488Y-130059400D02*
X171346917Y-129987971D01*
X171346917Y-129987971D02*
X171418345Y-129845114D01*
X171418345Y-129845114D02*
X171418345Y-129416542D01*
X171418345Y-129416542D02*
X171346917Y-129273685D01*
X171346917Y-129273685D02*
X171275488Y-129202257D01*
X171275488Y-129202257D02*
X171132631Y-129130828D01*
X171132631Y-129130828D02*
X170918345Y-129130828D01*
X170918345Y-129130828D02*
X170775488Y-129202257D01*
X170775488Y-129202257D02*
X170704060Y-129273685D01*
X170704060Y-129273685D02*
X170632631Y-129416542D01*
X170632631Y-129416542D02*
X170632631Y-129845114D01*
X170632631Y-129845114D02*
X170704060Y-129987971D01*
X170704060Y-129987971D02*
X170775488Y-130059400D01*
X170775488Y-130059400D02*
X170918345Y-130130828D01*
X170918345Y-130130828D02*
X171132631Y-130130828D01*
X169989774Y-130130828D02*
X169989774Y-129130828D01*
X169989774Y-129416542D02*
X169918345Y-129273685D01*
X169918345Y-129273685D02*
X169846917Y-129202257D01*
X169846917Y-129202257D02*
X169704059Y-129130828D01*
X169704059Y-129130828D02*
X169561202Y-129130828D01*
X168061203Y-128630828D02*
X167132631Y-128630828D01*
X167132631Y-128630828D02*
X167632631Y-129202257D01*
X167632631Y-129202257D02*
X167418346Y-129202257D01*
X167418346Y-129202257D02*
X167275489Y-129273685D01*
X167275489Y-129273685D02*
X167204060Y-129345114D01*
X167204060Y-129345114D02*
X167132631Y-129487971D01*
X167132631Y-129487971D02*
X167132631Y-129845114D01*
X167132631Y-129845114D02*
X167204060Y-129987971D01*
X167204060Y-129987971D02*
X167275489Y-130059400D01*
X167275489Y-130059400D02*
X167418346Y-130130828D01*
X167418346Y-130130828D02*
X167846917Y-130130828D01*
X167846917Y-130130828D02*
X167989774Y-130059400D01*
X167989774Y-130059400D02*
X168061203Y-129987971D01*
D12*
%TO.C,G\u002A\u002A\u002A*%
G36*
X179077025Y-79920085D02*
G01*
X180779554Y-79926456D01*
X180785838Y-83566544D01*
X180786097Y-83721728D01*
X180786823Y-84242949D01*
X180787233Y-84716432D01*
X180787320Y-85143640D01*
X180787075Y-85526033D01*
X180786490Y-85865073D01*
X180785555Y-86162221D01*
X180784263Y-86418938D01*
X180782604Y-86636685D01*
X180780570Y-86816924D01*
X180778153Y-86961115D01*
X180775344Y-87070721D01*
X180772134Y-87147201D01*
X180768515Y-87192018D01*
X180764478Y-87206632D01*
X180751475Y-87202880D01*
X180700945Y-87178832D01*
X180625046Y-87137447D01*
X180534605Y-87084480D01*
X180409597Y-87007039D01*
X179941781Y-86681021D01*
X179500559Y-86314829D01*
X179089378Y-85911769D01*
X178711681Y-85475146D01*
X178370914Y-85008266D01*
X178111138Y-84584650D01*
X177855648Y-84080441D01*
X177642281Y-83553475D01*
X177472359Y-83007510D01*
X177347206Y-82446307D01*
X177268144Y-81873624D01*
X177250545Y-81598022D01*
X177246587Y-81282645D01*
X177256232Y-80949599D01*
X177278748Y-80613889D01*
X177313409Y-80290520D01*
X177359483Y-79994499D01*
X177374495Y-79913714D01*
X179077025Y-79920085D01*
G37*
G36*
X175654600Y-81451986D02*
G01*
X175874867Y-81452569D01*
X176053456Y-81454404D01*
X176195576Y-81458195D01*
X176306434Y-81464643D01*
X176391237Y-81474453D01*
X176455191Y-81488327D01*
X176503505Y-81506969D01*
X176541385Y-81531081D01*
X176574038Y-81561366D01*
X176606672Y-81598528D01*
X176666204Y-81688727D01*
X176707648Y-81818974D01*
X176707014Y-81951382D01*
X176666216Y-82076483D01*
X176587163Y-82184807D01*
X176471767Y-82266885D01*
X176450014Y-82277272D01*
X176419038Y-82289572D01*
X176382989Y-82299252D01*
X176336299Y-82306620D01*
X176273402Y-82311984D01*
X176188730Y-82315653D01*
X176076717Y-82317935D01*
X175931796Y-82319139D01*
X175748399Y-82319573D01*
X175520961Y-82319544D01*
X175474332Y-82319510D01*
X175253896Y-82319110D01*
X175076486Y-82318137D01*
X174936560Y-82316314D01*
X174828577Y-82313362D01*
X174746994Y-82309001D01*
X174686269Y-82302954D01*
X174640860Y-82294940D01*
X174605225Y-82284683D01*
X174573822Y-82271902D01*
X174469477Y-82203701D01*
X174387469Y-82101458D01*
X174341009Y-81979935D01*
X174332130Y-81849017D01*
X174362865Y-81718587D01*
X174435250Y-81598528D01*
X174452646Y-81578178D01*
X174484641Y-81544703D01*
X174519380Y-81517736D01*
X174562071Y-81496575D01*
X174617921Y-81480516D01*
X174692137Y-81468857D01*
X174789927Y-81460894D01*
X174916497Y-81455924D01*
X175077054Y-81453245D01*
X175276806Y-81452152D01*
X175520961Y-81451945D01*
X175654600Y-81451986D01*
G37*
G36*
X164385682Y-76533214D02*
G01*
X164519895Y-76571404D01*
X164634262Y-76650277D01*
X164718302Y-76763433D01*
X164723100Y-76773039D01*
X164729865Y-76788537D01*
X164735916Y-76807189D01*
X164741285Y-76831578D01*
X164746008Y-76864283D01*
X164750116Y-76907885D01*
X164753645Y-76964965D01*
X164756629Y-77038104D01*
X164759101Y-77129882D01*
X164761094Y-77242881D01*
X164762644Y-77379681D01*
X164763784Y-77542864D01*
X164764547Y-77735009D01*
X164764968Y-77958697D01*
X164765080Y-78216511D01*
X164764918Y-78511029D01*
X164764515Y-78844834D01*
X164763905Y-79220505D01*
X164763122Y-79640624D01*
X164762200Y-80107771D01*
X164755726Y-83353373D01*
X164684192Y-83447156D01*
X164667262Y-83467471D01*
X164591479Y-83536612D01*
X164510559Y-83587303D01*
X164487437Y-83597047D01*
X164404138Y-83623181D01*
X164334047Y-83633668D01*
X164248945Y-83622166D01*
X164134206Y-83574783D01*
X164031536Y-83499697D01*
X163953442Y-83406645D01*
X163912428Y-83305365D01*
X163912092Y-83302582D01*
X163910413Y-83259222D01*
X163908902Y-83169838D01*
X163907566Y-83037447D01*
X163906410Y-82865062D01*
X163905442Y-82655699D01*
X163904668Y-82412372D01*
X163904095Y-82138096D01*
X163903730Y-81835886D01*
X163903578Y-81508756D01*
X163903646Y-81159722D01*
X163903942Y-80791797D01*
X163904471Y-80407998D01*
X163905240Y-80011338D01*
X163912367Y-76797196D01*
X163981862Y-76706087D01*
X164074174Y-76611826D01*
X164193024Y-76550739D01*
X164337197Y-76530635D01*
X164385682Y-76533214D01*
G37*
G36*
X187220593Y-75278958D02*
G01*
X187305609Y-75324355D01*
X187489946Y-75431258D01*
X187691065Y-75556877D01*
X187895271Y-75692271D01*
X188088870Y-75828493D01*
X188258168Y-75956602D01*
X188267451Y-75963992D01*
X188496120Y-76159141D01*
X188736384Y-76386737D01*
X188977724Y-76635518D01*
X189209623Y-76894226D01*
X189421564Y-77151599D01*
X189603028Y-77396378D01*
X189624138Y-77427005D01*
X189932317Y-77920030D01*
X190195649Y-78433877D01*
X190413619Y-78967125D01*
X190585712Y-79518355D01*
X190711414Y-80086146D01*
X190790208Y-80669078D01*
X190797172Y-80767996D01*
X190803014Y-80920261D01*
X190806034Y-81096963D01*
X190806364Y-81287528D01*
X190804138Y-81481385D01*
X190799492Y-81667960D01*
X190792557Y-81836679D01*
X190783469Y-81976972D01*
X190772362Y-82078263D01*
X190758014Y-82171281D01*
X190171616Y-82171825D01*
X190129038Y-82171879D01*
X189947950Y-82172633D01*
X189808138Y-82174543D01*
X189702680Y-82178070D01*
X189624658Y-82183676D01*
X189567151Y-82191823D01*
X189523238Y-82202974D01*
X189486000Y-82217589D01*
X189446953Y-82238836D01*
X189392498Y-82278280D01*
X189326503Y-82336453D01*
X189245016Y-82417308D01*
X189144084Y-82524796D01*
X189019756Y-82662869D01*
X188868079Y-82835479D01*
X188845472Y-82861318D01*
X188766058Y-82950517D01*
X188699833Y-83022513D01*
X188653169Y-83070488D01*
X188632435Y-83087627D01*
X188630426Y-83086398D01*
X188604369Y-83059042D01*
X188553345Y-83000125D01*
X188482216Y-82915418D01*
X188395841Y-82810695D01*
X188299080Y-82691727D01*
X188180405Y-82545719D01*
X188076057Y-82422786D01*
X187987534Y-82330218D01*
X187906965Y-82263708D01*
X187826478Y-82218949D01*
X187738202Y-82191633D01*
X187634266Y-82177455D01*
X187506798Y-82172106D01*
X187347926Y-82171281D01*
X186968324Y-82171281D01*
X186968324Y-78660328D01*
X186968324Y-75149376D01*
X187220593Y-75278958D01*
G37*
G36*
X185976136Y-79964054D02*
G01*
X185988539Y-82729386D01*
X186043262Y-82831686D01*
X186099532Y-82916535D01*
X186211524Y-83027545D01*
X186341209Y-83105215D01*
X186379027Y-83116167D01*
X186452706Y-83126460D01*
X186560850Y-83133440D01*
X186708489Y-83137408D01*
X186900650Y-83138663D01*
X187380272Y-83138663D01*
X187455448Y-83219279D01*
X187485217Y-83252830D01*
X187545304Y-83323477D01*
X187624263Y-83418184D01*
X187715303Y-83528797D01*
X187811636Y-83647160D01*
X187817046Y-83653844D01*
X187959725Y-83828637D01*
X188077377Y-83968147D01*
X188174974Y-84076338D01*
X188257488Y-84157170D01*
X188329891Y-84214607D01*
X188397156Y-84252610D01*
X188464253Y-84275142D01*
X188536156Y-84286166D01*
X188617836Y-84289643D01*
X188686175Y-84288676D01*
X188758946Y-84280593D01*
X188826850Y-84261323D01*
X188895115Y-84227015D01*
X188968968Y-84173818D01*
X189053636Y-84097883D01*
X189154346Y-83995358D01*
X189276323Y-83862392D01*
X189424796Y-83695135D01*
X189524834Y-83581637D01*
X189633617Y-83458557D01*
X189728972Y-83351031D01*
X189806072Y-83264492D01*
X189860091Y-83204367D01*
X189886201Y-83176088D01*
X189902876Y-83166705D01*
X189961947Y-83152878D01*
X190049016Y-83142999D01*
X190153027Y-83137148D01*
X190262923Y-83135410D01*
X190367645Y-83137865D01*
X190456137Y-83144596D01*
X190517340Y-83155686D01*
X190540199Y-83171217D01*
X190538817Y-83181631D01*
X190525411Y-83234298D01*
X190500795Y-83315691D01*
X190468737Y-83413063D01*
X190320739Y-83807184D01*
X190081330Y-84328102D01*
X189802484Y-84822745D01*
X189486444Y-85289303D01*
X189135452Y-85725965D01*
X188751749Y-86130921D01*
X188337579Y-86502360D01*
X187895182Y-86838473D01*
X187426802Y-87137447D01*
X186934680Y-87397474D01*
X186421058Y-87616742D01*
X185888178Y-87793441D01*
X185338283Y-87925760D01*
X184773614Y-88011889D01*
X184425357Y-88039793D01*
X183910116Y-88047287D01*
X183385127Y-88017115D01*
X182863148Y-87949693D01*
X182767328Y-87932477D01*
X182630790Y-87904947D01*
X182485441Y-87873061D01*
X182340860Y-87839154D01*
X182206626Y-87805561D01*
X182092317Y-87774616D01*
X182007512Y-87748655D01*
X181961790Y-87730011D01*
X181961444Y-87729666D01*
X181964312Y-87707868D01*
X181980690Y-87652886D01*
X182010985Y-87563647D01*
X182055604Y-87439075D01*
X182114956Y-87278099D01*
X182189449Y-87079643D01*
X182279489Y-86842634D01*
X182385486Y-86565998D01*
X182507846Y-86248661D01*
X182646977Y-85889550D01*
X182803288Y-85487590D01*
X182977186Y-85041708D01*
X183169079Y-84550830D01*
X183261019Y-84315596D01*
X183431377Y-83878398D01*
X183607036Y-83426031D01*
X183785856Y-82964068D01*
X183965701Y-82498083D01*
X184144433Y-82033652D01*
X184319915Y-81576347D01*
X184490009Y-81131743D01*
X184652577Y-80705414D01*
X184805481Y-80302934D01*
X184946586Y-79929877D01*
X185073752Y-79591817D01*
X185184842Y-79294327D01*
X185963734Y-77198722D01*
X185976136Y-79964054D01*
G37*
G36*
X166526720Y-79574065D02*
G01*
X166642680Y-79646108D01*
X166642810Y-79646222D01*
X166675923Y-79674865D01*
X166704107Y-79700785D01*
X166727758Y-79728006D01*
X166747271Y-79760555D01*
X166763044Y-79802456D01*
X166775474Y-79857737D01*
X166784955Y-79930421D01*
X166791887Y-80024535D01*
X166796664Y-80144105D01*
X166799683Y-80293155D01*
X166801341Y-80475712D01*
X166802034Y-80695801D01*
X166802159Y-80957448D01*
X166802113Y-81264678D01*
X166802132Y-81481547D01*
X166802288Y-81747952D01*
X166802719Y-81971488D01*
X166803557Y-82156100D01*
X166804939Y-82305733D01*
X166806999Y-82424333D01*
X166809872Y-82515845D01*
X166813692Y-82584213D01*
X166818595Y-82633383D01*
X166824714Y-82667300D01*
X166832185Y-82689909D01*
X166841143Y-82705155D01*
X166851722Y-82716984D01*
X166864153Y-82728331D01*
X166885959Y-82741726D01*
X166917753Y-82751577D01*
X166966139Y-82758424D01*
X167037720Y-82762809D01*
X167139099Y-82765272D01*
X167276880Y-82766353D01*
X167457665Y-82766593D01*
X167610316Y-82766310D01*
X167759304Y-82764952D01*
X167869921Y-82762101D01*
X167948384Y-82757348D01*
X168000905Y-82750287D01*
X168033698Y-82740512D01*
X168052978Y-82727614D01*
X168056237Y-82723820D01*
X168064177Y-82707864D01*
X168070872Y-82680619D01*
X168076426Y-82638254D01*
X168080946Y-82576936D01*
X168084537Y-82492833D01*
X168087305Y-82382113D01*
X168089356Y-82240945D01*
X168090795Y-82065496D01*
X168091729Y-81851934D01*
X168092262Y-81596427D01*
X168092502Y-81295144D01*
X168092511Y-81270844D01*
X168092724Y-80974866D01*
X168093177Y-80724088D01*
X168093998Y-80514412D01*
X168095315Y-80341737D01*
X168097255Y-80201965D01*
X168099946Y-80090996D01*
X168103515Y-80004730D01*
X168108089Y-79939069D01*
X168113797Y-79889913D01*
X168120765Y-79853163D01*
X168129122Y-79824720D01*
X168138995Y-79800483D01*
X168152609Y-79772969D01*
X168235758Y-79663774D01*
X168342703Y-79590169D01*
X168464169Y-79552529D01*
X168590881Y-79551232D01*
X168713565Y-79586655D01*
X168822945Y-79659175D01*
X168909746Y-79769168D01*
X168913830Y-79776513D01*
X168923807Y-79796430D01*
X168932248Y-79819377D01*
X168939259Y-79849235D01*
X168944950Y-79889887D01*
X168949427Y-79945213D01*
X168952798Y-80019096D01*
X168955171Y-80115416D01*
X168956654Y-80238055D01*
X168957353Y-80390896D01*
X168957378Y-80577819D01*
X168956835Y-80802706D01*
X168955832Y-81069439D01*
X168954476Y-81381898D01*
X168947718Y-82903019D01*
X168870959Y-83064249D01*
X168768904Y-83234348D01*
X168621598Y-83393114D01*
X168443774Y-83514948D01*
X168240184Y-83595847D01*
X168191577Y-83606790D01*
X168127296Y-83615723D01*
X168043790Y-83622175D01*
X167934984Y-83626378D01*
X167794806Y-83628559D01*
X167617183Y-83628949D01*
X167396042Y-83627778D01*
X166687725Y-83622355D01*
X166500380Y-83529716D01*
X166433742Y-83494407D01*
X166266202Y-83376227D01*
X166132772Y-83228988D01*
X166024846Y-83043900D01*
X165946351Y-82878214D01*
X165939441Y-81389933D01*
X165932531Y-79901652D01*
X165989051Y-79790231D01*
X166049822Y-79698529D01*
X166152291Y-79609644D01*
X166272168Y-79557896D01*
X166400097Y-79545349D01*
X166526720Y-79574065D01*
G37*
G36*
X158199342Y-79632881D02*
G01*
X158249146Y-79657957D01*
X158434999Y-79783248D01*
X158584615Y-79939713D01*
X158694885Y-80123499D01*
X158762698Y-80330753D01*
X158767396Y-80363255D01*
X158774228Y-80455814D01*
X158779891Y-80595573D01*
X158784352Y-80781042D01*
X158787579Y-81010727D01*
X158789539Y-81283138D01*
X158790199Y-81596782D01*
X158790109Y-81799942D01*
X158789468Y-82054485D01*
X158787865Y-82267596D01*
X158784898Y-82444103D01*
X158780169Y-82588838D01*
X158773275Y-82706629D01*
X158763816Y-82802308D01*
X158751393Y-82880704D01*
X158735603Y-82946646D01*
X158716047Y-83004966D01*
X158692325Y-83060492D01*
X158664034Y-83118056D01*
X158650113Y-83143894D01*
X158541750Y-83291230D01*
X158397400Y-83422119D01*
X158228392Y-83527737D01*
X158046058Y-83599262D01*
X158029729Y-83603053D01*
X157964133Y-83611835D01*
X157863636Y-83618904D01*
X157725300Y-83624358D01*
X157546186Y-83628293D01*
X157323356Y-83630806D01*
X157053871Y-83631994D01*
X156966503Y-83632142D01*
X156747906Y-83632229D01*
X156571681Y-83631628D01*
X156432465Y-83630097D01*
X156324897Y-83627396D01*
X156243614Y-83623282D01*
X156183254Y-83617515D01*
X156138454Y-83609852D01*
X156103852Y-83600053D01*
X156074086Y-83587875D01*
X155998953Y-83546501D01*
X155895435Y-83451833D01*
X155833945Y-83330984D01*
X155813636Y-83182636D01*
X155820185Y-83118111D01*
X155863744Y-82997325D01*
X155939428Y-82891054D01*
X156036961Y-82816161D01*
X156048298Y-82810534D01*
X156077724Y-82798161D01*
X156112392Y-82788351D01*
X156157848Y-82780806D01*
X156219638Y-82775233D01*
X156303307Y-82771335D01*
X156414401Y-82768817D01*
X156558467Y-82767385D01*
X156741051Y-82766742D01*
X156967697Y-82766593D01*
X157206400Y-82765869D01*
X157418767Y-82763623D01*
X157591802Y-82759930D01*
X157722938Y-82754865D01*
X157809610Y-82748502D01*
X157849252Y-82740916D01*
X157865434Y-82729841D01*
X157879780Y-82708365D01*
X157889048Y-82670435D01*
X157894325Y-82607764D01*
X157896700Y-82512063D01*
X157897259Y-82375047D01*
X157897287Y-82034855D01*
X157060100Y-82050799D01*
X156943503Y-82052805D01*
X156740816Y-82055226D01*
X156556982Y-82056071D01*
X156398150Y-82055380D01*
X156270467Y-82053196D01*
X156180079Y-82049560D01*
X156133134Y-82044513D01*
X156039777Y-82008410D01*
X155935626Y-81927973D01*
X155861242Y-81820283D01*
X155821015Y-81695206D01*
X155819340Y-81562607D01*
X155860606Y-81432353D01*
X155882513Y-81391753D01*
X155929497Y-81322859D01*
X155985336Y-81270534D01*
X156056803Y-81232571D01*
X156150672Y-81206761D01*
X156273717Y-81190898D01*
X156432712Y-81182774D01*
X156634431Y-81180182D01*
X156691658Y-81179922D01*
X156887241Y-81177761D01*
X157099141Y-81173887D01*
X157305382Y-81168748D01*
X157483991Y-81162795D01*
X157897230Y-81146498D01*
X157897230Y-80804000D01*
X157896871Y-80685722D01*
X157894898Y-80583397D01*
X157890225Y-80515500D01*
X157881777Y-80473777D01*
X157868478Y-80449971D01*
X157849252Y-80435825D01*
X157811503Y-80428457D01*
X157726197Y-80422063D01*
X157596312Y-80416961D01*
X157424397Y-80413225D01*
X157212998Y-80410929D01*
X156964663Y-80410148D01*
X156128054Y-80410148D01*
X156022837Y-80348487D01*
X155943129Y-80286432D01*
X155865184Y-80178092D01*
X155822435Y-80051393D01*
X155818522Y-79918554D01*
X155857083Y-79791794D01*
X155870839Y-79768295D01*
X155927695Y-79695776D01*
X155995796Y-79630564D01*
X156091139Y-79554386D01*
X157062398Y-79554386D01*
X158033656Y-79554386D01*
X158199342Y-79632881D01*
G37*
G36*
X184379748Y-74497146D02*
G01*
X184603809Y-74506347D01*
X184800631Y-74520319D01*
X184959144Y-74539064D01*
X184984691Y-74543123D01*
X185100976Y-74563045D01*
X185232234Y-74587328D01*
X185369354Y-74614080D01*
X185503224Y-74641408D01*
X185624733Y-74667421D01*
X185724769Y-74690226D01*
X185794221Y-74707932D01*
X185823976Y-74718647D01*
X185823325Y-74723779D01*
X185809679Y-74767680D01*
X185779886Y-74854066D01*
X185734968Y-74980214D01*
X185675948Y-75143397D01*
X185603848Y-75340892D01*
X185519691Y-75569972D01*
X185424500Y-75827912D01*
X185319296Y-76111986D01*
X185205104Y-76419471D01*
X185082945Y-76747640D01*
X184953841Y-77093768D01*
X184818817Y-77455130D01*
X184678894Y-77829000D01*
X184535094Y-78212654D01*
X184388441Y-78603366D01*
X184239957Y-78998411D01*
X184090664Y-79395064D01*
X183941586Y-79790599D01*
X183793745Y-80182291D01*
X183648163Y-80567414D01*
X183505864Y-80943245D01*
X183367869Y-81307056D01*
X183235202Y-81656124D01*
X183108884Y-81987723D01*
X182989939Y-82299127D01*
X182879389Y-82587611D01*
X182778257Y-82850451D01*
X182687566Y-83084920D01*
X182608337Y-83288294D01*
X182508886Y-83542329D01*
X182394427Y-83834522D01*
X182285949Y-84111256D01*
X182184796Y-84369116D01*
X182092310Y-84604684D01*
X182009834Y-84814545D01*
X181938711Y-84995283D01*
X181880282Y-85143481D01*
X181835891Y-85255725D01*
X181806880Y-85328598D01*
X181794592Y-85358683D01*
X181791518Y-85347088D01*
X181787998Y-85288728D01*
X181784544Y-85183582D01*
X181781173Y-85033168D01*
X181777902Y-84839000D01*
X181774750Y-84602597D01*
X181771735Y-84325473D01*
X181768875Y-84009146D01*
X181766187Y-83655130D01*
X181763690Y-83264944D01*
X181761402Y-82840101D01*
X181759340Y-82382120D01*
X181758710Y-82231412D01*
X181756580Y-81762361D01*
X181754369Y-81340526D01*
X181752051Y-80964068D01*
X181749603Y-80631146D01*
X181747000Y-80339922D01*
X181744216Y-80088556D01*
X181741227Y-79875208D01*
X181738008Y-79698039D01*
X181734534Y-79555209D01*
X181730780Y-79444879D01*
X181726722Y-79365209D01*
X181722335Y-79314360D01*
X181717593Y-79290491D01*
X181693860Y-79246020D01*
X181617272Y-79145260D01*
X181521580Y-79054834D01*
X181424689Y-78992932D01*
X181405941Y-78985235D01*
X181381100Y-78977715D01*
X181348788Y-78971266D01*
X181305491Y-78965805D01*
X181247700Y-78961249D01*
X181171902Y-78957514D01*
X181074586Y-78954517D01*
X180952241Y-78952176D01*
X180801354Y-78950405D01*
X180618416Y-78949123D01*
X180399914Y-78948247D01*
X180142337Y-78947692D01*
X179842173Y-78947376D01*
X179495912Y-78947216D01*
X179147202Y-78946831D01*
X178810398Y-78945812D01*
X178514441Y-78944181D01*
X178260582Y-78941957D01*
X178050073Y-78939155D01*
X177884166Y-78935792D01*
X177764111Y-78931887D01*
X177691161Y-78927454D01*
X177666566Y-78922512D01*
X177670434Y-78900331D01*
X177692868Y-78832359D01*
X177732346Y-78732607D01*
X177785478Y-78608879D01*
X177848869Y-78468979D01*
X177919129Y-78320711D01*
X177992864Y-78171878D01*
X178050794Y-78060121D01*
X178285671Y-77652252D01*
X178546844Y-77268542D01*
X178841901Y-76898492D01*
X179178433Y-76531601D01*
X179488776Y-76231578D01*
X179931272Y-75860957D01*
X180397261Y-75533766D01*
X180887290Y-75249726D01*
X181401910Y-75008560D01*
X181941667Y-74809987D01*
X182507112Y-74653729D01*
X183098793Y-74539507D01*
X183238312Y-74522612D01*
X183432517Y-74507998D01*
X183654833Y-74498142D01*
X183894190Y-74493046D01*
X184139519Y-74492714D01*
X184379748Y-74497146D01*
G37*
G36*
X173716951Y-82983580D02*
G01*
X173717530Y-83218538D01*
X173718466Y-83618186D01*
X173719186Y-83972587D01*
X173719651Y-84284574D01*
X173719819Y-84556983D01*
X173719648Y-84792649D01*
X173719097Y-84994406D01*
X173718125Y-85165090D01*
X173716691Y-85307534D01*
X173714754Y-85424573D01*
X173712272Y-85519044D01*
X173709204Y-85593779D01*
X173705509Y-85651615D01*
X173701145Y-85695385D01*
X173696072Y-85727925D01*
X173690248Y-85752069D01*
X173683632Y-85770652D01*
X173676183Y-85786510D01*
X173626543Y-85868510D01*
X173544260Y-85949684D01*
X173432808Y-86004875D01*
X173417293Y-86010187D01*
X173343843Y-86030436D01*
X173288539Y-86038634D01*
X173249633Y-86034668D01*
X173159328Y-86009659D01*
X173067473Y-85969967D01*
X172999003Y-85925348D01*
X172990860Y-85917420D01*
X172944547Y-85858956D01*
X172901427Y-85787552D01*
X172896974Y-85778543D01*
X172886156Y-85752217D01*
X172877338Y-85719933D01*
X172870318Y-85676840D01*
X172864892Y-85618089D01*
X172860858Y-85538828D01*
X172858012Y-85434208D01*
X172856152Y-85299380D01*
X172855075Y-85129492D01*
X172854577Y-84919696D01*
X172854457Y-84665140D01*
X172854457Y-83634757D01*
X171879883Y-83634757D01*
X171684101Y-83634592D01*
X171445081Y-83633543D01*
X171246851Y-83631076D01*
X171084236Y-83626676D01*
X170952066Y-83619830D01*
X170845169Y-83610026D01*
X170758371Y-83596749D01*
X170686501Y-83579486D01*
X170624387Y-83557723D01*
X170566856Y-83530948D01*
X170508736Y-83498647D01*
X170356843Y-83385488D01*
X170220279Y-83235130D01*
X170115884Y-83064249D01*
X170039125Y-82903019D01*
X170039125Y-81575968D01*
X170039125Y-81575069D01*
X170894886Y-81575069D01*
X170894887Y-81598502D01*
X170895079Y-81862006D01*
X170895706Y-82080558D01*
X170896914Y-82258465D01*
X170898848Y-82400036D01*
X170901654Y-82509577D01*
X170905478Y-82591397D01*
X170910465Y-82649803D01*
X170916762Y-82689103D01*
X170924513Y-82713604D01*
X170933865Y-82727614D01*
X170936131Y-82729718D01*
X170952972Y-82739454D01*
X170981776Y-82747344D01*
X171027250Y-82753574D01*
X171094097Y-82758332D01*
X171187025Y-82761805D01*
X171310739Y-82764181D01*
X171469944Y-82765646D01*
X171669346Y-82766387D01*
X171913650Y-82766593D01*
X172854457Y-82766593D01*
X172854457Y-81629422D01*
X172854457Y-81628940D01*
X172854362Y-81361273D01*
X172853966Y-81138838D01*
X172853101Y-80957264D01*
X172851599Y-80812180D01*
X172849291Y-80699216D01*
X172846008Y-80614002D01*
X172841583Y-80552166D01*
X172835848Y-80509338D01*
X172828634Y-80481148D01*
X172819772Y-80463225D01*
X172809095Y-80451199D01*
X172807375Y-80449694D01*
X172790157Y-80439066D01*
X172762969Y-80430506D01*
X172720856Y-80423795D01*
X172658864Y-80418715D01*
X172572037Y-80415049D01*
X172455421Y-80412577D01*
X172304060Y-80411082D01*
X172113001Y-80410345D01*
X171877289Y-80410148D01*
X171843878Y-80410159D01*
X171590450Y-80411075D01*
X171375310Y-80413419D01*
X171200720Y-80417128D01*
X171068941Y-80422140D01*
X170982236Y-80428393D01*
X170942865Y-80435825D01*
X170940456Y-80437156D01*
X170929479Y-80445515D01*
X170920422Y-80459781D01*
X170913099Y-80484324D01*
X170907328Y-80523514D01*
X170902923Y-80581722D01*
X170899700Y-80663317D01*
X170897476Y-80772671D01*
X170896067Y-80914152D01*
X170895289Y-81092132D01*
X170894956Y-81310981D01*
X170894886Y-81575069D01*
X170039125Y-81575069D01*
X170039125Y-80248917D01*
X170110857Y-80112492D01*
X170171845Y-80003607D01*
X170247109Y-79895047D01*
X170330196Y-79808275D01*
X170433316Y-79728765D01*
X170452242Y-79715799D01*
X170515839Y-79674173D01*
X170576551Y-79639774D01*
X170639627Y-79611916D01*
X170710317Y-79589910D01*
X170793869Y-79573070D01*
X170895534Y-79560706D01*
X171020561Y-79552133D01*
X171174198Y-79546661D01*
X171361695Y-79543604D01*
X171588302Y-79542274D01*
X171859268Y-79541984D01*
X172091077Y-79542206D01*
X172324323Y-79543336D01*
X172517475Y-79545894D01*
X172675695Y-79550394D01*
X172804141Y-79557351D01*
X172907974Y-79567279D01*
X172992354Y-79580693D01*
X173062440Y-79598107D01*
X173123393Y-79620035D01*
X173180373Y-79646992D01*
X173238540Y-79679493D01*
X173325145Y-79739748D01*
X173449821Y-79856102D01*
X173560999Y-79992375D01*
X173643741Y-80131887D01*
X173710218Y-80273722D01*
X173713585Y-81628940D01*
X173716951Y-82983580D01*
G37*
G36*
X160985414Y-79547426D02*
G01*
X160997267Y-79547505D01*
X161250059Y-79549262D01*
X161458500Y-79551019D01*
X161627632Y-79553050D01*
X161762499Y-79555631D01*
X161868143Y-79559039D01*
X161949605Y-79563549D01*
X162011930Y-79569438D01*
X162060159Y-79576982D01*
X162099334Y-79586456D01*
X162134499Y-79598137D01*
X162170695Y-79612300D01*
X162310871Y-79687066D01*
X162460394Y-79805794D01*
X162591192Y-79950241D01*
X162690297Y-80108034D01*
X162771351Y-80272679D01*
X162771351Y-80806501D01*
X162771295Y-80899659D01*
X162770592Y-81055789D01*
X162768549Y-81173818D01*
X162764504Y-81261458D01*
X162757795Y-81326421D01*
X162747760Y-81376419D01*
X162733738Y-81419165D01*
X162715066Y-81462371D01*
X162655277Y-81574249D01*
X162517912Y-81751978D01*
X162345732Y-81895723D01*
X162142424Y-82002010D01*
X162105303Y-82015996D01*
X162062564Y-82029086D01*
X162013791Y-82039444D01*
X161952759Y-82047547D01*
X161873244Y-82053876D01*
X161769021Y-82058910D01*
X161633867Y-82063127D01*
X161461555Y-82067007D01*
X161245863Y-82071029D01*
X160489320Y-82084464D01*
X160482322Y-82392486D01*
X160481074Y-82478532D01*
X160482980Y-82604609D01*
X160490073Y-82688797D01*
X160502131Y-82727349D01*
X160506548Y-82729757D01*
X160553506Y-82737734D01*
X160649501Y-82744970D01*
X160794646Y-82751470D01*
X160989056Y-82757237D01*
X161232843Y-82762277D01*
X161526121Y-82766593D01*
X161766699Y-82769626D01*
X161971872Y-82772471D01*
X162137041Y-82775330D01*
X162267090Y-82778520D01*
X162366907Y-82782361D01*
X162441375Y-82787170D01*
X162495380Y-82793267D01*
X162533808Y-82800969D01*
X162561544Y-82810596D01*
X162583473Y-82822465D01*
X162604481Y-82836895D01*
X162650102Y-82874908D01*
X162730033Y-82982469D01*
X162773948Y-83108621D01*
X162780556Y-83241802D01*
X162748564Y-83370449D01*
X162676681Y-83483000D01*
X162665328Y-83494368D01*
X162599881Y-83544497D01*
X162523304Y-83587875D01*
X162497668Y-83598513D01*
X162465149Y-83608169D01*
X162423226Y-83615894D01*
X162366873Y-83621903D01*
X162291065Y-83626410D01*
X162190777Y-83629629D01*
X162060981Y-83631775D01*
X161896654Y-83633062D01*
X161692769Y-83633705D01*
X161444300Y-83633918D01*
X161227101Y-83633820D01*
X160998972Y-83632997D01*
X160810839Y-83630946D01*
X160657384Y-83627183D01*
X160533291Y-83621225D01*
X160433244Y-83612586D01*
X160351925Y-83600783D01*
X160284019Y-83585333D01*
X160224208Y-83565751D01*
X160167177Y-83541554D01*
X160107608Y-83512257D01*
X159999135Y-83441948D01*
X159877550Y-83332986D01*
X159770898Y-83207838D01*
X159694965Y-83082927D01*
X159675837Y-83039917D01*
X159635480Y-82929213D01*
X159608170Y-82812992D01*
X159592394Y-82680355D01*
X159586641Y-82520403D01*
X159589397Y-82322237D01*
X159594188Y-82190440D01*
X159602015Y-82065688D01*
X159613258Y-81971265D01*
X159629254Y-81896565D01*
X159651339Y-81830980D01*
X159740430Y-81657264D01*
X159865211Y-81495967D01*
X160011618Y-81368976D01*
X160070843Y-81329036D01*
X160133896Y-81290058D01*
X160194992Y-81259338D01*
X160260576Y-81235796D01*
X160337095Y-81218349D01*
X160430993Y-81205915D01*
X160548716Y-81197410D01*
X160696710Y-81191754D01*
X160881421Y-81187862D01*
X161109294Y-81184655D01*
X161277124Y-81182052D01*
X161479417Y-81177401D01*
X161644360Y-81171656D01*
X161768887Y-81164958D01*
X161849935Y-81157446D01*
X161884441Y-81149261D01*
X161889573Y-81142709D01*
X161903747Y-81092652D01*
X161913145Y-81008526D01*
X161917898Y-80902131D01*
X161918138Y-80785268D01*
X161913997Y-80669735D01*
X161905608Y-80567335D01*
X161893102Y-80489865D01*
X161876611Y-80449127D01*
X161873467Y-80446288D01*
X161856035Y-80436747D01*
X161826365Y-80429015D01*
X161779786Y-80422909D01*
X161711627Y-80418246D01*
X161617215Y-80414842D01*
X161491881Y-80412513D01*
X161330952Y-80411077D01*
X161129758Y-80410349D01*
X160883627Y-80410148D01*
X160640791Y-80409995D01*
X160426825Y-80409163D01*
X160252931Y-80407116D01*
X160114201Y-80403318D01*
X160005726Y-80397236D01*
X159922599Y-80388333D01*
X159859909Y-80376074D01*
X159812748Y-80359925D01*
X159776209Y-80339350D01*
X159745381Y-80313814D01*
X159715357Y-80282781D01*
X159641248Y-80177031D01*
X159598273Y-80047022D01*
X159597424Y-79914958D01*
X159637157Y-79789899D01*
X159715929Y-79680905D01*
X159832196Y-79597035D01*
X159943617Y-79540465D01*
X160985414Y-79547426D01*
G37*
%TD*%
M02*
