%TF.GenerationSoftware,KiCad,Pcbnew,9.0.0*%
%TF.CreationDate,2025-03-08T21:49:25+01:00*%
%TF.ProjectId,NPulse_v4,4e50756c-7365-45f7-9634-2e6b69636164,rev?*%
%TF.SameCoordinates,Original*%
%TF.FileFunction,Copper,L3,Inr*%
%TF.FilePolarity,Positive*%
%FSLAX46Y46*%
G04 Gerber Fmt 4.6, Leading zero omitted, Abs format (unit mm)*
G04 Created by KiCad (PCBNEW 9.0.0) date 2025-03-08 21:49:25*
%MOMM*%
%LPD*%
G01*
G04 APERTURE LIST*
%TA.AperFunction,ViaPad*%
%ADD10C,0.400000*%
%TD*%
%TA.AperFunction,Conductor*%
%ADD11C,0.150000*%
%TD*%
%TA.AperFunction,Conductor*%
%ADD12C,0.800000*%
%TD*%
%TA.AperFunction,Conductor*%
%ADD13C,2.000000*%
%TD*%
%TA.AperFunction,Conductor*%
%ADD14C,3.600000*%
%TD*%
G04 APERTURE END LIST*
D10*
%TO.N,+3.3V*%
X189116174Y-120460825D03*
X155375000Y-106225000D03*
X169515000Y-99785000D03*
X189725000Y-111650000D03*
X181120000Y-100180000D03*
X181100000Y-111170000D03*
X182730000Y-82540000D03*
X189670000Y-121760000D03*
X167650521Y-90569479D03*
X156550000Y-101325000D03*
X177330000Y-77860000D03*
X171820000Y-97640000D03*
X169150000Y-94100000D03*
X185340000Y-89540000D03*
X162570000Y-78910000D03*
X189770000Y-130960000D03*
X156870000Y-110670000D03*
%TO.N,GND*%
X188874149Y-101524149D03*
X188345000Y-105560000D03*
X167030000Y-91410000D03*
X185079929Y-94082444D03*
X175630000Y-100570000D03*
X172148328Y-98514788D03*
X172530000Y-125510000D03*
X181075000Y-104500000D03*
X185670000Y-105810000D03*
X188215000Y-88525933D03*
X185220000Y-105770000D03*
X173760000Y-99860000D03*
X171110000Y-116290000D03*
X160890000Y-102820000D03*
X177320000Y-122620000D03*
X181075000Y-104050000D03*
X159770634Y-118140000D03*
X189650000Y-106020000D03*
X156290000Y-126220000D03*
X172260000Y-115150000D03*
X185200000Y-83240000D03*
X179460000Y-115450000D03*
X188990000Y-107900000D03*
X179475000Y-110566041D03*
X169670000Y-98100000D03*
X166425001Y-122736040D03*
X165320000Y-105660000D03*
X178031199Y-109321199D03*
X186550000Y-126680000D03*
X189640000Y-105600000D03*
X161479999Y-125452183D03*
X185406802Y-101343198D03*
X162840000Y-106090000D03*
X165210000Y-89590000D03*
X163321596Y-94878497D03*
X164520000Y-110610000D03*
X164410000Y-116000000D03*
X168028604Y-125908604D03*
X186160000Y-105750000D03*
X188889330Y-101039041D03*
X166770000Y-84030000D03*
X185030521Y-107230000D03*
X185890000Y-95850000D03*
X189410000Y-84590000D03*
X185088604Y-101661396D03*
X185980000Y-84190000D03*
X161020000Y-81340000D03*
X188990000Y-110710000D03*
X166420000Y-106560000D03*
X185000000Y-110720000D03*
X181075000Y-103600000D03*
X173290000Y-97750000D03*
X188900000Y-100575000D03*
X185725000Y-101025000D03*
X160830000Y-105470000D03*
X189640000Y-106490000D03*
X162940000Y-109490000D03*
X175120000Y-97960000D03*
X186870000Y-85650000D03*
X177560000Y-100420000D03*
%TO.N,/NRST*%
X159060000Y-94240000D03*
X169877089Y-93335163D03*
%TO.N,AD_Vbat*%
X173370000Y-96820000D03*
X184640000Y-113950000D03*
%TO.N,LED*%
X183620000Y-76410000D03*
X172303659Y-95753960D03*
%TO.N,+12V*%
X163935269Y-99794731D03*
X171175000Y-120200000D03*
X167315900Y-117790401D03*
X163610000Y-100130000D03*
X182365273Y-119734731D03*
X174950000Y-106650000D03*
X182484730Y-132515269D03*
X174470000Y-106650000D03*
X160345904Y-119760402D03*
X174230000Y-103920000D03*
X164350001Y-134300401D03*
X178750000Y-118480000D03*
X156405902Y-117870401D03*
X164125000Y-112500000D03*
X159980000Y-97424403D03*
X160430629Y-132485672D03*
X164406005Y-112149134D03*
X178460000Y-118090000D03*
X174225001Y-103460001D03*
X175525901Y-134360402D03*
X168020000Y-114410000D03*
X186400000Y-134850400D03*
X164350000Y-134760403D03*
X174225000Y-103000000D03*
X171915899Y-132170401D03*
X173740000Y-108280000D03*
X160755901Y-132160400D03*
X175525898Y-134820400D03*
X182040000Y-120060000D03*
X156405900Y-117410399D03*
X186400000Y-134390401D03*
X171200000Y-119750000D03*
X159980000Y-97884403D03*
X177010000Y-118150000D03*
X173749999Y-108739999D03*
X167315902Y-117330402D03*
X171590633Y-132495670D03*
X177239312Y-118538878D03*
X178269621Y-118500328D03*
X175410000Y-106650000D03*
X182810000Y-132190000D03*
X173750000Y-109200000D03*
X173640000Y-105620000D03*
X173175000Y-105600000D03*
X168020000Y-114864404D03*
X172714999Y-105600001D03*
X176469196Y-118055405D03*
X160020634Y-120085671D03*
%TO.N,pin4_1*%
X184835903Y-132475401D03*
X184835903Y-132945402D03*
X179110000Y-132580000D03*
X179455901Y-132870000D03*
%TO.N,pin4_5*%
X161640737Y-99484404D03*
X167260736Y-99684404D03*
X161640736Y-99954404D03*
X166900737Y-99384404D03*
%TO.N,I1*%
X182780000Y-93620000D03*
X181615902Y-135320402D03*
%TO.N,I5*%
X187900000Y-84530000D03*
X164771597Y-96186214D03*
%TO.N,pin4_2*%
X180005901Y-119835401D03*
X180005902Y-119365403D03*
X185555000Y-119370000D03*
X185836797Y-117389750D03*
%TO.N,pin4_6*%
X160728396Y-112462064D03*
X166460736Y-112294404D03*
X166457977Y-112761644D03*
X161060736Y-112794404D03*
%TO.N,I2*%
X183520000Y-92890000D03*
X183265903Y-116895401D03*
%TO.N,I6*%
X163225000Y-115300000D03*
X186930000Y-82980000D03*
%TO.N,pin4_3*%
X168227661Y-132427660D03*
X173965902Y-133075403D03*
X173965902Y-132605404D03*
X168560000Y-132760000D03*
%TO.N,pin4_7*%
X162790000Y-132420001D03*
X157085902Y-132555403D03*
X157411171Y-132880675D03*
X162790000Y-132890000D03*
%TO.N,I3*%
X170705901Y-135325401D03*
X180544999Y-81236751D03*
%TO.N,I7*%
X159550000Y-135290000D03*
X180070000Y-80810000D03*
%TO.N,pin4_4*%
X168940000Y-119140000D03*
X174875000Y-119625000D03*
X168940000Y-119609999D03*
X174515903Y-119335401D03*
%TO.N,pin4_8*%
X163755270Y-119845273D03*
X163430000Y-119520000D03*
X158000000Y-119775000D03*
X158000000Y-119325000D03*
%TO.N,I8*%
X185944412Y-81850000D03*
X161200000Y-116950000D03*
%TO.N,OUT1_1*%
X190935902Y-132165404D03*
X179995902Y-136010401D03*
%TO.N,NSLEEP*%
X172615903Y-116775400D03*
X180995903Y-136015401D03*
X170395926Y-82798438D03*
X162200000Y-116170000D03*
X183820000Y-116230000D03*
X165370000Y-96230000D03*
X158950000Y-136025000D03*
%TO.N,OUT1_2*%
X179155903Y-135455402D03*
X189155902Y-132025403D03*
%TO.N,OUT5_1*%
X155450000Y-100125000D03*
X166350796Y-96229851D03*
%TO.N,OUT5_2*%
X157223335Y-100257534D03*
X166950720Y-96239593D03*
%TO.N,OUT2_2*%
X190669744Y-121083193D03*
X185500000Y-116225000D03*
%TO.N,OUT2_1*%
X184835897Y-116225000D03*
X188080000Y-120840000D03*
%TO.N,OUT6_2*%
X160875000Y-115895401D03*
X156166846Y-111725123D03*
%TO.N,OUT6_1*%
X157856805Y-111626805D03*
X161630737Y-115914404D03*
%TO.N,OUT3_1*%
X169115902Y-135910402D03*
X188630000Y-130250000D03*
%TO.N,OUT3_2*%
X168275902Y-135355403D03*
X190400000Y-129850000D03*
%TO.N,OUT7_1*%
X157950001Y-136025001D03*
X157920000Y-102520000D03*
%TO.N,OUT7_2*%
X156100000Y-102380000D03*
X157110001Y-135470002D03*
%TO.N,OUT4_1*%
X191010000Y-122840000D03*
X173965901Y-116175402D03*
%TO.N,OUT4_2*%
X174820000Y-116260000D03*
X188263248Y-121823248D03*
%TO.N,OUT8_1*%
X155470000Y-109390000D03*
X162839867Y-116368977D03*
%TO.N,OUT8_2*%
X163610000Y-116450000D03*
X157270000Y-109510000D03*
%TO.N,ENC2_S2*%
X185080000Y-125550000D03*
X185060000Y-91800000D03*
%TO.N,ENC2_S1*%
X179237387Y-81073077D03*
X179980000Y-126700000D03*
%TO.N,ENC1_S1*%
X178823277Y-80638893D03*
X181900000Y-125550000D03*
%TO.N,ENC1_S2*%
X183050000Y-126700000D03*
X178276985Y-80239310D03*
%TO.N,ENC6_S2*%
X164570000Y-106700000D03*
X168294889Y-91895165D03*
%TO.N,ENC6_S1*%
X166370000Y-105540000D03*
X168789580Y-92239580D03*
%TO.N,ENC5_S1*%
X161500000Y-106690000D03*
X169970509Y-84392520D03*
%TO.N,ENC5_S2*%
X169810589Y-84970818D03*
X163420000Y-105540000D03*
%TO.N,ENC4_S2*%
X170930000Y-125510000D03*
X179220750Y-97219678D03*
%TO.N,ENC3_S2*%
X179655071Y-96805712D03*
X172040000Y-126720000D03*
%TO.N,ENC4_S1*%
X168990000Y-126710000D03*
X178824162Y-97669923D03*
%TO.N,ENC3_S1*%
X174070000Y-125540000D03*
X180125000Y-96425000D03*
%TO.N,ENC8_S2*%
X161200000Y-127400000D03*
X171859972Y-95428930D03*
%TO.N,ENC8_S1*%
X163020000Y-125540000D03*
X171535000Y-94985202D03*
%TO.N,ENC7_S1*%
X173000000Y-81750000D03*
X157825000Y-126700000D03*
%TO.N,ENC7_S2*%
X159898628Y-125548628D03*
X170095406Y-83700000D03*
%TO.N,MesOn*%
X188450000Y-115925000D03*
X171638363Y-83121637D03*
%TO.N,/SW_BSTD*%
X184870000Y-73660000D03*
X168775000Y-85975000D03*
%TO.N,PWM4*%
X190520000Y-125570000D03*
X190568567Y-97910940D03*
%TO.N,PWM1*%
X186535648Y-98071368D03*
X190445903Y-134895401D03*
%TO.N,DIR6*%
X161074534Y-84525003D03*
X158700000Y-112450000D03*
X156520000Y-115920000D03*
%TO.N,DIR7*%
X155490000Y-105190000D03*
X158557936Y-103470000D03*
X167850000Y-95725000D03*
%TO.N,DIR3*%
X187850000Y-99280000D03*
X188010000Y-128890000D03*
X190730000Y-126860000D03*
%TO.N,DIR4*%
X191620000Y-123670000D03*
X190218567Y-98423783D03*
X188630000Y-125520000D03*
%TO.N,PWM6*%
X161075000Y-83925000D03*
X157442500Y-114652500D03*
%TO.N,PWM8*%
X155910000Y-106620000D03*
X169225031Y-96204339D03*
%TO.N,PWM2*%
X191270000Y-96930000D03*
X191307806Y-117154896D03*
%TO.N,PWM7*%
X157400000Y-105270000D03*
X168214349Y-96201711D03*
%TO.N,PWM3*%
X187429879Y-99708369D03*
X189030000Y-126970000D03*
%TO.N,DIR1*%
X188495902Y-134845403D03*
X186144046Y-98525956D03*
X191555903Y-133005403D03*
%TO.N,PWM5*%
X161110406Y-82688687D03*
X156000737Y-97434404D03*
%TO.N,DIR2*%
X187906051Y-119654524D03*
X190918567Y-97416310D03*
X190960000Y-117660000D03*
%TO.N,DIR8*%
X168900000Y-95700000D03*
X154870000Y-108570000D03*
X157890000Y-106720000D03*
%TO.N,DIR5*%
X157825000Y-97425000D03*
X154825000Y-99275000D03*
X161110909Y-83288690D03*
%TO.N,Net-(U2-Pad10)*%
X188545901Y-132165403D03*
X191475903Y-133755402D03*
%TO.N,Net-(U3-Pad10)*%
X157825000Y-100125000D03*
X154900000Y-98520000D03*
%TO.N,Net-(U4-Pad10)*%
X187460000Y-118100000D03*
X190940000Y-120490000D03*
%TO.N,Net-(U5-Pad10)*%
X155581764Y-111858096D03*
X158810737Y-114044403D03*
%TO.N,Net-(U6-Pad10)*%
X188080000Y-128140000D03*
X191000000Y-129720000D03*
%TO.N,Net-(U7-Pad10)*%
X155480000Y-102510000D03*
X158410000Y-104100000D03*
%TO.N,Net-(U8-Pad10)*%
X191540000Y-124430000D03*
X188590000Y-122840000D03*
%TO.N,Net-(U9-Pad10)*%
X157910000Y-109390000D03*
X154950000Y-107800000D03*
%TO.N,+5V*%
X168720000Y-108170000D03*
X168220000Y-124080000D03*
%TD*%
D11*
%TO.N,+3.3V*%
X167650521Y-90569479D02*
X162570000Y-85488958D01*
X171820000Y-97640000D02*
X173070000Y-96390000D01*
X188998248Y-121760000D02*
X188115000Y-122643248D01*
X157781726Y-105895000D02*
X155705000Y-105895000D01*
X181501000Y-110769000D02*
X181501000Y-100561000D01*
X191530000Y-126888248D02*
X191530000Y-129861752D01*
X177330000Y-77860000D02*
X178050000Y-77860000D01*
X188558248Y-126120000D02*
X190761752Y-126120000D01*
X189670000Y-121760000D02*
X188998248Y-121760000D01*
X189725000Y-115252455D02*
X188626455Y-116351000D01*
X188207184Y-118927524D02*
X189116174Y-119836514D01*
X165130000Y-104170000D02*
X159506726Y-104170000D01*
X188115000Y-122643248D02*
X188115000Y-125676752D01*
X187358655Y-118927524D02*
X188207184Y-118927524D01*
X188606545Y-116351000D02*
X187034000Y-117923545D01*
X159506726Y-104170000D02*
X157781726Y-105895000D01*
X173070000Y-96390000D02*
X175640000Y-96390000D01*
X187034000Y-118602869D02*
X187358655Y-118927524D01*
X155705000Y-105895000D02*
X155375000Y-106225000D01*
X171820000Y-96770000D02*
X171820000Y-97640000D01*
X162570000Y-78910000D02*
X164570000Y-80910000D01*
X188626455Y-116351000D02*
X188606545Y-116351000D01*
X164570000Y-80910000D02*
X174280000Y-80910000D01*
X187034000Y-117923545D02*
X187034000Y-118602869D01*
X169150000Y-94100000D02*
X171820000Y-96770000D01*
X189116174Y-119836514D02*
X189116174Y-120460825D01*
X175640000Y-96390000D02*
X179430000Y-100180000D01*
X181100000Y-111170000D02*
X181501000Y-110769000D01*
X162570000Y-85488958D02*
X162570000Y-78910000D01*
X174280000Y-80910000D02*
X177330000Y-77860000D01*
X169515000Y-99785000D02*
X165130000Y-104170000D01*
X191530000Y-129861752D02*
X190431752Y-130960000D01*
X190431752Y-130960000D02*
X189770000Y-130960000D01*
X179430000Y-100180000D02*
X181120000Y-100180000D01*
X189725000Y-111650000D02*
X189725000Y-115252455D01*
X181501000Y-100561000D02*
X181120000Y-100180000D01*
X190761752Y-126120000D02*
X191530000Y-126888248D01*
X188115000Y-125676752D02*
X188558248Y-126120000D01*
X178050000Y-77860000D02*
X182730000Y-82540000D01*
%TO.N,/NRST*%
X159370000Y-94240000D02*
X159371000Y-94239000D01*
X167864837Y-93335163D02*
X169877089Y-93335163D01*
X159371000Y-94239000D02*
X166961000Y-94239000D01*
X166961000Y-94239000D02*
X167864837Y-93335163D01*
X159060000Y-94240000D02*
X159370000Y-94240000D01*
%TO.N,AD_Vbat*%
X175490000Y-96820000D02*
X173370000Y-96820000D01*
X180650000Y-101980000D02*
X175490000Y-96820000D01*
X183170000Y-113950000D02*
X180650000Y-111430000D01*
X180650000Y-111430000D02*
X180650000Y-101980000D01*
X184640000Y-113950000D02*
X183170000Y-113950000D01*
%TO.N,LED*%
X183156000Y-82716455D02*
X183156000Y-76874000D01*
X172290000Y-95740301D02*
X172290000Y-95020000D01*
X172085181Y-82966000D02*
X182906455Y-82966000D01*
X171814818Y-82695637D02*
X172085181Y-82966000D01*
X183156000Y-76874000D02*
X183620000Y-76410000D01*
X171110000Y-83047545D02*
X171461908Y-82695637D01*
X172303659Y-95753960D02*
X172290000Y-95740301D01*
X171110000Y-93840000D02*
X171110000Y-83047545D01*
X182906455Y-82966000D02*
X183156000Y-82716455D01*
X172290000Y-95020000D02*
X171110000Y-93840000D01*
X171461908Y-82695637D02*
X171814818Y-82695637D01*
D12*
%TO.N,+12V*%
X161402751Y-132807249D02*
X160755901Y-132160400D01*
X160550000Y-97884403D02*
X161390197Y-97884403D01*
X160752206Y-132807249D02*
X160430629Y-132485672D01*
X183243021Y-132646979D02*
X182801173Y-132205132D01*
X185820000Y-134390401D02*
X186128999Y-134699400D01*
X159940736Y-97884403D02*
X160550000Y-97884403D01*
X175060000Y-134360402D02*
X175368998Y-134669400D01*
X157060000Y-117870401D02*
X156405902Y-117870401D01*
X163337897Y-99832103D02*
X163897897Y-99832103D01*
X183243021Y-132646979D02*
X183094869Y-132498827D01*
X184986442Y-134390401D02*
X183243021Y-132646979D01*
D13*
X164575139Y-117880000D02*
X168050736Y-114404403D01*
D12*
X186425899Y-134390401D02*
X185820000Y-134390401D01*
D13*
X171715000Y-119675000D02*
X171460501Y-119675000D01*
X173454599Y-117935401D02*
X171715000Y-119675000D01*
D12*
X172537749Y-132792251D02*
X171915899Y-132170401D01*
X174650000Y-134360402D02*
X174105900Y-134360402D01*
D14*
X174000000Y-109900000D02*
X167600000Y-116300000D01*
D12*
X185820000Y-134390401D02*
X184986442Y-134390401D01*
X161402751Y-132807249D02*
X160752206Y-132807249D01*
X183094869Y-132498827D02*
X182501172Y-132498827D01*
X164375903Y-134300401D02*
X163670000Y-134300401D01*
D13*
X164406005Y-112689571D02*
X164406005Y-112149134D01*
D12*
X161390197Y-97884403D02*
X163067897Y-99562103D01*
X172241168Y-132495670D02*
X171590633Y-132495670D01*
D13*
X168050736Y-114404403D02*
X166120837Y-114404403D01*
D12*
X163889998Y-134300401D02*
X164350000Y-134760403D01*
X163670000Y-134300401D02*
X162895902Y-134300401D01*
X163067897Y-99562103D02*
X163337897Y-99832103D01*
X175368998Y-134669400D02*
X175525898Y-134669400D01*
X160550000Y-97884403D02*
X160440000Y-97884403D01*
D13*
X162911404Y-117880000D02*
X164575139Y-117880000D01*
D12*
X157805364Y-117870401D02*
X157060000Y-117870401D01*
X160020634Y-120085671D02*
X157805364Y-117870401D01*
D13*
X169115903Y-117330402D02*
X167315902Y-117330402D01*
D12*
X163670000Y-134300401D02*
X163889998Y-134300401D01*
X182501172Y-132498827D02*
X182484730Y-132515269D01*
X172537749Y-132792251D02*
X172241168Y-132495670D01*
D13*
X160345904Y-119760402D02*
X161031002Y-119760402D01*
D12*
X162895902Y-134300401D02*
X161402751Y-132807249D01*
D13*
X176635835Y-117935401D02*
X173454599Y-117935401D01*
D12*
X186128999Y-134699400D02*
X186400000Y-134699400D01*
D13*
X171460501Y-119675000D02*
X169115903Y-117330402D01*
D12*
X163067897Y-99562103D02*
X163615467Y-100109673D01*
X174105900Y-134360402D02*
X172537749Y-132792251D01*
X174650000Y-134360402D02*
X175060000Y-134360402D01*
X157060000Y-117870401D02*
X156865902Y-117870401D01*
X171915899Y-132170401D02*
X171915899Y-132170404D01*
X175525901Y-134360402D02*
X174650000Y-134360402D01*
X163897897Y-99832103D02*
X163935269Y-99794731D01*
D13*
X178804546Y-117965403D02*
X180621442Y-117965403D01*
D12*
X160440000Y-97884403D02*
X159980000Y-97424403D01*
D14*
X174000000Y-102775000D02*
X174000000Y-109900000D01*
D13*
X166120837Y-114404403D02*
X164406005Y-112689571D01*
D12*
X156865902Y-117870401D02*
X156405900Y-117410399D01*
D13*
X180621442Y-117965403D02*
X182371172Y-119715133D01*
X177239312Y-118538878D02*
X176635835Y-117935401D01*
X161031002Y-119760402D02*
X162911404Y-117880000D01*
X178269621Y-118500328D02*
X178804546Y-117965403D01*
D12*
X171915899Y-132170404D02*
X171590633Y-132495670D01*
D11*
%TO.N,OUT1_1*%
X190935902Y-132165404D02*
X190504596Y-132165404D01*
X181812654Y-134845402D02*
X181160901Y-134845402D01*
X181160901Y-134845402D02*
X179995902Y-136010401D01*
X190504596Y-132165404D02*
X186880000Y-135790000D01*
X182757252Y-135790000D02*
X181812654Y-134845402D01*
X186880000Y-135790000D02*
X182757252Y-135790000D01*
%TO.N,NSLEEP*%
X169413618Y-93761163D02*
X169326455Y-93674000D01*
X183550401Y-115960401D02*
X183820000Y-116230000D01*
X167060000Y-94540000D02*
X165370000Y-96230000D01*
X175687128Y-115960401D02*
X183550401Y-115960401D01*
X175161727Y-115435000D02*
X175687128Y-115960401D01*
X168967545Y-93680000D02*
X167945678Y-93680000D01*
X173956303Y-115435000D02*
X175161727Y-115435000D01*
X169326455Y-93674000D02*
X168973545Y-93674000D01*
X168973545Y-93674000D02*
X168967545Y-93680000D01*
X167945678Y-93680000D02*
X167085678Y-94540000D01*
X170053544Y-93761163D02*
X169413618Y-93761163D01*
X170710000Y-93104707D02*
X170053544Y-93761163D01*
X170395926Y-82798438D02*
X170710000Y-83112512D01*
X172615903Y-116775400D02*
X173956303Y-115435000D01*
X167085678Y-94540000D02*
X167060000Y-94540000D01*
X170710000Y-83112512D02*
X170710000Y-93104707D01*
%TO.N,OUT1_2*%
X182787627Y-135325400D02*
X181957629Y-134495402D01*
X189155902Y-132025403D02*
X189155902Y-133019124D01*
X180115903Y-134495402D02*
X179155903Y-135455402D01*
X181957629Y-134495402D02*
X180115903Y-134495402D01*
X189155902Y-133019124D02*
X186849626Y-135325400D01*
X186849626Y-135325400D02*
X182787627Y-135325400D01*
%TO.N,OUT5_1*%
X163915327Y-100784673D02*
X166350796Y-98349204D01*
X155450000Y-100125000D02*
X156000000Y-99575000D01*
X161799253Y-100784673D02*
X163915327Y-100784673D01*
X156000000Y-99575000D02*
X160589580Y-99575000D01*
X160589580Y-99575000D02*
X161799253Y-100784673D01*
X166350796Y-98349204D02*
X166350796Y-96229851D01*
%TO.N,OUT5_2*%
X166950720Y-98244255D02*
X164060302Y-101134673D01*
X166950720Y-96239593D02*
X166950720Y-98244255D01*
X164060302Y-101134673D02*
X158100474Y-101134673D01*
X158100474Y-101134673D02*
X157223335Y-100257534D01*
%TO.N,OUT2_2*%
X188332051Y-119830979D02*
X188332051Y-119478069D01*
X186350295Y-117075295D02*
X185500000Y-116225000D01*
X188082506Y-119228524D02*
X187233977Y-119228524D01*
X188330000Y-120324547D02*
X188330000Y-119833030D01*
X187233977Y-119228524D02*
X186350295Y-118344842D01*
X188969453Y-120964000D02*
X188330000Y-120324547D01*
X190669744Y-121083193D02*
X190550551Y-120964000D01*
X186350295Y-118344842D02*
X186350295Y-117075295D01*
X188332051Y-119478069D02*
X188082506Y-119228524D01*
X188330000Y-119833030D02*
X188332051Y-119830979D01*
X190550551Y-120964000D02*
X188969453Y-120964000D01*
%TO.N,OUT2_1*%
X184835897Y-117256122D02*
X184835897Y-116225000D01*
X188075176Y-120835176D02*
X188075176Y-120495401D01*
X188075176Y-120495401D02*
X184835897Y-117256122D01*
X188080000Y-120840000D02*
X188075176Y-120835176D01*
%TO.N,OUT6_2*%
X160875000Y-115400000D02*
X158744404Y-113269404D01*
X158744404Y-113269404D02*
X157711127Y-113269404D01*
X160875000Y-115895401D02*
X160875000Y-115400000D01*
X157711127Y-113269404D02*
X156166846Y-111725123D01*
%TO.N,OUT6_1*%
X158369404Y-112919404D02*
X158889378Y-112919404D01*
X157978535Y-112528535D02*
X158369404Y-112919404D01*
X158889378Y-112919404D02*
X161630737Y-115660763D01*
X161630737Y-115660763D02*
X161630737Y-115914404D01*
X157856805Y-111626805D02*
X157970521Y-111740521D01*
X157970521Y-111880520D02*
X157978535Y-111888534D01*
X157978535Y-111888534D02*
X157978535Y-112528535D01*
X157970521Y-111740521D02*
X157970521Y-111880520D01*
%TO.N,OUT3_1*%
X172200401Y-134850401D02*
X170175903Y-134850401D01*
X178294153Y-135645400D02*
X172995400Y-135645400D01*
X183689553Y-130250000D02*
X178294153Y-135645400D01*
X170175903Y-134850401D02*
X169115902Y-135910402D01*
X172995400Y-135645400D02*
X172200401Y-134850401D01*
X188630000Y-130250000D02*
X183689553Y-130250000D01*
%TO.N,OUT3_2*%
X173140374Y-135295400D02*
X172345375Y-134500401D01*
X178149179Y-135295400D02*
X173140374Y-135295400D01*
X169130904Y-134500401D02*
X168275902Y-135355403D01*
X183669579Y-129775000D02*
X178149179Y-135295400D01*
X190400000Y-129850000D02*
X190325000Y-129775000D01*
X172345375Y-134500401D02*
X169130904Y-134500401D01*
X190325000Y-129775000D02*
X183669579Y-129775000D01*
%TO.N,OUT4_1*%
X191010000Y-122840000D02*
X191010000Y-122318248D01*
X181840401Y-116310401D02*
X175542153Y-116310401D01*
X189956752Y-121265000D02*
X186778248Y-121265000D01*
X191010000Y-122318248D02*
X189956752Y-121265000D01*
X175016752Y-115785000D02*
X174356303Y-115785000D01*
X175542153Y-116310401D02*
X175016752Y-115785000D01*
X185080000Y-119566752D02*
X185080000Y-119550000D01*
X186778248Y-121265000D02*
X185080000Y-119566752D01*
X174356303Y-115785000D02*
X173965901Y-116175402D01*
X185080000Y-119550000D02*
X181840401Y-116310401D01*
%TO.N,OUT4_2*%
X175220401Y-116660401D02*
X174820000Y-116260000D01*
X188263248Y-121823248D02*
X186841521Y-121823248D01*
X186841521Y-121823248D02*
X181678674Y-116660401D01*
X181678674Y-116660401D02*
X175220401Y-116660401D01*
%TO.N,OUT8_1*%
X162839867Y-116138115D02*
X159509000Y-112807248D01*
X157093545Y-109936000D02*
X156547545Y-109390000D01*
X156547545Y-109390000D02*
X155470000Y-109390000D01*
X159509000Y-112174678D02*
X157270322Y-109936000D01*
X159509000Y-112807248D02*
X159509000Y-112174678D01*
X162839867Y-116368977D02*
X162839867Y-116138115D01*
X157270322Y-109936000D02*
X157093545Y-109936000D01*
%TO.N,OUT8_2*%
X159810000Y-112050000D02*
X157270000Y-109510000D01*
X159810000Y-112613274D02*
X159810000Y-112050000D01*
X163610000Y-116450000D02*
X163610000Y-116413274D01*
X163610000Y-116413274D02*
X159810000Y-112613274D01*
%TO.N,MesOn*%
X184574000Y-111424000D02*
X188450000Y-115300000D01*
X184670000Y-96153274D02*
X184670000Y-101477545D01*
X188450000Y-115300000D02*
X188450000Y-115925000D01*
X184670000Y-101477545D02*
X184574000Y-101573545D01*
X171638363Y-83121637D02*
X184670000Y-96153274D01*
X184574000Y-101573545D02*
X184574000Y-111424000D01*
%TO.N,DIR7*%
X167739349Y-95835651D02*
X167739349Y-99877543D01*
X164146892Y-103470000D02*
X158557936Y-103470000D01*
X167850000Y-95725000D02*
X167739349Y-95835651D01*
X167739349Y-99877543D02*
X164146892Y-103470000D01*
%TO.N,DIR4*%
X190480000Y-123670000D02*
X188630000Y-125520000D01*
X191620000Y-123670000D02*
X190480000Y-123670000D01*
%TO.N,PWM8*%
X170750000Y-97729308D02*
X170750000Y-105255026D01*
X169225031Y-96204339D02*
X170750000Y-97729308D01*
X168830026Y-107175000D02*
X159016752Y-107175000D01*
X158086752Y-106245000D02*
X156285000Y-106245000D01*
X156285000Y-106245000D02*
X155910000Y-106620000D01*
X159016752Y-107175000D02*
X158086752Y-106245000D01*
X170750000Y-105255026D02*
X168830026Y-107175000D01*
%TO.N,PWM7*%
X168214349Y-99897518D02*
X164611866Y-103500000D01*
X164291866Y-103820000D02*
X159361752Y-103820000D01*
X159361752Y-103820000D02*
X157911752Y-105270000D01*
X164611866Y-103500000D02*
X164291866Y-103820000D01*
X168214349Y-96201711D02*
X168214349Y-99897518D01*
X157911752Y-105270000D02*
X157400000Y-105270000D01*
%TO.N,DIR1*%
X188495902Y-134845403D02*
X190335902Y-133005403D01*
X190335902Y-133005403D02*
X191555903Y-133005403D01*
%TO.N,DIR8*%
X168975000Y-107525000D02*
X158695000Y-107525000D01*
X171100000Y-97407556D02*
X171100000Y-105400000D01*
X171100000Y-105400000D02*
X168975000Y-107525000D01*
X169392444Y-95700000D02*
X171100000Y-97407556D01*
X158695000Y-107525000D02*
X157890000Y-106720000D01*
X156040000Y-108570000D02*
X157890000Y-106720000D01*
X168900000Y-95700000D02*
X169392444Y-95700000D01*
X154870000Y-108570000D02*
X156040000Y-108570000D01*
%TO.N,DIR5*%
X156025000Y-99225000D02*
X157825000Y-97425000D01*
X154875000Y-99225000D02*
X156025000Y-99225000D01*
X154825000Y-99275000D02*
X154875000Y-99225000D01*
%TO.N,Net-(U4-Pad10)*%
X187460000Y-118100000D02*
X188550000Y-118100000D01*
X188550000Y-118100000D02*
X190940000Y-120490000D01*
%TO.N,Net-(U5-Pad10)*%
X158810737Y-114044403D02*
X157768071Y-114044403D01*
X157768071Y-114044403D02*
X155581764Y-111858096D01*
%TO.N,Net-(U6-Pad10)*%
X189420000Y-128140000D02*
X188080000Y-128140000D01*
X191000000Y-129720000D02*
X189420000Y-128140000D01*
%TO.N,Net-(U7-Pad10)*%
X157070000Y-104100000D02*
X155480000Y-102510000D01*
X158410000Y-104100000D02*
X157070000Y-104100000D01*
%TD*%
%TA.AperFunction,Conductor*%
%TO.N,GND*%
G36*
X171579052Y-83572136D02*
G01*
X171579054Y-83572137D01*
X171579056Y-83572137D01*
X171587119Y-83573199D01*
X171586883Y-83574988D01*
X171644213Y-83591822D01*
X171664855Y-83608456D01*
X184308181Y-96251781D01*
X184341666Y-96313104D01*
X184344500Y-96339462D01*
X184344500Y-101291356D01*
X184333494Y-101342427D01*
X184324176Y-101363041D01*
X184313535Y-101373683D01*
X184270682Y-101447906D01*
X184251258Y-101520398D01*
X184248643Y-101530157D01*
X184248642Y-101530160D01*
X184248500Y-101530691D01*
X184248500Y-101530692D01*
X184248500Y-111381147D01*
X184248500Y-111466853D01*
X184255701Y-111493728D01*
X184270682Y-111549640D01*
X184289067Y-111581483D01*
X184313535Y-111623862D01*
X184313536Y-111623863D01*
X184313537Y-111623864D01*
X188088181Y-115398507D01*
X188102884Y-115425434D01*
X188119477Y-115451253D01*
X188120368Y-115457453D01*
X188121666Y-115459830D01*
X188124500Y-115486188D01*
X188124500Y-115562036D01*
X188104815Y-115629075D01*
X188094451Y-115641935D01*
X188094458Y-115641941D01*
X188089511Y-115648387D01*
X188030201Y-115751114D01*
X187999500Y-115865691D01*
X187999500Y-115984309D01*
X188030201Y-116098886D01*
X188089511Y-116201613D01*
X188089513Y-116201615D01*
X188104876Y-116216978D01*
X188138361Y-116278301D01*
X188133377Y-116347993D01*
X188104876Y-116392340D01*
X186887476Y-117609741D01*
X186826153Y-117643226D01*
X186756461Y-117638242D01*
X186700528Y-117596370D01*
X186676111Y-117530906D01*
X186675795Y-117522060D01*
X186675795Y-117128150D01*
X186675796Y-117128137D01*
X186675796Y-117032443D01*
X186674944Y-117029263D01*
X186653613Y-116949656D01*
X186627170Y-116903856D01*
X186610760Y-116875433D01*
X186550157Y-116814830D01*
X186550154Y-116814828D01*
X186265376Y-116530050D01*
X185986819Y-116251492D01*
X185953334Y-116190169D01*
X185951568Y-116173749D01*
X185951561Y-116173751D01*
X185950500Y-116165694D01*
X185950500Y-116165691D01*
X185919799Y-116051114D01*
X185860489Y-115948387D01*
X185776613Y-115864511D01*
X185673886Y-115805201D01*
X185559309Y-115774500D01*
X185440691Y-115774500D01*
X185335505Y-115802684D01*
X185326110Y-115805202D01*
X185229948Y-115860722D01*
X185162048Y-115877195D01*
X185105947Y-115860722D01*
X185105897Y-115860693D01*
X185009783Y-115805201D01*
X184895206Y-115774500D01*
X184776588Y-115774500D01*
X184662011Y-115805201D01*
X184662009Y-115805201D01*
X184662009Y-115805202D01*
X184559284Y-115864511D01*
X184559281Y-115864513D01*
X184475410Y-115948384D01*
X184475408Y-115948387D01*
X184433892Y-116020294D01*
X184383324Y-116068509D01*
X184314717Y-116081731D01*
X184249852Y-116055763D01*
X184219118Y-116020294D01*
X184180489Y-115953387D01*
X184096613Y-115869511D01*
X183993886Y-115810201D01*
X183879309Y-115779500D01*
X183879305Y-115779499D01*
X183871249Y-115778439D01*
X183871484Y-115776650D01*
X183814150Y-115759815D01*
X183793508Y-115743181D01*
X183750265Y-115699938D01*
X183750263Y-115699936D01*
X183713151Y-115678509D01*
X183676041Y-115657083D01*
X183624925Y-115643387D01*
X183593254Y-115634901D01*
X183593253Y-115634901D01*
X175873317Y-115634901D01*
X175806278Y-115615216D01*
X175785636Y-115598582D01*
X175361591Y-115174537D01*
X175361589Y-115174535D01*
X175324477Y-115153108D01*
X175287367Y-115131682D01*
X175245973Y-115120591D01*
X175204580Y-115109500D01*
X173999156Y-115109500D01*
X173913450Y-115109500D01*
X173830662Y-115131682D01*
X173756441Y-115174535D01*
X173756438Y-115174537D01*
X172642395Y-116288581D01*
X172581072Y-116322066D01*
X172564652Y-116323831D01*
X172564654Y-116323839D01*
X172556597Y-116324899D01*
X172522556Y-116334020D01*
X172442017Y-116355601D01*
X172442015Y-116355601D01*
X172442015Y-116355602D01*
X172339290Y-116414911D01*
X172339287Y-116414913D01*
X172255416Y-116498784D01*
X172255414Y-116498787D01*
X172203035Y-116589510D01*
X172196104Y-116601514D01*
X172165403Y-116716091D01*
X172165403Y-116834709D01*
X172196104Y-116949286D01*
X172255414Y-117052013D01*
X172255416Y-117052015D01*
X172324782Y-117121381D01*
X172358267Y-117182704D01*
X172353283Y-117252396D01*
X172324782Y-117296743D01*
X171675431Y-117946094D01*
X171614108Y-117979579D01*
X171544416Y-117974595D01*
X171500069Y-117946094D01*
X170264590Y-116710615D01*
X170231105Y-116649292D01*
X170236089Y-116579600D01*
X170264590Y-116535253D01*
X172764656Y-114035187D01*
X173752195Y-113047648D01*
X175869500Y-113047648D01*
X175869500Y-113252351D01*
X175901522Y-113454534D01*
X175964781Y-113649223D01*
X176057715Y-113831613D01*
X176178028Y-113997213D01*
X176322786Y-114141971D01*
X176439291Y-114226615D01*
X176488390Y-114262287D01*
X176582986Y-114310486D01*
X176670776Y-114355218D01*
X176670778Y-114355218D01*
X176670781Y-114355220D01*
X176775137Y-114389127D01*
X176865465Y-114418477D01*
X176966557Y-114434488D01*
X177067648Y-114450500D01*
X177067649Y-114450500D01*
X177272351Y-114450500D01*
X177272352Y-114450500D01*
X177474534Y-114418477D01*
X177669219Y-114355220D01*
X177851610Y-114262287D01*
X177983861Y-114166202D01*
X178017213Y-114141971D01*
X178017215Y-114141968D01*
X178017219Y-114141966D01*
X178161966Y-113997219D01*
X178161968Y-113997215D01*
X178161971Y-113997213D01*
X178239362Y-113890691D01*
X178282287Y-113831610D01*
X178375220Y-113649219D01*
X178438477Y-113454534D01*
X178470500Y-113252352D01*
X178470500Y-113047648D01*
X178454068Y-112943904D01*
X178438477Y-112845465D01*
X178400439Y-112728397D01*
X178375220Y-112650781D01*
X178375218Y-112650778D01*
X178375218Y-112650776D01*
X178321493Y-112545336D01*
X178282287Y-112468390D01*
X178214149Y-112374605D01*
X178161971Y-112302786D01*
X178017213Y-112158028D01*
X177851613Y-112037715D01*
X177851612Y-112037714D01*
X177851610Y-112037713D01*
X177776613Y-111999500D01*
X177669223Y-111944781D01*
X177474534Y-111881522D01*
X177299995Y-111853878D01*
X177272352Y-111849500D01*
X177067648Y-111849500D01*
X177043329Y-111853351D01*
X176865465Y-111881522D01*
X176670776Y-111944781D01*
X176488386Y-112037715D01*
X176322786Y-112158028D01*
X176178028Y-112302786D01*
X176057715Y-112468386D01*
X175964781Y-112650776D01*
X175901522Y-112845465D01*
X175869500Y-113047648D01*
X173752195Y-113047648D01*
X175349508Y-111450335D01*
X175349526Y-111450320D01*
X175544951Y-111254895D01*
X175544956Y-111254890D01*
X175708587Y-111041641D01*
X175842984Y-110808859D01*
X175945847Y-110560526D01*
X176015416Y-110300891D01*
X176020602Y-110261500D01*
X176050501Y-110034397D01*
X176050501Y-109765603D01*
X176050501Y-109761764D01*
X176050500Y-109761730D01*
X176050500Y-102640602D01*
X176026815Y-102460693D01*
X176015416Y-102374109D01*
X175945847Y-102114474D01*
X175890810Y-101981602D01*
X175842988Y-101866149D01*
X175842980Y-101866133D01*
X175760570Y-101723396D01*
X175708587Y-101633359D01*
X175621909Y-101520397D01*
X175544957Y-101420111D01*
X175544951Y-101420104D01*
X175354895Y-101230048D01*
X175354888Y-101230042D01*
X175141645Y-101066416D01*
X175141644Y-101066415D01*
X175141641Y-101066413D01*
X175048832Y-101012830D01*
X174908866Y-100932019D01*
X174908850Y-100932011D01*
X174660524Y-100829152D01*
X174512494Y-100789488D01*
X174400891Y-100759584D01*
X174400885Y-100759583D01*
X174400880Y-100759582D01*
X174134398Y-100724500D01*
X174134397Y-100724500D01*
X173865603Y-100724500D01*
X173865602Y-100724500D01*
X173599119Y-100759582D01*
X173599112Y-100759583D01*
X173599109Y-100759584D01*
X173549585Y-100772854D01*
X173339475Y-100829152D01*
X173091149Y-100932011D01*
X173091133Y-100932019D01*
X172858354Y-101066416D01*
X172645111Y-101230042D01*
X172645104Y-101230048D01*
X172455048Y-101420104D01*
X172455042Y-101420111D01*
X172291416Y-101633354D01*
X172157019Y-101866133D01*
X172157011Y-101866149D01*
X172054152Y-102114475D01*
X171984585Y-102374106D01*
X171984582Y-102374119D01*
X171949500Y-102640602D01*
X171949500Y-108999293D01*
X171929815Y-109066332D01*
X171913181Y-109086974D01*
X167882572Y-113117584D01*
X167821249Y-113151069D01*
X167794891Y-113153903D01*
X166966473Y-113153903D01*
X166899434Y-113134218D01*
X166853679Y-113081414D01*
X166843735Y-113012256D01*
X166859086Y-112967903D01*
X166877774Y-112935533D01*
X166877773Y-112935533D01*
X166877776Y-112935530D01*
X166908477Y-112820953D01*
X166908477Y-112702335D01*
X166877776Y-112587758D01*
X166877771Y-112587750D01*
X166874666Y-112580251D01*
X166877253Y-112579179D01*
X166863990Y-112524520D01*
X166878202Y-112476120D01*
X166877425Y-112475798D01*
X166880422Y-112468561D01*
X166880468Y-112468405D01*
X166880535Y-112468290D01*
X166911236Y-112353713D01*
X166911236Y-112235095D01*
X166880535Y-112120518D01*
X166821225Y-112017791D01*
X166737349Y-111933915D01*
X166634622Y-111874605D01*
X166520045Y-111843904D01*
X166401427Y-111843904D01*
X166286850Y-111874605D01*
X166286848Y-111874605D01*
X166286848Y-111874606D01*
X166184123Y-111933915D01*
X166184120Y-111933917D01*
X166100249Y-112017788D01*
X166100247Y-112017791D01*
X166040937Y-112120518D01*
X166021922Y-112191482D01*
X166010234Y-112235102D01*
X166009290Y-112242275D01*
X166003546Y-112255255D01*
X166002534Y-112269416D01*
X165989691Y-112286571D01*
X165981020Y-112306170D01*
X165969168Y-112313986D01*
X165960662Y-112325349D01*
X165940584Y-112332837D01*
X165922693Y-112344637D01*
X165908498Y-112344805D01*
X165895198Y-112349766D01*
X165874256Y-112345210D01*
X165852828Y-112345464D01*
X165839465Y-112337641D01*
X165826925Y-112334914D01*
X165798671Y-112313763D01*
X165692824Y-112207916D01*
X165659339Y-112146593D01*
X165656505Y-112120235D01*
X165656505Y-112050711D01*
X165625714Y-111856307D01*
X165570413Y-111686111D01*
X165564889Y-111669109D01*
X165564887Y-111669106D01*
X165564887Y-111669104D01*
X165507074Y-111555640D01*
X165475529Y-111493729D01*
X165359833Y-111334488D01*
X165220651Y-111195306D01*
X165061410Y-111079610D01*
X164886034Y-110990251D01*
X164698831Y-110929424D01*
X164504427Y-110898634D01*
X164504422Y-110898634D01*
X164307588Y-110898634D01*
X164307583Y-110898634D01*
X164113178Y-110929424D01*
X163925975Y-110990251D01*
X163750599Y-111079610D01*
X163719744Y-111102028D01*
X163591359Y-111195306D01*
X163591357Y-111195308D01*
X163591356Y-111195308D01*
X163452179Y-111334485D01*
X163452179Y-111334486D01*
X163452177Y-111334488D01*
X163423917Y-111373384D01*
X163336481Y-111493728D01*
X163247122Y-111669104D01*
X163186295Y-111856307D01*
X163155505Y-112050711D01*
X163155505Y-112787993D01*
X163186295Y-112982397D01*
X163247122Y-113169601D01*
X163291100Y-113255911D01*
X163336481Y-113344976D01*
X163452177Y-113504217D01*
X163452179Y-113504219D01*
X165229630Y-115281671D01*
X165263115Y-115342994D01*
X165258131Y-115412686D01*
X165229630Y-115457033D01*
X164262129Y-116424535D01*
X164200806Y-116458020D01*
X164131115Y-116453036D01*
X164075181Y-116411164D01*
X164054674Y-116368950D01*
X164029799Y-116276114D01*
X163970489Y-116173387D01*
X163886613Y-116089511D01*
X163783886Y-116030201D01*
X163683974Y-116003429D01*
X163670087Y-115995411D01*
X163656642Y-115992487D01*
X163628388Y-115971336D01*
X163497258Y-115840206D01*
X163463773Y-115778883D01*
X163468757Y-115709191D01*
X163497258Y-115664844D01*
X163536326Y-115625776D01*
X163585489Y-115576613D01*
X163644799Y-115473886D01*
X163675500Y-115359309D01*
X163675500Y-115240691D01*
X163644799Y-115126114D01*
X163585489Y-115023387D01*
X163501613Y-114939511D01*
X163398886Y-114880201D01*
X163284309Y-114849500D01*
X163165691Y-114849500D01*
X163051114Y-114880201D01*
X163051112Y-114880201D01*
X163051112Y-114880202D01*
X162948387Y-114939510D01*
X162860156Y-115027742D01*
X162798832Y-115061226D01*
X162729141Y-115056242D01*
X162684794Y-115027741D01*
X161099912Y-113442859D01*
X161066427Y-113381536D01*
X161071411Y-113311844D01*
X161113283Y-113255911D01*
X161155496Y-113235404D01*
X161234622Y-113214203D01*
X161337349Y-113154893D01*
X161421225Y-113071017D01*
X161480535Y-112968290D01*
X161511236Y-112853713D01*
X161511236Y-112735095D01*
X161480535Y-112620518D01*
X161421225Y-112517791D01*
X161337349Y-112433915D01*
X161262484Y-112390691D01*
X161234621Y-112374604D01*
X161227116Y-112371496D01*
X161227712Y-112370056D01*
X161175949Y-112338504D01*
X161152334Y-112295254D01*
X161151303Y-112295682D01*
X161148195Y-112288178D01*
X161141230Y-112276114D01*
X161088885Y-112185451D01*
X161005009Y-112101575D01*
X160902282Y-112042265D01*
X160787705Y-112011564D01*
X160669087Y-112011564D01*
X160554510Y-112042265D01*
X160554508Y-112042265D01*
X160554508Y-112042266D01*
X160451783Y-112101575D01*
X160451780Y-112101577D01*
X160367909Y-112185448D01*
X160367905Y-112185454D01*
X160366885Y-112187221D01*
X160365634Y-112188413D01*
X160362959Y-112191900D01*
X160362415Y-112191482D01*
X160316316Y-112235435D01*
X160247709Y-112248655D01*
X160182845Y-112222685D01*
X160142318Y-112165769D01*
X160135500Y-112125217D01*
X160135500Y-112007149D01*
X160135500Y-112007147D01*
X160113318Y-111924362D01*
X160101226Y-111903418D01*
X160070469Y-111850144D01*
X160070463Y-111850136D01*
X158164071Y-109943744D01*
X158130586Y-109882421D01*
X158135570Y-109812729D01*
X158177442Y-109756796D01*
X158184209Y-109752332D01*
X158186605Y-109750493D01*
X158186613Y-109750489D01*
X158270489Y-109666613D01*
X158329799Y-109563886D01*
X158360500Y-109449309D01*
X158360500Y-109330691D01*
X158329799Y-109216114D01*
X158270489Y-109113387D01*
X158186613Y-109029511D01*
X158083886Y-108970201D01*
X157969309Y-108939500D01*
X157850691Y-108939500D01*
X157736114Y-108970201D01*
X157736112Y-108970201D01*
X157736112Y-108970202D01*
X157633387Y-109029511D01*
X157633383Y-109029514D01*
X157592826Y-109070070D01*
X157531502Y-109103554D01*
X157461811Y-109098568D01*
X157445273Y-109090776D01*
X157443887Y-109090201D01*
X157415241Y-109082525D01*
X157329309Y-109059500D01*
X157210691Y-109059500D01*
X157096114Y-109090201D01*
X157096112Y-109090201D01*
X157096112Y-109090202D01*
X156993387Y-109149511D01*
X156993382Y-109149515D01*
X156968062Y-109174834D01*
X156906738Y-109208317D01*
X156837047Y-109203330D01*
X156792703Y-109174831D01*
X156747409Y-109129537D01*
X156747407Y-109129535D01*
X156693771Y-109098568D01*
X156673185Y-109086682D01*
X156631791Y-109075591D01*
X156590398Y-109064500D01*
X156590397Y-109064500D01*
X156297276Y-109064500D01*
X156230237Y-109044815D01*
X156184482Y-108992011D01*
X156174538Y-108922853D01*
X156203563Y-108859297D01*
X156235274Y-108833114D01*
X156235588Y-108832932D01*
X156239862Y-108830465D01*
X157802319Y-107268008D01*
X157863642Y-107234523D01*
X157933334Y-107239507D01*
X157977681Y-107268008D01*
X158495138Y-107785465D01*
X158559414Y-107822575D01*
X158566681Y-107826771D01*
X158569361Y-107828318D01*
X158652147Y-107850500D01*
X158737853Y-107850500D01*
X168177618Y-107850500D01*
X168244657Y-107870185D01*
X168290412Y-107922989D01*
X168300356Y-107992147D01*
X168297393Y-108006593D01*
X168269500Y-108110691D01*
X168269500Y-108229309D01*
X168300201Y-108343886D01*
X168359511Y-108446613D01*
X168443387Y-108530489D01*
X168546114Y-108589799D01*
X168660691Y-108620500D01*
X168660694Y-108620500D01*
X168779306Y-108620500D01*
X168779309Y-108620500D01*
X168893886Y-108589799D01*
X168996613Y-108530489D01*
X169080489Y-108446613D01*
X169139799Y-108343886D01*
X169170500Y-108229309D01*
X169170500Y-108110691D01*
X169139799Y-107996114D01*
X169139797Y-107996111D01*
X169139797Y-107996109D01*
X169139796Y-107996108D01*
X169119352Y-107960698D01*
X169102878Y-107892798D01*
X169125730Y-107826771D01*
X169164738Y-107791310D01*
X169174862Y-107785465D01*
X171299859Y-105660466D01*
X171299862Y-105660465D01*
X171360465Y-105599862D01*
X171387026Y-105553857D01*
X171403318Y-105525639D01*
X171425500Y-105442853D01*
X171425500Y-105357147D01*
X171425500Y-98147201D01*
X171445185Y-98080162D01*
X171497989Y-98034407D01*
X171567147Y-98024463D01*
X171611499Y-98039814D01*
X171646114Y-98059799D01*
X171760691Y-98090500D01*
X171760694Y-98090500D01*
X171879306Y-98090500D01*
X171879309Y-98090500D01*
X171993886Y-98059799D01*
X172096613Y-98000489D01*
X172180489Y-97916613D01*
X172239799Y-97813886D01*
X172270500Y-97699309D01*
X172270500Y-97699305D01*
X172271561Y-97691249D01*
X172273349Y-97691484D01*
X172290185Y-97634149D01*
X172306815Y-97613511D01*
X172828931Y-97091394D01*
X172890254Y-97057910D01*
X172959946Y-97062894D01*
X173004293Y-97091395D01*
X173009511Y-97096613D01*
X173093387Y-97180489D01*
X173196114Y-97239799D01*
X173310691Y-97270500D01*
X173310694Y-97270500D01*
X173429306Y-97270500D01*
X173429309Y-97270500D01*
X173543886Y-97239799D01*
X173646613Y-97180489D01*
X173646620Y-97180481D01*
X173653059Y-97175542D01*
X173654157Y-97176973D01*
X173706606Y-97148334D01*
X173732964Y-97145500D01*
X175303811Y-97145500D01*
X175370850Y-97165185D01*
X175391492Y-97181819D01*
X180288181Y-102078508D01*
X180321666Y-102139831D01*
X180324500Y-102166189D01*
X180324500Y-111472852D01*
X180346682Y-111555640D01*
X180355004Y-111570053D01*
X180389535Y-111629862D01*
X182970138Y-114210465D01*
X183044361Y-114253318D01*
X183127147Y-114275500D01*
X184277036Y-114275500D01*
X184344075Y-114295185D01*
X184356935Y-114305548D01*
X184356941Y-114305542D01*
X184363382Y-114310484D01*
X184363387Y-114310489D01*
X184466114Y-114369799D01*
X184580691Y-114400500D01*
X184580694Y-114400500D01*
X184699306Y-114400500D01*
X184699309Y-114400500D01*
X184813886Y-114369799D01*
X184916613Y-114310489D01*
X185000489Y-114226613D01*
X185059799Y-114123886D01*
X185090500Y-114009309D01*
X185090500Y-113890691D01*
X185059799Y-113776114D01*
X185000489Y-113673387D01*
X184916613Y-113589511D01*
X184813886Y-113530201D01*
X184699309Y-113499500D01*
X184580691Y-113499500D01*
X184466114Y-113530201D01*
X184466112Y-113530201D01*
X184466112Y-113530202D01*
X184363387Y-113589511D01*
X184356941Y-113594458D01*
X184355842Y-113593026D01*
X184303394Y-113621666D01*
X184277036Y-113624500D01*
X183356189Y-113624500D01*
X183289150Y-113604815D01*
X183268508Y-113588181D01*
X181381395Y-111701068D01*
X181347910Y-111639745D01*
X181352894Y-111570053D01*
X181381391Y-111525710D01*
X181460489Y-111446613D01*
X181519799Y-111343886D01*
X181550500Y-111229309D01*
X181550500Y-111229305D01*
X181551561Y-111221249D01*
X181553349Y-111221484D01*
X181559145Y-111201744D01*
X181565668Y-111171762D01*
X181569422Y-111166746D01*
X181570185Y-111164149D01*
X181586814Y-111143510D01*
X181690651Y-111039673D01*
X181690656Y-111039670D01*
X181700860Y-111029465D01*
X181700862Y-111029465D01*
X181761465Y-110968862D01*
X181804318Y-110894638D01*
X181808607Y-110878630D01*
X181815133Y-110854278D01*
X181815133Y-110854275D01*
X181818051Y-110843386D01*
X181826501Y-110811853D01*
X181826501Y-110726147D01*
X181826500Y-110726143D01*
X181826500Y-100518147D01*
X181804318Y-100435362D01*
X181802042Y-100431420D01*
X181761469Y-100361144D01*
X181761463Y-100361136D01*
X181606819Y-100206492D01*
X181573334Y-100145169D01*
X181571568Y-100128749D01*
X181571561Y-100128751D01*
X181570500Y-100120694D01*
X181570500Y-100120691D01*
X181539799Y-100006114D01*
X181480489Y-99903387D01*
X181396613Y-99819511D01*
X181293886Y-99760201D01*
X181179309Y-99729500D01*
X181060691Y-99729500D01*
X180946114Y-99760201D01*
X180946112Y-99760201D01*
X180946112Y-99760202D01*
X180843387Y-99819511D01*
X180836941Y-99824458D01*
X180835842Y-99823026D01*
X180783394Y-99851666D01*
X180757036Y-99854500D01*
X179616189Y-99854500D01*
X179549150Y-99834815D01*
X179528508Y-99818181D01*
X177320941Y-97610614D01*
X178373662Y-97610614D01*
X178373662Y-97729232D01*
X178404363Y-97843809D01*
X178463673Y-97946536D01*
X178547549Y-98030412D01*
X178650276Y-98089722D01*
X178764853Y-98120423D01*
X178764856Y-98120423D01*
X178883468Y-98120423D01*
X178883471Y-98120423D01*
X178998048Y-98089722D01*
X179100775Y-98030412D01*
X179184651Y-97946536D01*
X179243961Y-97843809D01*
X179272763Y-97736317D01*
X179309127Y-97676659D01*
X179360441Y-97648639D01*
X179394636Y-97639477D01*
X179497363Y-97580167D01*
X179581239Y-97496291D01*
X179640549Y-97393564D01*
X179655959Y-97336051D01*
X179692322Y-97276393D01*
X179743637Y-97248372D01*
X179828957Y-97225511D01*
X179931684Y-97166201D01*
X180015560Y-97082325D01*
X180074870Y-96979598D01*
X180078337Y-96966658D01*
X180114698Y-96907001D01*
X180177544Y-96876469D01*
X180181933Y-96875812D01*
X180184300Y-96875500D01*
X180184309Y-96875500D01*
X180298886Y-96844799D01*
X180401613Y-96785489D01*
X180485489Y-96701613D01*
X180544799Y-96598886D01*
X180575500Y-96484309D01*
X180575500Y-96365691D01*
X180544799Y-96251114D01*
X180485489Y-96148387D01*
X180401613Y-96064511D01*
X180298886Y-96005201D01*
X180184309Y-95974500D01*
X180065691Y-95974500D01*
X179951114Y-96005201D01*
X179951112Y-96005201D01*
X179951112Y-96005202D01*
X179848387Y-96064511D01*
X179848384Y-96064513D01*
X179764513Y-96148384D01*
X179764511Y-96148387D01*
X179705201Y-96251113D01*
X179701733Y-96264056D01*
X179665366Y-96323715D01*
X179602519Y-96354243D01*
X179598151Y-96354897D01*
X179595769Y-96355210D01*
X179595762Y-96355212D01*
X179481185Y-96385913D01*
X179481183Y-96385913D01*
X179481183Y-96385914D01*
X179378458Y-96445223D01*
X179378455Y-96445225D01*
X179294584Y-96529096D01*
X179294582Y-96529099D01*
X179235273Y-96631823D01*
X179235272Y-96631825D01*
X179235272Y-96631826D01*
X179228343Y-96657688D01*
X179219862Y-96689338D01*
X179183496Y-96748998D01*
X179132182Y-96777017D01*
X179046864Y-96799878D01*
X178944137Y-96859189D01*
X178944134Y-96859191D01*
X178860263Y-96943062D01*
X178860261Y-96943065D01*
X178800952Y-97045789D01*
X178800951Y-97045791D01*
X178800951Y-97045792D01*
X178778375Y-97130048D01*
X178772149Y-97153282D01*
X178735783Y-97212942D01*
X178684470Y-97240961D01*
X178650276Y-97250123D01*
X178547549Y-97309434D01*
X178547546Y-97309436D01*
X178463675Y-97393307D01*
X178463673Y-97393310D01*
X178405707Y-97493710D01*
X178404363Y-97496037D01*
X178373662Y-97610614D01*
X177320941Y-97610614D01*
X175839864Y-96129537D01*
X175839862Y-96129535D01*
X175802750Y-96108108D01*
X175765640Y-96086682D01*
X175717625Y-96073817D01*
X175682853Y-96064500D01*
X173112853Y-96064500D01*
X173027147Y-96064500D01*
X172944357Y-96086683D01*
X172876224Y-96126020D01*
X172808323Y-96142493D01*
X172742297Y-96119640D01*
X172699106Y-96064719D01*
X172692465Y-95995165D01*
X172706839Y-95956630D01*
X172708696Y-95953415D01*
X172723458Y-95927846D01*
X172754159Y-95813269D01*
X172754159Y-95694651D01*
X172723458Y-95580074D01*
X172664148Y-95477347D01*
X172651819Y-95465018D01*
X172618334Y-95403695D01*
X172615500Y-95377337D01*
X172615500Y-94977149D01*
X172615500Y-94977147D01*
X172593318Y-94894362D01*
X172593318Y-94894361D01*
X172550465Y-94820138D01*
X171471819Y-93741492D01*
X171438334Y-93680169D01*
X171435500Y-93653811D01*
X171435500Y-83694632D01*
X171455185Y-83627593D01*
X171507989Y-83581838D01*
X171570927Y-83572407D01*
X171570927Y-83572137D01*
X171572735Y-83572137D01*
X171575692Y-83571694D01*
X171579052Y-83572136D01*
G37*
%TD.AperFunction*%
%TA.AperFunction,Conductor*%
G36*
X168736355Y-96355564D02*
G01*
X168742397Y-96354988D01*
X168768405Y-96368395D01*
X168795583Y-96379276D01*
X168800485Y-96384933D01*
X168804500Y-96387003D01*
X168826316Y-96414744D01*
X168864542Y-96480952D01*
X168948418Y-96564828D01*
X169051145Y-96624138D01*
X169165722Y-96654839D01*
X169165725Y-96654839D01*
X169173782Y-96655900D01*
X169173546Y-96657688D01*
X169230881Y-96674524D01*
X169251523Y-96691158D01*
X170388181Y-97827815D01*
X170421666Y-97889138D01*
X170424500Y-97915496D01*
X170424500Y-105068837D01*
X170404815Y-105135876D01*
X170388181Y-105156518D01*
X168731518Y-106813181D01*
X168670195Y-106846666D01*
X168643837Y-106849500D01*
X165144500Y-106849500D01*
X165077461Y-106829815D01*
X165031706Y-106777011D01*
X165020500Y-106725500D01*
X165020500Y-106640693D01*
X165020500Y-106640691D01*
X164989799Y-106526114D01*
X164930489Y-106423387D01*
X164846613Y-106339511D01*
X164743886Y-106280201D01*
X164629309Y-106249500D01*
X164510691Y-106249500D01*
X164396114Y-106280201D01*
X164396112Y-106280201D01*
X164396112Y-106280202D01*
X164293387Y-106339511D01*
X164293384Y-106339513D01*
X164209513Y-106423384D01*
X164209511Y-106423387D01*
X164155975Y-106516114D01*
X164150201Y-106526114D01*
X164119500Y-106640691D01*
X164119500Y-106640693D01*
X164119500Y-106725500D01*
X164099815Y-106792539D01*
X164047011Y-106838294D01*
X163995500Y-106849500D01*
X162074500Y-106849500D01*
X162007461Y-106829815D01*
X161961706Y-106777011D01*
X161950500Y-106725500D01*
X161950500Y-106630693D01*
X161950500Y-106630691D01*
X161919799Y-106516114D01*
X161860489Y-106413387D01*
X161776613Y-106329511D01*
X161673886Y-106270201D01*
X161559309Y-106239500D01*
X161440691Y-106239500D01*
X161326114Y-106270201D01*
X161326112Y-106270201D01*
X161326112Y-106270202D01*
X161223387Y-106329511D01*
X161223384Y-106329513D01*
X161139513Y-106413384D01*
X161139511Y-106413387D01*
X161080201Y-106516114D01*
X161049500Y-106630691D01*
X161049500Y-106630693D01*
X161049500Y-106725500D01*
X161029815Y-106792539D01*
X160977011Y-106838294D01*
X160925500Y-106849500D01*
X159202940Y-106849500D01*
X159135901Y-106829815D01*
X159115259Y-106813181D01*
X158715465Y-106413387D01*
X158307246Y-106005167D01*
X158273761Y-105943844D01*
X158278745Y-105874152D01*
X158307244Y-105829808D01*
X158656361Y-105480691D01*
X162969500Y-105480691D01*
X162969500Y-105599309D01*
X163000201Y-105713886D01*
X163059511Y-105816613D01*
X163143387Y-105900489D01*
X163246114Y-105959799D01*
X163360691Y-105990500D01*
X163360694Y-105990500D01*
X163479306Y-105990500D01*
X163479309Y-105990500D01*
X163593886Y-105959799D01*
X163696613Y-105900489D01*
X163780489Y-105816613D01*
X163839799Y-105713886D01*
X163870500Y-105599309D01*
X163870500Y-105480691D01*
X165919500Y-105480691D01*
X165919500Y-105599309D01*
X165950201Y-105713886D01*
X166009511Y-105816613D01*
X166093387Y-105900489D01*
X166196114Y-105959799D01*
X166310691Y-105990500D01*
X166310694Y-105990500D01*
X166429306Y-105990500D01*
X166429309Y-105990500D01*
X166543886Y-105959799D01*
X166646613Y-105900489D01*
X166730489Y-105816613D01*
X166789799Y-105713886D01*
X166820500Y-105599309D01*
X166820500Y-105480691D01*
X166789799Y-105366114D01*
X166730489Y-105263387D01*
X166646613Y-105179511D01*
X166543886Y-105120201D01*
X166429309Y-105089500D01*
X166310691Y-105089500D01*
X166196114Y-105120201D01*
X166196112Y-105120201D01*
X166196112Y-105120202D01*
X166093387Y-105179511D01*
X166093384Y-105179513D01*
X166009513Y-105263384D01*
X166009511Y-105263387D01*
X165971451Y-105329309D01*
X165950201Y-105366114D01*
X165919500Y-105480691D01*
X163870500Y-105480691D01*
X163839799Y-105366114D01*
X163780489Y-105263387D01*
X163696613Y-105179511D01*
X163593886Y-105120201D01*
X163479309Y-105089500D01*
X163360691Y-105089500D01*
X163246114Y-105120201D01*
X163246112Y-105120201D01*
X163246112Y-105120202D01*
X163143387Y-105179511D01*
X163143384Y-105179513D01*
X163059513Y-105263384D01*
X163059511Y-105263387D01*
X163021451Y-105329309D01*
X163000201Y-105366114D01*
X162969500Y-105480691D01*
X158656361Y-105480691D01*
X159605234Y-104531819D01*
X159666557Y-104498334D01*
X159692915Y-104495500D01*
X165172851Y-104495500D01*
X165172853Y-104495500D01*
X165255639Y-104473318D01*
X165329862Y-104430465D01*
X169488508Y-100271819D01*
X169549831Y-100238334D01*
X169566250Y-100236568D01*
X169566249Y-100236561D01*
X169574305Y-100235500D01*
X169574309Y-100235500D01*
X169688886Y-100204799D01*
X169791613Y-100145489D01*
X169875489Y-100061613D01*
X169934799Y-99958886D01*
X169965500Y-99844309D01*
X169965500Y-99725691D01*
X169934799Y-99611114D01*
X169875489Y-99508387D01*
X169791613Y-99424511D01*
X169688886Y-99365201D01*
X169574309Y-99334500D01*
X169455691Y-99334500D01*
X169341114Y-99365201D01*
X169341112Y-99365201D01*
X169341112Y-99365202D01*
X169238387Y-99424511D01*
X169238384Y-99424513D01*
X169154513Y-99508384D01*
X169154511Y-99508387D01*
X169095201Y-99611114D01*
X169080323Y-99666639D01*
X169064499Y-99725694D01*
X169063439Y-99733751D01*
X169061650Y-99733515D01*
X169044815Y-99790850D01*
X169028181Y-99811492D01*
X168735510Y-100104162D01*
X168674187Y-100137647D01*
X168604495Y-100132663D01*
X168548562Y-100090791D01*
X168524145Y-100025327D01*
X168524380Y-100004809D01*
X168525359Y-99994445D01*
X168539850Y-99940371D01*
X168539850Y-99854665D01*
X168539849Y-99854661D01*
X168539849Y-96564675D01*
X168559534Y-96497636D01*
X168569897Y-96484775D01*
X168569891Y-96484770D01*
X168574829Y-96478332D01*
X168574838Y-96478324D01*
X168611545Y-96414745D01*
X168615937Y-96410557D01*
X168617923Y-96404821D01*
X168640929Y-96386727D01*
X168662111Y-96366532D01*
X168668071Y-96365383D01*
X168672844Y-96361630D01*
X168701975Y-96358848D01*
X168730718Y-96353308D01*
X168736355Y-96355564D01*
G37*
%TD.AperFunction*%
%TA.AperFunction,Conductor*%
G36*
X193102539Y-65180185D02*
G01*
X193148294Y-65232989D01*
X193159500Y-65284500D01*
X193159500Y-137535500D01*
X193139815Y-137602539D01*
X193087011Y-137648294D01*
X193035500Y-137659500D01*
X153484500Y-137659500D01*
X153417461Y-137639815D01*
X153371706Y-137587011D01*
X153360500Y-137535500D01*
X153360500Y-135410693D01*
X156659501Y-135410693D01*
X156659501Y-135529311D01*
X156690202Y-135643888D01*
X156749512Y-135746615D01*
X156833388Y-135830491D01*
X156936115Y-135889801D01*
X157050692Y-135920502D01*
X157050695Y-135920502D01*
X157169307Y-135920502D01*
X157169310Y-135920502D01*
X157283887Y-135889801D01*
X157313500Y-135872703D01*
X157381399Y-135856230D01*
X157447426Y-135879081D01*
X157490618Y-135934002D01*
X157499501Y-135980090D01*
X157499501Y-136084310D01*
X157530202Y-136198887D01*
X157589512Y-136301614D01*
X157673388Y-136385490D01*
X157776115Y-136444800D01*
X157890692Y-136475501D01*
X157890695Y-136475501D01*
X158009307Y-136475501D01*
X158009310Y-136475501D01*
X158123887Y-136444800D01*
X158226614Y-136385490D01*
X158310490Y-136301614D01*
X158342614Y-136245973D01*
X158393180Y-136197760D01*
X158461787Y-136184536D01*
X158526652Y-136210504D01*
X158557386Y-136245973D01*
X158571773Y-136270890D01*
X158589511Y-136301613D01*
X158673387Y-136385489D01*
X158776114Y-136444799D01*
X158890691Y-136475500D01*
X158890694Y-136475500D01*
X159009306Y-136475500D01*
X159009309Y-136475500D01*
X159123886Y-136444799D01*
X159226613Y-136385489D01*
X159310489Y-136301613D01*
X159369799Y-136198886D01*
X159400500Y-136084309D01*
X159400500Y-135965691D01*
X159381985Y-135896592D01*
X159383648Y-135826743D01*
X159422811Y-135768881D01*
X159487039Y-135741377D01*
X159501760Y-135740500D01*
X159609306Y-135740500D01*
X159609309Y-135740500D01*
X159723886Y-135709799D01*
X159826613Y-135650489D01*
X159910489Y-135566613D01*
X159969799Y-135463886D01*
X160000500Y-135349309D01*
X160000500Y-135230691D01*
X159969799Y-135116114D01*
X159910489Y-135013387D01*
X159826613Y-134929511D01*
X159723886Y-134870201D01*
X159609309Y-134839500D01*
X159490691Y-134839500D01*
X159376114Y-134870201D01*
X159376112Y-134870201D01*
X159376112Y-134870202D01*
X159273387Y-134929511D01*
X159273384Y-134929513D01*
X159189513Y-135013384D01*
X159189511Y-135013387D01*
X159168255Y-135050204D01*
X159130201Y-135116114D01*
X159099500Y-135230691D01*
X159099500Y-135349309D01*
X159116004Y-135410901D01*
X159118015Y-135418407D01*
X159116352Y-135488257D01*
X159077189Y-135546119D01*
X159012961Y-135573623D01*
X158998240Y-135574500D01*
X158890691Y-135574500D01*
X158776114Y-135605201D01*
X158776112Y-135605201D01*
X158776112Y-135605202D01*
X158673387Y-135664511D01*
X158673384Y-135664513D01*
X158589513Y-135748384D01*
X158589509Y-135748390D01*
X158557386Y-135804027D01*
X158506818Y-135852242D01*
X158438211Y-135865463D01*
X158373347Y-135839494D01*
X158342614Y-135804026D01*
X158310494Y-135748394D01*
X158310491Y-135748390D01*
X158310490Y-135748388D01*
X158226614Y-135664512D01*
X158123887Y-135605202D01*
X158009310Y-135574501D01*
X157890692Y-135574501D01*
X157788013Y-135602014D01*
X157776111Y-135605203D01*
X157746501Y-135622299D01*
X157678601Y-135638772D01*
X157612574Y-135615919D01*
X157569383Y-135560998D01*
X157560501Y-135514912D01*
X157560501Y-135410695D01*
X157560501Y-135410693D01*
X157529800Y-135296116D01*
X157470490Y-135193389D01*
X157386614Y-135109513D01*
X157283887Y-135050203D01*
X157169310Y-135019502D01*
X157050692Y-135019502D01*
X156936115Y-135050203D01*
X156936113Y-135050203D01*
X156936113Y-135050204D01*
X156833388Y-135109513D01*
X156833385Y-135109515D01*
X156749514Y-135193386D01*
X156749512Y-135193389D01*
X156690214Y-135296096D01*
X156690202Y-135296116D01*
X156659501Y-135410693D01*
X153360500Y-135410693D01*
X153360500Y-132496094D01*
X156635402Y-132496094D01*
X156635402Y-132614712D01*
X156666103Y-132729289D01*
X156725413Y-132832016D01*
X156809289Y-132915892D01*
X156912016Y-132975202D01*
X156912017Y-132975202D01*
X156912020Y-132975204D01*
X156919525Y-132978313D01*
X156918294Y-132981284D01*
X156965063Y-133009755D01*
X156985963Y-133048009D01*
X156988264Y-133047057D01*
X156991371Y-133054560D01*
X156999077Y-133067906D01*
X157050682Y-133157288D01*
X157134558Y-133241164D01*
X157237285Y-133300474D01*
X157351862Y-133331175D01*
X157351865Y-133331175D01*
X157470477Y-133331175D01*
X157470480Y-133331175D01*
X157585057Y-133300474D01*
X157687784Y-133241164D01*
X157771660Y-133157288D01*
X157830970Y-133054561D01*
X157861671Y-132939984D01*
X157861671Y-132821366D01*
X157830970Y-132706789D01*
X157771660Y-132604062D01*
X157687784Y-132520186D01*
X157585057Y-132460876D01*
X157576857Y-132458678D01*
X157563495Y-132451255D01*
X157549270Y-132436820D01*
X157531966Y-132426274D01*
X157529415Y-132421598D01*
X159780130Y-132421598D01*
X159780130Y-132549745D01*
X159805126Y-132675408D01*
X159805128Y-132675416D01*
X159848154Y-132779291D01*
X159854164Y-132793799D01*
X159925107Y-132899974D01*
X159925355Y-132900345D01*
X160337531Y-133312521D01*
X160337538Y-133312527D01*
X160444069Y-133383708D01*
X160444072Y-133383710D01*
X160444080Y-133383715D01*
X160461315Y-133390854D01*
X160473505Y-133395903D01*
X160473504Y-133395903D01*
X160533083Y-133420581D01*
X160562462Y-133432750D01*
X160562466Y-133432750D01*
X160562467Y-133432751D01*
X160688134Y-133457749D01*
X160688137Y-133457749D01*
X161081943Y-133457749D01*
X161148982Y-133477434D01*
X161169624Y-133494068D01*
X162481226Y-134805672D01*
X162481229Y-134805675D01*
X162481232Y-134805677D01*
X162546455Y-134849257D01*
X162587775Y-134876866D01*
X162706158Y-134925902D01*
X162706162Y-134925902D01*
X162706163Y-134925903D01*
X162831830Y-134950901D01*
X162831833Y-134950901D01*
X163569190Y-134950901D01*
X163636229Y-134970586D01*
X163656871Y-134987220D01*
X163935325Y-135265675D01*
X163935326Y-135265676D01*
X163935329Y-135265678D01*
X163935331Y-135265680D01*
X164041873Y-135336868D01*
X164160256Y-135385904D01*
X164277616Y-135409248D01*
X164285926Y-135410901D01*
X164285930Y-135410902D01*
X164285931Y-135410902D01*
X164414070Y-135410902D01*
X164414071Y-135410901D01*
X164539744Y-135385904D01*
X164658127Y-135336868D01*
X164764669Y-135265680D01*
X164855277Y-135175072D01*
X164926465Y-135068530D01*
X164975501Y-134950147D01*
X165000499Y-134824472D01*
X165000499Y-134696334D01*
X164980423Y-134595403D01*
X164986650Y-134525813D01*
X164987438Y-134523859D01*
X165001404Y-134490145D01*
X165008371Y-134455120D01*
X165026403Y-134364472D01*
X165026403Y-134236329D01*
X165001405Y-134110662D01*
X165001404Y-134110661D01*
X165001404Y-134110657D01*
X164952368Y-133992274D01*
X164952367Y-133992273D01*
X164952364Y-133992267D01*
X164881179Y-133885732D01*
X164881176Y-133885728D01*
X164790575Y-133795127D01*
X164790571Y-133795124D01*
X164684036Y-133723939D01*
X164684027Y-133723934D01*
X164565647Y-133674900D01*
X164565641Y-133674898D01*
X164439974Y-133649901D01*
X164439972Y-133649901D01*
X163954067Y-133649901D01*
X163734069Y-133649901D01*
X163216710Y-133649901D01*
X163187269Y-133641256D01*
X163157283Y-133634733D01*
X163152267Y-133630978D01*
X163149671Y-133630216D01*
X163129029Y-133613582D01*
X162990260Y-133474813D01*
X162956775Y-133413490D01*
X162961759Y-133343798D01*
X163003631Y-133287865D01*
X163015935Y-133279747D01*
X163066613Y-133250489D01*
X163150489Y-133166613D01*
X163209799Y-133063886D01*
X163240500Y-132949309D01*
X163240500Y-132830691D01*
X163209799Y-132716114D01*
X163209794Y-132716106D01*
X163206689Y-132708607D01*
X163208129Y-132708010D01*
X163193837Y-132649102D01*
X163207723Y-132601823D01*
X163206689Y-132601395D01*
X163209798Y-132593888D01*
X163209799Y-132593887D01*
X163240500Y-132479310D01*
X163240500Y-132368351D01*
X167777161Y-132368351D01*
X167777161Y-132486969D01*
X167807862Y-132601546D01*
X167867172Y-132704273D01*
X167951048Y-132788149D01*
X168053775Y-132847459D01*
X168053776Y-132847459D01*
X168053779Y-132847461D01*
X168061284Y-132850570D01*
X168060686Y-132852012D01*
X168112435Y-132883547D01*
X168136060Y-132926807D01*
X168137092Y-132926380D01*
X168140200Y-132933885D01*
X168164055Y-132975202D01*
X168199511Y-133036613D01*
X168283387Y-133120489D01*
X168386114Y-133179799D01*
X168500691Y-133210500D01*
X168500694Y-133210500D01*
X168619306Y-133210500D01*
X168619309Y-133210500D01*
X168733886Y-133179799D01*
X168836613Y-133120489D01*
X168920489Y-133036613D01*
X168979799Y-132933886D01*
X169010500Y-132819309D01*
X169010500Y-132700691D01*
X168979799Y-132586114D01*
X168920489Y-132483387D01*
X168836613Y-132399511D01*
X168769377Y-132360692D01*
X168733885Y-132340200D01*
X168726382Y-132337093D01*
X168726977Y-132335654D01*
X168675208Y-132304093D01*
X168651599Y-132260850D01*
X168650568Y-132261278D01*
X168647460Y-132253774D01*
X168635069Y-132232313D01*
X168588150Y-132151047D01*
X168504274Y-132067171D01*
X168401547Y-132007861D01*
X168286970Y-131977160D01*
X168168352Y-131977160D01*
X168053775Y-132007861D01*
X168053773Y-132007861D01*
X168053773Y-132007862D01*
X167951048Y-132067171D01*
X167951045Y-132067173D01*
X167867174Y-132151044D01*
X167867172Y-132151047D01*
X167812976Y-132244917D01*
X167807862Y-132253774D01*
X167777161Y-132368351D01*
X163240500Y-132368351D01*
X163240500Y-132360692D01*
X163209799Y-132246115D01*
X163150489Y-132143388D01*
X163066613Y-132059512D01*
X162963886Y-132000202D01*
X162849309Y-131969501D01*
X162730691Y-131969501D01*
X162616114Y-132000202D01*
X162616112Y-132000202D01*
X162616112Y-132000203D01*
X162513387Y-132059512D01*
X162513384Y-132059514D01*
X162429513Y-132143385D01*
X162429511Y-132143388D01*
X162382558Y-132224713D01*
X162370201Y-132246115D01*
X162339500Y-132360692D01*
X162339500Y-132360694D01*
X162339500Y-132479311D01*
X162345910Y-132503234D01*
X162344246Y-132573084D01*
X162305083Y-132630946D01*
X162240854Y-132658449D01*
X162171952Y-132646862D01*
X162138454Y-132623007D01*
X162076991Y-132561544D01*
X161817421Y-132301973D01*
X161817420Y-132301972D01*
X161495843Y-131980395D01*
X161170575Y-131655127D01*
X161170568Y-131655121D01*
X161064037Y-131583940D01*
X161064020Y-131583930D01*
X160945647Y-131534900D01*
X160945645Y-131534899D01*
X160945644Y-131534899D01*
X160945639Y-131534898D01*
X160945635Y-131534897D01*
X160819973Y-131509901D01*
X160819969Y-131509901D01*
X160691832Y-131509901D01*
X160691827Y-131509901D01*
X160566164Y-131534897D01*
X160566156Y-131534899D01*
X160447771Y-131583935D01*
X160341232Y-131655122D01*
X160341225Y-131655128D01*
X160250628Y-131745725D01*
X160250622Y-131745732D01*
X160179434Y-131852273D01*
X160177329Y-131856212D01*
X160128362Y-131906052D01*
X160126435Y-131907104D01*
X160122508Y-131909203D01*
X160015955Y-131980398D01*
X159925355Y-132070998D01*
X159854163Y-132177546D01*
X159805128Y-132295927D01*
X159805126Y-132295935D01*
X159780130Y-132421598D01*
X157529415Y-132421598D01*
X157523391Y-132410559D01*
X157514453Y-132401490D01*
X157511959Y-132389610D01*
X157511119Y-132388070D01*
X157508812Y-132389026D01*
X157505703Y-132381521D01*
X157505700Y-132381515D01*
X157446391Y-132278790D01*
X157362515Y-132194914D01*
X157259788Y-132135604D01*
X157145211Y-132104903D01*
X157026593Y-132104903D01*
X156912016Y-132135604D01*
X156912014Y-132135604D01*
X156912014Y-132135605D01*
X156809289Y-132194914D01*
X156809286Y-132194916D01*
X156725415Y-132278787D01*
X156725413Y-132278790D01*
X156690484Y-132339289D01*
X156666103Y-132381517D01*
X156635402Y-132496094D01*
X153360500Y-132496094D01*
X153360500Y-127340691D01*
X160749500Y-127340691D01*
X160749500Y-127459309D01*
X160780201Y-127573886D01*
X160839511Y-127676613D01*
X160923387Y-127760489D01*
X161026114Y-127819799D01*
X161140691Y-127850500D01*
X161140694Y-127850500D01*
X161259306Y-127850500D01*
X161259309Y-127850500D01*
X161373886Y-127819799D01*
X161476613Y-127760489D01*
X161560489Y-127676613D01*
X161619799Y-127573886D01*
X161650500Y-127459309D01*
X161650500Y-127340691D01*
X161619799Y-127226114D01*
X161560489Y-127123387D01*
X161476613Y-127039511D01*
X161373886Y-126980201D01*
X161259309Y-126949500D01*
X161140691Y-126949500D01*
X161026114Y-126980201D01*
X161026112Y-126980201D01*
X161026112Y-126980202D01*
X160923387Y-127039511D01*
X160923384Y-127039513D01*
X160839513Y-127123384D01*
X160839511Y-127123387D01*
X160783449Y-127220489D01*
X160780201Y-127226114D01*
X160749500Y-127340691D01*
X153360500Y-127340691D01*
X153360500Y-126640691D01*
X157374500Y-126640691D01*
X157374500Y-126759309D01*
X157405201Y-126873886D01*
X157464511Y-126976613D01*
X157548387Y-127060489D01*
X157651114Y-127119799D01*
X157765691Y-127150500D01*
X157765694Y-127150500D01*
X157884306Y-127150500D01*
X157884309Y-127150500D01*
X157998886Y-127119799D01*
X158101613Y-127060489D01*
X158185489Y-126976613D01*
X158244799Y-126873886D01*
X158275500Y-126759309D01*
X158275500Y-126650691D01*
X168539500Y-126650691D01*
X168539500Y-126769309D01*
X168570201Y-126883886D01*
X168629511Y-126986613D01*
X168713387Y-127070489D01*
X168816114Y-127129799D01*
X168930691Y-127160500D01*
X168930694Y-127160500D01*
X169049306Y-127160500D01*
X169049309Y-127160500D01*
X169163886Y-127129799D01*
X169266613Y-127070489D01*
X169350489Y-126986613D01*
X169409799Y-126883886D01*
X169440500Y-126769309D01*
X169440500Y-126660691D01*
X171589500Y-126660691D01*
X171589500Y-126779309D01*
X171620201Y-126893886D01*
X171679511Y-126996613D01*
X171763387Y-127080489D01*
X171866114Y-127139799D01*
X171980691Y-127170500D01*
X171980694Y-127170500D01*
X172099306Y-127170500D01*
X172099309Y-127170500D01*
X172213886Y-127139799D01*
X172316613Y-127080489D01*
X172400489Y-126996613D01*
X172459799Y-126893886D01*
X172490500Y-126779309D01*
X172490500Y-126660691D01*
X172485141Y-126640691D01*
X179529500Y-126640691D01*
X179529500Y-126759309D01*
X179560201Y-126873886D01*
X179619511Y-126976613D01*
X179703387Y-127060489D01*
X179806114Y-127119799D01*
X179920691Y-127150500D01*
X179920694Y-127150500D01*
X180039306Y-127150500D01*
X180039309Y-127150500D01*
X180153886Y-127119799D01*
X180256613Y-127060489D01*
X180340489Y-126976613D01*
X180399799Y-126873886D01*
X180430500Y-126759309D01*
X180430500Y-126640691D01*
X182599500Y-126640691D01*
X182599500Y-126759309D01*
X182630201Y-126873886D01*
X182689511Y-126976613D01*
X182773387Y-127060489D01*
X182876114Y-127119799D01*
X182990691Y-127150500D01*
X182990694Y-127150500D01*
X183109306Y-127150500D01*
X183109309Y-127150500D01*
X183223886Y-127119799D01*
X183326613Y-127060489D01*
X183410489Y-126976613D01*
X183469799Y-126873886D01*
X183500500Y-126759309D01*
X183500500Y-126640691D01*
X183469799Y-126526114D01*
X183410489Y-126423387D01*
X183326613Y-126339511D01*
X183223886Y-126280201D01*
X183109309Y-126249500D01*
X182990691Y-126249500D01*
X182876114Y-126280201D01*
X182876112Y-126280201D01*
X182876112Y-126280202D01*
X182773387Y-126339511D01*
X182773384Y-126339513D01*
X182689513Y-126423384D01*
X182689511Y-126423387D01*
X182634020Y-126519500D01*
X182630201Y-126526114D01*
X182599500Y-126640691D01*
X180430500Y-126640691D01*
X180399799Y-126526114D01*
X180340489Y-126423387D01*
X180256613Y-126339511D01*
X180153886Y-126280201D01*
X180039309Y-126249500D01*
X179920691Y-126249500D01*
X179806114Y-126280201D01*
X179806112Y-126280201D01*
X179806112Y-126280202D01*
X179703387Y-126339511D01*
X179703384Y-126339513D01*
X179619513Y-126423384D01*
X179619511Y-126423387D01*
X179564020Y-126519500D01*
X179560201Y-126526114D01*
X179529500Y-126640691D01*
X172485141Y-126640691D01*
X172459799Y-126546114D01*
X172400489Y-126443387D01*
X172316613Y-126359511D01*
X172213886Y-126300201D01*
X172099309Y-126269500D01*
X171980691Y-126269500D01*
X171866114Y-126300201D01*
X171866112Y-126300201D01*
X171866112Y-126300202D01*
X171763387Y-126359511D01*
X171763384Y-126359513D01*
X171679513Y-126443384D01*
X171679511Y-126443387D01*
X171625975Y-126536114D01*
X171620201Y-126546114D01*
X171589500Y-126660691D01*
X169440500Y-126660691D01*
X169440500Y-126650691D01*
X169409799Y-126536114D01*
X169350489Y-126433387D01*
X169266613Y-126349511D01*
X169163886Y-126290201D01*
X169049309Y-126259500D01*
X168930691Y-126259500D01*
X168816114Y-126290201D01*
X168816112Y-126290201D01*
X168816112Y-126290202D01*
X168713387Y-126349511D01*
X168713384Y-126349513D01*
X168629513Y-126433384D01*
X168629511Y-126433387D01*
X168575945Y-126526166D01*
X168570201Y-126536114D01*
X168539500Y-126650691D01*
X158275500Y-126650691D01*
X158275500Y-126640691D01*
X158244799Y-126526114D01*
X158185489Y-126423387D01*
X158101613Y-126339511D01*
X157998886Y-126280201D01*
X157884309Y-126249500D01*
X157765691Y-126249500D01*
X157651114Y-126280201D01*
X157651112Y-126280201D01*
X157651112Y-126280202D01*
X157548387Y-126339511D01*
X157548384Y-126339513D01*
X157464513Y-126423384D01*
X157464511Y-126423387D01*
X157409020Y-126519500D01*
X157405201Y-126526114D01*
X157374500Y-126640691D01*
X153360500Y-126640691D01*
X153360500Y-125489319D01*
X159448128Y-125489319D01*
X159448128Y-125607937D01*
X159478829Y-125722514D01*
X159538139Y-125825241D01*
X159622015Y-125909117D01*
X159724742Y-125968427D01*
X159839319Y-125999128D01*
X159839322Y-125999128D01*
X159957934Y-125999128D01*
X159957937Y-125999128D01*
X160072514Y-125968427D01*
X160175241Y-125909117D01*
X160259117Y-125825241D01*
X160318427Y-125722514D01*
X160349128Y-125607937D01*
X160349128Y-125489319D01*
X160346816Y-125480691D01*
X162569500Y-125480691D01*
X162569500Y-125599309D01*
X162600201Y-125713886D01*
X162659511Y-125816613D01*
X162743387Y-125900489D01*
X162846114Y-125959799D01*
X162960691Y-125990500D01*
X162960694Y-125990500D01*
X163079306Y-125990500D01*
X163079309Y-125990500D01*
X163193886Y-125959799D01*
X163296613Y-125900489D01*
X163380489Y-125816613D01*
X163439799Y-125713886D01*
X163470500Y-125599309D01*
X163470500Y-125480691D01*
X163462461Y-125450691D01*
X170479500Y-125450691D01*
X170479500Y-125569309D01*
X170510201Y-125683886D01*
X170569511Y-125786613D01*
X170653387Y-125870489D01*
X170756114Y-125929799D01*
X170870691Y-125960500D01*
X170870694Y-125960500D01*
X170989306Y-125960500D01*
X170989309Y-125960500D01*
X171103886Y-125929799D01*
X171206613Y-125870489D01*
X171290489Y-125786613D01*
X171349799Y-125683886D01*
X171380500Y-125569309D01*
X171380500Y-125480691D01*
X173619500Y-125480691D01*
X173619500Y-125599309D01*
X173650201Y-125713886D01*
X173709511Y-125816613D01*
X173793387Y-125900489D01*
X173896114Y-125959799D01*
X174010691Y-125990500D01*
X174010694Y-125990500D01*
X174129306Y-125990500D01*
X174129309Y-125990500D01*
X174243886Y-125959799D01*
X174346613Y-125900489D01*
X174430489Y-125816613D01*
X174489799Y-125713886D01*
X174520500Y-125599309D01*
X174520500Y-125490691D01*
X181449500Y-125490691D01*
X181449500Y-125609309D01*
X181480201Y-125723886D01*
X181539511Y-125826613D01*
X181623387Y-125910489D01*
X181726114Y-125969799D01*
X181840691Y-126000500D01*
X181840694Y-126000500D01*
X181959306Y-126000500D01*
X181959309Y-126000500D01*
X182073886Y-125969799D01*
X182176613Y-125910489D01*
X182260489Y-125826613D01*
X182319799Y-125723886D01*
X182350500Y-125609309D01*
X182350500Y-125490691D01*
X184629500Y-125490691D01*
X184629500Y-125609309D01*
X184660201Y-125723886D01*
X184719511Y-125826613D01*
X184803387Y-125910489D01*
X184906114Y-125969799D01*
X185020691Y-126000500D01*
X185020694Y-126000500D01*
X185139306Y-126000500D01*
X185139309Y-126000500D01*
X185253886Y-125969799D01*
X185356613Y-125910489D01*
X185440489Y-125826613D01*
X185499799Y-125723886D01*
X185530500Y-125609309D01*
X185530500Y-125490691D01*
X185499799Y-125376114D01*
X185440489Y-125273387D01*
X185356613Y-125189511D01*
X185253886Y-125130201D01*
X185139309Y-125099500D01*
X185020691Y-125099500D01*
X184906114Y-125130201D01*
X184906112Y-125130201D01*
X184906112Y-125130202D01*
X184803387Y-125189511D01*
X184803384Y-125189513D01*
X184719513Y-125273384D01*
X184719511Y-125273387D01*
X184665975Y-125366114D01*
X184660201Y-125376114D01*
X184629500Y-125490691D01*
X182350500Y-125490691D01*
X182319799Y-125376114D01*
X182260489Y-125273387D01*
X182176613Y-125189511D01*
X182073886Y-125130201D01*
X181959309Y-125099500D01*
X181840691Y-125099500D01*
X181726114Y-125130201D01*
X181726112Y-125130201D01*
X181726112Y-125130202D01*
X181623387Y-125189511D01*
X181623384Y-125189513D01*
X181539513Y-125273384D01*
X181539511Y-125273387D01*
X181485975Y-125366114D01*
X181480201Y-125376114D01*
X181449500Y-125490691D01*
X174520500Y-125490691D01*
X174520500Y-125480691D01*
X174489799Y-125366114D01*
X174430489Y-125263387D01*
X174346613Y-125179511D01*
X174243886Y-125120201D01*
X174129309Y-125089500D01*
X174010691Y-125089500D01*
X173896114Y-125120201D01*
X173896112Y-125120201D01*
X173896112Y-125120202D01*
X173793387Y-125179511D01*
X173793384Y-125179513D01*
X173709513Y-125263384D01*
X173709511Y-125263387D01*
X173650201Y-125366114D01*
X173619500Y-125480691D01*
X171380500Y-125480691D01*
X171380500Y-125450691D01*
X171349799Y-125336114D01*
X171290489Y-125233387D01*
X171206613Y-125149511D01*
X171103886Y-125090201D01*
X170989309Y-125059500D01*
X170870691Y-125059500D01*
X170756114Y-125090201D01*
X170756112Y-125090201D01*
X170756112Y-125090202D01*
X170653387Y-125149511D01*
X170653384Y-125149513D01*
X170569513Y-125233384D01*
X170569511Y-125233387D01*
X170546419Y-125273384D01*
X170510201Y-125336114D01*
X170479500Y-125450691D01*
X163462461Y-125450691D01*
X163439799Y-125366114D01*
X163380489Y-125263387D01*
X163296613Y-125179511D01*
X163193886Y-125120201D01*
X163079309Y-125089500D01*
X162960691Y-125089500D01*
X162846114Y-125120201D01*
X162846112Y-125120201D01*
X162846112Y-125120202D01*
X162743387Y-125179511D01*
X162743384Y-125179513D01*
X162659513Y-125263384D01*
X162659511Y-125263387D01*
X162600201Y-125366114D01*
X162569500Y-125480691D01*
X160346816Y-125480691D01*
X160318427Y-125374742D01*
X160259117Y-125272015D01*
X160175241Y-125188139D01*
X160072514Y-125128829D01*
X159957937Y-125098128D01*
X159839319Y-125098128D01*
X159724742Y-125128829D01*
X159724740Y-125128829D01*
X159724740Y-125128830D01*
X159622015Y-125188139D01*
X159622012Y-125188141D01*
X159538141Y-125272012D01*
X159538139Y-125272015D01*
X159483812Y-125366112D01*
X159478829Y-125374742D01*
X159448128Y-125489319D01*
X153360500Y-125489319D01*
X153360500Y-124020691D01*
X167769500Y-124020691D01*
X167769500Y-124139309D01*
X167800201Y-124253886D01*
X167859511Y-124356613D01*
X167943387Y-124440489D01*
X168046114Y-124499799D01*
X168160691Y-124530500D01*
X168160694Y-124530500D01*
X168279306Y-124530500D01*
X168279309Y-124530500D01*
X168393886Y-124499799D01*
X168496613Y-124440489D01*
X168580489Y-124356613D01*
X168639799Y-124253886D01*
X168670500Y-124139309D01*
X168670500Y-124020691D01*
X168639799Y-123906114D01*
X168580489Y-123803387D01*
X168496613Y-123719511D01*
X168393886Y-123660201D01*
X168279309Y-123629500D01*
X168160691Y-123629500D01*
X168046114Y-123660201D01*
X168046112Y-123660201D01*
X168046112Y-123660202D01*
X167943387Y-123719511D01*
X167943384Y-123719513D01*
X167859513Y-123803384D01*
X167859511Y-123803387D01*
X167800201Y-123906114D01*
X167769500Y-124020691D01*
X153360500Y-124020691D01*
X153360500Y-115860691D01*
X156069500Y-115860691D01*
X156069500Y-115979309D01*
X156100201Y-116093886D01*
X156159511Y-116196613D01*
X156243387Y-116280489D01*
X156346114Y-116339799D01*
X156460691Y-116370500D01*
X156460694Y-116370500D01*
X156579306Y-116370500D01*
X156579309Y-116370500D01*
X156693886Y-116339799D01*
X156796613Y-116280489D01*
X156880489Y-116196613D01*
X156939799Y-116093886D01*
X156970500Y-115979309D01*
X156970500Y-115860691D01*
X156939799Y-115746114D01*
X156880489Y-115643387D01*
X156796613Y-115559511D01*
X156693886Y-115500201D01*
X156579309Y-115469500D01*
X156460691Y-115469500D01*
X156346114Y-115500201D01*
X156346112Y-115500201D01*
X156346112Y-115500202D01*
X156243387Y-115559511D01*
X156243384Y-115559513D01*
X156159513Y-115643384D01*
X156159511Y-115643387D01*
X156100201Y-115746114D01*
X156069500Y-115860691D01*
X153360500Y-115860691D01*
X153360500Y-101265691D01*
X156099500Y-101265691D01*
X156099500Y-101384309D01*
X156130201Y-101498886D01*
X156189511Y-101601613D01*
X156273387Y-101685489D01*
X156376114Y-101744799D01*
X156490691Y-101775500D01*
X156490694Y-101775500D01*
X156609306Y-101775500D01*
X156609309Y-101775500D01*
X156723886Y-101744799D01*
X156826613Y-101685489D01*
X156910489Y-101601613D01*
X156969799Y-101498886D01*
X157000500Y-101384309D01*
X157000500Y-101265691D01*
X156969799Y-101151114D01*
X156910489Y-101048387D01*
X156826613Y-100964511D01*
X156723886Y-100905201D01*
X156609309Y-100874500D01*
X156490691Y-100874500D01*
X156376114Y-100905201D01*
X156376112Y-100905201D01*
X156376112Y-100905202D01*
X156273387Y-100964511D01*
X156273384Y-100964513D01*
X156189513Y-101048384D01*
X156189511Y-101048387D01*
X156130201Y-101151114D01*
X156099500Y-101265691D01*
X153360500Y-101265691D01*
X153360500Y-99215691D01*
X154374500Y-99215691D01*
X154374500Y-99334309D01*
X154405201Y-99448886D01*
X154464511Y-99551613D01*
X154548387Y-99635489D01*
X154651114Y-99694799D01*
X154765691Y-99725500D01*
X154765694Y-99725500D01*
X154884307Y-99725500D01*
X154884309Y-99725500D01*
X154921837Y-99715444D01*
X154991684Y-99717105D01*
X155049547Y-99756266D01*
X155077053Y-99820494D01*
X155065468Y-99889397D01*
X155061317Y-99897218D01*
X155030202Y-99951110D01*
X155030201Y-99951114D01*
X154999500Y-100065691D01*
X154999500Y-100184309D01*
X155030201Y-100298886D01*
X155089511Y-100401613D01*
X155173387Y-100485489D01*
X155276114Y-100544799D01*
X155390691Y-100575500D01*
X155390694Y-100575500D01*
X155509306Y-100575500D01*
X155509309Y-100575500D01*
X155623886Y-100544799D01*
X155726613Y-100485489D01*
X155810489Y-100401613D01*
X155869799Y-100298886D01*
X155900500Y-100184309D01*
X155900500Y-100184305D01*
X155901561Y-100176249D01*
X155903349Y-100176484D01*
X155909144Y-100156748D01*
X155915668Y-100126762D01*
X155919422Y-100121746D01*
X155920185Y-100119150D01*
X155936819Y-100098508D01*
X156098508Y-99936819D01*
X156159831Y-99903334D01*
X156186189Y-99900500D01*
X156694502Y-99900500D01*
X156761541Y-99920185D01*
X156807296Y-99972989D01*
X156817240Y-100042147D01*
X156805623Y-100075709D01*
X156806648Y-100076134D01*
X156803537Y-100083643D01*
X156791984Y-100126762D01*
X156772835Y-100198225D01*
X156772835Y-100316843D01*
X156803536Y-100431420D01*
X156862846Y-100534147D01*
X156946722Y-100618023D01*
X157049449Y-100677333D01*
X157164026Y-100708034D01*
X157164029Y-100708034D01*
X157172086Y-100709095D01*
X157171850Y-100710883D01*
X157229185Y-100727719D01*
X157249827Y-100744353D01*
X157900612Y-101395138D01*
X157974835Y-101437991D01*
X158057621Y-101460173D01*
X158057623Y-101460173D01*
X164103153Y-101460173D01*
X164103155Y-101460173D01*
X164185941Y-101437991D01*
X164260164Y-101395138D01*
X166247938Y-99407362D01*
X166309259Y-99373879D01*
X166378950Y-99378863D01*
X166434884Y-99420735D01*
X166455392Y-99462951D01*
X166480938Y-99558291D01*
X166481644Y-99559513D01*
X166540248Y-99661017D01*
X166624124Y-99744893D01*
X166726851Y-99804203D01*
X166775262Y-99817174D01*
X166795234Y-99829348D01*
X166817173Y-99837455D01*
X166827424Y-99848969D01*
X166834921Y-99853539D01*
X166842206Y-99862335D01*
X166846770Y-99868393D01*
X166900247Y-99961017D01*
X166966353Y-100027123D01*
X166971574Y-100034053D01*
X166980948Y-100058955D01*
X166993701Y-100082309D01*
X166993068Y-100091149D01*
X166996191Y-100099443D01*
X166990615Y-100125456D01*
X166988717Y-100152001D01*
X166983028Y-100160851D01*
X166981548Y-100167761D01*
X166973172Y-100176188D01*
X166960216Y-100196348D01*
X164048384Y-103108181D01*
X163987061Y-103141666D01*
X163960703Y-103144500D01*
X158920900Y-103144500D01*
X158853861Y-103124815D01*
X158841000Y-103114451D01*
X158840995Y-103114458D01*
X158834552Y-103109514D01*
X158834549Y-103109511D01*
X158731822Y-103050201D01*
X158617245Y-103019500D01*
X158498627Y-103019500D01*
X158418087Y-103041080D01*
X158384045Y-103050202D01*
X158384042Y-103050203D01*
X158357771Y-103065371D01*
X158357741Y-103065390D01*
X158281323Y-103109511D01*
X158263894Y-103126939D01*
X158263892Y-103126941D01*
X158197447Y-103193387D01*
X158138137Y-103296114D01*
X158107436Y-103410691D01*
X158107436Y-103410693D01*
X158107436Y-103529308D01*
X158131310Y-103618407D01*
X158129647Y-103688256D01*
X158090484Y-103746119D01*
X158026256Y-103773623D01*
X158011535Y-103774500D01*
X157256188Y-103774500D01*
X157189149Y-103754815D01*
X157168507Y-103738181D01*
X156360148Y-102929821D01*
X156326663Y-102868498D01*
X156331647Y-102798806D01*
X156372350Y-102743759D01*
X156376605Y-102740493D01*
X156376613Y-102740489D01*
X156460489Y-102656613D01*
X156519799Y-102553886D01*
X156544771Y-102460691D01*
X157469500Y-102460691D01*
X157469500Y-102579309D01*
X157500201Y-102693886D01*
X157559511Y-102796613D01*
X157643387Y-102880489D01*
X157746114Y-102939799D01*
X157860691Y-102970500D01*
X157860694Y-102970500D01*
X157979306Y-102970500D01*
X157979309Y-102970500D01*
X158093886Y-102939799D01*
X158196613Y-102880489D01*
X158280489Y-102796613D01*
X158339799Y-102693886D01*
X158370500Y-102579309D01*
X158370500Y-102460691D01*
X158339799Y-102346114D01*
X158280489Y-102243387D01*
X158196613Y-102159511D01*
X158093886Y-102100201D01*
X157979309Y-102069500D01*
X157860691Y-102069500D01*
X157746114Y-102100201D01*
X157746112Y-102100201D01*
X157746112Y-102100202D01*
X157643387Y-102159511D01*
X157643384Y-102159513D01*
X157559513Y-102243384D01*
X157559511Y-102243387D01*
X157505975Y-102336114D01*
X157500201Y-102346114D01*
X157469500Y-102460691D01*
X156544771Y-102460691D01*
X156550500Y-102439309D01*
X156550500Y-102320691D01*
X156519799Y-102206114D01*
X156460489Y-102103387D01*
X156376613Y-102019511D01*
X156273886Y-101960201D01*
X156159309Y-101929500D01*
X156040691Y-101929500D01*
X155926114Y-101960201D01*
X155926112Y-101960201D01*
X155926112Y-101960202D01*
X155823387Y-102019511D01*
X155823383Y-102019514D01*
X155782341Y-102060556D01*
X155721018Y-102094040D01*
X155662394Y-102089846D01*
X155661736Y-102092305D01*
X155653887Y-102090202D01*
X155653886Y-102090201D01*
X155539309Y-102059500D01*
X155420691Y-102059500D01*
X155306114Y-102090201D01*
X155306112Y-102090201D01*
X155306112Y-102090202D01*
X155203387Y-102149511D01*
X155203384Y-102149513D01*
X155119513Y-102233384D01*
X155119511Y-102233387D01*
X155069106Y-102320691D01*
X155060201Y-102336114D01*
X155029500Y-102450691D01*
X155029500Y-102569309D01*
X155060201Y-102683886D01*
X155119511Y-102786613D01*
X155203387Y-102870489D01*
X155306114Y-102929799D01*
X155420691Y-102960500D01*
X155420694Y-102960500D01*
X155428751Y-102961561D01*
X155428515Y-102963349D01*
X155485850Y-102980185D01*
X155506492Y-102996819D01*
X156805194Y-104295520D01*
X156805204Y-104295531D01*
X156809534Y-104299861D01*
X156809535Y-104299862D01*
X156870138Y-104360465D01*
X156870140Y-104360466D01*
X156870144Y-104360469D01*
X156944355Y-104403314D01*
X156944362Y-104403318D01*
X157027148Y-104425501D01*
X157027150Y-104425501D01*
X157120449Y-104425501D01*
X157120465Y-104425500D01*
X157996562Y-104425500D01*
X158063601Y-104445185D01*
X158109356Y-104497989D01*
X158119300Y-104567147D01*
X158090275Y-104630703D01*
X158084243Y-104637181D01*
X157829670Y-104891754D01*
X157768347Y-104925239D01*
X157698655Y-104920255D01*
X157679988Y-104911460D01*
X157676614Y-104909512D01*
X157676613Y-104909511D01*
X157573886Y-104850201D01*
X157459309Y-104819500D01*
X157340691Y-104819500D01*
X157226114Y-104850201D01*
X157226112Y-104850201D01*
X157226112Y-104850202D01*
X157123387Y-104909511D01*
X157123384Y-104909513D01*
X157039513Y-104993384D01*
X157039511Y-104993387D01*
X156984020Y-105089500D01*
X156980201Y-105096114D01*
X156949500Y-105210691D01*
X156949500Y-105210693D01*
X156949500Y-105329308D01*
X156972034Y-105413407D01*
X156970371Y-105483257D01*
X156931208Y-105541119D01*
X156866980Y-105568623D01*
X156852259Y-105569500D01*
X156005862Y-105569500D01*
X155938823Y-105549815D01*
X155893068Y-105497011D01*
X155883124Y-105427853D01*
X155898476Y-105383499D01*
X155909796Y-105363891D01*
X155909797Y-105363890D01*
X155909798Y-105363887D01*
X155909799Y-105363886D01*
X155940500Y-105249309D01*
X155940500Y-105130691D01*
X155909799Y-105016114D01*
X155850489Y-104913387D01*
X155766613Y-104829511D01*
X155663886Y-104770201D01*
X155549309Y-104739500D01*
X155430691Y-104739500D01*
X155316114Y-104770201D01*
X155316112Y-104770201D01*
X155316112Y-104770202D01*
X155213387Y-104829511D01*
X155213384Y-104829513D01*
X155129513Y-104913384D01*
X155129511Y-104913387D01*
X155083323Y-104993387D01*
X155070201Y-105016114D01*
X155039500Y-105130691D01*
X155039500Y-105249309D01*
X155070201Y-105363886D01*
X155129511Y-105466613D01*
X155213387Y-105550489D01*
X155244796Y-105568623D01*
X155251568Y-105572533D01*
X155299784Y-105623100D01*
X155313006Y-105691707D01*
X155287038Y-105756572D01*
X155230124Y-105797100D01*
X155221665Y-105799694D01*
X155201113Y-105805201D01*
X155098387Y-105864511D01*
X155098384Y-105864513D01*
X155014513Y-105948384D01*
X155014511Y-105948387D01*
X154955201Y-106051114D01*
X154924500Y-106165691D01*
X154924500Y-106284309D01*
X154955201Y-106398886D01*
X155014511Y-106501613D01*
X155098387Y-106585489D01*
X155201114Y-106644799D01*
X155315691Y-106675500D01*
X155315694Y-106675500D01*
X155363331Y-106675500D01*
X155430370Y-106695185D01*
X155476125Y-106747989D01*
X155483103Y-106767398D01*
X155490201Y-106793886D01*
X155549511Y-106896613D01*
X155633387Y-106980489D01*
X155736114Y-107039799D01*
X155850691Y-107070500D01*
X155850694Y-107070500D01*
X155969306Y-107070500D01*
X155969309Y-107070500D01*
X156083886Y-107039799D01*
X156186613Y-106980489D01*
X156270489Y-106896613D01*
X156329799Y-106793886D01*
X156360500Y-106679309D01*
X156360500Y-106679299D01*
X156360631Y-106678311D01*
X156360975Y-106677533D01*
X156362603Y-106671458D01*
X156363550Y-106671711D01*
X156388900Y-106614415D01*
X156447225Y-106575946D01*
X156483570Y-106570500D01*
X157279811Y-106570500D01*
X157346850Y-106590185D01*
X157392605Y-106642989D01*
X157402549Y-106712147D01*
X157373524Y-106775703D01*
X157367492Y-106782181D01*
X155941492Y-108208181D01*
X155880169Y-108241666D01*
X155853811Y-108244500D01*
X155428334Y-108244500D01*
X155361295Y-108224815D01*
X155315540Y-108172011D01*
X155305596Y-108102853D01*
X155320947Y-108058499D01*
X155369799Y-107973886D01*
X155400500Y-107859309D01*
X155400500Y-107740691D01*
X155369799Y-107626114D01*
X155310489Y-107523387D01*
X155226613Y-107439511D01*
X155123886Y-107380201D01*
X155009309Y-107349500D01*
X154890691Y-107349500D01*
X154776114Y-107380201D01*
X154776112Y-107380201D01*
X154776112Y-107380202D01*
X154673387Y-107439511D01*
X154673384Y-107439513D01*
X154589513Y-107523384D01*
X154589511Y-107523387D01*
X154530201Y-107626114D01*
X154499500Y-107740691D01*
X154499500Y-107859309D01*
X154530201Y-107973886D01*
X154589511Y-108076613D01*
X154589512Y-108076614D01*
X154591999Y-108080921D01*
X154608472Y-108148821D01*
X154585620Y-108214848D01*
X154572295Y-108230602D01*
X154509511Y-108293387D01*
X154480355Y-108343887D01*
X154450201Y-108396114D01*
X154419500Y-108510691D01*
X154419500Y-108629309D01*
X154450201Y-108743886D01*
X154509511Y-108846613D01*
X154593387Y-108930489D01*
X154696114Y-108989799D01*
X154810691Y-109020500D01*
X154810694Y-109020500D01*
X154929303Y-109020500D01*
X154929309Y-109020500D01*
X154929314Y-109020498D01*
X154933068Y-109020004D01*
X154936250Y-109020500D01*
X154937436Y-109020500D01*
X154937436Y-109020684D01*
X155002104Y-109030764D01*
X155054364Y-109077140D01*
X155073254Y-109144408D01*
X155056652Y-109204940D01*
X155050202Y-109216112D01*
X155050201Y-109216114D01*
X155019500Y-109330691D01*
X155019500Y-109449309D01*
X155050201Y-109563886D01*
X155109511Y-109666613D01*
X155193387Y-109750489D01*
X155296114Y-109809799D01*
X155410691Y-109840500D01*
X155410694Y-109840500D01*
X155529306Y-109840500D01*
X155529309Y-109840500D01*
X155643886Y-109809799D01*
X155746613Y-109750489D01*
X155746620Y-109750481D01*
X155753059Y-109745542D01*
X155754157Y-109746973D01*
X155806606Y-109718334D01*
X155832964Y-109715500D01*
X156361356Y-109715500D01*
X156428395Y-109735185D01*
X156449037Y-109751819D01*
X156742590Y-110045371D01*
X156776075Y-110106694D01*
X156771091Y-110176385D01*
X156729220Y-110232319D01*
X156702359Y-110247614D01*
X156696116Y-110250199D01*
X156593387Y-110309511D01*
X156593384Y-110309513D01*
X156509513Y-110393384D01*
X156509511Y-110393387D01*
X156450201Y-110496114D01*
X156419500Y-110610691D01*
X156419500Y-110729309D01*
X156450201Y-110843886D01*
X156509511Y-110946613D01*
X156593387Y-111030489D01*
X156696114Y-111089799D01*
X156810691Y-111120500D01*
X156810694Y-111120500D01*
X156929306Y-111120500D01*
X156929309Y-111120500D01*
X157043886Y-111089799D01*
X157146613Y-111030489D01*
X157230489Y-110946613D01*
X157289799Y-110843886D01*
X157320500Y-110729309D01*
X157320500Y-110729305D01*
X157320580Y-110728700D01*
X157320789Y-110728226D01*
X157322603Y-110721458D01*
X157323658Y-110721740D01*
X157348846Y-110664804D01*
X157407170Y-110626332D01*
X157477035Y-110625500D01*
X157531198Y-110657202D01*
X157717381Y-110843386D01*
X157845008Y-110971013D01*
X157878493Y-111032336D01*
X157873509Y-111102028D01*
X157831637Y-111157961D01*
X157789422Y-111178468D01*
X157682919Y-111207006D01*
X157682917Y-111207006D01*
X157682917Y-111207007D01*
X157580192Y-111266316D01*
X157580189Y-111266318D01*
X157496318Y-111350189D01*
X157496316Y-111350192D01*
X157438507Y-111450320D01*
X157437006Y-111452919D01*
X157406305Y-111567496D01*
X157406305Y-111686114D01*
X157437006Y-111800691D01*
X157496316Y-111903418D01*
X157580192Y-111987294D01*
X157591035Y-111993554D01*
X157639250Y-112044120D01*
X157653035Y-112100941D01*
X157653035Y-112451623D01*
X157633350Y-112518662D01*
X157580546Y-112564417D01*
X157511388Y-112574361D01*
X157447832Y-112545336D01*
X157441354Y-112539304D01*
X156653665Y-111751615D01*
X156620180Y-111690292D01*
X156618414Y-111673872D01*
X156618407Y-111673874D01*
X156617346Y-111665817D01*
X156617346Y-111665814D01*
X156586645Y-111551237D01*
X156527335Y-111448510D01*
X156443459Y-111364634D01*
X156340732Y-111305324D01*
X156226155Y-111274623D01*
X156107537Y-111274623D01*
X155992960Y-111305324D01*
X155992958Y-111305324D01*
X155992958Y-111305325D01*
X155890233Y-111364634D01*
X155890229Y-111364637D01*
X155854317Y-111400549D01*
X155792994Y-111434034D01*
X155734545Y-111432642D01*
X155641073Y-111407596D01*
X155522455Y-111407596D01*
X155407878Y-111438297D01*
X155407876Y-111438297D01*
X155407876Y-111438298D01*
X155305151Y-111497607D01*
X155305148Y-111497609D01*
X155221277Y-111581480D01*
X155221275Y-111581483D01*
X155167933Y-111673874D01*
X155161965Y-111684210D01*
X155131264Y-111798787D01*
X155131264Y-111917405D01*
X155161965Y-112031982D01*
X155221275Y-112134709D01*
X155305151Y-112218585D01*
X155407878Y-112277895D01*
X155522455Y-112308596D01*
X155522458Y-112308596D01*
X155530515Y-112309657D01*
X155530279Y-112311445D01*
X155587614Y-112328281D01*
X155608256Y-112344915D01*
X157298528Y-114035187D01*
X157332013Y-114096510D01*
X157327029Y-114166202D01*
X157285157Y-114222135D01*
X157272849Y-114230254D01*
X157165890Y-114292009D01*
X157165884Y-114292013D01*
X157082013Y-114375884D01*
X157082011Y-114375887D01*
X157068118Y-114399951D01*
X157022701Y-114478614D01*
X156992000Y-114593191D01*
X156992000Y-114711809D01*
X157022701Y-114826386D01*
X157082011Y-114929113D01*
X157165887Y-115012989D01*
X157268614Y-115072299D01*
X157383191Y-115103000D01*
X157383194Y-115103000D01*
X157501806Y-115103000D01*
X157501809Y-115103000D01*
X157616386Y-115072299D01*
X157719113Y-115012989D01*
X157802989Y-114929113D01*
X157862299Y-114826386D01*
X157893000Y-114711809D01*
X157893000Y-114593191D01*
X157874995Y-114525995D01*
X157876658Y-114456146D01*
X157915821Y-114398284D01*
X157980049Y-114370780D01*
X157994770Y-114369903D01*
X158447773Y-114369903D01*
X158514812Y-114389588D01*
X158527672Y-114399951D01*
X158527678Y-114399945D01*
X158534119Y-114404887D01*
X158534124Y-114404892D01*
X158636851Y-114464202D01*
X158751428Y-114494903D01*
X158751431Y-114494903D01*
X158870043Y-114494903D01*
X158870046Y-114494903D01*
X158984623Y-114464202D01*
X159087350Y-114404892D01*
X159165779Y-114326462D01*
X159227098Y-114292980D01*
X159296790Y-114297964D01*
X159341138Y-114326465D01*
X160490769Y-115476095D01*
X160524254Y-115537418D01*
X160519270Y-115607110D01*
X160510475Y-115625776D01*
X160455202Y-115721511D01*
X160455201Y-115721515D01*
X160424500Y-115836092D01*
X160424500Y-115954710D01*
X160455201Y-116069287D01*
X160514511Y-116172014D01*
X160598387Y-116255890D01*
X160701114Y-116315200D01*
X160815691Y-116345901D01*
X160815694Y-116345901D01*
X160882557Y-116345901D01*
X160949596Y-116365586D01*
X160995351Y-116418390D01*
X161005295Y-116487548D01*
X160976270Y-116551104D01*
X160944559Y-116577287D01*
X160923390Y-116589509D01*
X160923384Y-116589513D01*
X160839513Y-116673384D01*
X160839511Y-116673387D01*
X160785613Y-116766741D01*
X160780201Y-116776114D01*
X160749500Y-116890691D01*
X160749500Y-117009309D01*
X160780201Y-117123886D01*
X160839511Y-117226613D01*
X160923387Y-117310489D01*
X161026114Y-117369799D01*
X161140691Y-117400500D01*
X161140694Y-117400500D01*
X161259307Y-117400500D01*
X161259309Y-117400500D01*
X161308336Y-117387363D01*
X161378185Y-117389025D01*
X161436048Y-117428186D01*
X161463553Y-117492415D01*
X161451967Y-117561317D01*
X161428111Y-117594818D01*
X160549347Y-118473583D01*
X160488024Y-118507068D01*
X160461666Y-118509902D01*
X160247482Y-118509902D01*
X160053077Y-118540692D01*
X159865874Y-118601519D01*
X159690490Y-118690882D01*
X159686343Y-118693424D01*
X159685468Y-118691996D01*
X159626497Y-118713006D01*
X159558451Y-118697149D01*
X159531795Y-118676886D01*
X158220038Y-117365128D01*
X158220037Y-117365127D01*
X158191905Y-117346330D01*
X158113491Y-117293936D01*
X157995108Y-117244900D01*
X157995102Y-117244898D01*
X157869435Y-117219901D01*
X157869433Y-117219901D01*
X157186710Y-117219901D01*
X157119671Y-117200216D01*
X157099029Y-117183582D01*
X156820574Y-116905126D01*
X156820573Y-116905125D01*
X156798971Y-116890691D01*
X156714027Y-116833934D01*
X156699341Y-116827851D01*
X156595644Y-116784898D01*
X156595636Y-116784896D01*
X156469973Y-116759900D01*
X156469969Y-116759900D01*
X156341831Y-116759900D01*
X156341826Y-116759900D01*
X156216163Y-116784896D01*
X156216155Y-116784898D01*
X156097774Y-116833933D01*
X155991226Y-116905125D01*
X155900626Y-116995725D01*
X155829434Y-117102273D01*
X155780399Y-117220654D01*
X155780397Y-117220662D01*
X155755401Y-117346325D01*
X155755401Y-117474472D01*
X155780397Y-117600136D01*
X155781693Y-117604408D01*
X155782316Y-117674274D01*
X155781693Y-117676397D01*
X155780400Y-117680658D01*
X155755402Y-117806329D01*
X155755402Y-117806332D01*
X155755402Y-117934470D01*
X155755402Y-117934472D01*
X155755401Y-117934472D01*
X155780399Y-118060139D01*
X155780401Y-118060145D01*
X155829435Y-118178525D01*
X155829440Y-118178534D01*
X155900625Y-118285069D01*
X155900628Y-118285073D01*
X155991229Y-118375674D01*
X155991233Y-118375677D01*
X156097768Y-118446862D01*
X156097774Y-118446865D01*
X156097775Y-118446866D01*
X156216158Y-118495902D01*
X156216162Y-118495902D01*
X156216163Y-118495903D01*
X156341830Y-118520901D01*
X156341833Y-118520901D01*
X156801833Y-118520901D01*
X156995931Y-118520901D01*
X157484556Y-118520901D01*
X157551595Y-118540586D01*
X157572237Y-118557220D01*
X157771505Y-118756488D01*
X157804990Y-118817811D01*
X157800006Y-118887503D01*
X157758134Y-118943436D01*
X157745827Y-118951555D01*
X157723387Y-118964511D01*
X157723384Y-118964513D01*
X157639513Y-119048384D01*
X157639511Y-119048387D01*
X157586975Y-119139382D01*
X157580201Y-119151114D01*
X157549500Y-119265691D01*
X157549500Y-119384309D01*
X157568215Y-119454153D01*
X157580202Y-119498890D01*
X157581720Y-119502554D01*
X157582078Y-119505891D01*
X157582305Y-119506736D01*
X157582173Y-119506771D01*
X157589185Y-119572024D01*
X157581720Y-119597446D01*
X157580202Y-119601109D01*
X157569478Y-119641132D01*
X157549500Y-119715691D01*
X157549500Y-119834309D01*
X157580201Y-119948886D01*
X157639511Y-120051613D01*
X157723387Y-120135489D01*
X157826114Y-120194799D01*
X157940691Y-120225500D01*
X157940694Y-120225500D01*
X158059306Y-120225500D01*
X158059309Y-120225500D01*
X158173886Y-120194799D01*
X158276613Y-120135489D01*
X158360489Y-120051613D01*
X158419799Y-119948886D01*
X158450500Y-119834309D01*
X158450500Y-119734845D01*
X158470185Y-119667806D01*
X158522989Y-119622051D01*
X158592147Y-119612107D01*
X158655703Y-119641132D01*
X158662181Y-119647164D01*
X159133035Y-120118018D01*
X159163284Y-120167379D01*
X159187019Y-120240427D01*
X159225583Y-120316112D01*
X159276380Y-120415807D01*
X159392076Y-120575048D01*
X159531258Y-120714230D01*
X159690499Y-120829926D01*
X159773359Y-120872145D01*
X159865874Y-120919284D01*
X159865876Y-120919284D01*
X159865879Y-120919286D01*
X159928091Y-120939500D01*
X160053077Y-120980111D01*
X160247482Y-121010902D01*
X160247487Y-121010902D01*
X161129424Y-121010902D01*
X161323828Y-120980111D01*
X161511028Y-120919286D01*
X161686407Y-120829926D01*
X161845648Y-120714230D01*
X162843150Y-119716726D01*
X162904471Y-119683243D01*
X162974162Y-119688227D01*
X163030096Y-119730098D01*
X163038216Y-119742409D01*
X163069508Y-119796609D01*
X163069510Y-119796611D01*
X163069511Y-119796613D01*
X163153387Y-119880489D01*
X163256114Y-119939799D01*
X163256115Y-119939799D01*
X163256118Y-119939801D01*
X163263623Y-119942910D01*
X163262392Y-119945881D01*
X163309161Y-119974352D01*
X163330067Y-120012603D01*
X163332362Y-120011653D01*
X163335470Y-120019158D01*
X163346602Y-120038439D01*
X163394781Y-120121886D01*
X163478657Y-120205762D01*
X163581384Y-120265072D01*
X163695961Y-120295773D01*
X163695964Y-120295773D01*
X163814576Y-120295773D01*
X163814579Y-120295773D01*
X163929156Y-120265072D01*
X164031883Y-120205762D01*
X164115759Y-120121886D01*
X164175069Y-120019159D01*
X164205770Y-119904582D01*
X164205770Y-119785964D01*
X164175069Y-119671387D01*
X164115759Y-119568660D01*
X164031883Y-119484784D01*
X163972572Y-119450540D01*
X163929155Y-119425473D01*
X163921652Y-119422366D01*
X163922874Y-119419413D01*
X163876020Y-119390822D01*
X163857960Y-119364972D01*
X163851593Y-119352812D01*
X163849799Y-119346114D01*
X163831429Y-119314296D01*
X163830234Y-119312014D01*
X163823888Y-119280171D01*
X163816229Y-119248600D01*
X163817097Y-119246091D01*
X163816579Y-119243492D01*
X163828456Y-119213271D01*
X163839082Y-119182573D01*
X163841166Y-119180933D01*
X163842137Y-119178465D01*
X163868471Y-119159460D01*
X163894003Y-119139382D01*
X163897129Y-119138779D01*
X163898794Y-119137578D01*
X163905140Y-119137235D01*
X163940089Y-119130500D01*
X164673561Y-119130500D01*
X164867965Y-119099709D01*
X165055165Y-119038884D01*
X165230544Y-118949524D01*
X165389785Y-118833828D01*
X166140111Y-118083500D01*
X166201432Y-118050017D01*
X166271123Y-118055001D01*
X166327057Y-118096872D01*
X166328055Y-118098226D01*
X166362074Y-118145048D01*
X166501256Y-118284230D01*
X166660497Y-118399926D01*
X166743357Y-118442145D01*
X166835872Y-118489284D01*
X166835874Y-118489284D01*
X166835877Y-118489286D01*
X166929786Y-118519799D01*
X167023075Y-118550111D01*
X167217480Y-118580902D01*
X167217485Y-118580902D01*
X168546567Y-118580902D01*
X168576007Y-118589546D01*
X168605994Y-118596070D01*
X168611009Y-118599824D01*
X168613606Y-118600587D01*
X168634248Y-118617221D01*
X168642281Y-118625254D01*
X168675766Y-118686577D01*
X168670782Y-118756269D01*
X168642282Y-118800616D01*
X168579511Y-118863387D01*
X168521127Y-118964511D01*
X168520201Y-118966114D01*
X168489500Y-119080691D01*
X168489500Y-119199309D01*
X168508781Y-119271267D01*
X168520202Y-119313890D01*
X168523313Y-119321400D01*
X168521871Y-119321996D01*
X168536160Y-119380903D01*
X168522283Y-119428176D01*
X168523312Y-119428603D01*
X168520201Y-119436111D01*
X168507159Y-119484786D01*
X168489500Y-119550690D01*
X168489500Y-119669308D01*
X168520201Y-119783885D01*
X168579511Y-119886612D01*
X168663387Y-119970488D01*
X168766114Y-120029798D01*
X168880691Y-120060499D01*
X168880694Y-120060499D01*
X168999306Y-120060499D01*
X168999309Y-120060499D01*
X169113886Y-120029798D01*
X169216613Y-119970488D01*
X169300489Y-119886612D01*
X169359799Y-119783885D01*
X169390500Y-119669308D01*
X169390500Y-119669304D01*
X169391561Y-119661248D01*
X169393815Y-119661544D01*
X169410185Y-119605796D01*
X169462989Y-119560041D01*
X169532147Y-119550097D01*
X169595703Y-119579122D01*
X169602181Y-119585154D01*
X170506672Y-120489645D01*
X170506673Y-120489646D01*
X170645855Y-120628828D01*
X170805096Y-120744524D01*
X170980476Y-120833884D01*
X171103992Y-120874017D01*
X171167674Y-120894709D01*
X171221165Y-120903181D01*
X171362079Y-120925500D01*
X171362084Y-120925500D01*
X171813422Y-120925500D01*
X172007826Y-120894709D01*
X172195026Y-120833884D01*
X172370405Y-120744524D01*
X172529646Y-120628828D01*
X173853722Y-119304752D01*
X173915045Y-119271267D01*
X173984737Y-119276251D01*
X174040670Y-119318123D01*
X174065087Y-119383587D01*
X174065403Y-119392433D01*
X174065403Y-119394710D01*
X174096104Y-119509287D01*
X174155414Y-119612014D01*
X174239290Y-119695890D01*
X174342017Y-119755200D01*
X174396465Y-119769789D01*
X174456124Y-119806152D01*
X174471757Y-119827561D01*
X174514511Y-119901613D01*
X174598387Y-119985489D01*
X174701114Y-120044799D01*
X174815691Y-120075500D01*
X174815694Y-120075500D01*
X174934306Y-120075500D01*
X174934309Y-120075500D01*
X175048886Y-120044799D01*
X175151613Y-119985489D01*
X175235489Y-119901613D01*
X175294799Y-119798886D01*
X175325500Y-119684309D01*
X175325500Y-119565691D01*
X175294799Y-119451114D01*
X175249064Y-119371900D01*
X175232592Y-119304002D01*
X175255444Y-119237975D01*
X175310365Y-119194784D01*
X175356452Y-119185901D01*
X176066499Y-119185901D01*
X176133538Y-119205586D01*
X176154180Y-119222220D01*
X176424666Y-119492706D01*
X176583906Y-119608402D01*
X176759286Y-119697761D01*
X176946485Y-119758587D01*
X177043523Y-119773956D01*
X177140890Y-119789378D01*
X177140895Y-119789378D01*
X177337733Y-119789378D01*
X177435100Y-119773956D01*
X177532138Y-119758587D01*
X177719338Y-119697761D01*
X177747129Y-119683600D01*
X177815797Y-119670705D01*
X177841741Y-119676155D01*
X177976794Y-119720037D01*
X178171199Y-119750828D01*
X178171204Y-119750828D01*
X178368043Y-119750828D01*
X178562447Y-119720037D01*
X178575816Y-119715693D01*
X178749647Y-119659212D01*
X178925026Y-119569852D01*
X179084267Y-119454156D01*
X179286201Y-119252222D01*
X179313128Y-119237518D01*
X179338947Y-119220926D01*
X179345147Y-119220034D01*
X179347524Y-119218737D01*
X179373882Y-119215903D01*
X179431402Y-119215903D01*
X179498441Y-119235588D01*
X179544196Y-119288392D01*
X179555402Y-119339903D01*
X179555402Y-119424712D01*
X179571499Y-119484786D01*
X179586103Y-119539290D01*
X179589214Y-119546799D01*
X179587772Y-119547395D01*
X179602062Y-119606305D01*
X179588181Y-119653577D01*
X179589213Y-119654005D01*
X179586102Y-119661513D01*
X179572876Y-119710875D01*
X179555401Y-119776092D01*
X179555401Y-119894710D01*
X179586102Y-120009287D01*
X179645412Y-120112014D01*
X179729288Y-120195890D01*
X179832015Y-120255200D01*
X179946592Y-120285901D01*
X179946595Y-120285901D01*
X180065207Y-120285901D01*
X180065210Y-120285901D01*
X180179787Y-120255200D01*
X180282514Y-120195890D01*
X180366390Y-120112014D01*
X180425700Y-120009287D01*
X180456401Y-119894710D01*
X180456401Y-119868198D01*
X180476086Y-119801159D01*
X180528890Y-119755404D01*
X180598048Y-119745460D01*
X180661604Y-119774485D01*
X180668082Y-119780517D01*
X181556526Y-120668961D01*
X181715767Y-120784657D01*
X181798626Y-120826875D01*
X181891141Y-120874015D01*
X181891143Y-120874015D01*
X181891146Y-120874017D01*
X181968987Y-120899309D01*
X182078345Y-120934842D01*
X182272751Y-120965633D01*
X182272756Y-120965633D01*
X182469594Y-120965633D01*
X182663998Y-120934842D01*
X182851198Y-120874017D01*
X183026577Y-120784657D01*
X183185818Y-120668961D01*
X183325000Y-120529779D01*
X183440696Y-120370538D01*
X183530056Y-120195159D01*
X183590881Y-120007959D01*
X183596816Y-119970485D01*
X183621672Y-119813555D01*
X183621672Y-119616711D01*
X183590881Y-119422306D01*
X183574503Y-119371902D01*
X183563079Y-119336744D01*
X183561085Y-119266905D01*
X183597165Y-119207072D01*
X183659865Y-119176243D01*
X183729279Y-119184207D01*
X183768692Y-119210746D01*
X186641659Y-122083713D01*
X186715882Y-122126566D01*
X186798668Y-122148748D01*
X186884374Y-122148748D01*
X187849811Y-122148748D01*
X187916850Y-122168433D01*
X187962605Y-122221237D01*
X187972549Y-122290395D01*
X187943524Y-122353951D01*
X187937492Y-122360429D01*
X187854537Y-122443383D01*
X187854533Y-122443389D01*
X187811681Y-122517609D01*
X187811682Y-122517610D01*
X187789500Y-122600395D01*
X187789500Y-125633899D01*
X187789500Y-125719605D01*
X187797306Y-125748738D01*
X187811682Y-125802392D01*
X187825668Y-125826615D01*
X187854535Y-125876614D01*
X188297782Y-126319861D01*
X188297783Y-126319862D01*
X188358386Y-126380465D01*
X188358388Y-126380466D01*
X188358392Y-126380469D01*
X188432603Y-126423314D01*
X188432610Y-126423318D01*
X188515395Y-126445500D01*
X188601101Y-126445500D01*
X188618036Y-126445500D01*
X188685075Y-126465185D01*
X188730830Y-126517989D01*
X188740774Y-126587147D01*
X188711749Y-126650703D01*
X188705717Y-126657181D01*
X188669513Y-126693384D01*
X188669511Y-126693387D01*
X188631451Y-126759309D01*
X188610201Y-126796114D01*
X188579500Y-126910691D01*
X188579500Y-127029309D01*
X188610201Y-127143886D01*
X188669511Y-127246613D01*
X188753387Y-127330489D01*
X188856114Y-127389799D01*
X188970691Y-127420500D01*
X188970694Y-127420500D01*
X189089306Y-127420500D01*
X189089309Y-127420500D01*
X189203886Y-127389799D01*
X189306613Y-127330489D01*
X189390489Y-127246613D01*
X189449799Y-127143886D01*
X189480500Y-127029309D01*
X189480500Y-126910691D01*
X189449799Y-126796114D01*
X189390489Y-126693387D01*
X189354283Y-126657181D01*
X189320798Y-126595858D01*
X189325782Y-126526166D01*
X189367654Y-126470233D01*
X189433118Y-126445816D01*
X189441964Y-126445500D01*
X190234345Y-126445500D01*
X190301384Y-126465185D01*
X190347139Y-126517989D01*
X190357083Y-126587147D01*
X190341732Y-126631500D01*
X190310202Y-126686110D01*
X190310201Y-126686114D01*
X190279500Y-126800691D01*
X190279500Y-126919309D01*
X190310201Y-127033886D01*
X190369511Y-127136613D01*
X190453387Y-127220489D01*
X190556114Y-127279799D01*
X190670691Y-127310500D01*
X190670694Y-127310500D01*
X190789306Y-127310500D01*
X190789309Y-127310500D01*
X190903886Y-127279799D01*
X191006613Y-127220489D01*
X191006614Y-127220487D01*
X191013651Y-127216425D01*
X191014573Y-127218022D01*
X191070167Y-127196522D01*
X191138613Y-127210552D01*
X191188609Y-127259359D01*
X191204500Y-127320091D01*
X191204500Y-129147220D01*
X191200403Y-129161169D01*
X191201188Y-129175686D01*
X191190757Y-129194019D01*
X191184815Y-129214259D01*
X191173827Y-129223779D01*
X191166639Y-129236416D01*
X191147951Y-129246201D01*
X191132011Y-129260014D01*
X191116491Y-129262674D01*
X191104742Y-129268827D01*
X191074862Y-129269811D01*
X191069499Y-129270731D01*
X191061116Y-129269984D01*
X191059309Y-129269500D01*
X191055678Y-129269500D01*
X191050188Y-129269011D01*
X191022589Y-129258165D01*
X190994150Y-129249815D01*
X190987307Y-129244301D01*
X190985159Y-129243457D01*
X190983628Y-129241336D01*
X190973508Y-129233181D01*
X189619864Y-127879537D01*
X189619862Y-127879535D01*
X189582750Y-127858108D01*
X189545640Y-127836682D01*
X189504246Y-127825591D01*
X189462853Y-127814500D01*
X189462852Y-127814500D01*
X188442964Y-127814500D01*
X188375925Y-127794815D01*
X188363064Y-127784451D01*
X188363059Y-127784458D01*
X188356615Y-127779513D01*
X188356613Y-127779511D01*
X188253886Y-127720201D01*
X188139309Y-127689500D01*
X188020691Y-127689500D01*
X187906114Y-127720201D01*
X187906112Y-127720201D01*
X187906112Y-127720202D01*
X187803387Y-127779511D01*
X187803384Y-127779513D01*
X187719513Y-127863384D01*
X187719511Y-127863387D01*
X187660201Y-127966114D01*
X187629500Y-128080691D01*
X187629500Y-128199309D01*
X187660201Y-128313886D01*
X187718339Y-128414583D01*
X187734812Y-128482482D01*
X187711960Y-128548509D01*
X187698634Y-128564263D01*
X187649514Y-128613383D01*
X187649511Y-128613387D01*
X187590201Y-128716114D01*
X187559500Y-128830691D01*
X187559500Y-128949309D01*
X187590201Y-129063886D01*
X187649511Y-129166613D01*
X187649513Y-129166615D01*
X187720717Y-129237819D01*
X187754202Y-129299142D01*
X187749218Y-129368834D01*
X187707346Y-129424767D01*
X187641882Y-129449184D01*
X187633036Y-129449500D01*
X183720044Y-129449500D01*
X183720028Y-129449499D01*
X183712432Y-129449499D01*
X183626727Y-129449499D01*
X183585334Y-129460590D01*
X183543939Y-129471682D01*
X183543934Y-129471685D01*
X183469723Y-129514530D01*
X183469715Y-129514536D01*
X183409112Y-129575140D01*
X180114726Y-132869525D01*
X180053403Y-132903010D01*
X179983711Y-132898026D01*
X179927778Y-132856154D01*
X179907270Y-132813937D01*
X179906401Y-132810693D01*
X179906401Y-132810691D01*
X179875700Y-132696114D01*
X179816390Y-132593387D01*
X179732514Y-132509511D01*
X179629787Y-132450201D01*
X179629786Y-132450200D01*
X179629785Y-132450200D01*
X179591221Y-132439866D01*
X179531561Y-132403500D01*
X179515930Y-132382093D01*
X179515600Y-132381521D01*
X179470489Y-132303387D01*
X179386613Y-132219511D01*
X179283886Y-132160201D01*
X179169309Y-132129500D01*
X179050691Y-132129500D01*
X178936114Y-132160201D01*
X178936112Y-132160201D01*
X178936112Y-132160202D01*
X178833387Y-132219511D01*
X178833384Y-132219513D01*
X178749513Y-132303384D01*
X178749511Y-132303387D01*
X178705413Y-132379767D01*
X178690201Y-132406114D01*
X178659500Y-132520691D01*
X178659500Y-132639309D01*
X178690201Y-132753886D01*
X178749511Y-132856613D01*
X178833387Y-132940489D01*
X178936114Y-132999799D01*
X178974678Y-133010132D01*
X179034336Y-133046496D01*
X179049970Y-133067906D01*
X179095409Y-133146609D01*
X179095411Y-133146611D01*
X179095412Y-133146613D01*
X179179288Y-133230489D01*
X179282015Y-133289799D01*
X179396592Y-133320500D01*
X179396595Y-133320500D01*
X179399838Y-133321369D01*
X179459499Y-133357734D01*
X179490028Y-133420581D01*
X179481733Y-133489956D01*
X179455426Y-133528825D01*
X178050671Y-134933581D01*
X177989348Y-134967066D01*
X177962990Y-134969900D01*
X176280463Y-134969900D01*
X176213424Y-134950215D01*
X176167669Y-134897411D01*
X176157725Y-134828253D01*
X176158846Y-134821708D01*
X176176398Y-134733471D01*
X176176398Y-134605330D01*
X176169501Y-134570659D01*
X176163223Y-134539098D01*
X176163223Y-134490717D01*
X176176401Y-134424471D01*
X176176401Y-134296333D01*
X176176401Y-134296330D01*
X176151403Y-134170663D01*
X176151402Y-134170662D01*
X176151402Y-134170658D01*
X176102366Y-134052275D01*
X176102365Y-134052274D01*
X176102362Y-134052268D01*
X176031177Y-133945733D01*
X176031174Y-133945729D01*
X175940573Y-133855128D01*
X175940569Y-133855125D01*
X175834034Y-133783940D01*
X175834025Y-133783935D01*
X175715645Y-133734901D01*
X175715639Y-133734899D01*
X175589972Y-133709902D01*
X175589970Y-133709902D01*
X174714069Y-133709902D01*
X174426708Y-133709902D01*
X174397267Y-133701257D01*
X174367281Y-133694734D01*
X174362265Y-133690979D01*
X174359669Y-133690217D01*
X174339027Y-133673583D01*
X174259606Y-133594162D01*
X174226121Y-133532839D01*
X174231105Y-133463147D01*
X174259602Y-133418804D01*
X174326391Y-133352016D01*
X174385701Y-133249289D01*
X174416402Y-133134712D01*
X174416402Y-133016094D01*
X174385701Y-132901517D01*
X174385696Y-132901509D01*
X174382591Y-132894010D01*
X174384031Y-132893413D01*
X174369739Y-132834505D01*
X174383625Y-132787226D01*
X174382591Y-132786798D01*
X174385700Y-132779291D01*
X174385701Y-132779290D01*
X174416402Y-132664713D01*
X174416402Y-132546095D01*
X174385701Y-132431518D01*
X174326391Y-132328791D01*
X174242515Y-132244915D01*
X174139788Y-132185605D01*
X174025211Y-132154904D01*
X173906593Y-132154904D01*
X173792016Y-132185605D01*
X173792014Y-132185605D01*
X173792014Y-132185606D01*
X173689289Y-132244915D01*
X173689286Y-132244917D01*
X173605415Y-132328788D01*
X173605413Y-132328791D01*
X173574973Y-132381515D01*
X173546103Y-132431518D01*
X173515402Y-132546095D01*
X173515402Y-132546097D01*
X173515402Y-132550596D01*
X173495717Y-132617635D01*
X173442913Y-132663390D01*
X173373755Y-132673334D01*
X173310199Y-132644309D01*
X173303721Y-132638277D01*
X172655837Y-131990393D01*
X172330573Y-131665128D01*
X172330572Y-131665127D01*
X172330258Y-131664917D01*
X172224026Y-131593936D01*
X172199869Y-131583930D01*
X172105643Y-131544900D01*
X172105637Y-131544898D01*
X171979970Y-131519901D01*
X171979968Y-131519901D01*
X171851830Y-131519901D01*
X171851828Y-131519901D01*
X171726160Y-131544898D01*
X171726154Y-131544900D01*
X171607773Y-131593935D01*
X171607772Y-131593936D01*
X171501230Y-131665124D01*
X171410622Y-131755732D01*
X171410618Y-131755736D01*
X171407896Y-131758459D01*
X171407895Y-131758458D01*
X171407879Y-131758476D01*
X171085359Y-132080996D01*
X171020848Y-132177544D01*
X171020848Y-132177545D01*
X171014168Y-132187543D01*
X171014167Y-132187545D01*
X170965132Y-132305925D01*
X170965130Y-132305931D01*
X170940133Y-132431598D01*
X170940133Y-132559741D01*
X170952718Y-132623007D01*
X170961825Y-132668789D01*
X170964036Y-132679903D01*
X170965132Y-132685414D01*
X170993494Y-132753887D01*
X171014168Y-132803797D01*
X171080459Y-132903010D01*
X171085359Y-132910343D01*
X171175961Y-133000945D01*
X171256205Y-133054562D01*
X171267303Y-133061977D01*
X171267304Y-133061978D01*
X171267303Y-133061978D01*
X171278717Y-133069603D01*
X171282506Y-133072135D01*
X171400889Y-133121171D01*
X171400893Y-133121171D01*
X171400894Y-133121172D01*
X171526561Y-133146170D01*
X171526564Y-133146170D01*
X171920360Y-133146170D01*
X171949800Y-133154814D01*
X171979787Y-133161338D01*
X171984802Y-133165092D01*
X171987399Y-133165855D01*
X172008041Y-133182489D01*
X172032472Y-133206920D01*
X173583770Y-134758219D01*
X173617255Y-134819542D01*
X173612271Y-134889234D01*
X173570399Y-134945167D01*
X173504935Y-134969584D01*
X173496089Y-134969900D01*
X173326563Y-134969900D01*
X173259524Y-134950215D01*
X173238882Y-134933581D01*
X172545239Y-134239938D01*
X172545237Y-134239936D01*
X172486289Y-134205902D01*
X172471015Y-134197083D01*
X172429621Y-134185992D01*
X172388228Y-134174901D01*
X169088051Y-134174901D01*
X169005264Y-134197083D01*
X168971611Y-134216514D01*
X168971609Y-134216514D01*
X168931048Y-134239931D01*
X168931040Y-134239937D01*
X168302394Y-134868584D01*
X168241071Y-134902069D01*
X168224651Y-134903834D01*
X168224653Y-134903842D01*
X168216596Y-134904902D01*
X168198657Y-134909709D01*
X168102016Y-134935604D01*
X168102014Y-134935604D01*
X168102014Y-134935605D01*
X167999289Y-134994914D01*
X167999286Y-134994916D01*
X167915415Y-135078787D01*
X167915413Y-135078790D01*
X167861590Y-135172014D01*
X167856103Y-135181517D01*
X167825402Y-135296094D01*
X167825402Y-135414712D01*
X167856103Y-135529289D01*
X167915413Y-135632016D01*
X167999289Y-135715892D01*
X168102016Y-135775202D01*
X168216593Y-135805903D01*
X168216596Y-135805903D01*
X168335208Y-135805903D01*
X168335211Y-135805903D01*
X168449788Y-135775202D01*
X168479401Y-135758104D01*
X168547300Y-135741631D01*
X168613327Y-135764482D01*
X168656519Y-135819403D01*
X168665402Y-135865491D01*
X168665402Y-135969711D01*
X168696103Y-136084288D01*
X168755413Y-136187015D01*
X168839289Y-136270891D01*
X168942016Y-136330201D01*
X169056593Y-136360902D01*
X169056596Y-136360902D01*
X169175208Y-136360902D01*
X169175211Y-136360902D01*
X169289788Y-136330201D01*
X169392515Y-136270891D01*
X169476391Y-136187015D01*
X169535701Y-136084288D01*
X169566402Y-135969711D01*
X169566402Y-135969707D01*
X169567463Y-135961651D01*
X169569251Y-135961886D01*
X169586087Y-135904550D01*
X169602717Y-135883912D01*
X170071100Y-135415528D01*
X170132421Y-135382045D01*
X170202112Y-135387029D01*
X170258046Y-135428900D01*
X170278553Y-135471116D01*
X170286101Y-135499285D01*
X170286101Y-135499286D01*
X170305018Y-135532050D01*
X170345412Y-135602014D01*
X170429288Y-135685890D01*
X170532015Y-135745200D01*
X170646592Y-135775901D01*
X170646595Y-135775901D01*
X170765207Y-135775901D01*
X170765210Y-135775901D01*
X170879787Y-135745200D01*
X170982514Y-135685890D01*
X171066390Y-135602014D01*
X171125700Y-135499287D01*
X171156401Y-135384710D01*
X171156401Y-135299901D01*
X171176086Y-135232862D01*
X171228890Y-135187107D01*
X171280401Y-135175901D01*
X172014212Y-135175901D01*
X172081251Y-135195586D01*
X172101893Y-135212220D01*
X172734934Y-135845261D01*
X172734935Y-135845262D01*
X172795538Y-135905865D01*
X172795540Y-135905866D01*
X172795544Y-135905869D01*
X172820890Y-135920502D01*
X172869762Y-135948718D01*
X172952547Y-135970900D01*
X172952549Y-135970900D01*
X178337004Y-135970900D01*
X178337006Y-135970900D01*
X178419792Y-135948718D01*
X178494015Y-135905865D01*
X178643960Y-135755919D01*
X178705280Y-135722436D01*
X178774972Y-135727420D01*
X178819320Y-135755921D01*
X178879290Y-135815891D01*
X178982017Y-135875201D01*
X179096594Y-135905902D01*
X179096597Y-135905902D01*
X179215209Y-135905902D01*
X179215212Y-135905902D01*
X179329789Y-135875201D01*
X179329791Y-135875199D01*
X179329793Y-135875199D01*
X179329794Y-135875198D01*
X179359401Y-135858105D01*
X179427301Y-135841631D01*
X179493328Y-135864483D01*
X179536519Y-135919404D01*
X179545402Y-135965491D01*
X179545402Y-136069710D01*
X179576103Y-136184287D01*
X179635413Y-136287014D01*
X179719289Y-136370890D01*
X179822016Y-136430200D01*
X179936593Y-136460901D01*
X179936596Y-136460901D01*
X180055208Y-136460901D01*
X180055211Y-136460901D01*
X180169788Y-136430200D01*
X180272515Y-136370890D01*
X180356391Y-136287014D01*
X180387072Y-136233872D01*
X180437639Y-136185657D01*
X180506246Y-136172434D01*
X180571111Y-136198402D01*
X180601845Y-136233872D01*
X180635414Y-136292014D01*
X180719290Y-136375890D01*
X180822017Y-136435200D01*
X180936594Y-136465901D01*
X180936597Y-136465901D01*
X181055209Y-136465901D01*
X181055212Y-136465901D01*
X181169789Y-136435200D01*
X181272516Y-136375890D01*
X181356392Y-136292014D01*
X181415702Y-136189287D01*
X181446403Y-136074710D01*
X181446403Y-135956092D01*
X181438606Y-135926993D01*
X181440269Y-135857146D01*
X181479431Y-135799283D01*
X181543660Y-135771779D01*
X181558381Y-135770902D01*
X181675208Y-135770902D01*
X181675211Y-135770902D01*
X181789788Y-135740201D01*
X181892515Y-135680891D01*
X181952487Y-135620918D01*
X182013806Y-135587436D01*
X182083498Y-135592420D01*
X182127846Y-135620921D01*
X182496786Y-135989861D01*
X182496787Y-135989862D01*
X182557390Y-136050465D01*
X182557392Y-136050466D01*
X182557396Y-136050469D01*
X182631607Y-136093314D01*
X182631614Y-136093318D01*
X182714399Y-136115500D01*
X182714401Y-136115500D01*
X186922851Y-136115500D01*
X186922853Y-136115500D01*
X187005639Y-136093318D01*
X187079862Y-136050465D01*
X187984182Y-135146143D01*
X188045503Y-135112660D01*
X188115194Y-135117644D01*
X188159542Y-135146145D01*
X188219289Y-135205892D01*
X188322016Y-135265202D01*
X188436593Y-135295903D01*
X188436596Y-135295903D01*
X188555208Y-135295903D01*
X188555211Y-135295903D01*
X188669788Y-135265202D01*
X188772515Y-135205892D01*
X188856391Y-135122016D01*
X188915701Y-135019289D01*
X188946402Y-134904712D01*
X188946402Y-134904708D01*
X188947463Y-134896652D01*
X188949251Y-134896887D01*
X188955046Y-134877151D01*
X188961570Y-134847165D01*
X188965324Y-134842149D01*
X188966087Y-134839553D01*
X188968876Y-134836092D01*
X189995403Y-134836092D01*
X189995403Y-134954710D01*
X190026104Y-135069287D01*
X190085414Y-135172014D01*
X190169290Y-135255890D01*
X190272017Y-135315200D01*
X190386594Y-135345901D01*
X190386597Y-135345901D01*
X190505209Y-135345901D01*
X190505212Y-135345901D01*
X190619789Y-135315200D01*
X190722516Y-135255890D01*
X190806392Y-135172014D01*
X190865702Y-135069287D01*
X190896403Y-134954710D01*
X190896403Y-134836092D01*
X190865702Y-134721515D01*
X190806392Y-134618788D01*
X190722516Y-134534912D01*
X190619789Y-134475602D01*
X190505212Y-134444901D01*
X190386594Y-134444901D01*
X190272017Y-134475602D01*
X190272015Y-134475602D01*
X190272015Y-134475603D01*
X190169290Y-134534912D01*
X190169287Y-134534914D01*
X190085416Y-134618785D01*
X190085414Y-134618788D01*
X190026104Y-134721515D01*
X189995403Y-134836092D01*
X188968876Y-134836092D01*
X188982721Y-134818911D01*
X190434410Y-133367222D01*
X190495733Y-133333737D01*
X190522091Y-133330903D01*
X190986021Y-133330903D01*
X191053060Y-133350588D01*
X191098815Y-133403392D01*
X191108759Y-133472550D01*
X191093408Y-133516903D01*
X191056105Y-133581512D01*
X191056104Y-133581516D01*
X191025403Y-133696093D01*
X191025403Y-133814711D01*
X191056104Y-133929288D01*
X191115414Y-134032015D01*
X191199290Y-134115891D01*
X191302017Y-134175201D01*
X191416594Y-134205902D01*
X191416597Y-134205902D01*
X191535209Y-134205902D01*
X191535212Y-134205902D01*
X191649789Y-134175201D01*
X191752516Y-134115891D01*
X191836392Y-134032015D01*
X191895702Y-133929288D01*
X191926403Y-133814711D01*
X191926403Y-133696093D01*
X191895702Y-133581516D01*
X191841223Y-133487157D01*
X191824751Y-133419259D01*
X191847603Y-133353232D01*
X191860919Y-133337488D01*
X191916392Y-133282016D01*
X191975702Y-133179289D01*
X192006403Y-133064712D01*
X192006403Y-132946094D01*
X191975702Y-132831517D01*
X191916392Y-132728790D01*
X191832516Y-132644914D01*
X191729789Y-132585604D01*
X191615212Y-132554903D01*
X191496594Y-132554903D01*
X191478539Y-132559741D01*
X191471810Y-132561544D01*
X191401960Y-132559881D01*
X191344098Y-132520718D01*
X191316594Y-132456489D01*
X191328181Y-132387587D01*
X191332331Y-132379767D01*
X191343344Y-132360692D01*
X191355701Y-132339290D01*
X191386402Y-132224713D01*
X191386402Y-132106095D01*
X191355701Y-131991518D01*
X191296391Y-131888791D01*
X191212515Y-131804915D01*
X191109788Y-131745605D01*
X190995211Y-131714904D01*
X190876593Y-131714904D01*
X190762016Y-131745605D01*
X190762014Y-131745605D01*
X190762014Y-131745606D01*
X190659289Y-131804915D01*
X190652843Y-131809862D01*
X190651744Y-131808430D01*
X190599296Y-131837070D01*
X190572938Y-131839904D01*
X190461743Y-131839904D01*
X190378955Y-131862086D01*
X190348049Y-131879931D01*
X190304734Y-131904939D01*
X190304731Y-131904941D01*
X189693083Y-132516590D01*
X189673646Y-132527202D01*
X189656913Y-132541703D01*
X189643581Y-132543619D01*
X189631760Y-132550075D01*
X189609673Y-132548495D01*
X189587755Y-132551647D01*
X189575503Y-132546051D01*
X189562068Y-132545091D01*
X189544341Y-132531820D01*
X189524199Y-132522622D01*
X189516916Y-132511290D01*
X189506135Y-132503219D01*
X189498397Y-132482473D01*
X189486425Y-132463844D01*
X189483273Y-132441925D01*
X189481718Y-132437755D01*
X189481402Y-132428909D01*
X189481402Y-132388367D01*
X189501087Y-132321328D01*
X189511450Y-132308467D01*
X189511444Y-132308462D01*
X189516383Y-132302023D01*
X189516391Y-132302016D01*
X189575701Y-132199289D01*
X189606402Y-132084712D01*
X189606402Y-131966094D01*
X189575701Y-131851517D01*
X189516391Y-131748790D01*
X189432515Y-131664914D01*
X189329788Y-131605604D01*
X189215211Y-131574903D01*
X189096593Y-131574903D01*
X188982016Y-131605604D01*
X188982014Y-131605604D01*
X188982014Y-131605605D01*
X188879289Y-131664914D01*
X188879285Y-131664917D01*
X188832565Y-131711637D01*
X188771242Y-131745121D01*
X188712793Y-131743730D01*
X188605210Y-131714903D01*
X188486592Y-131714903D01*
X188372015Y-131745604D01*
X188372013Y-131745604D01*
X188372013Y-131745605D01*
X188269288Y-131804914D01*
X188269285Y-131804916D01*
X188185414Y-131888787D01*
X188185412Y-131888790D01*
X188132522Y-131980398D01*
X188126102Y-131991517D01*
X188095401Y-132106094D01*
X188095401Y-132224712D01*
X188126102Y-132339289D01*
X188185412Y-132442016D01*
X188269288Y-132525892D01*
X188372015Y-132585202D01*
X188486592Y-132615903D01*
X188486595Y-132615903D01*
X188605207Y-132615903D01*
X188605210Y-132615903D01*
X188674311Y-132597387D01*
X188699303Y-132597982D01*
X188724049Y-132594424D01*
X188733629Y-132598799D01*
X188744157Y-132599050D01*
X188764859Y-132613061D01*
X188787605Y-132623449D01*
X188793299Y-132632309D01*
X188802020Y-132638212D01*
X188811861Y-132661192D01*
X188825379Y-132682227D01*
X188827658Y-132698081D01*
X188829525Y-132702440D01*
X188830402Y-132717162D01*
X188830402Y-132832935D01*
X188810717Y-132899974D01*
X188794083Y-132920616D01*
X187288080Y-134426619D01*
X187226757Y-134460104D01*
X187157065Y-134455120D01*
X187101132Y-134413248D01*
X187076715Y-134347784D01*
X187076399Y-134338938D01*
X187076399Y-134326329D01*
X187051401Y-134200662D01*
X187051400Y-134200661D01*
X187051400Y-134200657D01*
X187002364Y-134082274D01*
X187002363Y-134082273D01*
X187002360Y-134082267D01*
X186931175Y-133975732D01*
X186931172Y-133975728D01*
X186840571Y-133885127D01*
X186840567Y-133885124D01*
X186734032Y-133813939D01*
X186734023Y-133813934D01*
X186615643Y-133764900D01*
X186615637Y-133764898D01*
X186489970Y-133739901D01*
X186489968Y-133739901D01*
X185884069Y-133739901D01*
X185307249Y-133739901D01*
X185240210Y-133720216D01*
X185219568Y-133703582D01*
X185042527Y-133526540D01*
X185009042Y-133465217D01*
X185014026Y-133395525D01*
X185055898Y-133339592D01*
X185068202Y-133331475D01*
X185112516Y-133305891D01*
X185196392Y-133222015D01*
X185255702Y-133119288D01*
X185286403Y-133004711D01*
X185286403Y-132886093D01*
X185255702Y-132771516D01*
X185255700Y-132771513D01*
X185255700Y-132771511D01*
X185252590Y-132764002D01*
X185254030Y-132763405D01*
X185239740Y-132704500D01*
X185253624Y-132657221D01*
X185252592Y-132656794D01*
X185255696Y-132649296D01*
X185255702Y-132649287D01*
X185286403Y-132534710D01*
X185286403Y-132416092D01*
X185255702Y-132301515D01*
X185196392Y-132198788D01*
X185112516Y-132114912D01*
X185009789Y-132055602D01*
X184895212Y-132024901D01*
X184776594Y-132024901D01*
X184662017Y-132055602D01*
X184662015Y-132055602D01*
X184662015Y-132055603D01*
X184559290Y-132114912D01*
X184559287Y-132114914D01*
X184475416Y-132198785D01*
X184475414Y-132198788D01*
X184419326Y-132295935D01*
X184416104Y-132301515D01*
X184385403Y-132416092D01*
X184385403Y-132416094D01*
X184385403Y-132534711D01*
X184388140Y-132544926D01*
X184386475Y-132614776D01*
X184347310Y-132672637D01*
X184283081Y-132700139D01*
X184214179Y-132688550D01*
X184180683Y-132664696D01*
X183752638Y-132236651D01*
X183752618Y-132236629D01*
X183502473Y-131986485D01*
X183502466Y-131986479D01*
X183215847Y-131699859D01*
X183215840Y-131699853D01*
X183109309Y-131628672D01*
X183109295Y-131628664D01*
X183041688Y-131600661D01*
X182987285Y-131556820D01*
X182965220Y-131490526D01*
X182982499Y-131422827D01*
X183001456Y-131398423D01*
X183788061Y-130611819D01*
X183849384Y-130578334D01*
X183875742Y-130575500D01*
X188267036Y-130575500D01*
X188334075Y-130595185D01*
X188346935Y-130605548D01*
X188346941Y-130605542D01*
X188353382Y-130610484D01*
X188353387Y-130610489D01*
X188456114Y-130669799D01*
X188570691Y-130700500D01*
X188570694Y-130700500D01*
X188689306Y-130700500D01*
X188689309Y-130700500D01*
X188803886Y-130669799D01*
X188906613Y-130610489D01*
X188990489Y-130526613D01*
X189049799Y-130423886D01*
X189080500Y-130309309D01*
X189080500Y-130224500D01*
X189100185Y-130157461D01*
X189152989Y-130111706D01*
X189204500Y-130100500D01*
X189962036Y-130100500D01*
X190029075Y-130120185D01*
X190049717Y-130136819D01*
X190123387Y-130210489D01*
X190226114Y-130269799D01*
X190340691Y-130300500D01*
X190340695Y-130300500D01*
X190347863Y-130301444D01*
X190360848Y-130307188D01*
X190375012Y-130308201D01*
X190392164Y-130321040D01*
X190411760Y-130329709D01*
X190419579Y-130341563D01*
X190430946Y-130350072D01*
X190438433Y-130370145D01*
X190450232Y-130388033D01*
X190450401Y-130402232D01*
X190455363Y-130415536D01*
X190450808Y-130436472D01*
X190451064Y-130457898D01*
X190443240Y-130471264D01*
X190440512Y-130483809D01*
X190419361Y-130512063D01*
X190333242Y-130598182D01*
X190271922Y-130631666D01*
X190245563Y-130634500D01*
X190132964Y-130634500D01*
X190065925Y-130614815D01*
X190053064Y-130604451D01*
X190053059Y-130604458D01*
X190046615Y-130599513D01*
X190046613Y-130599511D01*
X189943886Y-130540201D01*
X189829309Y-130509500D01*
X189710691Y-130509500D01*
X189596114Y-130540201D01*
X189596112Y-130540201D01*
X189596112Y-130540202D01*
X189493387Y-130599511D01*
X189493384Y-130599513D01*
X189409513Y-130683384D01*
X189409511Y-130683387D01*
X189350201Y-130786114D01*
X189319500Y-130900691D01*
X189319500Y-131019309D01*
X189350201Y-131133886D01*
X189409511Y-131236613D01*
X189493387Y-131320489D01*
X189596114Y-131379799D01*
X189710691Y-131410500D01*
X189710694Y-131410500D01*
X189829306Y-131410500D01*
X189829309Y-131410500D01*
X189943886Y-131379799D01*
X190046613Y-131320489D01*
X190046620Y-131320481D01*
X190053059Y-131315542D01*
X190054157Y-131316973D01*
X190106606Y-131288334D01*
X190132964Y-131285500D01*
X190474603Y-131285500D01*
X190474605Y-131285500D01*
X190557391Y-131263318D01*
X190631614Y-131220465D01*
X191790465Y-130061614D01*
X191833318Y-129987391D01*
X191855500Y-129904605D01*
X191855500Y-129818899D01*
X191855500Y-126941103D01*
X191855501Y-126941090D01*
X191855501Y-126845396D01*
X191855501Y-126845395D01*
X191833318Y-126762609D01*
X191791126Y-126689531D01*
X191790465Y-126688386D01*
X191729862Y-126627783D01*
X191729859Y-126627781D01*
X190970592Y-125868513D01*
X190937107Y-125807190D01*
X190938498Y-125748738D01*
X190939797Y-125743888D01*
X190939799Y-125743886D01*
X190970500Y-125629309D01*
X190970500Y-125510691D01*
X190939799Y-125396114D01*
X190880489Y-125293387D01*
X190796613Y-125209511D01*
X190693886Y-125150201D01*
X190579309Y-125119500D01*
X190460691Y-125119500D01*
X190346114Y-125150201D01*
X190346112Y-125150201D01*
X190346112Y-125150202D01*
X190243387Y-125209511D01*
X190243384Y-125209513D01*
X190159513Y-125293384D01*
X190159511Y-125293387D01*
X190100201Y-125396114D01*
X190069500Y-125510691D01*
X190069500Y-125510693D01*
X190069500Y-125629310D01*
X190071938Y-125638408D01*
X190070275Y-125708258D01*
X190031112Y-125766120D01*
X189966883Y-125793623D01*
X189952163Y-125794500D01*
X189184439Y-125794500D01*
X189162801Y-125788146D01*
X189140322Y-125786386D01*
X189129924Y-125778492D01*
X189117400Y-125774815D01*
X189102634Y-125757774D01*
X189084672Y-125744138D01*
X189080192Y-125731875D01*
X189071645Y-125722011D01*
X189068435Y-125699693D01*
X189060698Y-125678511D01*
X189062610Y-125659175D01*
X189061701Y-125652853D01*
X189063454Y-125643324D01*
X189064007Y-125640857D01*
X189080500Y-125579309D01*
X189080500Y-125567435D01*
X189083515Y-125554013D01*
X189094061Y-125535005D01*
X189100185Y-125514150D01*
X189116819Y-125493508D01*
X190578508Y-124031819D01*
X190639831Y-123998334D01*
X190666189Y-123995500D01*
X191055893Y-123995500D01*
X191122932Y-124015185D01*
X191168687Y-124067989D01*
X191178631Y-124137147D01*
X191163279Y-124181501D01*
X191120203Y-124256108D01*
X191120202Y-124256109D01*
X191120201Y-124256114D01*
X191089500Y-124370691D01*
X191089500Y-124489309D01*
X191120201Y-124603886D01*
X191179511Y-124706613D01*
X191263387Y-124790489D01*
X191366114Y-124849799D01*
X191480691Y-124880500D01*
X191480694Y-124880500D01*
X191599306Y-124880500D01*
X191599309Y-124880500D01*
X191713886Y-124849799D01*
X191816613Y-124790489D01*
X191900489Y-124706613D01*
X191959799Y-124603886D01*
X191990500Y-124489309D01*
X191990500Y-124370691D01*
X191959799Y-124256114D01*
X191959797Y-124256111D01*
X191959797Y-124256109D01*
X191959796Y-124256108D01*
X191901661Y-124155417D01*
X191885187Y-124087517D01*
X191908039Y-124021490D01*
X191921355Y-124005746D01*
X191980489Y-123946613D01*
X192039799Y-123843886D01*
X192070500Y-123729309D01*
X192070500Y-123610691D01*
X192039799Y-123496114D01*
X191980489Y-123393387D01*
X191896613Y-123309511D01*
X191793886Y-123250201D01*
X191679309Y-123219500D01*
X191560691Y-123219500D01*
X191560686Y-123219500D01*
X191554560Y-123221142D01*
X191484710Y-123219474D01*
X191426851Y-123180308D01*
X191399351Y-123116077D01*
X191410942Y-123047176D01*
X191415090Y-123039362D01*
X191429797Y-123013889D01*
X191429798Y-123013887D01*
X191429799Y-123013886D01*
X191460500Y-122899309D01*
X191460500Y-122780691D01*
X191429799Y-122666114D01*
X191370489Y-122563387D01*
X191370484Y-122563382D01*
X191365542Y-122556941D01*
X191366973Y-122555842D01*
X191357115Y-122537789D01*
X191340523Y-122511971D01*
X191339631Y-122505770D01*
X191338334Y-122503394D01*
X191335500Y-122477036D01*
X191335500Y-122371103D01*
X191335501Y-122371090D01*
X191335501Y-122275396D01*
X191323450Y-122230423D01*
X191313318Y-122192610D01*
X191302428Y-122173748D01*
X191270465Y-122118386D01*
X191209862Y-122057783D01*
X191209859Y-122057781D01*
X190838356Y-121686277D01*
X190804871Y-121624954D01*
X190809855Y-121555262D01*
X190851727Y-121499329D01*
X190864025Y-121491216D01*
X190946357Y-121443682D01*
X191030233Y-121359806D01*
X191089543Y-121257079D01*
X191120244Y-121142502D01*
X191120244Y-121023884D01*
X191117545Y-121013811D01*
X191119206Y-120943964D01*
X191158367Y-120886100D01*
X191175316Y-120874331D01*
X191216613Y-120850489D01*
X191300489Y-120766613D01*
X191359799Y-120663886D01*
X191390500Y-120549309D01*
X191390500Y-120430691D01*
X191359799Y-120316114D01*
X191300489Y-120213387D01*
X191216613Y-120129511D01*
X191113886Y-120070201D01*
X190999309Y-120039500D01*
X190999305Y-120039499D01*
X190991249Y-120038439D01*
X190991484Y-120036650D01*
X190934150Y-120019815D01*
X190913508Y-120003181D01*
X188749864Y-117839537D01*
X188749862Y-117839535D01*
X188712750Y-117818108D01*
X188675640Y-117796682D01*
X188634246Y-117785591D01*
X188592853Y-117774500D01*
X188592852Y-117774500D01*
X187942733Y-117774500D01*
X187921487Y-117768261D01*
X187899399Y-117766682D01*
X187888615Y-117758609D01*
X187875694Y-117754815D01*
X187861194Y-117738081D01*
X187843466Y-117724810D01*
X187838758Y-117712189D01*
X187829939Y-117702011D01*
X187826787Y-117680093D01*
X187819049Y-117659346D01*
X187821911Y-117646185D01*
X187819995Y-117632853D01*
X187829194Y-117612709D01*
X187831809Y-117600691D01*
X190509500Y-117600691D01*
X190509500Y-117719309D01*
X190540201Y-117833886D01*
X190599511Y-117936613D01*
X190683387Y-118020489D01*
X190786114Y-118079799D01*
X190900691Y-118110500D01*
X190900694Y-118110500D01*
X191019306Y-118110500D01*
X191019309Y-118110500D01*
X191133886Y-118079799D01*
X191236613Y-118020489D01*
X191320489Y-117936613D01*
X191379799Y-117833886D01*
X191410500Y-117719309D01*
X191410500Y-117687038D01*
X191430185Y-117619999D01*
X191475695Y-117580564D01*
X191474653Y-117578759D01*
X191484027Y-117573347D01*
X191584419Y-117515385D01*
X191668295Y-117431509D01*
X191727605Y-117328782D01*
X191758306Y-117214205D01*
X191758306Y-117095587D01*
X191727605Y-116981010D01*
X191668295Y-116878283D01*
X191584419Y-116794407D01*
X191481692Y-116735097D01*
X191367115Y-116704396D01*
X191248497Y-116704396D01*
X191133920Y-116735097D01*
X191133918Y-116735097D01*
X191133918Y-116735098D01*
X191031193Y-116794407D01*
X191031190Y-116794409D01*
X190947319Y-116878280D01*
X190947317Y-116878283D01*
X190888007Y-116981010D01*
X190857306Y-117095587D01*
X190857306Y-117095589D01*
X190857306Y-117127857D01*
X190837621Y-117194896D01*
X190792110Y-117234331D01*
X190793153Y-117236137D01*
X190683387Y-117299511D01*
X190683384Y-117299513D01*
X190599513Y-117383384D01*
X190599511Y-117383387D01*
X190546923Y-117474472D01*
X190540201Y-117486114D01*
X190509500Y-117600691D01*
X187831809Y-117600691D01*
X187833901Y-117591073D01*
X187847169Y-117573347D01*
X187849020Y-117569297D01*
X187855052Y-117562819D01*
X187912988Y-117504883D01*
X188322284Y-117095587D01*
X188767666Y-116650204D01*
X188793345Y-116630501D01*
X188801311Y-116625902D01*
X188826317Y-116611465D01*
X189985465Y-115452317D01*
X190028318Y-115378094D01*
X190050500Y-115295308D01*
X190050500Y-115209602D01*
X190050500Y-112012964D01*
X190070185Y-111945925D01*
X190080548Y-111933064D01*
X190080542Y-111933059D01*
X190085481Y-111926620D01*
X190085489Y-111926613D01*
X190144799Y-111823886D01*
X190175500Y-111709309D01*
X190175500Y-111590691D01*
X190144799Y-111476114D01*
X190085489Y-111373387D01*
X190001613Y-111289511D01*
X189898886Y-111230201D01*
X189784309Y-111199500D01*
X189665691Y-111199500D01*
X189551114Y-111230201D01*
X189551112Y-111230201D01*
X189551112Y-111230202D01*
X189448387Y-111289511D01*
X189448384Y-111289513D01*
X189364513Y-111373384D01*
X189364511Y-111373387D01*
X189322234Y-111446613D01*
X189305201Y-111476114D01*
X189274500Y-111590691D01*
X189274500Y-111709309D01*
X189305201Y-111823886D01*
X189364511Y-111926613D01*
X189364514Y-111926616D01*
X189369458Y-111933059D01*
X189368026Y-111934157D01*
X189396666Y-111986606D01*
X189399500Y-112012964D01*
X189399500Y-115066265D01*
X189379815Y-115133304D01*
X189363181Y-115153946D01*
X188987181Y-115529946D01*
X188967744Y-115540558D01*
X188951011Y-115555059D01*
X188937679Y-115556975D01*
X188925858Y-115563431D01*
X188903771Y-115561851D01*
X188881853Y-115565003D01*
X188869601Y-115559407D01*
X188856166Y-115558447D01*
X188838439Y-115545176D01*
X188818297Y-115535978D01*
X188811014Y-115524646D01*
X188800233Y-115516575D01*
X188792495Y-115495829D01*
X188780523Y-115477200D01*
X188777371Y-115455281D01*
X188775816Y-115451111D01*
X188775500Y-115442265D01*
X188775500Y-115352855D01*
X188775501Y-115352842D01*
X188775501Y-115257148D01*
X188771092Y-115240693D01*
X188753318Y-115174361D01*
X188712117Y-115103000D01*
X188710465Y-115100138D01*
X188649862Y-115039535D01*
X188649859Y-115039533D01*
X186803226Y-113192900D01*
X184935819Y-111325492D01*
X184902334Y-111264169D01*
X184899500Y-111237811D01*
X184899500Y-101759734D01*
X184919185Y-101692695D01*
X184926008Y-101684227D01*
X184925519Y-101683852D01*
X184930459Y-101677412D01*
X184930465Y-101677407D01*
X184973318Y-101603183D01*
X184992742Y-101530692D01*
X184995501Y-101520397D01*
X184995501Y-101434692D01*
X184995500Y-101434688D01*
X184995500Y-99649060D01*
X186979379Y-99649060D01*
X186979379Y-99767678D01*
X187010080Y-99882255D01*
X187069390Y-99984982D01*
X187153266Y-100068858D01*
X187255993Y-100128168D01*
X187370570Y-100158869D01*
X187370573Y-100158869D01*
X187489185Y-100158869D01*
X187489188Y-100158869D01*
X187603765Y-100128168D01*
X187706492Y-100068858D01*
X187790368Y-99984982D01*
X187849678Y-99882255D01*
X187870345Y-99805124D01*
X187906707Y-99745467D01*
X187958021Y-99717447D01*
X188023886Y-99699799D01*
X188126613Y-99640489D01*
X188210489Y-99556613D01*
X188269799Y-99453886D01*
X188300500Y-99339309D01*
X188300500Y-99220691D01*
X188269799Y-99106114D01*
X188210489Y-99003387D01*
X188126613Y-98919511D01*
X188023886Y-98860201D01*
X187909309Y-98829500D01*
X187790691Y-98829500D01*
X187676114Y-98860201D01*
X187676112Y-98860201D01*
X187676112Y-98860202D01*
X187573387Y-98919511D01*
X187573384Y-98919513D01*
X187489513Y-99003384D01*
X187489511Y-99003387D01*
X187430201Y-99106114D01*
X187409534Y-99183243D01*
X187373170Y-99242902D01*
X187321855Y-99270922D01*
X187255993Y-99288570D01*
X187255991Y-99288570D01*
X187255991Y-99288571D01*
X187153266Y-99347880D01*
X187153263Y-99347882D01*
X187069392Y-99431753D01*
X187069390Y-99431756D01*
X187014962Y-99526028D01*
X187010080Y-99534483D01*
X186979379Y-99649060D01*
X184995500Y-99649060D01*
X184995500Y-98466647D01*
X185693546Y-98466647D01*
X185693546Y-98585265D01*
X185724247Y-98699842D01*
X185783557Y-98802569D01*
X185867433Y-98886445D01*
X185970160Y-98945755D01*
X186084737Y-98976456D01*
X186084740Y-98976456D01*
X186203352Y-98976456D01*
X186203355Y-98976456D01*
X186317932Y-98945755D01*
X186420659Y-98886445D01*
X186504535Y-98802569D01*
X186563845Y-98699842D01*
X186594286Y-98586231D01*
X186630650Y-98526574D01*
X186681964Y-98498554D01*
X186709534Y-98491167D01*
X186812261Y-98431857D01*
X186879644Y-98364474D01*
X189768067Y-98364474D01*
X189768067Y-98483092D01*
X189798768Y-98597669D01*
X189858078Y-98700396D01*
X189941954Y-98784272D01*
X190044681Y-98843582D01*
X190159258Y-98874283D01*
X190159261Y-98874283D01*
X190277873Y-98874283D01*
X190277876Y-98874283D01*
X190392453Y-98843582D01*
X190495180Y-98784272D01*
X190579056Y-98700396D01*
X190638366Y-98597669D01*
X190669067Y-98483092D01*
X190669067Y-98443990D01*
X190688752Y-98376951D01*
X190736074Y-98335946D01*
X190735414Y-98334803D01*
X190741345Y-98331378D01*
X190741556Y-98331196D01*
X190741984Y-98331009D01*
X190742450Y-98330739D01*
X190742453Y-98330739D01*
X190845180Y-98271429D01*
X190929056Y-98187553D01*
X190988366Y-98084826D01*
X191019067Y-97970249D01*
X191019067Y-97949360D01*
X191038752Y-97882321D01*
X191086074Y-97841316D01*
X191085414Y-97840173D01*
X191091345Y-97836748D01*
X191091556Y-97836566D01*
X191091984Y-97836379D01*
X191092450Y-97836109D01*
X191092453Y-97836109D01*
X191195180Y-97776799D01*
X191279056Y-97692923D01*
X191338366Y-97590196D01*
X191369067Y-97475619D01*
X191369067Y-97463644D01*
X191388752Y-97396605D01*
X191437257Y-97354574D01*
X191436847Y-97353863D01*
X191440538Y-97351731D01*
X191441556Y-97350850D01*
X191443627Y-97349948D01*
X191443884Y-97349799D01*
X191443886Y-97349799D01*
X191546613Y-97290489D01*
X191630489Y-97206613D01*
X191689799Y-97103886D01*
X191720500Y-96989309D01*
X191720500Y-96870691D01*
X191689799Y-96756114D01*
X191630489Y-96653387D01*
X191546613Y-96569511D01*
X191443886Y-96510201D01*
X191329309Y-96479500D01*
X191210691Y-96479500D01*
X191096114Y-96510201D01*
X191096112Y-96510201D01*
X191096112Y-96510202D01*
X190993387Y-96569511D01*
X190993384Y-96569513D01*
X190909513Y-96653384D01*
X190909511Y-96653387D01*
X190850201Y-96756114D01*
X190819500Y-96870691D01*
X190819500Y-96870693D01*
X190819500Y-96882665D01*
X190799815Y-96949704D01*
X190751308Y-96991734D01*
X190751720Y-96992447D01*
X190748025Y-96994580D01*
X190747011Y-96995459D01*
X190744944Y-96996358D01*
X190641954Y-97055821D01*
X190641951Y-97055823D01*
X190558080Y-97139694D01*
X190558078Y-97139697D01*
X190500284Y-97239799D01*
X190498768Y-97242424D01*
X190468067Y-97357001D01*
X190468067Y-97357003D01*
X190468067Y-97377889D01*
X190448382Y-97444928D01*
X190401059Y-97485933D01*
X190401720Y-97487077D01*
X190395784Y-97490503D01*
X190395578Y-97490683D01*
X190395156Y-97490866D01*
X190291954Y-97550451D01*
X190291951Y-97550453D01*
X190208080Y-97634324D01*
X190208078Y-97634327D01*
X190163801Y-97711017D01*
X190148768Y-97737054D01*
X190118067Y-97851631D01*
X190118067Y-97851633D01*
X190118067Y-97890732D01*
X190098382Y-97957771D01*
X190051059Y-97998776D01*
X190051720Y-97999920D01*
X190045784Y-98003346D01*
X190045578Y-98003526D01*
X190045156Y-98003709D01*
X189941954Y-98063294D01*
X189941951Y-98063296D01*
X189858080Y-98147167D01*
X189858078Y-98147170D01*
X189799090Y-98249340D01*
X189798768Y-98249897D01*
X189768067Y-98364474D01*
X186879644Y-98364474D01*
X186896137Y-98347981D01*
X186955447Y-98245254D01*
X186986148Y-98130677D01*
X186986148Y-98012059D01*
X186955447Y-97897482D01*
X186896137Y-97794755D01*
X186812261Y-97710879D01*
X186709534Y-97651569D01*
X186594957Y-97620868D01*
X186476339Y-97620868D01*
X186361762Y-97651569D01*
X186361760Y-97651569D01*
X186361760Y-97651570D01*
X186259035Y-97710879D01*
X186259032Y-97710881D01*
X186175161Y-97794752D01*
X186175159Y-97794755D01*
X186115849Y-97897480D01*
X186085408Y-98011089D01*
X186049042Y-98070749D01*
X185997730Y-98098769D01*
X185970159Y-98106157D01*
X185867433Y-98165467D01*
X185867430Y-98165469D01*
X185783559Y-98249340D01*
X185783557Y-98249343D01*
X185724666Y-98351345D01*
X185724247Y-98352070D01*
X185693546Y-98466647D01*
X184995500Y-98466647D01*
X184995500Y-96110421D01*
X184994189Y-96105529D01*
X184989421Y-96087732D01*
X184989419Y-96087727D01*
X184987204Y-96079461D01*
X184973318Y-96027635D01*
X184942640Y-95974500D01*
X184930465Y-95953412D01*
X184869862Y-95892809D01*
X184869861Y-95892808D01*
X184865531Y-95888478D01*
X184865520Y-95888468D01*
X183094758Y-94117706D01*
X183061273Y-94056383D01*
X183066257Y-93986691D01*
X183094758Y-93942344D01*
X183140489Y-93896613D01*
X183199799Y-93793886D01*
X183230500Y-93679309D01*
X183230500Y-93560691D01*
X183204717Y-93464468D01*
X183206380Y-93394624D01*
X183245542Y-93336761D01*
X183309770Y-93309256D01*
X183356581Y-93312603D01*
X183460691Y-93340500D01*
X183460694Y-93340500D01*
X183579306Y-93340500D01*
X183579309Y-93340500D01*
X183693886Y-93309799D01*
X183796613Y-93250489D01*
X183880489Y-93166613D01*
X183939799Y-93063886D01*
X183970500Y-92949309D01*
X183970500Y-92830691D01*
X183939799Y-92716114D01*
X183880489Y-92613387D01*
X183796613Y-92529511D01*
X183693886Y-92470201D01*
X183579309Y-92439500D01*
X183460691Y-92439500D01*
X183346114Y-92470201D01*
X183346112Y-92470201D01*
X183346112Y-92470202D01*
X183243387Y-92529511D01*
X183243384Y-92529513D01*
X183159513Y-92613384D01*
X183159511Y-92613387D01*
X183100201Y-92716114D01*
X183069500Y-92830691D01*
X183069500Y-92949309D01*
X183095281Y-93045527D01*
X183093619Y-93115376D01*
X183054457Y-93173239D01*
X182990228Y-93200743D01*
X182943414Y-93197395D01*
X182936482Y-93195537D01*
X182839309Y-93169500D01*
X182720691Y-93169500D01*
X182606114Y-93200201D01*
X182606112Y-93200201D01*
X182606112Y-93200202D01*
X182503387Y-93259511D01*
X182457654Y-93305243D01*
X182396330Y-93338727D01*
X182326638Y-93333741D01*
X182282293Y-93305241D01*
X180717743Y-91740691D01*
X184609500Y-91740691D01*
X184609500Y-91859309D01*
X184640201Y-91973886D01*
X184699511Y-92076613D01*
X184783387Y-92160489D01*
X184886114Y-92219799D01*
X185000691Y-92250500D01*
X185000694Y-92250500D01*
X185119306Y-92250500D01*
X185119309Y-92250500D01*
X185233886Y-92219799D01*
X185336613Y-92160489D01*
X185420489Y-92076613D01*
X185479799Y-91973886D01*
X185510500Y-91859309D01*
X185510500Y-91740691D01*
X185479799Y-91626114D01*
X185420489Y-91523387D01*
X185336613Y-91439511D01*
X185233886Y-91380201D01*
X185119309Y-91349500D01*
X185000691Y-91349500D01*
X184886114Y-91380201D01*
X184886112Y-91380201D01*
X184886112Y-91380202D01*
X184783387Y-91439511D01*
X184783384Y-91439513D01*
X184699513Y-91523384D01*
X184699511Y-91523387D01*
X184640201Y-91626114D01*
X184609500Y-91740691D01*
X180717743Y-91740691D01*
X178537297Y-89560245D01*
X178457743Y-89480691D01*
X184889500Y-89480691D01*
X184889500Y-89599309D01*
X184920201Y-89713886D01*
X184979511Y-89816613D01*
X185063387Y-89900489D01*
X185166114Y-89959799D01*
X185280691Y-89990500D01*
X185280694Y-89990500D01*
X185399306Y-89990500D01*
X185399309Y-89990500D01*
X185513886Y-89959799D01*
X185616613Y-89900489D01*
X185700489Y-89816613D01*
X185759799Y-89713886D01*
X185790500Y-89599309D01*
X185790500Y-89480691D01*
X185759799Y-89366114D01*
X185700489Y-89263387D01*
X185616613Y-89179511D01*
X185513886Y-89120201D01*
X185399309Y-89089500D01*
X185280691Y-89089500D01*
X185166114Y-89120201D01*
X185166112Y-89120201D01*
X185166112Y-89120202D01*
X185063387Y-89179511D01*
X185063384Y-89179513D01*
X184979513Y-89263384D01*
X184979511Y-89263387D01*
X184920201Y-89366114D01*
X184889500Y-89480691D01*
X178457743Y-89480691D01*
X173527298Y-84550245D01*
X173447744Y-84470691D01*
X187449500Y-84470691D01*
X187449500Y-84589309D01*
X187480201Y-84703886D01*
X187539511Y-84806613D01*
X187623387Y-84890489D01*
X187726114Y-84949799D01*
X187840691Y-84980500D01*
X187840694Y-84980500D01*
X187959306Y-84980500D01*
X187959309Y-84980500D01*
X188073886Y-84949799D01*
X188176613Y-84890489D01*
X188260489Y-84806613D01*
X188319799Y-84703886D01*
X188350500Y-84589309D01*
X188350500Y-84470691D01*
X188319799Y-84356114D01*
X188260489Y-84253387D01*
X188176613Y-84169511D01*
X188073886Y-84110201D01*
X187959309Y-84079500D01*
X187840691Y-84079500D01*
X187726114Y-84110201D01*
X187726112Y-84110201D01*
X187726112Y-84110202D01*
X187623387Y-84169511D01*
X187623384Y-84169513D01*
X187539513Y-84253384D01*
X187539511Y-84253387D01*
X187480201Y-84356114D01*
X187449500Y-84470691D01*
X173447744Y-84470691D01*
X172480234Y-83503181D01*
X172446749Y-83441858D01*
X172451733Y-83372166D01*
X172493605Y-83316233D01*
X172559069Y-83291816D01*
X172567915Y-83291500D01*
X182949306Y-83291500D01*
X182949308Y-83291500D01*
X183032094Y-83269318D01*
X183106317Y-83226465D01*
X183412091Y-82920691D01*
X186479500Y-82920691D01*
X186479500Y-83039309D01*
X186510201Y-83153886D01*
X186569511Y-83256613D01*
X186653387Y-83340489D01*
X186756114Y-83399799D01*
X186870691Y-83430500D01*
X186870694Y-83430500D01*
X186989306Y-83430500D01*
X186989309Y-83430500D01*
X187103886Y-83399799D01*
X187206613Y-83340489D01*
X187290489Y-83256613D01*
X187349799Y-83153886D01*
X187380500Y-83039309D01*
X187380500Y-82920691D01*
X187349799Y-82806114D01*
X187290489Y-82703387D01*
X187206613Y-82619511D01*
X187103886Y-82560201D01*
X186989309Y-82529500D01*
X186870691Y-82529500D01*
X186756114Y-82560201D01*
X186756112Y-82560201D01*
X186756112Y-82560202D01*
X186653387Y-82619511D01*
X186653384Y-82619513D01*
X186569513Y-82703384D01*
X186569511Y-82703387D01*
X186510201Y-82806114D01*
X186479500Y-82920691D01*
X183412091Y-82920691D01*
X183416465Y-82916317D01*
X183459318Y-82842094D01*
X183481500Y-82759308D01*
X183481500Y-82673602D01*
X183481500Y-81790691D01*
X185493912Y-81790691D01*
X185493912Y-81909309D01*
X185524613Y-82023886D01*
X185583923Y-82126613D01*
X185667799Y-82210489D01*
X185770526Y-82269799D01*
X185885103Y-82300500D01*
X185885106Y-82300500D01*
X186003718Y-82300500D01*
X186003721Y-82300500D01*
X186118298Y-82269799D01*
X186221025Y-82210489D01*
X186304901Y-82126613D01*
X186364211Y-82023886D01*
X186394912Y-81909309D01*
X186394912Y-81790691D01*
X186364211Y-81676114D01*
X186304901Y-81573387D01*
X186221025Y-81489511D01*
X186118298Y-81430201D01*
X186003721Y-81399500D01*
X185885103Y-81399500D01*
X185770526Y-81430201D01*
X185770524Y-81430201D01*
X185770524Y-81430202D01*
X185667799Y-81489511D01*
X185667796Y-81489513D01*
X185583925Y-81573384D01*
X185583923Y-81573387D01*
X185535910Y-81656548D01*
X185524613Y-81676114D01*
X185493912Y-81790691D01*
X183481500Y-81790691D01*
X183481500Y-77060189D01*
X183490144Y-77030748D01*
X183496668Y-77000762D01*
X183500422Y-76995746D01*
X183501185Y-76993150D01*
X183517819Y-76972508D01*
X183593508Y-76896819D01*
X183654831Y-76863334D01*
X183671250Y-76861568D01*
X183671249Y-76861561D01*
X183679305Y-76860500D01*
X183679309Y-76860500D01*
X183793886Y-76829799D01*
X183896613Y-76770489D01*
X183980489Y-76686613D01*
X184039799Y-76583886D01*
X184070500Y-76469309D01*
X184070500Y-76350691D01*
X184039799Y-76236114D01*
X183980489Y-76133387D01*
X183896613Y-76049511D01*
X183793886Y-75990201D01*
X183679309Y-75959500D01*
X183560691Y-75959500D01*
X183446114Y-75990201D01*
X183446112Y-75990201D01*
X183446112Y-75990202D01*
X183343387Y-76049511D01*
X183343384Y-76049513D01*
X183259513Y-76133384D01*
X183259511Y-76133387D01*
X183200202Y-76236112D01*
X183169499Y-76350694D01*
X183168439Y-76358751D01*
X183166650Y-76358515D01*
X183149815Y-76415850D01*
X183133181Y-76436492D01*
X182895537Y-76674135D01*
X182895535Y-76674138D01*
X182852682Y-76748359D01*
X182852681Y-76748362D01*
X182846752Y-76770487D01*
X182846753Y-76770488D01*
X182830500Y-76831145D01*
X182830500Y-81880811D01*
X182810815Y-81947850D01*
X182758011Y-81993605D01*
X182688853Y-82003549D01*
X182625297Y-81974524D01*
X182618819Y-81968492D01*
X178249864Y-77599537D01*
X178249862Y-77599535D01*
X178212750Y-77578108D01*
X178175640Y-77556682D01*
X178134246Y-77545591D01*
X178092853Y-77534500D01*
X178092852Y-77534500D01*
X177692964Y-77534500D01*
X177625925Y-77514815D01*
X177613064Y-77504451D01*
X177613059Y-77504458D01*
X177606615Y-77499513D01*
X177606613Y-77499511D01*
X177503886Y-77440201D01*
X177389309Y-77409500D01*
X177270691Y-77409500D01*
X177156114Y-77440201D01*
X177156112Y-77440201D01*
X177156112Y-77440202D01*
X177053387Y-77499511D01*
X177053384Y-77499513D01*
X176969513Y-77583384D01*
X176969511Y-77583387D01*
X176910202Y-77686112D01*
X176879499Y-77800694D01*
X176878439Y-77808751D01*
X176876650Y-77808515D01*
X176859815Y-77865850D01*
X176843181Y-77886492D01*
X174181492Y-80548181D01*
X174120169Y-80581666D01*
X174093811Y-80584500D01*
X164756189Y-80584500D01*
X164689150Y-80564815D01*
X164668508Y-80548181D01*
X163056819Y-78936492D01*
X163023334Y-78875169D01*
X163021568Y-78858749D01*
X163021561Y-78858751D01*
X163020500Y-78850694D01*
X163020500Y-78850693D01*
X163020500Y-78850691D01*
X162989799Y-78736114D01*
X162930489Y-78633387D01*
X162846613Y-78549511D01*
X162743886Y-78490201D01*
X162629309Y-78459500D01*
X162510691Y-78459500D01*
X162396114Y-78490201D01*
X162396112Y-78490201D01*
X162396112Y-78490202D01*
X162293387Y-78549511D01*
X162293384Y-78549513D01*
X162209513Y-78633384D01*
X162209511Y-78633387D01*
X162150201Y-78736114D01*
X162119500Y-78850691D01*
X162119500Y-78969309D01*
X162150201Y-79083886D01*
X162209511Y-79186613D01*
X162209514Y-79186616D01*
X162214458Y-79193059D01*
X162213026Y-79194157D01*
X162241666Y-79246606D01*
X162244500Y-79272964D01*
X162244500Y-85446105D01*
X162244500Y-85531811D01*
X162255591Y-85573204D01*
X162266682Y-85614598D01*
X162288108Y-85651708D01*
X162309535Y-85688820D01*
X162309536Y-85688821D01*
X162309537Y-85688822D01*
X167163702Y-90542986D01*
X167197187Y-90604309D01*
X167198952Y-90620728D01*
X167198960Y-90620728D01*
X167200020Y-90628784D01*
X167200021Y-90628787D01*
X167200021Y-90628788D01*
X167230722Y-90743365D01*
X167290032Y-90846092D01*
X167373908Y-90929968D01*
X167476635Y-90989278D01*
X167591212Y-91019979D01*
X167591215Y-91019979D01*
X167709827Y-91019979D01*
X167709830Y-91019979D01*
X167824407Y-90989278D01*
X167927134Y-90929968D01*
X168011010Y-90846092D01*
X168070320Y-90743365D01*
X168101021Y-90628788D01*
X168101021Y-90510170D01*
X168070320Y-90395593D01*
X168011010Y-90292866D01*
X167927134Y-90208990D01*
X167824407Y-90149680D01*
X167709830Y-90118979D01*
X167709826Y-90118978D01*
X167701770Y-90117918D01*
X167702005Y-90116129D01*
X167644670Y-90099294D01*
X167624028Y-90082660D01*
X163536614Y-85995245D01*
X163457060Y-85915691D01*
X168324500Y-85915691D01*
X168324500Y-86034309D01*
X168355201Y-86148886D01*
X168414511Y-86251613D01*
X168498387Y-86335489D01*
X168601114Y-86394799D01*
X168715691Y-86425500D01*
X168715694Y-86425500D01*
X168834306Y-86425500D01*
X168834309Y-86425500D01*
X168948886Y-86394799D01*
X169051613Y-86335489D01*
X169135489Y-86251613D01*
X169194799Y-86148886D01*
X169225500Y-86034309D01*
X169225500Y-85915691D01*
X169194799Y-85801114D01*
X169135489Y-85698387D01*
X169051613Y-85614511D01*
X168948886Y-85555201D01*
X168834309Y-85524500D01*
X168715691Y-85524500D01*
X168601114Y-85555201D01*
X168601112Y-85555201D01*
X168601112Y-85555202D01*
X168498387Y-85614511D01*
X168498384Y-85614513D01*
X168414513Y-85698384D01*
X168414511Y-85698387D01*
X168355201Y-85801114D01*
X168324500Y-85915691D01*
X163457060Y-85915691D01*
X162931819Y-85390450D01*
X162898334Y-85329127D01*
X162895500Y-85302769D01*
X162895500Y-79995189D01*
X162915185Y-79928150D01*
X162967989Y-79882395D01*
X163037147Y-79872451D01*
X163100703Y-79901476D01*
X163107181Y-79907508D01*
X164370138Y-81170465D01*
X164444361Y-81213318D01*
X164527147Y-81235500D01*
X164527149Y-81235500D01*
X172578036Y-81235500D01*
X172645075Y-81255185D01*
X172690830Y-81307989D01*
X172700774Y-81377147D01*
X172671749Y-81440703D01*
X172665717Y-81447181D01*
X172639513Y-81473384D01*
X172639511Y-81473387D01*
X172610534Y-81523577D01*
X172580201Y-81576114D01*
X172549500Y-81690691D01*
X172549500Y-81809309D01*
X172580201Y-81923886D01*
X172639511Y-82026613D01*
X172723387Y-82110489D01*
X172826114Y-82169799D01*
X172940691Y-82200500D01*
X172940694Y-82200500D01*
X173059306Y-82200500D01*
X173059309Y-82200500D01*
X173173886Y-82169799D01*
X173276613Y-82110489D01*
X173360489Y-82026613D01*
X173419799Y-81923886D01*
X173450500Y-81809309D01*
X173450500Y-81690691D01*
X173419799Y-81576114D01*
X173360489Y-81473387D01*
X173334283Y-81447181D01*
X173300798Y-81385858D01*
X173305782Y-81316166D01*
X173347654Y-81260233D01*
X173413118Y-81235816D01*
X173421964Y-81235500D01*
X174322851Y-81235500D01*
X174322853Y-81235500D01*
X174405639Y-81213318D01*
X174479862Y-81170465D01*
X177303508Y-78346819D01*
X177364831Y-78313334D01*
X177381250Y-78311568D01*
X177381249Y-78311561D01*
X177389305Y-78310500D01*
X177389309Y-78310500D01*
X177503886Y-78279799D01*
X177606613Y-78220489D01*
X177606620Y-78220481D01*
X177613059Y-78215542D01*
X177614157Y-78216973D01*
X177632210Y-78207115D01*
X177658029Y-78190523D01*
X177664229Y-78189631D01*
X177666606Y-78188334D01*
X177692964Y-78185500D01*
X177863811Y-78185500D01*
X177930850Y-78205185D01*
X177951492Y-78221819D01*
X179923703Y-80194030D01*
X179957188Y-80255353D01*
X179952204Y-80325045D01*
X179910332Y-80380978D01*
X179898023Y-80389097D01*
X179793393Y-80449506D01*
X179793384Y-80449513D01*
X179709513Y-80533384D01*
X179709511Y-80533387D01*
X179646137Y-80643153D01*
X179645165Y-80642592D01*
X179643792Y-80647723D01*
X179624752Y-80665036D01*
X179608601Y-80685072D01*
X179599328Y-80688156D01*
X179592100Y-80694730D01*
X179566722Y-80699002D01*
X179542303Y-80707125D01*
X179530999Y-80705016D01*
X179523200Y-80706329D01*
X179504262Y-80700027D01*
X179489107Y-80697200D01*
X179482304Y-80694288D01*
X179411273Y-80653278D01*
X179345006Y-80635521D01*
X179336867Y-80632038D01*
X179316477Y-80615209D01*
X179293906Y-80601451D01*
X179289063Y-80592582D01*
X179282981Y-80587562D01*
X179278256Y-80572791D01*
X179265886Y-80550137D01*
X179243076Y-80465007D01*
X179183766Y-80362280D01*
X179099890Y-80278404D01*
X178997163Y-80219094D01*
X178882586Y-80188393D01*
X178824882Y-80188393D01*
X178757843Y-80168708D01*
X178712088Y-80115904D01*
X178705107Y-80096487D01*
X178696783Y-80065422D01*
X178656233Y-79995189D01*
X178637474Y-79962697D01*
X178553598Y-79878821D01*
X178450871Y-79819511D01*
X178336294Y-79788810D01*
X178217676Y-79788810D01*
X178103099Y-79819511D01*
X178103097Y-79819511D01*
X178103097Y-79819512D01*
X178000372Y-79878821D01*
X178000369Y-79878823D01*
X177916498Y-79962694D01*
X177916496Y-79962697D01*
X177857186Y-80065424D01*
X177826485Y-80180001D01*
X177826485Y-80298619D01*
X177857186Y-80413196D01*
X177916496Y-80515923D01*
X178000372Y-80599799D01*
X178103099Y-80659109D01*
X178217676Y-80689810D01*
X178217679Y-80689810D01*
X178275380Y-80689810D01*
X178342419Y-80709495D01*
X178388174Y-80762299D01*
X178395155Y-80781716D01*
X178403478Y-80812780D01*
X178415682Y-80833917D01*
X178462788Y-80915506D01*
X178546664Y-80999382D01*
X178649391Y-81058692D01*
X178707097Y-81074154D01*
X178766756Y-81110517D01*
X178794777Y-81161832D01*
X178817588Y-81246963D01*
X178876898Y-81349690D01*
X178960774Y-81433566D01*
X179063501Y-81492876D01*
X179178078Y-81523577D01*
X179178081Y-81523577D01*
X179296693Y-81523577D01*
X179296696Y-81523577D01*
X179411273Y-81492876D01*
X179514000Y-81433566D01*
X179597876Y-81349690D01*
X179657186Y-81246963D01*
X179657186Y-81246962D01*
X179661250Y-81239924D01*
X179663813Y-81241403D01*
X179698725Y-81198045D01*
X179765010Y-81175954D01*
X179813227Y-81183844D01*
X179822710Y-81187419D01*
X179896114Y-81229799D01*
X180010691Y-81260500D01*
X180016568Y-81260500D01*
X180033097Y-81266731D01*
X180050023Y-81279494D01*
X180069411Y-81288065D01*
X180077360Y-81300109D01*
X180088883Y-81308798D01*
X180096220Y-81328684D01*
X180107899Y-81346378D01*
X180109131Y-81350666D01*
X180125200Y-81410638D01*
X180138438Y-81433566D01*
X180184510Y-81513364D01*
X180268386Y-81597240D01*
X180371113Y-81656550D01*
X180485690Y-81687251D01*
X180485693Y-81687251D01*
X180604305Y-81687251D01*
X180604308Y-81687251D01*
X180718885Y-81656550D01*
X180821612Y-81597240D01*
X180905488Y-81513364D01*
X180948240Y-81439315D01*
X180998807Y-81391100D01*
X181067414Y-81377878D01*
X181132279Y-81403846D01*
X181143308Y-81413635D01*
X182158492Y-82428819D01*
X182191977Y-82490142D01*
X182186993Y-82559834D01*
X182145121Y-82615767D01*
X182079657Y-82640184D01*
X182070811Y-82640500D01*
X172271370Y-82640500D01*
X172204331Y-82620815D01*
X172183689Y-82604181D01*
X172014682Y-82435174D01*
X172014680Y-82435172D01*
X171974668Y-82412071D01*
X171940458Y-82392319D01*
X171889405Y-82378640D01*
X171857671Y-82370137D01*
X171504761Y-82370137D01*
X171419055Y-82370137D01*
X171336267Y-82392319D01*
X171262046Y-82435171D01*
X171021890Y-82675327D01*
X170960567Y-82708811D01*
X170890875Y-82703827D01*
X170834942Y-82661955D01*
X170820156Y-82631508D01*
X170818833Y-82632056D01*
X170815725Y-82624552D01*
X170810653Y-82615767D01*
X170756415Y-82521825D01*
X170672539Y-82437949D01*
X170569812Y-82378639D01*
X170455235Y-82347938D01*
X170336617Y-82347938D01*
X170222040Y-82378639D01*
X170222038Y-82378639D01*
X170222038Y-82378640D01*
X170119313Y-82437949D01*
X170119310Y-82437951D01*
X170035439Y-82521822D01*
X170035437Y-82521825D01*
X169978285Y-82620815D01*
X169976127Y-82624552D01*
X169945426Y-82739129D01*
X169945426Y-82857747D01*
X169976127Y-82972324D01*
X170035437Y-83075051D01*
X170035438Y-83075052D01*
X170039501Y-83082089D01*
X170037659Y-83083151D01*
X170058801Y-83137833D01*
X170044764Y-83206278D01*
X169995951Y-83256268D01*
X169967327Y-83267926D01*
X169921520Y-83280200D01*
X169818793Y-83339511D01*
X169818790Y-83339513D01*
X169734919Y-83423384D01*
X169734917Y-83423387D01*
X169675607Y-83526114D01*
X169644906Y-83640691D01*
X169644906Y-83759309D01*
X169673411Y-83865691D01*
X169675608Y-83873889D01*
X169692611Y-83903339D01*
X169709084Y-83971239D01*
X169686231Y-84037266D01*
X169672907Y-84053019D01*
X169630139Y-84095788D01*
X169610020Y-84115907D01*
X169550710Y-84218634D01*
X169520009Y-84333211D01*
X169520009Y-84333213D01*
X169520009Y-84451828D01*
X169537926Y-84518697D01*
X169536263Y-84588547D01*
X169505834Y-84638470D01*
X169475172Y-84669133D01*
X169450100Y-84694205D01*
X169390790Y-84796932D01*
X169360089Y-84911509D01*
X169360089Y-85030127D01*
X169390790Y-85144704D01*
X169450100Y-85247431D01*
X169533976Y-85331307D01*
X169636703Y-85390617D01*
X169751280Y-85421318D01*
X169751283Y-85421318D01*
X169869895Y-85421318D01*
X169869898Y-85421318D01*
X169984475Y-85390617D01*
X170087202Y-85331307D01*
X170171078Y-85247431D01*
X170171078Y-85247430D01*
X170172819Y-85245690D01*
X170234142Y-85212205D01*
X170303834Y-85217189D01*
X170359767Y-85259061D01*
X170384184Y-85324525D01*
X170384500Y-85333371D01*
X170384500Y-92906110D01*
X170364815Y-92973149D01*
X170312011Y-93018904D01*
X170242853Y-93028848D01*
X170179297Y-92999823D01*
X170172819Y-92993791D01*
X170153704Y-92974676D01*
X170153702Y-92974674D01*
X170050975Y-92915364D01*
X169936398Y-92884663D01*
X169817780Y-92884663D01*
X169703203Y-92915364D01*
X169703201Y-92915364D01*
X169703201Y-92915365D01*
X169600476Y-92974674D01*
X169594030Y-92979621D01*
X169592931Y-92978189D01*
X169540483Y-93006829D01*
X169514125Y-93009663D01*
X167915302Y-93009663D01*
X167915286Y-93009662D01*
X167907690Y-93009662D01*
X167821985Y-93009662D01*
X167780592Y-93020753D01*
X167739197Y-93031845D01*
X167739192Y-93031848D01*
X167664981Y-93074693D01*
X167664973Y-93074699D01*
X166862492Y-93877181D01*
X166801169Y-93910666D01*
X166774811Y-93913500D01*
X159421964Y-93913500D01*
X159354925Y-93893815D01*
X159343156Y-93884331D01*
X159343059Y-93884458D01*
X159336615Y-93879513D01*
X159336613Y-93879511D01*
X159233886Y-93820201D01*
X159119309Y-93789500D01*
X159000691Y-93789500D01*
X158886114Y-93820201D01*
X158886112Y-93820201D01*
X158886112Y-93820202D01*
X158783387Y-93879511D01*
X158783384Y-93879513D01*
X158699513Y-93963384D01*
X158699511Y-93963387D01*
X158644874Y-94058021D01*
X158640201Y-94066114D01*
X158609500Y-94180691D01*
X158609500Y-94299309D01*
X158640201Y-94413886D01*
X158699511Y-94516613D01*
X158783387Y-94600489D01*
X158886114Y-94659799D01*
X159000691Y-94690500D01*
X159000694Y-94690500D01*
X159119306Y-94690500D01*
X159119309Y-94690500D01*
X159233886Y-94659799D01*
X159336613Y-94600489D01*
X159336620Y-94600481D01*
X159343059Y-94595542D01*
X159344084Y-94596878D01*
X159355643Y-94590564D01*
X159373103Y-94575798D01*
X159392810Y-94570265D01*
X159396893Y-94568036D01*
X159407083Y-94566259D01*
X159412394Y-94565560D01*
X159428575Y-94564500D01*
X166275811Y-94564500D01*
X166342850Y-94584185D01*
X166388605Y-94636989D01*
X166398549Y-94706147D01*
X166369524Y-94769703D01*
X166363492Y-94776181D01*
X165396492Y-95743181D01*
X165335169Y-95776666D01*
X165318749Y-95778431D01*
X165318751Y-95778439D01*
X165310694Y-95779499D01*
X165273673Y-95789419D01*
X165196114Y-95810201D01*
X165196113Y-95810201D01*
X165196111Y-95810202D01*
X165170716Y-95824864D01*
X165102816Y-95841336D01*
X165046718Y-95824863D01*
X164945483Y-95766415D01*
X164830906Y-95735714D01*
X164712288Y-95735714D01*
X164597711Y-95766415D01*
X164597709Y-95766415D01*
X164597709Y-95766416D01*
X164494984Y-95825725D01*
X164494981Y-95825727D01*
X164411110Y-95909598D01*
X164411108Y-95909601D01*
X164361841Y-95994934D01*
X164351798Y-96012328D01*
X164321097Y-96126905D01*
X164321097Y-96245523D01*
X164351798Y-96360100D01*
X164411108Y-96462827D01*
X164494984Y-96546703D01*
X164597711Y-96606013D01*
X164712288Y-96636714D01*
X164712291Y-96636714D01*
X164830903Y-96636714D01*
X164830906Y-96636714D01*
X164945483Y-96606013D01*
X164970876Y-96591351D01*
X165038776Y-96574877D01*
X165094880Y-96591351D01*
X165196108Y-96649796D01*
X165196109Y-96649797D01*
X165196111Y-96649797D01*
X165196114Y-96649799D01*
X165310691Y-96680500D01*
X165310694Y-96680500D01*
X165429306Y-96680500D01*
X165429309Y-96680500D01*
X165543886Y-96649799D01*
X165646613Y-96590489D01*
X165730489Y-96506613D01*
X165753054Y-96467528D01*
X165755170Y-96465511D01*
X165755988Y-96462705D01*
X165780296Y-96441554D01*
X165803622Y-96419314D01*
X165806492Y-96418760D01*
X165808698Y-96416842D01*
X165840589Y-96412189D01*
X165872229Y-96406092D01*
X165874942Y-96407178D01*
X165877836Y-96406756D01*
X165907187Y-96420087D01*
X165937093Y-96432060D01*
X165939595Y-96434807D01*
X165941451Y-96435650D01*
X165952225Y-96448671D01*
X165964618Y-96462276D01*
X165966291Y-96464867D01*
X165990307Y-96506464D01*
X165998312Y-96514469D01*
X166005473Y-96525561D01*
X166011790Y-96546914D01*
X166022462Y-96566457D01*
X166025252Y-96592414D01*
X166025296Y-96592560D01*
X166025275Y-96592628D01*
X166025296Y-96592815D01*
X166025296Y-98163014D01*
X166005611Y-98230053D01*
X165988977Y-98250695D01*
X164713643Y-99526028D01*
X164652320Y-99559513D01*
X164582628Y-99554529D01*
X164526695Y-99512657D01*
X164514847Y-99491849D01*
X164514607Y-99491978D01*
X164511737Y-99486609D01*
X164511734Y-99486604D01*
X164440546Y-99380062D01*
X164440544Y-99380060D01*
X164440542Y-99380057D01*
X164349942Y-99289457D01*
X164348616Y-99288571D01*
X164243396Y-99218266D01*
X164237184Y-99215693D01*
X164125013Y-99169230D01*
X164125005Y-99169228D01*
X163999342Y-99144232D01*
X163999338Y-99144232D01*
X163871200Y-99144232D01*
X163871195Y-99144232D01*
X163745532Y-99169228D01*
X163745520Y-99169231D01*
X163738441Y-99172164D01*
X163730264Y-99173790D01*
X163725924Y-99176580D01*
X163690989Y-99181603D01*
X163658705Y-99181603D01*
X163591666Y-99161918D01*
X163571024Y-99145284D01*
X163482566Y-99056826D01*
X161804871Y-97379130D01*
X161804870Y-97379129D01*
X161804866Y-97379126D01*
X161698324Y-97307938D01*
X161656191Y-97290486D01*
X161579941Y-97258902D01*
X161579935Y-97258900D01*
X161454268Y-97233903D01*
X161454266Y-97233903D01*
X160760808Y-97233903D01*
X160693769Y-97214218D01*
X160673127Y-97197584D01*
X160394674Y-96919130D01*
X160394673Y-96919129D01*
X160376522Y-96907001D01*
X160288127Y-96847938D01*
X160169744Y-96798902D01*
X160169736Y-96798900D01*
X160044073Y-96773904D01*
X160044069Y-96773904D01*
X159915931Y-96773904D01*
X159915926Y-96773904D01*
X159790263Y-96798900D01*
X159790255Y-96798902D01*
X159671874Y-96847937D01*
X159565326Y-96919129D01*
X159474726Y-97009729D01*
X159403534Y-97116277D01*
X159354499Y-97234658D01*
X159354497Y-97234666D01*
X159329501Y-97360329D01*
X159329501Y-97488476D01*
X159345241Y-97567607D01*
X159339014Y-97637199D01*
X159338186Y-97639249D01*
X159315235Y-97694659D01*
X159315233Y-97694664D01*
X159290236Y-97820331D01*
X159290236Y-97820334D01*
X159290236Y-97948472D01*
X159290236Y-97948474D01*
X159290235Y-97948474D01*
X159315233Y-98074141D01*
X159315235Y-98074147D01*
X159364269Y-98192527D01*
X159364274Y-98192536D01*
X159435459Y-98299071D01*
X159435462Y-98299075D01*
X159526063Y-98389676D01*
X159526067Y-98389679D01*
X159632602Y-98460864D01*
X159632611Y-98460869D01*
X159659428Y-98471977D01*
X159750992Y-98509904D01*
X159750996Y-98509904D01*
X159750997Y-98509905D01*
X159876664Y-98534903D01*
X159876667Y-98534903D01*
X160375931Y-98534903D01*
X160485931Y-98534903D01*
X161069389Y-98534903D01*
X161136428Y-98554588D01*
X161157070Y-98571222D01*
X161468981Y-98883133D01*
X161502466Y-98944456D01*
X161497482Y-99014148D01*
X161455610Y-99070081D01*
X161443302Y-99078200D01*
X161364127Y-99123913D01*
X161364121Y-99123917D01*
X161280250Y-99207788D01*
X161280248Y-99207791D01*
X161220938Y-99310518D01*
X161190393Y-99424513D01*
X161190235Y-99425103D01*
X161189291Y-99432275D01*
X161161022Y-99496170D01*
X161102696Y-99534639D01*
X161032831Y-99535467D01*
X160978672Y-99503765D01*
X160789444Y-99314537D01*
X160789442Y-99314535D01*
X160746001Y-99289454D01*
X160715220Y-99271682D01*
X160663667Y-99257869D01*
X160632433Y-99249500D01*
X160632432Y-99249500D01*
X156760189Y-99249500D01*
X156693150Y-99229815D01*
X156647395Y-99177011D01*
X156637451Y-99107853D01*
X156666476Y-99044297D01*
X156672508Y-99037819D01*
X157798508Y-97911819D01*
X157859831Y-97878334D01*
X157876250Y-97876568D01*
X157876249Y-97876561D01*
X157884305Y-97875500D01*
X157884309Y-97875500D01*
X157998886Y-97844799D01*
X158101613Y-97785489D01*
X158185489Y-97701613D01*
X158244799Y-97598886D01*
X158275500Y-97484309D01*
X158275500Y-97365691D01*
X158244799Y-97251114D01*
X158185489Y-97148387D01*
X158101613Y-97064511D01*
X157998886Y-97005201D01*
X157884309Y-96974500D01*
X157765691Y-96974500D01*
X157651114Y-97005201D01*
X157651112Y-97005201D01*
X157651112Y-97005202D01*
X157548387Y-97064511D01*
X157548384Y-97064513D01*
X157464513Y-97148384D01*
X157464511Y-97148387D01*
X157405773Y-97250124D01*
X157405201Y-97251114D01*
X157389975Y-97307937D01*
X157374499Y-97365694D01*
X157373439Y-97373751D01*
X157371650Y-97373515D01*
X157354815Y-97430850D01*
X157338181Y-97451492D01*
X155926492Y-98863181D01*
X155865169Y-98896666D01*
X155838811Y-98899500D01*
X155415862Y-98899500D01*
X155348823Y-98879815D01*
X155303068Y-98827011D01*
X155293124Y-98757853D01*
X155308476Y-98713499D01*
X155319796Y-98693891D01*
X155319797Y-98693890D01*
X155319798Y-98693887D01*
X155319799Y-98693886D01*
X155350500Y-98579309D01*
X155350500Y-98460691D01*
X155319799Y-98346114D01*
X155260489Y-98243387D01*
X155176613Y-98159511D01*
X155073886Y-98100201D01*
X154959309Y-98069500D01*
X154840691Y-98069500D01*
X154726114Y-98100201D01*
X154726112Y-98100201D01*
X154726112Y-98100202D01*
X154623387Y-98159511D01*
X154623384Y-98159513D01*
X154539513Y-98243384D01*
X154539511Y-98243387D01*
X154486072Y-98335946D01*
X154480201Y-98346114D01*
X154449500Y-98460691D01*
X154449500Y-98579309D01*
X154480201Y-98693886D01*
X154538339Y-98794583D01*
X154554812Y-98862482D01*
X154531960Y-98928509D01*
X154518634Y-98944264D01*
X154464511Y-98998387D01*
X154418431Y-99078200D01*
X154405201Y-99101114D01*
X154374500Y-99215691D01*
X153360500Y-99215691D01*
X153360500Y-97375095D01*
X155550237Y-97375095D01*
X155550237Y-97493713D01*
X155580938Y-97608290D01*
X155640248Y-97711017D01*
X155724124Y-97794893D01*
X155826851Y-97854203D01*
X155941428Y-97884904D01*
X155941431Y-97884904D01*
X156060043Y-97884904D01*
X156060046Y-97884904D01*
X156174623Y-97854203D01*
X156277350Y-97794893D01*
X156361226Y-97711017D01*
X156420536Y-97608290D01*
X156451237Y-97493713D01*
X156451237Y-97375095D01*
X156420536Y-97260518D01*
X156361226Y-97157791D01*
X156277350Y-97073915D01*
X156174623Y-97014605D01*
X156060046Y-96983904D01*
X155941428Y-96983904D01*
X155826851Y-97014605D01*
X155826849Y-97014605D01*
X155826849Y-97014606D01*
X155724124Y-97073915D01*
X155724121Y-97073917D01*
X155640250Y-97157788D01*
X155640248Y-97157791D01*
X155586369Y-97251112D01*
X155580938Y-97260518D01*
X155550237Y-97375095D01*
X153360500Y-97375095D01*
X153360500Y-91835856D01*
X167844389Y-91835856D01*
X167844389Y-91954474D01*
X167875090Y-92069051D01*
X167934400Y-92171778D01*
X168018276Y-92255654D01*
X168121003Y-92314964D01*
X168235580Y-92345665D01*
X168259044Y-92345665D01*
X168326083Y-92365350D01*
X168366431Y-92407664D01*
X168381530Y-92433816D01*
X168429091Y-92516193D01*
X168512967Y-92600069D01*
X168615694Y-92659379D01*
X168730271Y-92690080D01*
X168730274Y-92690080D01*
X168848886Y-92690080D01*
X168848889Y-92690080D01*
X168963466Y-92659379D01*
X169066193Y-92600069D01*
X169150069Y-92516193D01*
X169209379Y-92413466D01*
X169240080Y-92298889D01*
X169240080Y-92180271D01*
X169209379Y-92065694D01*
X169150069Y-91962967D01*
X169066193Y-91879091D01*
X168963466Y-91819781D01*
X168848889Y-91789080D01*
X168848886Y-91789080D01*
X168825425Y-91789080D01*
X168758386Y-91769395D01*
X168718038Y-91727081D01*
X168708331Y-91710269D01*
X168655378Y-91618552D01*
X168571502Y-91534676D01*
X168468775Y-91475366D01*
X168354198Y-91444665D01*
X168235580Y-91444665D01*
X168121003Y-91475366D01*
X168121001Y-91475366D01*
X168121001Y-91475367D01*
X168018276Y-91534676D01*
X168018273Y-91534678D01*
X167934402Y-91618549D01*
X167934400Y-91618552D01*
X167875090Y-91721279D01*
X167844389Y-91835856D01*
X153360500Y-91835856D01*
X153360500Y-84465694D01*
X160624034Y-84465694D01*
X160624034Y-84584312D01*
X160654735Y-84698889D01*
X160714045Y-84801616D01*
X160797921Y-84885492D01*
X160900648Y-84944802D01*
X161015225Y-84975503D01*
X161015228Y-84975503D01*
X161133840Y-84975503D01*
X161133843Y-84975503D01*
X161248420Y-84944802D01*
X161351147Y-84885492D01*
X161435023Y-84801616D01*
X161494333Y-84698889D01*
X161525034Y-84584312D01*
X161525034Y-84465694D01*
X161494333Y-84351117D01*
X161457548Y-84287404D01*
X161441075Y-84219507D01*
X161457548Y-84163405D01*
X161494799Y-84098886D01*
X161525500Y-83984309D01*
X161525500Y-83865691D01*
X161494799Y-83751114D01*
X161464960Y-83699433D01*
X161448488Y-83631534D01*
X161468701Y-83573130D01*
X161467334Y-83572341D01*
X161471396Y-83565304D01*
X161471398Y-83565303D01*
X161530708Y-83462576D01*
X161561409Y-83347999D01*
X161561409Y-83229381D01*
X161530708Y-83114804D01*
X161493438Y-83050252D01*
X161476966Y-82982352D01*
X161493439Y-82926252D01*
X161530205Y-82862573D01*
X161560906Y-82747996D01*
X161560906Y-82629378D01*
X161530205Y-82514801D01*
X161470895Y-82412074D01*
X161387019Y-82328198D01*
X161284292Y-82268888D01*
X161169715Y-82238187D01*
X161051097Y-82238187D01*
X160936520Y-82268888D01*
X160936518Y-82268888D01*
X160936518Y-82268889D01*
X160833793Y-82328198D01*
X160833790Y-82328200D01*
X160749919Y-82412071D01*
X160749917Y-82412074D01*
X160690607Y-82514801D01*
X160659906Y-82629378D01*
X160659906Y-82747996D01*
X160685120Y-82842094D01*
X160690608Y-82862576D01*
X160727875Y-82927124D01*
X160744348Y-82995024D01*
X160727875Y-83051124D01*
X160691111Y-83114800D01*
X160691110Y-83114804D01*
X160660409Y-83229381D01*
X160660409Y-83347999D01*
X160691110Y-83462576D01*
X160691111Y-83462577D01*
X160720947Y-83514254D01*
X160737420Y-83582154D01*
X160717206Y-83640558D01*
X160718575Y-83641349D01*
X160714512Y-83648385D01*
X160714511Y-83648387D01*
X160655201Y-83751114D01*
X160624500Y-83865691D01*
X160624500Y-83984309D01*
X160650007Y-84079500D01*
X160655202Y-84098890D01*
X160655203Y-84098891D01*
X160691984Y-84162596D01*
X160692211Y-84163534D01*
X160692903Y-84164214D01*
X160700433Y-84197421D01*
X160708458Y-84230496D01*
X160708162Y-84231503D01*
X160708355Y-84232354D01*
X160701157Y-84266906D01*
X160697435Y-84277157D01*
X160654735Y-84351117D01*
X160624034Y-84465694D01*
X153360500Y-84465694D01*
X153360500Y-77057648D01*
X169089500Y-77057648D01*
X169089500Y-77262351D01*
X169121522Y-77464534D01*
X169184781Y-77659223D01*
X169248691Y-77784653D01*
X169260970Y-77808751D01*
X169277715Y-77841613D01*
X169398028Y-78007213D01*
X169542786Y-78151971D01*
X169697749Y-78264556D01*
X169708390Y-78272287D01*
X169824607Y-78331503D01*
X169890776Y-78365218D01*
X169890778Y-78365218D01*
X169890781Y-78365220D01*
X169995137Y-78399127D01*
X170085465Y-78428477D01*
X170186557Y-78444488D01*
X170287648Y-78460500D01*
X170287649Y-78460500D01*
X170492351Y-78460500D01*
X170492352Y-78460500D01*
X170694534Y-78428477D01*
X170889219Y-78365220D01*
X171071610Y-78272287D01*
X171164590Y-78204732D01*
X171237213Y-78151971D01*
X171237215Y-78151968D01*
X171237219Y-78151966D01*
X171381966Y-78007219D01*
X171381968Y-78007215D01*
X171381971Y-78007213D01*
X171434732Y-77934590D01*
X171502287Y-77841610D01*
X171595220Y-77659219D01*
X171658477Y-77464534D01*
X171690500Y-77262352D01*
X171690500Y-77057648D01*
X171659723Y-76863334D01*
X171658477Y-76855465D01*
X171595218Y-76660776D01*
X171556040Y-76583886D01*
X171502287Y-76478390D01*
X171471847Y-76436492D01*
X171381971Y-76312786D01*
X171237213Y-76168028D01*
X171071613Y-76047715D01*
X171071612Y-76047714D01*
X171071610Y-76047713D01*
X171014653Y-76018691D01*
X170889223Y-75954781D01*
X170694534Y-75891522D01*
X170519995Y-75863878D01*
X170492352Y-75859500D01*
X170287648Y-75859500D01*
X170263329Y-75863351D01*
X170085465Y-75891522D01*
X169890776Y-75954781D01*
X169708386Y-76047715D01*
X169542786Y-76168028D01*
X169398028Y-76312786D01*
X169277715Y-76478386D01*
X169184781Y-76660776D01*
X169121522Y-76855465D01*
X169089500Y-77057648D01*
X153360500Y-77057648D01*
X153360500Y-73600691D01*
X184419500Y-73600691D01*
X184419500Y-73719309D01*
X184450201Y-73833886D01*
X184509511Y-73936613D01*
X184593387Y-74020489D01*
X184696114Y-74079799D01*
X184810691Y-74110500D01*
X184810694Y-74110500D01*
X184929306Y-74110500D01*
X184929309Y-74110500D01*
X185043886Y-74079799D01*
X185146613Y-74020489D01*
X185230489Y-73936613D01*
X185289799Y-73833886D01*
X185320500Y-73719309D01*
X185320500Y-73600691D01*
X185289799Y-73486114D01*
X185230489Y-73383387D01*
X185146613Y-73299511D01*
X185043886Y-73240201D01*
X184929309Y-73209500D01*
X184810691Y-73209500D01*
X184696114Y-73240201D01*
X184696112Y-73240201D01*
X184696112Y-73240202D01*
X184593387Y-73299511D01*
X184593384Y-73299513D01*
X184509513Y-73383384D01*
X184509511Y-73383387D01*
X184450201Y-73486114D01*
X184419500Y-73600691D01*
X153360500Y-73600691D01*
X153360500Y-70907525D01*
X182589500Y-70907525D01*
X182589500Y-71052475D01*
X182627016Y-71192485D01*
X182627017Y-71192488D01*
X182699488Y-71318011D01*
X182699490Y-71318013D01*
X182699491Y-71318015D01*
X182801985Y-71420509D01*
X182801986Y-71420510D01*
X182801988Y-71420511D01*
X182927511Y-71492982D01*
X182927512Y-71492982D01*
X182927515Y-71492984D01*
X183067525Y-71530500D01*
X183067528Y-71530500D01*
X183212472Y-71530500D01*
X183212475Y-71530500D01*
X183352485Y-71492984D01*
X183478015Y-71420509D01*
X183580509Y-71318015D01*
X183652984Y-71192485D01*
X183690500Y-71052475D01*
X183690500Y-70907525D01*
X185589500Y-70907525D01*
X185589500Y-71052475D01*
X185627016Y-71192485D01*
X185627017Y-71192488D01*
X185699488Y-71318011D01*
X185699490Y-71318013D01*
X185699491Y-71318015D01*
X185801985Y-71420509D01*
X185801986Y-71420510D01*
X185801988Y-71420511D01*
X185927511Y-71492982D01*
X185927512Y-71492982D01*
X185927515Y-71492984D01*
X186067525Y-71530500D01*
X186067528Y-71530500D01*
X186212472Y-71530500D01*
X186212475Y-71530500D01*
X186352485Y-71492984D01*
X186478015Y-71420509D01*
X186580509Y-71318015D01*
X186652984Y-71192485D01*
X186690500Y-71052475D01*
X186690500Y-70907525D01*
X186652984Y-70767515D01*
X186580509Y-70641985D01*
X186478015Y-70539491D01*
X186478013Y-70539490D01*
X186478011Y-70539488D01*
X186352488Y-70467017D01*
X186352489Y-70467017D01*
X186341006Y-70463940D01*
X186212475Y-70429500D01*
X186067525Y-70429500D01*
X185938993Y-70463940D01*
X185927511Y-70467017D01*
X185801988Y-70539488D01*
X185801982Y-70539493D01*
X185699493Y-70641982D01*
X185699488Y-70641988D01*
X185627017Y-70767511D01*
X185627016Y-70767515D01*
X185589500Y-70907525D01*
X183690500Y-70907525D01*
X183652984Y-70767515D01*
X183580509Y-70641985D01*
X183478015Y-70539491D01*
X183478013Y-70539490D01*
X183478011Y-70539488D01*
X183352488Y-70467017D01*
X183352489Y-70467017D01*
X183341006Y-70463940D01*
X183212475Y-70429500D01*
X183067525Y-70429500D01*
X182938993Y-70463940D01*
X182927511Y-70467017D01*
X182801988Y-70539488D01*
X182801982Y-70539493D01*
X182699493Y-70641982D01*
X182699488Y-70641988D01*
X182627017Y-70767511D01*
X182627016Y-70767515D01*
X182589500Y-70907525D01*
X153360500Y-70907525D01*
X153360500Y-67545513D01*
X154609500Y-67545513D01*
X154609500Y-67734486D01*
X154639059Y-67921118D01*
X154697454Y-68100836D01*
X154783240Y-68269199D01*
X154894310Y-68422073D01*
X155027927Y-68555690D01*
X155180801Y-68666760D01*
X155260347Y-68707290D01*
X155349163Y-68752545D01*
X155349165Y-68752545D01*
X155349168Y-68752547D01*
X155445497Y-68783846D01*
X155528881Y-68810940D01*
X155715514Y-68840500D01*
X155715519Y-68840500D01*
X155904486Y-68840500D01*
X156091118Y-68810940D01*
X156270832Y-68752547D01*
X156439199Y-68666760D01*
X156592073Y-68555690D01*
X156725690Y-68422073D01*
X156836760Y-68269199D01*
X156922547Y-68100832D01*
X156980940Y-67921118D01*
X157010500Y-67734486D01*
X157010500Y-67545514D01*
X157008387Y-67532175D01*
X157008387Y-67532174D01*
X157006086Y-67517648D01*
X189409500Y-67517648D01*
X189409500Y-67722351D01*
X189441522Y-67924534D01*
X189504781Y-68119223D01*
X189597715Y-68301613D01*
X189718028Y-68467213D01*
X189862786Y-68611971D01*
X190017749Y-68724556D01*
X190028390Y-68732287D01*
X190144607Y-68791503D01*
X190210776Y-68825218D01*
X190210778Y-68825218D01*
X190210781Y-68825220D01*
X190315137Y-68859127D01*
X190405465Y-68888477D01*
X190506557Y-68904488D01*
X190607648Y-68920500D01*
X190607649Y-68920500D01*
X190812351Y-68920500D01*
X190812352Y-68920500D01*
X191014534Y-68888477D01*
X191209219Y-68825220D01*
X191391610Y-68732287D01*
X191484590Y-68664732D01*
X191557213Y-68611971D01*
X191557215Y-68611968D01*
X191557219Y-68611966D01*
X191701966Y-68467219D01*
X191701968Y-68467215D01*
X191701971Y-68467213D01*
X191754732Y-68394590D01*
X191822287Y-68301610D01*
X191915220Y-68119219D01*
X191978477Y-67924534D01*
X192010500Y-67722352D01*
X192010500Y-67517648D01*
X191978477Y-67315466D01*
X191915220Y-67120781D01*
X191915218Y-67120778D01*
X191915218Y-67120776D01*
X191859182Y-67010801D01*
X191822287Y-66938390D01*
X191763828Y-66857927D01*
X191701971Y-66772786D01*
X191557213Y-66628028D01*
X191391613Y-66507715D01*
X191391612Y-66507714D01*
X191391610Y-66507713D01*
X191334653Y-66478691D01*
X191209223Y-66414781D01*
X191014534Y-66351522D01*
X190839995Y-66323878D01*
X190812352Y-66319500D01*
X190607648Y-66319500D01*
X190583329Y-66323351D01*
X190405465Y-66351522D01*
X190210776Y-66414781D01*
X190028386Y-66507715D01*
X189862786Y-66628028D01*
X189718028Y-66772786D01*
X189597715Y-66938386D01*
X189504781Y-67120776D01*
X189441522Y-67315465D01*
X189409500Y-67517648D01*
X157006086Y-67517648D01*
X156980940Y-67358881D01*
X156922545Y-67179163D01*
X156836759Y-67010800D01*
X156725690Y-66857927D01*
X156592073Y-66724310D01*
X156439199Y-66613240D01*
X156270836Y-66527454D01*
X156091118Y-66469059D01*
X155904486Y-66439500D01*
X155904481Y-66439500D01*
X155715519Y-66439500D01*
X155715514Y-66439500D01*
X155528881Y-66469059D01*
X155349163Y-66527454D01*
X155180800Y-66613240D01*
X155093579Y-66676610D01*
X155027927Y-66724310D01*
X155027925Y-66724312D01*
X155027924Y-66724312D01*
X154894312Y-66857924D01*
X154894312Y-66857925D01*
X154894310Y-66857927D01*
X154846610Y-66923579D01*
X154783240Y-67010800D01*
X154697454Y-67179163D01*
X154639059Y-67358881D01*
X154609500Y-67545513D01*
X153360500Y-67545513D01*
X153360500Y-65284500D01*
X153380185Y-65217461D01*
X153432989Y-65171706D01*
X153484500Y-65160500D01*
X193035500Y-65160500D01*
X193102539Y-65180185D01*
G37*
%TD.AperFunction*%
%TD*%
M02*
