%TF.GenerationSoftware,KiCad,Pcbnew,9.0.0*%
%TF.CreationDate,2025-03-08T21:49:25+01:00*%
%TF.ProjectId,NPulse_v4,4e50756c-7365-45f7-9634-2e6b69636164,rev?*%
%TF.SameCoordinates,Original*%
%TF.FileFunction,Legend,Bot*%
%TF.FilePolarity,Positive*%
%FSLAX46Y46*%
G04 Gerber Fmt 4.6, Leading zero omitted, Abs format (unit mm)*
G04 Created by KiCad (PCBNEW 9.0.0) date 2025-03-08 21:49:25*
%MOMM*%
%LPD*%
G01*
G04 APERTURE LIST*
%ADD10C,0.000000*%
G04 APERTURE END LIST*
D10*
%TO.C,G\u002A\u002A\u002A*%
G36*
X179301084Y-82991578D02*
G01*
X181003613Y-82997949D01*
X181009897Y-86638037D01*
X181010156Y-86793221D01*
X181010882Y-87314442D01*
X181011292Y-87787925D01*
X181011379Y-88215133D01*
X181011134Y-88597526D01*
X181010549Y-88936566D01*
X181009614Y-89233714D01*
X181008322Y-89490431D01*
X181006663Y-89708178D01*
X181004629Y-89888417D01*
X181002212Y-90032608D01*
X180999403Y-90142214D01*
X180996193Y-90218694D01*
X180992574Y-90263511D01*
X180988537Y-90278125D01*
X180975534Y-90274373D01*
X180925004Y-90250325D01*
X180849105Y-90208940D01*
X180758664Y-90155973D01*
X180633656Y-90078532D01*
X180165840Y-89752514D01*
X179724618Y-89386322D01*
X179313437Y-88983262D01*
X178935740Y-88546639D01*
X178594973Y-88079759D01*
X178335197Y-87656143D01*
X178079707Y-87151934D01*
X177866340Y-86624968D01*
X177696418Y-86079003D01*
X177571265Y-85517800D01*
X177492203Y-84945117D01*
X177474604Y-84669515D01*
X177470646Y-84354138D01*
X177480291Y-84021092D01*
X177502807Y-83685382D01*
X177537468Y-83362013D01*
X177583542Y-83065992D01*
X177598554Y-82985207D01*
X179301084Y-82991578D01*
G37*
G36*
X175878659Y-84523479D02*
G01*
X176098926Y-84524062D01*
X176277515Y-84525897D01*
X176419635Y-84529688D01*
X176530493Y-84536136D01*
X176615296Y-84545946D01*
X176679250Y-84559820D01*
X176727564Y-84578462D01*
X176765444Y-84602574D01*
X176798097Y-84632859D01*
X176830731Y-84670021D01*
X176890263Y-84760220D01*
X176931707Y-84890467D01*
X176931073Y-85022875D01*
X176890275Y-85147976D01*
X176811222Y-85256300D01*
X176695826Y-85338378D01*
X176674073Y-85348765D01*
X176643097Y-85361065D01*
X176607048Y-85370745D01*
X176560358Y-85378113D01*
X176497461Y-85383477D01*
X176412789Y-85387146D01*
X176300776Y-85389428D01*
X176155855Y-85390632D01*
X175972458Y-85391066D01*
X175745020Y-85391037D01*
X175698391Y-85391003D01*
X175477955Y-85390603D01*
X175300545Y-85389630D01*
X175160619Y-85387807D01*
X175052636Y-85384855D01*
X174971053Y-85380494D01*
X174910328Y-85374447D01*
X174864919Y-85366433D01*
X174829284Y-85356176D01*
X174797881Y-85343395D01*
X174693536Y-85275194D01*
X174611528Y-85172951D01*
X174565068Y-85051428D01*
X174556189Y-84920510D01*
X174586924Y-84790080D01*
X174659309Y-84670021D01*
X174676705Y-84649671D01*
X174708700Y-84616196D01*
X174743439Y-84589229D01*
X174786130Y-84568068D01*
X174841980Y-84552009D01*
X174916196Y-84540350D01*
X175013986Y-84532387D01*
X175140556Y-84527417D01*
X175301113Y-84524738D01*
X175500865Y-84523645D01*
X175745020Y-84523438D01*
X175878659Y-84523479D01*
G37*
G36*
X164609741Y-79604707D02*
G01*
X164743954Y-79642897D01*
X164858321Y-79721770D01*
X164942361Y-79834926D01*
X164947159Y-79844532D01*
X164953924Y-79860030D01*
X164959975Y-79878682D01*
X164965344Y-79903071D01*
X164970067Y-79935776D01*
X164974175Y-79979378D01*
X164977704Y-80036458D01*
X164980688Y-80109597D01*
X164983160Y-80201375D01*
X164985153Y-80314374D01*
X164986703Y-80451174D01*
X164987843Y-80614357D01*
X164988606Y-80806502D01*
X164989027Y-81030190D01*
X164989139Y-81288004D01*
X164988977Y-81582522D01*
X164988574Y-81916327D01*
X164987964Y-82291998D01*
X164987181Y-82712117D01*
X164986259Y-83179264D01*
X164979785Y-86424866D01*
X164908251Y-86518649D01*
X164891321Y-86538964D01*
X164815538Y-86608105D01*
X164734618Y-86658796D01*
X164711496Y-86668540D01*
X164628197Y-86694674D01*
X164558106Y-86705161D01*
X164473004Y-86693659D01*
X164358265Y-86646276D01*
X164255595Y-86571190D01*
X164177501Y-86478138D01*
X164136487Y-86376858D01*
X164136151Y-86374075D01*
X164134472Y-86330715D01*
X164132961Y-86241331D01*
X164131625Y-86108940D01*
X164130469Y-85936555D01*
X164129501Y-85727192D01*
X164128727Y-85483865D01*
X164128154Y-85209589D01*
X164127789Y-84907379D01*
X164127637Y-84580249D01*
X164127705Y-84231215D01*
X164128001Y-83863290D01*
X164128530Y-83479491D01*
X164129299Y-83082831D01*
X164136426Y-79868689D01*
X164205921Y-79777580D01*
X164298233Y-79683319D01*
X164417083Y-79622232D01*
X164561256Y-79602128D01*
X164609741Y-79604707D01*
G37*
G36*
X187444652Y-78350451D02*
G01*
X187529668Y-78395848D01*
X187714005Y-78502751D01*
X187915124Y-78628370D01*
X188119330Y-78763764D01*
X188312929Y-78899986D01*
X188482227Y-79028095D01*
X188491510Y-79035485D01*
X188720179Y-79230634D01*
X188960443Y-79458230D01*
X189201783Y-79707011D01*
X189433682Y-79965719D01*
X189645623Y-80223092D01*
X189827087Y-80467871D01*
X189848197Y-80498498D01*
X190156376Y-80991523D01*
X190419708Y-81505370D01*
X190637678Y-82038618D01*
X190809771Y-82589848D01*
X190935473Y-83157639D01*
X191014267Y-83740571D01*
X191021231Y-83839489D01*
X191027073Y-83991754D01*
X191030093Y-84168456D01*
X191030423Y-84359021D01*
X191028197Y-84552878D01*
X191023551Y-84739453D01*
X191016616Y-84908172D01*
X191007528Y-85048465D01*
X190996421Y-85149756D01*
X190982073Y-85242774D01*
X190395675Y-85243318D01*
X190353097Y-85243372D01*
X190172009Y-85244126D01*
X190032197Y-85246036D01*
X189926739Y-85249563D01*
X189848717Y-85255169D01*
X189791210Y-85263316D01*
X189747297Y-85274467D01*
X189710059Y-85289082D01*
X189671012Y-85310329D01*
X189616557Y-85349773D01*
X189550562Y-85407946D01*
X189469075Y-85488801D01*
X189368143Y-85596289D01*
X189243815Y-85734362D01*
X189092138Y-85906972D01*
X189069531Y-85932811D01*
X188990117Y-86022010D01*
X188923892Y-86094006D01*
X188877228Y-86141981D01*
X188856494Y-86159120D01*
X188854485Y-86157891D01*
X188828428Y-86130535D01*
X188777404Y-86071618D01*
X188706275Y-85986911D01*
X188619900Y-85882188D01*
X188523139Y-85763220D01*
X188404464Y-85617212D01*
X188300116Y-85494279D01*
X188211593Y-85401711D01*
X188131024Y-85335201D01*
X188050537Y-85290442D01*
X187962261Y-85263126D01*
X187858325Y-85248948D01*
X187730857Y-85243599D01*
X187571985Y-85242774D01*
X187192383Y-85242774D01*
X187192383Y-81731821D01*
X187192383Y-78220869D01*
X187444652Y-78350451D01*
G37*
G36*
X186200195Y-83035547D02*
G01*
X186212598Y-85800879D01*
X186267321Y-85903179D01*
X186323591Y-85988028D01*
X186435583Y-86099038D01*
X186565268Y-86176708D01*
X186603086Y-86187660D01*
X186676765Y-86197953D01*
X186784909Y-86204933D01*
X186932548Y-86208901D01*
X187124709Y-86210156D01*
X187604331Y-86210156D01*
X187679507Y-86290772D01*
X187709276Y-86324323D01*
X187769363Y-86394970D01*
X187848322Y-86489677D01*
X187939362Y-86600290D01*
X188035695Y-86718653D01*
X188041105Y-86725337D01*
X188183784Y-86900130D01*
X188301436Y-87039640D01*
X188399033Y-87147831D01*
X188481547Y-87228663D01*
X188553950Y-87286100D01*
X188621215Y-87324103D01*
X188688312Y-87346635D01*
X188760215Y-87357659D01*
X188841895Y-87361136D01*
X188910234Y-87360169D01*
X188983005Y-87352086D01*
X189050909Y-87332816D01*
X189119174Y-87298508D01*
X189193027Y-87245311D01*
X189277695Y-87169376D01*
X189378405Y-87066851D01*
X189500382Y-86933885D01*
X189648855Y-86766628D01*
X189748893Y-86653130D01*
X189857676Y-86530050D01*
X189953031Y-86422524D01*
X190030131Y-86335985D01*
X190084150Y-86275860D01*
X190110260Y-86247581D01*
X190126935Y-86238198D01*
X190186006Y-86224371D01*
X190273075Y-86214492D01*
X190377086Y-86208641D01*
X190486982Y-86206903D01*
X190591704Y-86209358D01*
X190680196Y-86216089D01*
X190741399Y-86227179D01*
X190764258Y-86242710D01*
X190762876Y-86253124D01*
X190749470Y-86305791D01*
X190724854Y-86387184D01*
X190692796Y-86484556D01*
X190544798Y-86878677D01*
X190305389Y-87399595D01*
X190026543Y-87894238D01*
X189710503Y-88360796D01*
X189359511Y-88797458D01*
X188975808Y-89202414D01*
X188561638Y-89573853D01*
X188119241Y-89909966D01*
X187650861Y-90208940D01*
X187158739Y-90468967D01*
X186645117Y-90688235D01*
X186112237Y-90864934D01*
X185562342Y-90997253D01*
X184997673Y-91083382D01*
X184649416Y-91111286D01*
X184134175Y-91118780D01*
X183609186Y-91088608D01*
X183087207Y-91021186D01*
X182991387Y-91003970D01*
X182854849Y-90976440D01*
X182709500Y-90944554D01*
X182564919Y-90910647D01*
X182430685Y-90877054D01*
X182316376Y-90846109D01*
X182231571Y-90820148D01*
X182185849Y-90801504D01*
X182185503Y-90801159D01*
X182188371Y-90779361D01*
X182204749Y-90724379D01*
X182235044Y-90635140D01*
X182279663Y-90510568D01*
X182339015Y-90349592D01*
X182413508Y-90151136D01*
X182503548Y-89914127D01*
X182609545Y-89637491D01*
X182731905Y-89320154D01*
X182871036Y-88961043D01*
X183027347Y-88559083D01*
X183201245Y-88113201D01*
X183393138Y-87622323D01*
X183485078Y-87387089D01*
X183655436Y-86949891D01*
X183831095Y-86497524D01*
X184009915Y-86035561D01*
X184189760Y-85569576D01*
X184368492Y-85105145D01*
X184543974Y-84647840D01*
X184714068Y-84203236D01*
X184876636Y-83776907D01*
X185029540Y-83374427D01*
X185170645Y-83001370D01*
X185297811Y-82663310D01*
X185408901Y-82365820D01*
X186187793Y-80270215D01*
X186200195Y-83035547D01*
G37*
G36*
X166750779Y-82645558D02*
G01*
X166866739Y-82717601D01*
X166866869Y-82717715D01*
X166899982Y-82746358D01*
X166928166Y-82772278D01*
X166951817Y-82799499D01*
X166971330Y-82832048D01*
X166987103Y-82873949D01*
X166999533Y-82929230D01*
X167009014Y-83001914D01*
X167015946Y-83096028D01*
X167020723Y-83215598D01*
X167023742Y-83364648D01*
X167025400Y-83547205D01*
X167026093Y-83767294D01*
X167026218Y-84028941D01*
X167026172Y-84336171D01*
X167026191Y-84553040D01*
X167026347Y-84819445D01*
X167026778Y-85042981D01*
X167027616Y-85227593D01*
X167028998Y-85377226D01*
X167031058Y-85495826D01*
X167033931Y-85587338D01*
X167037751Y-85655706D01*
X167042654Y-85704876D01*
X167048773Y-85738793D01*
X167056244Y-85761402D01*
X167065202Y-85776648D01*
X167075781Y-85788477D01*
X167088212Y-85799824D01*
X167110018Y-85813219D01*
X167141812Y-85823070D01*
X167190198Y-85829917D01*
X167261779Y-85834302D01*
X167363158Y-85836765D01*
X167500939Y-85837846D01*
X167681724Y-85838086D01*
X167834375Y-85837803D01*
X167983363Y-85836445D01*
X168093980Y-85833594D01*
X168172443Y-85828841D01*
X168224964Y-85821780D01*
X168257757Y-85812005D01*
X168277037Y-85799107D01*
X168280296Y-85795313D01*
X168288236Y-85779357D01*
X168294931Y-85752112D01*
X168300485Y-85709747D01*
X168305005Y-85648429D01*
X168308596Y-85564326D01*
X168311364Y-85453606D01*
X168313415Y-85312438D01*
X168314854Y-85136989D01*
X168315788Y-84923427D01*
X168316321Y-84667920D01*
X168316561Y-84366637D01*
X168316570Y-84342337D01*
X168316783Y-84046359D01*
X168317236Y-83795581D01*
X168318057Y-83585905D01*
X168319374Y-83413230D01*
X168321314Y-83273458D01*
X168324005Y-83162489D01*
X168327574Y-83076223D01*
X168332148Y-83010562D01*
X168337856Y-82961406D01*
X168344824Y-82924656D01*
X168353181Y-82896213D01*
X168363054Y-82871976D01*
X168376668Y-82844462D01*
X168459817Y-82735267D01*
X168566762Y-82661662D01*
X168688228Y-82624022D01*
X168814940Y-82622725D01*
X168937624Y-82658148D01*
X169047004Y-82730668D01*
X169133805Y-82840661D01*
X169137889Y-82848006D01*
X169147866Y-82867923D01*
X169156307Y-82890870D01*
X169163318Y-82920728D01*
X169169009Y-82961380D01*
X169173486Y-83016706D01*
X169176857Y-83090589D01*
X169179230Y-83186909D01*
X169180713Y-83309548D01*
X169181412Y-83462389D01*
X169181437Y-83649312D01*
X169180894Y-83874199D01*
X169179891Y-84140932D01*
X169178535Y-84453391D01*
X169171777Y-85974512D01*
X169095018Y-86135742D01*
X168992963Y-86305841D01*
X168845657Y-86464607D01*
X168667833Y-86586441D01*
X168464243Y-86667340D01*
X168415636Y-86678283D01*
X168351355Y-86687216D01*
X168267849Y-86693668D01*
X168159043Y-86697871D01*
X168018865Y-86700052D01*
X167841242Y-86700442D01*
X167620101Y-86699271D01*
X166911784Y-86693848D01*
X166724439Y-86601209D01*
X166657801Y-86565900D01*
X166490261Y-86447720D01*
X166356831Y-86300481D01*
X166248905Y-86115393D01*
X166170410Y-85949707D01*
X166163500Y-84461426D01*
X166156590Y-82973145D01*
X166213110Y-82861724D01*
X166273881Y-82770022D01*
X166376350Y-82681137D01*
X166496227Y-82629389D01*
X166624156Y-82616842D01*
X166750779Y-82645558D01*
G37*
G36*
X158423401Y-82704374D02*
G01*
X158473205Y-82729450D01*
X158659058Y-82854741D01*
X158808674Y-83011206D01*
X158918944Y-83194992D01*
X158986757Y-83402246D01*
X158991455Y-83434748D01*
X158998287Y-83527307D01*
X159003950Y-83667066D01*
X159008411Y-83852535D01*
X159011638Y-84082220D01*
X159013598Y-84354631D01*
X159014258Y-84668275D01*
X159014168Y-84871435D01*
X159013527Y-85125978D01*
X159011924Y-85339089D01*
X159008957Y-85515596D01*
X159004228Y-85660331D01*
X158997334Y-85778122D01*
X158987875Y-85873801D01*
X158975452Y-85952197D01*
X158959662Y-86018139D01*
X158940106Y-86076459D01*
X158916384Y-86131985D01*
X158888093Y-86189549D01*
X158874172Y-86215387D01*
X158765809Y-86362723D01*
X158621459Y-86493612D01*
X158452451Y-86599230D01*
X158270117Y-86670755D01*
X158253788Y-86674546D01*
X158188192Y-86683328D01*
X158087695Y-86690397D01*
X157949359Y-86695851D01*
X157770245Y-86699786D01*
X157547415Y-86702299D01*
X157277930Y-86703487D01*
X157190562Y-86703635D01*
X156971965Y-86703722D01*
X156795740Y-86703121D01*
X156656524Y-86701590D01*
X156548956Y-86698889D01*
X156467673Y-86694775D01*
X156407313Y-86689008D01*
X156362513Y-86681345D01*
X156327911Y-86671546D01*
X156298145Y-86659368D01*
X156223012Y-86617994D01*
X156119494Y-86523326D01*
X156058004Y-86402477D01*
X156037695Y-86254129D01*
X156044244Y-86189604D01*
X156087803Y-86068818D01*
X156163487Y-85962547D01*
X156261020Y-85887654D01*
X156272357Y-85882027D01*
X156301783Y-85869654D01*
X156336451Y-85859844D01*
X156381907Y-85852299D01*
X156443697Y-85846726D01*
X156527366Y-85842828D01*
X156638460Y-85840310D01*
X156782526Y-85838878D01*
X156965110Y-85838235D01*
X157191756Y-85838086D01*
X157430459Y-85837362D01*
X157642826Y-85835116D01*
X157815861Y-85831423D01*
X157946997Y-85826358D01*
X158033669Y-85819995D01*
X158073311Y-85812409D01*
X158089493Y-85801334D01*
X158103839Y-85779858D01*
X158113107Y-85741928D01*
X158118384Y-85679257D01*
X158120759Y-85583556D01*
X158121318Y-85446540D01*
X158121346Y-85106348D01*
X157284159Y-85122292D01*
X157167562Y-85124298D01*
X156964875Y-85126719D01*
X156781041Y-85127564D01*
X156622209Y-85126873D01*
X156494526Y-85124689D01*
X156404138Y-85121053D01*
X156357193Y-85116006D01*
X156263836Y-85079903D01*
X156159685Y-84999466D01*
X156085301Y-84891776D01*
X156045074Y-84766699D01*
X156043399Y-84634100D01*
X156084665Y-84503846D01*
X156106572Y-84463246D01*
X156153556Y-84394352D01*
X156209395Y-84342027D01*
X156280862Y-84304064D01*
X156374731Y-84278254D01*
X156497776Y-84262391D01*
X156656771Y-84254267D01*
X156858490Y-84251675D01*
X156915717Y-84251415D01*
X157111300Y-84249254D01*
X157323200Y-84245380D01*
X157529441Y-84240241D01*
X157708050Y-84234288D01*
X158121289Y-84217991D01*
X158121289Y-83875493D01*
X158120930Y-83757215D01*
X158118957Y-83654890D01*
X158114284Y-83586993D01*
X158105836Y-83545270D01*
X158092537Y-83521464D01*
X158073311Y-83507318D01*
X158035562Y-83499950D01*
X157950256Y-83493556D01*
X157820371Y-83488454D01*
X157648456Y-83484718D01*
X157437057Y-83482422D01*
X157188722Y-83481641D01*
X156352113Y-83481641D01*
X156246896Y-83419980D01*
X156167188Y-83357925D01*
X156089243Y-83249585D01*
X156046494Y-83122886D01*
X156042581Y-82990047D01*
X156081142Y-82863287D01*
X156094898Y-82839788D01*
X156151754Y-82767269D01*
X156219855Y-82702057D01*
X156315198Y-82625879D01*
X157286457Y-82625879D01*
X158257715Y-82625879D01*
X158423401Y-82704374D01*
G37*
G36*
X184603807Y-77568639D02*
G01*
X184827868Y-77577840D01*
X185024690Y-77591812D01*
X185183203Y-77610557D01*
X185208750Y-77614616D01*
X185325035Y-77634538D01*
X185456293Y-77658821D01*
X185593413Y-77685573D01*
X185727283Y-77712901D01*
X185848792Y-77738914D01*
X185948828Y-77761719D01*
X186018280Y-77779425D01*
X186048035Y-77790140D01*
X186047384Y-77795272D01*
X186033738Y-77839173D01*
X186003945Y-77925559D01*
X185959027Y-78051707D01*
X185900007Y-78214890D01*
X185827907Y-78412385D01*
X185743750Y-78641465D01*
X185648559Y-78899405D01*
X185543355Y-79183479D01*
X185429163Y-79490964D01*
X185307004Y-79819133D01*
X185177900Y-80165261D01*
X185042876Y-80526623D01*
X184902953Y-80900493D01*
X184759153Y-81284147D01*
X184612500Y-81674859D01*
X184464016Y-82069904D01*
X184314723Y-82466557D01*
X184165645Y-82862092D01*
X184017804Y-83253784D01*
X183872222Y-83638907D01*
X183729923Y-84014738D01*
X183591928Y-84378549D01*
X183459261Y-84727617D01*
X183332943Y-85059216D01*
X183213998Y-85370620D01*
X183103448Y-85659104D01*
X183002316Y-85921944D01*
X182911625Y-86156413D01*
X182832396Y-86359787D01*
X182732945Y-86613822D01*
X182618486Y-86906015D01*
X182510008Y-87182749D01*
X182408855Y-87440609D01*
X182316369Y-87676177D01*
X182233893Y-87886038D01*
X182162770Y-88066776D01*
X182104341Y-88214974D01*
X182059950Y-88327218D01*
X182030939Y-88400091D01*
X182018651Y-88430176D01*
X182015577Y-88418581D01*
X182012057Y-88360221D01*
X182008603Y-88255075D01*
X182005232Y-88104661D01*
X182001961Y-87910493D01*
X181998809Y-87674090D01*
X181995794Y-87396966D01*
X181992934Y-87080639D01*
X181990246Y-86726623D01*
X181987749Y-86336437D01*
X181985461Y-85911594D01*
X181983399Y-85453613D01*
X181982769Y-85302905D01*
X181980639Y-84833854D01*
X181978428Y-84412019D01*
X181976110Y-84035561D01*
X181973662Y-83702639D01*
X181971059Y-83411415D01*
X181968275Y-83160049D01*
X181965286Y-82946701D01*
X181962067Y-82769532D01*
X181958593Y-82626702D01*
X181954839Y-82516372D01*
X181950781Y-82436702D01*
X181946394Y-82385853D01*
X181941652Y-82361984D01*
X181917919Y-82317513D01*
X181841331Y-82216753D01*
X181745639Y-82126327D01*
X181648748Y-82064425D01*
X181630000Y-82056728D01*
X181605159Y-82049208D01*
X181572847Y-82042759D01*
X181529550Y-82037298D01*
X181471759Y-82032742D01*
X181395961Y-82029007D01*
X181298645Y-82026010D01*
X181176300Y-82023669D01*
X181025413Y-82021898D01*
X180842475Y-82020616D01*
X180623973Y-82019740D01*
X180366396Y-82019185D01*
X180066232Y-82018869D01*
X179719971Y-82018709D01*
X179371261Y-82018324D01*
X179034457Y-82017305D01*
X178738500Y-82015674D01*
X178484641Y-82013450D01*
X178274132Y-82010648D01*
X178108225Y-82007285D01*
X177988170Y-82003380D01*
X177915220Y-81998947D01*
X177890625Y-81994005D01*
X177894493Y-81971824D01*
X177916927Y-81903852D01*
X177956405Y-81804100D01*
X178009537Y-81680372D01*
X178072928Y-81540472D01*
X178143188Y-81392204D01*
X178216923Y-81243371D01*
X178274853Y-81131614D01*
X178509730Y-80723745D01*
X178770903Y-80340035D01*
X179065960Y-79969985D01*
X179402492Y-79603094D01*
X179712835Y-79303071D01*
X180155331Y-78932450D01*
X180621320Y-78605259D01*
X181111349Y-78321219D01*
X181625969Y-78080053D01*
X182165726Y-77881480D01*
X182731171Y-77725222D01*
X183322852Y-77611000D01*
X183462371Y-77594105D01*
X183656576Y-77579491D01*
X183878892Y-77569635D01*
X184118249Y-77564539D01*
X184363578Y-77564207D01*
X184603807Y-77568639D01*
G37*
G36*
X173941010Y-86055073D02*
G01*
X173941589Y-86290031D01*
X173942525Y-86689679D01*
X173943245Y-87044080D01*
X173943710Y-87356067D01*
X173943878Y-87628476D01*
X173943707Y-87864142D01*
X173943156Y-88065899D01*
X173942184Y-88236583D01*
X173940750Y-88379027D01*
X173938813Y-88496066D01*
X173936331Y-88590537D01*
X173933263Y-88665272D01*
X173929568Y-88723108D01*
X173925204Y-88766878D01*
X173920131Y-88799418D01*
X173914307Y-88823562D01*
X173907691Y-88842145D01*
X173900242Y-88858003D01*
X173850602Y-88940003D01*
X173768319Y-89021177D01*
X173656867Y-89076368D01*
X173641352Y-89081680D01*
X173567902Y-89101929D01*
X173512598Y-89110127D01*
X173473692Y-89106161D01*
X173383387Y-89081152D01*
X173291532Y-89041460D01*
X173223062Y-88996841D01*
X173214919Y-88988913D01*
X173168606Y-88930449D01*
X173125486Y-88859045D01*
X173121033Y-88850036D01*
X173110215Y-88823710D01*
X173101397Y-88791426D01*
X173094377Y-88748333D01*
X173088951Y-88689582D01*
X173084917Y-88610321D01*
X173082071Y-88505701D01*
X173080211Y-88370873D01*
X173079134Y-88200985D01*
X173078636Y-87991189D01*
X173078516Y-87736633D01*
X173078516Y-86706250D01*
X172103942Y-86706250D01*
X171908160Y-86706085D01*
X171669140Y-86705036D01*
X171470910Y-86702569D01*
X171308295Y-86698169D01*
X171176125Y-86691323D01*
X171069228Y-86681519D01*
X170982430Y-86668242D01*
X170910560Y-86650979D01*
X170848446Y-86629216D01*
X170790915Y-86602441D01*
X170732795Y-86570140D01*
X170580902Y-86456981D01*
X170444338Y-86306623D01*
X170339943Y-86135742D01*
X170263184Y-85974512D01*
X170263184Y-84647461D01*
X170263184Y-84646562D01*
X171118945Y-84646562D01*
X171118946Y-84669995D01*
X171119138Y-84933499D01*
X171119765Y-85152051D01*
X171120973Y-85329958D01*
X171122907Y-85471529D01*
X171125713Y-85581070D01*
X171129537Y-85662890D01*
X171134524Y-85721296D01*
X171140821Y-85760596D01*
X171148572Y-85785097D01*
X171157924Y-85799107D01*
X171160190Y-85801211D01*
X171177031Y-85810947D01*
X171205835Y-85818837D01*
X171251309Y-85825067D01*
X171318156Y-85829825D01*
X171411084Y-85833298D01*
X171534798Y-85835674D01*
X171694003Y-85837139D01*
X171893405Y-85837880D01*
X172137709Y-85838086D01*
X173078516Y-85838086D01*
X173078516Y-84700915D01*
X173078516Y-84700433D01*
X173078421Y-84432766D01*
X173078025Y-84210331D01*
X173077160Y-84028757D01*
X173075658Y-83883673D01*
X173073350Y-83770709D01*
X173070067Y-83685495D01*
X173065642Y-83623659D01*
X173059907Y-83580831D01*
X173052693Y-83552641D01*
X173043831Y-83534718D01*
X173033154Y-83522692D01*
X173031434Y-83521187D01*
X173014216Y-83510559D01*
X172987028Y-83501999D01*
X172944915Y-83495288D01*
X172882923Y-83490208D01*
X172796096Y-83486542D01*
X172679480Y-83484070D01*
X172528119Y-83482575D01*
X172337060Y-83481838D01*
X172101348Y-83481641D01*
X172067937Y-83481652D01*
X171814509Y-83482568D01*
X171599369Y-83484912D01*
X171424779Y-83488621D01*
X171293000Y-83493633D01*
X171206295Y-83499886D01*
X171166924Y-83507318D01*
X171164515Y-83508649D01*
X171153538Y-83517008D01*
X171144481Y-83531274D01*
X171137158Y-83555817D01*
X171131387Y-83595007D01*
X171126982Y-83653215D01*
X171123759Y-83734810D01*
X171121535Y-83844164D01*
X171120126Y-83985645D01*
X171119348Y-84163625D01*
X171119015Y-84382474D01*
X171118945Y-84646562D01*
X170263184Y-84646562D01*
X170263184Y-83320410D01*
X170334916Y-83183985D01*
X170395904Y-83075100D01*
X170471168Y-82966540D01*
X170554255Y-82879768D01*
X170657375Y-82800258D01*
X170676301Y-82787292D01*
X170739898Y-82745666D01*
X170800610Y-82711267D01*
X170863686Y-82683409D01*
X170934376Y-82661403D01*
X171017928Y-82644563D01*
X171119593Y-82632199D01*
X171244620Y-82623626D01*
X171398257Y-82618154D01*
X171585754Y-82615097D01*
X171812361Y-82613767D01*
X172083327Y-82613477D01*
X172315136Y-82613699D01*
X172548382Y-82614829D01*
X172741534Y-82617387D01*
X172899754Y-82621887D01*
X173028200Y-82628844D01*
X173132033Y-82638772D01*
X173216413Y-82652186D01*
X173286499Y-82669600D01*
X173347452Y-82691528D01*
X173404432Y-82718485D01*
X173462599Y-82750986D01*
X173549204Y-82811241D01*
X173673880Y-82927595D01*
X173785058Y-83063868D01*
X173867800Y-83203380D01*
X173934277Y-83345215D01*
X173937644Y-84700433D01*
X173941010Y-86055073D01*
G37*
G36*
X161209473Y-82618919D02*
G01*
X161221326Y-82618998D01*
X161474118Y-82620755D01*
X161682559Y-82622512D01*
X161851691Y-82624543D01*
X161986558Y-82627124D01*
X162092202Y-82630532D01*
X162173664Y-82635042D01*
X162235989Y-82640931D01*
X162284218Y-82648475D01*
X162323393Y-82657949D01*
X162358558Y-82669630D01*
X162394754Y-82683793D01*
X162534930Y-82758559D01*
X162684453Y-82877287D01*
X162815251Y-83021734D01*
X162914356Y-83179527D01*
X162995410Y-83344172D01*
X162995410Y-83877994D01*
X162995354Y-83971152D01*
X162994651Y-84127282D01*
X162992608Y-84245311D01*
X162988563Y-84332951D01*
X162981854Y-84397914D01*
X162971819Y-84447912D01*
X162957797Y-84490658D01*
X162939125Y-84533864D01*
X162879336Y-84645742D01*
X162741971Y-84823471D01*
X162569791Y-84967216D01*
X162366483Y-85073503D01*
X162329362Y-85087489D01*
X162286623Y-85100579D01*
X162237850Y-85110937D01*
X162176818Y-85119040D01*
X162097303Y-85125369D01*
X161993080Y-85130403D01*
X161857926Y-85134620D01*
X161685614Y-85138500D01*
X161469922Y-85142522D01*
X160713379Y-85155957D01*
X160706381Y-85463979D01*
X160705133Y-85550025D01*
X160707039Y-85676102D01*
X160714132Y-85760290D01*
X160726190Y-85798842D01*
X160730607Y-85801250D01*
X160777565Y-85809227D01*
X160873560Y-85816463D01*
X161018705Y-85822963D01*
X161213115Y-85828730D01*
X161456902Y-85833770D01*
X161750180Y-85838086D01*
X161990758Y-85841119D01*
X162195931Y-85843964D01*
X162361100Y-85846823D01*
X162491149Y-85850013D01*
X162590966Y-85853854D01*
X162665434Y-85858663D01*
X162719439Y-85864760D01*
X162757867Y-85872462D01*
X162785603Y-85882089D01*
X162807532Y-85893958D01*
X162828540Y-85908388D01*
X162874161Y-85946401D01*
X162954092Y-86053962D01*
X162998007Y-86180114D01*
X163004615Y-86313295D01*
X162972623Y-86441942D01*
X162900740Y-86554493D01*
X162889387Y-86565861D01*
X162823940Y-86615990D01*
X162747363Y-86659368D01*
X162721727Y-86670006D01*
X162689208Y-86679662D01*
X162647285Y-86687387D01*
X162590932Y-86693396D01*
X162515124Y-86697903D01*
X162414836Y-86701122D01*
X162285040Y-86703268D01*
X162120713Y-86704555D01*
X161916828Y-86705198D01*
X161668359Y-86705411D01*
X161451160Y-86705313D01*
X161223031Y-86704490D01*
X161034898Y-86702439D01*
X160881443Y-86698676D01*
X160757350Y-86692718D01*
X160657303Y-86684079D01*
X160575984Y-86672276D01*
X160508078Y-86656826D01*
X160448267Y-86637244D01*
X160391236Y-86613047D01*
X160331667Y-86583750D01*
X160223194Y-86513441D01*
X160101609Y-86404479D01*
X159994957Y-86279331D01*
X159919024Y-86154420D01*
X159899896Y-86111410D01*
X159859539Y-86000706D01*
X159832229Y-85884485D01*
X159816453Y-85751848D01*
X159810700Y-85591896D01*
X159813456Y-85393730D01*
X159818247Y-85261933D01*
X159826074Y-85137181D01*
X159837317Y-85042758D01*
X159853313Y-84968058D01*
X159875398Y-84902473D01*
X159964489Y-84728757D01*
X160089270Y-84567460D01*
X160235677Y-84440469D01*
X160294902Y-84400529D01*
X160357955Y-84361551D01*
X160419051Y-84330831D01*
X160484635Y-84307289D01*
X160561154Y-84289842D01*
X160655052Y-84277408D01*
X160772775Y-84268903D01*
X160920769Y-84263247D01*
X161105480Y-84259355D01*
X161333353Y-84256148D01*
X161501183Y-84253545D01*
X161703476Y-84248894D01*
X161868419Y-84243149D01*
X161992946Y-84236451D01*
X162073994Y-84228939D01*
X162108500Y-84220754D01*
X162113632Y-84214202D01*
X162127806Y-84164145D01*
X162137204Y-84080019D01*
X162141957Y-83973624D01*
X162142197Y-83856761D01*
X162138056Y-83741228D01*
X162129667Y-83638828D01*
X162117161Y-83561358D01*
X162100670Y-83520620D01*
X162097526Y-83517781D01*
X162080094Y-83508240D01*
X162050424Y-83500508D01*
X162003845Y-83494402D01*
X161935686Y-83489739D01*
X161841274Y-83486335D01*
X161715940Y-83484006D01*
X161555011Y-83482570D01*
X161353817Y-83481842D01*
X161107686Y-83481641D01*
X160864850Y-83481488D01*
X160650884Y-83480656D01*
X160476990Y-83478609D01*
X160338260Y-83474811D01*
X160229785Y-83468729D01*
X160146658Y-83459826D01*
X160083968Y-83447567D01*
X160036807Y-83431418D01*
X160000268Y-83410843D01*
X159969440Y-83385307D01*
X159939416Y-83354274D01*
X159865307Y-83248524D01*
X159822332Y-83118515D01*
X159821483Y-82986451D01*
X159861216Y-82861392D01*
X159939988Y-82752398D01*
X160056255Y-82668528D01*
X160167676Y-82611958D01*
X161209473Y-82618919D01*
G37*
%TD*%
M02*
