M48
; DRILL file {KiCad 9.0.0} date 2025-05-07T15:13:21+0200
; FORMAT={-:-/ absolute / metric / decimal}
; #@! TF.CreationDate,2025-05-07T15:13:21+02:00
; #@! TF.GenerationSoftware,Kicad,Pcbnew,9.0.0
; #@! TF.FileFunction,Plated,1,4,PTH
FMAT,2
METRIC
; #@! TA.AperFunction,Plated,PTH,ViaDrill
T1C0.200
; #@! TA.AperFunction,Plated,PTH,ComponentDrill
T2C0.750
; #@! TA.AperFunction,Plated,PTH,ComponentDrill
T3C1.000
; #@! TA.AperFunction,Plated,PTH,ComponentDrill
T4C3.000
%
G90
G05
T1
X159.61Y-123.03
X159.65Y-114.32
X160.45Y-127.6
X161.5Y-114.95
X164.65Y-107.56
X165.51Y-115.6
X165.67Y-110.94
X166.08Y-104.64
X166.15Y-115.6
X166.27Y-110.92
X169.48Y-127.55
X170.21Y-103.0
X170.4Y-95.34
X172.44Y-106.63
X173.09Y-106.63
X173.8Y-106.64
X173.87Y-102.48
X174.09Y-107.66
X174.09Y-108.95
X174.1Y-108.24
X174.17Y-111.0
X174.22Y-123.16
X174.24Y-105.26
X174.29Y-102.92
X174.6Y-105.67
X174.73Y-103.37
X174.99Y-106.04
X175.329Y-110.965
X177.03Y-104.64
X177.05Y-107.57
X177.96Y-103.29
X179.04Y-107.55
X180.18Y-124.68
X180.84Y-124.72
X181.02Y-127.67
X182.53Y-124.62
X182.54Y-127.64
X183.72Y-123.36
X184.15Y-127.62
X184.79Y-127.63
X186.14Y-121.32
X186.52Y-126.9
X186.84Y-121.35
X190.51Y-124.31
X190.81Y-121.82
T2
X155.49Y-119.44
X155.51Y-113.1
X155.51Y-133.03
X157.49Y-119.44
X157.51Y-133.03
X157.51Y-113.1
X159.49Y-119.44
X159.51Y-113.1
X159.51Y-133.03
X160.75Y-99.26
X161.49Y-119.44
X161.51Y-113.1
X161.51Y-133.03
X162.75Y-99.26
X163.0Y-92.25
X163.49Y-119.44
X163.51Y-113.1
X163.51Y-133.03
X164.75Y-99.26
X165.0Y-92.25
X165.49Y-119.44
X165.51Y-113.1
X165.51Y-133.03
X166.75Y-99.26
X167.0Y-92.25
X168.75Y-99.26
X169.0Y-92.25
X169.92Y-119.51
X170.08Y-133.03
X170.18Y-113.06
X170.75Y-99.26
X171.92Y-119.51
X172.08Y-133.03
X172.18Y-113.06
X173.92Y-119.51
X174.08Y-133.03
X174.18Y-113.06
X174.96Y-97.44
X174.96Y-99.44
X175.92Y-119.51
X176.08Y-133.03
X176.18Y-113.06
X177.92Y-119.51
X178.08Y-133.03
X178.18Y-113.06
X179.92Y-97.44
X179.92Y-99.44
X179.92Y-119.51
X180.08Y-133.03
X180.18Y-113.06
X184.4Y-112.74
X184.4Y-114.74
X184.92Y-97.44
X184.92Y-99.44
X189.22Y-120.23
X189.22Y-122.23
X189.22Y-124.23
X189.22Y-126.23
X189.22Y-128.23
X189.22Y-130.23
X189.63Y-112.73
X189.63Y-114.73
T3
X187.2Y-91.23
X189.75Y-91.23
T4
X176.63Y-91.23
X182.25Y-91.23
M30
