%TF.GenerationSoftware,KiCad,Pcbnew,9.0.0*%
%TF.CreationDate,2025-05-07T15:13:19+02:00*%
%TF.ProjectId,connecteur_v2,636f6e6e-6563-4746-9575-725f76322e6b,rev?*%
%TF.SameCoordinates,Original*%
%TF.FileFunction,Legend,Bot*%
%TF.FilePolarity,Positive*%
%FSLAX46Y46*%
G04 Gerber Fmt 4.6, Leading zero omitted, Abs format (unit mm)*
G04 Created by KiCad (PCBNEW 9.0.0) date 2025-05-07 15:13:19*
%MOMM*%
%LPD*%
G01*
G04 APERTURE LIST*
%ADD10C,0.150000*%
%ADD11C,0.120000*%
G04 APERTURE END LIST*
D10*
X167954819Y-105305476D02*
X168669104Y-105305476D01*
X168669104Y-105305476D02*
X168811961Y-105257857D01*
X168811961Y-105257857D02*
X168907200Y-105162619D01*
X168907200Y-105162619D02*
X168954819Y-105019762D01*
X168954819Y-105019762D02*
X168954819Y-104924524D01*
X167954819Y-105686429D02*
X167954819Y-106305476D01*
X167954819Y-106305476D02*
X168335771Y-105972143D01*
X168335771Y-105972143D02*
X168335771Y-106115000D01*
X168335771Y-106115000D02*
X168383390Y-106210238D01*
X168383390Y-106210238D02*
X168431009Y-106257857D01*
X168431009Y-106257857D02*
X168526247Y-106305476D01*
X168526247Y-106305476D02*
X168764342Y-106305476D01*
X168764342Y-106305476D02*
X168859580Y-106257857D01*
X168859580Y-106257857D02*
X168907200Y-106210238D01*
X168907200Y-106210238D02*
X168954819Y-106115000D01*
X168954819Y-106115000D02*
X168954819Y-105829286D01*
X168954819Y-105829286D02*
X168907200Y-105734048D01*
X168907200Y-105734048D02*
X168859580Y-105686429D01*
X168050057Y-106686429D02*
X168002438Y-106734048D01*
X168002438Y-106734048D02*
X167954819Y-106829286D01*
X167954819Y-106829286D02*
X167954819Y-107067381D01*
X167954819Y-107067381D02*
X168002438Y-107162619D01*
X168002438Y-107162619D02*
X168050057Y-107210238D01*
X168050057Y-107210238D02*
X168145295Y-107257857D01*
X168145295Y-107257857D02*
X168240533Y-107257857D01*
X168240533Y-107257857D02*
X168383390Y-107210238D01*
X168383390Y-107210238D02*
X168954819Y-106638810D01*
X168954819Y-106638810D02*
X168954819Y-107257857D01*
X156944819Y-105310476D02*
X157659104Y-105310476D01*
X157659104Y-105310476D02*
X157801961Y-105262857D01*
X157801961Y-105262857D02*
X157897200Y-105167619D01*
X157897200Y-105167619D02*
X157944819Y-105024762D01*
X157944819Y-105024762D02*
X157944819Y-104929524D01*
X157944819Y-106310476D02*
X157944819Y-105739048D01*
X157944819Y-106024762D02*
X156944819Y-106024762D01*
X156944819Y-106024762D02*
X157087676Y-105929524D01*
X157087676Y-105929524D02*
X157182914Y-105834286D01*
X157182914Y-105834286D02*
X157230533Y-105739048D01*
X156944819Y-106929524D02*
X156944819Y-107024762D01*
X156944819Y-107024762D02*
X156992438Y-107120000D01*
X156992438Y-107120000D02*
X157040057Y-107167619D01*
X157040057Y-107167619D02*
X157135295Y-107215238D01*
X157135295Y-107215238D02*
X157325771Y-107262857D01*
X157325771Y-107262857D02*
X157563866Y-107262857D01*
X157563866Y-107262857D02*
X157754342Y-107215238D01*
X157754342Y-107215238D02*
X157849580Y-107167619D01*
X157849580Y-107167619D02*
X157897200Y-107120000D01*
X157897200Y-107120000D02*
X157944819Y-107024762D01*
X157944819Y-107024762D02*
X157944819Y-106929524D01*
X157944819Y-106929524D02*
X157897200Y-106834286D01*
X157897200Y-106834286D02*
X157849580Y-106786667D01*
X157849580Y-106786667D02*
X157754342Y-106739048D01*
X157754342Y-106739048D02*
X157563866Y-106691429D01*
X157563866Y-106691429D02*
X157325771Y-106691429D01*
X157325771Y-106691429D02*
X157135295Y-106739048D01*
X157135295Y-106739048D02*
X157040057Y-106786667D01*
X157040057Y-106786667D02*
X156992438Y-106834286D01*
X156992438Y-106834286D02*
X156944819Y-106929524D01*
X178954819Y-105295476D02*
X179669104Y-105295476D01*
X179669104Y-105295476D02*
X179811961Y-105247857D01*
X179811961Y-105247857D02*
X179907200Y-105152619D01*
X179907200Y-105152619D02*
X179954819Y-105009762D01*
X179954819Y-105009762D02*
X179954819Y-104914524D01*
X178954819Y-106247857D02*
X178954819Y-105771667D01*
X178954819Y-105771667D02*
X179431009Y-105724048D01*
X179431009Y-105724048D02*
X179383390Y-105771667D01*
X179383390Y-105771667D02*
X179335771Y-105866905D01*
X179335771Y-105866905D02*
X179335771Y-106105000D01*
X179335771Y-106105000D02*
X179383390Y-106200238D01*
X179383390Y-106200238D02*
X179431009Y-106247857D01*
X179431009Y-106247857D02*
X179526247Y-106295476D01*
X179526247Y-106295476D02*
X179764342Y-106295476D01*
X179764342Y-106295476D02*
X179859580Y-106247857D01*
X179859580Y-106247857D02*
X179907200Y-106200238D01*
X179907200Y-106200238D02*
X179954819Y-106105000D01*
X179954819Y-106105000D02*
X179954819Y-105866905D01*
X179954819Y-105866905D02*
X179907200Y-105771667D01*
X179907200Y-105771667D02*
X179859580Y-105724048D01*
X179288152Y-107152619D02*
X179954819Y-107152619D01*
X178907200Y-106914524D02*
X179621485Y-106676429D01*
X179621485Y-106676429D02*
X179621485Y-107295476D01*
X188439819Y-125320476D02*
X189154104Y-125320476D01*
X189154104Y-125320476D02*
X189296961Y-125272857D01*
X189296961Y-125272857D02*
X189392200Y-125177619D01*
X189392200Y-125177619D02*
X189439819Y-125034762D01*
X189439819Y-125034762D02*
X189439819Y-124939524D01*
X188439819Y-126272857D02*
X188439819Y-125796667D01*
X188439819Y-125796667D02*
X188916009Y-125749048D01*
X188916009Y-125749048D02*
X188868390Y-125796667D01*
X188868390Y-125796667D02*
X188820771Y-125891905D01*
X188820771Y-125891905D02*
X188820771Y-126130000D01*
X188820771Y-126130000D02*
X188868390Y-126225238D01*
X188868390Y-126225238D02*
X188916009Y-126272857D01*
X188916009Y-126272857D02*
X189011247Y-126320476D01*
X189011247Y-126320476D02*
X189249342Y-126320476D01*
X189249342Y-126320476D02*
X189344580Y-126272857D01*
X189344580Y-126272857D02*
X189392200Y-126225238D01*
X189392200Y-126225238D02*
X189439819Y-126130000D01*
X189439819Y-126130000D02*
X189439819Y-125891905D01*
X189439819Y-125891905D02*
X189392200Y-125796667D01*
X189392200Y-125796667D02*
X189344580Y-125749048D01*
X188439819Y-126653810D02*
X188439819Y-127320476D01*
X188439819Y-127320476D02*
X189439819Y-126891905D01*
X166389819Y-125310476D02*
X167104104Y-125310476D01*
X167104104Y-125310476D02*
X167246961Y-125262857D01*
X167246961Y-125262857D02*
X167342200Y-125167619D01*
X167342200Y-125167619D02*
X167389819Y-125024762D01*
X167389819Y-125024762D02*
X167389819Y-124929524D01*
X167389819Y-126310476D02*
X167389819Y-125739048D01*
X167389819Y-126024762D02*
X166389819Y-126024762D01*
X166389819Y-126024762D02*
X166532676Y-125929524D01*
X166532676Y-125929524D02*
X166627914Y-125834286D01*
X166627914Y-125834286D02*
X166675533Y-125739048D01*
X166389819Y-126643810D02*
X166389819Y-127262857D01*
X166389819Y-127262857D02*
X166770771Y-126929524D01*
X166770771Y-126929524D02*
X166770771Y-127072381D01*
X166770771Y-127072381D02*
X166818390Y-127167619D01*
X166818390Y-127167619D02*
X166866009Y-127215238D01*
X166866009Y-127215238D02*
X166961247Y-127262857D01*
X166961247Y-127262857D02*
X167199342Y-127262857D01*
X167199342Y-127262857D02*
X167294580Y-127215238D01*
X167294580Y-127215238D02*
X167342200Y-127167619D01*
X167342200Y-127167619D02*
X167389819Y-127072381D01*
X167389819Y-127072381D02*
X167389819Y-126786667D01*
X167389819Y-126786667D02*
X167342200Y-126691429D01*
X167342200Y-126691429D02*
X167294580Y-126643810D01*
X177429819Y-125320476D02*
X178144104Y-125320476D01*
X178144104Y-125320476D02*
X178286961Y-125272857D01*
X178286961Y-125272857D02*
X178382200Y-125177619D01*
X178382200Y-125177619D02*
X178429819Y-125034762D01*
X178429819Y-125034762D02*
X178429819Y-124939524D01*
X177429819Y-125701429D02*
X177429819Y-126320476D01*
X177429819Y-126320476D02*
X177810771Y-125987143D01*
X177810771Y-125987143D02*
X177810771Y-126130000D01*
X177810771Y-126130000D02*
X177858390Y-126225238D01*
X177858390Y-126225238D02*
X177906009Y-126272857D01*
X177906009Y-126272857D02*
X178001247Y-126320476D01*
X178001247Y-126320476D02*
X178239342Y-126320476D01*
X178239342Y-126320476D02*
X178334580Y-126272857D01*
X178334580Y-126272857D02*
X178382200Y-126225238D01*
X178382200Y-126225238D02*
X178429819Y-126130000D01*
X178429819Y-126130000D02*
X178429819Y-125844286D01*
X178429819Y-125844286D02*
X178382200Y-125749048D01*
X178382200Y-125749048D02*
X178334580Y-125701429D01*
X177429819Y-127225238D02*
X177429819Y-126749048D01*
X177429819Y-126749048D02*
X177906009Y-126701429D01*
X177906009Y-126701429D02*
X177858390Y-126749048D01*
X177858390Y-126749048D02*
X177810771Y-126844286D01*
X177810771Y-126844286D02*
X177810771Y-127082381D01*
X177810771Y-127082381D02*
X177858390Y-127177619D01*
X177858390Y-127177619D02*
X177906009Y-127225238D01*
X177906009Y-127225238D02*
X178001247Y-127272857D01*
X178001247Y-127272857D02*
X178239342Y-127272857D01*
X178239342Y-127272857D02*
X178334580Y-127225238D01*
X178334580Y-127225238D02*
X178382200Y-127177619D01*
X178382200Y-127177619D02*
X178429819Y-127082381D01*
X178429819Y-127082381D02*
X178429819Y-126844286D01*
X178429819Y-126844286D02*
X178382200Y-126749048D01*
X178382200Y-126749048D02*
X178334580Y-126701429D01*
D11*
%TO.C,J32*%
X169940000Y-104055000D02*
X169940000Y-108175000D01*
X169940000Y-104055000D02*
X170240000Y-104055000D01*
X169940000Y-108175000D02*
X170240000Y-108175000D01*
X170240000Y-108175000D02*
X170240000Y-110555000D01*
X171760000Y-104055000D02*
X172240000Y-104055000D01*
X171760000Y-108175000D02*
X172240000Y-108175000D01*
X173760001Y-104055000D02*
X174240000Y-104055000D01*
X173760001Y-108175000D02*
X174240000Y-108175000D01*
X175760000Y-104055000D02*
X176239999Y-104055000D01*
X175760000Y-108175000D02*
X176239999Y-108175000D01*
X177760000Y-104055000D02*
X178240000Y-104055000D01*
X177760000Y-108175000D02*
X178240000Y-108175000D01*
X179760000Y-104055000D02*
X180060000Y-104055000D01*
X179760000Y-108175000D02*
X180060000Y-108175000D01*
X180060000Y-104055000D02*
X180060000Y-108175000D01*
%TO.C,J10*%
X158930000Y-104060000D02*
X158930000Y-108180000D01*
X158930000Y-104060000D02*
X159230000Y-104060000D01*
X158930000Y-108180000D02*
X159230000Y-108180000D01*
X159230000Y-108180000D02*
X159230000Y-110560000D01*
X160750000Y-104060000D02*
X161230000Y-104060000D01*
X160750000Y-108180000D02*
X161230000Y-108180000D01*
X162750001Y-104060000D02*
X163230000Y-104060000D01*
X162750001Y-108180000D02*
X163230000Y-108180000D01*
X164750000Y-104060000D02*
X165229999Y-104060000D01*
X164750000Y-108180000D02*
X165229999Y-108180000D01*
X166750000Y-104060000D02*
X167230000Y-104060000D01*
X166750000Y-108180000D02*
X167230000Y-108180000D01*
X168750000Y-104060000D02*
X169050000Y-104060000D01*
X168750000Y-108180000D02*
X169050000Y-108180000D01*
X169050000Y-104060000D02*
X169050000Y-108180000D01*
%TO.C,J54*%
X180940000Y-104045000D02*
X180940000Y-108165000D01*
X180940000Y-104045000D02*
X181240000Y-104045000D01*
X180940000Y-108165000D02*
X181240000Y-108165000D01*
X181240000Y-108165000D02*
X181240000Y-110545000D01*
X182760000Y-104045000D02*
X183240000Y-104045000D01*
X182760000Y-108165000D02*
X183240000Y-108165000D01*
X184760001Y-104045000D02*
X185240000Y-104045000D01*
X184760001Y-108165000D02*
X185240000Y-108165000D01*
X186760000Y-104045000D02*
X187239999Y-104045000D01*
X186760000Y-108165000D02*
X187239999Y-108165000D01*
X188760000Y-104045000D02*
X189240000Y-104045000D01*
X188760000Y-108165000D02*
X189240000Y-108165000D01*
X190760000Y-104045000D02*
X191060000Y-104045000D01*
X190760000Y-108165000D02*
X191060000Y-108165000D01*
X191060000Y-104045000D02*
X191060000Y-108165000D01*
%TO.C,J57*%
X177425000Y-128190000D02*
X177425000Y-124070000D01*
X177725000Y-124070000D02*
X177425000Y-124070000D01*
X177725000Y-128190000D02*
X177425000Y-128190000D01*
X179725000Y-124070000D02*
X179245000Y-124070000D01*
X179725000Y-128190000D02*
X179245000Y-128190000D01*
X181725000Y-124070000D02*
X181245001Y-124070000D01*
X181725000Y-128190000D02*
X181245001Y-128190000D01*
X183724999Y-124070000D02*
X183245000Y-124070000D01*
X183724999Y-128190000D02*
X183245000Y-128190000D01*
X185725000Y-124070000D02*
X185245000Y-124070000D01*
X185725000Y-128190000D02*
X185245000Y-128190000D01*
X187245000Y-124070000D02*
X187245000Y-121690000D01*
X187545000Y-124070000D02*
X187245000Y-124070000D01*
X187545000Y-128190000D02*
X187245000Y-128190000D01*
X187545000Y-128190000D02*
X187545000Y-124070000D01*
%TO.C,J13*%
X155375000Y-128180000D02*
X155375000Y-124060000D01*
X155675000Y-124060000D02*
X155375000Y-124060000D01*
X155675000Y-128180000D02*
X155375000Y-128180000D01*
X157675000Y-124060000D02*
X157195000Y-124060000D01*
X157675000Y-128180000D02*
X157195000Y-128180000D01*
X159675000Y-124060000D02*
X159195001Y-124060000D01*
X159675000Y-128180000D02*
X159195001Y-128180000D01*
X161674999Y-124060000D02*
X161195000Y-124060000D01*
X161674999Y-128180000D02*
X161195000Y-128180000D01*
X163675000Y-124060000D02*
X163195000Y-124060000D01*
X163675000Y-128180000D02*
X163195000Y-128180000D01*
X165195000Y-124060000D02*
X165195000Y-121680000D01*
X165495000Y-124060000D02*
X165195000Y-124060000D01*
X165495000Y-128180000D02*
X165195000Y-128180000D01*
X165495000Y-128180000D02*
X165495000Y-124060000D01*
%TO.C,J35*%
X166415000Y-128190000D02*
X166415000Y-124070000D01*
X166715000Y-124070000D02*
X166415000Y-124070000D01*
X166715000Y-128190000D02*
X166415000Y-128190000D01*
X168715000Y-124070000D02*
X168235000Y-124070000D01*
X168715000Y-128190000D02*
X168235000Y-128190000D01*
X170715000Y-124070000D02*
X170235001Y-124070000D01*
X170715000Y-128190000D02*
X170235001Y-128190000D01*
X172714999Y-124070000D02*
X172235000Y-124070000D01*
X172714999Y-128190000D02*
X172235000Y-128190000D01*
X174715000Y-124070000D02*
X174235000Y-124070000D01*
X174715000Y-128190000D02*
X174235000Y-128190000D01*
X176235000Y-124070000D02*
X176235000Y-121690000D01*
X176535000Y-124070000D02*
X176235000Y-124070000D01*
X176535000Y-128190000D02*
X176235000Y-128190000D01*
X176535000Y-128190000D02*
X176535000Y-124070000D01*
%TD*%
M02*
